<svg width="325" height="70" viewBox="0 0 325 70" fill="none" xmlns="http://www.w3.org/2000/svg">
<path d="M2.10469 18.1322C2.10469 9.61122 9.0123 2.70361 17.5333 2.70361H306.819C315.34 2.70361 322.248 9.61122 322.248 18.1322V51.4179C322.248 59.9389 315.34 66.8465 306.819 66.8465H17.5333C9.01231 66.8465 2.10469 59.9389 2.10469 51.4179V18.1322Z" fill="#18466F"/>
<path d="M2.10469 18.1322C2.10469 9.61122 9.0123 2.70361 17.5333 2.70361H306.819C315.34 2.70361 322.248 9.61122 322.248 18.1322V51.4179C322.248 59.9389 315.34 66.8465 306.819 66.8465H17.5333C9.01231 66.8465 2.10469 59.9389 2.10469 51.4179V18.1322Z" fill="black" fill-opacity="0.2"/>
<path d="M34.8904 3.41041L34.7537 1.48669L34.8904 3.41041ZM69.6047 2.67236L69.8492 0.759353L69.6047 2.67236ZM150.605 2.59924L150.405 0.681042L150.605 2.59924ZM196.89 3.44497L196.764 5.36936L196.89 3.44497ZM220.033 2.16412L219.93 0.238294L220.033 2.16412ZM254.748 2.6551L254.475 0.745953L254.748 2.6551ZM289.462 2.21898L289.629 4.14026L289.462 2.21898ZM312.312 4.39823L312.954 2.57982L312.312 4.39823ZM322.578 22.7943L320.656 22.6307L322.578 22.7943ZM312.651 64.1269L311.928 62.3393L312.651 64.1269ZM301.776 66.3824L301.713 64.4548L301.776 66.3824ZM290.22 66.2727L290.319 64.3467L290.22 66.2727ZM255.505 66.7458L255.257 64.8333L255.505 66.7458ZM243.934 66.9274L243.745 68.8466L243.934 66.9274ZM232.363 67.1674L232.095 65.2575L232.363 67.1674ZM220.791 66.9376L220.45 68.8357L220.791 66.9376ZM209.22 66.8104L209.521 68.7154L209.22 66.8104ZM197.648 67.3152L197.784 65.3914L197.648 67.3152ZM174.505 66.987L174.711 68.9047L174.505 66.987ZM162.934 67.1016L162.767 69.0229L162.934 67.1016ZM139.791 67.0891L139.735 69.0169L139.791 67.0891ZM58.7912 67.7582L58.7217 65.8309L58.7912 67.7582ZM24.0769 67.3381L24.2175 65.4147L24.0769 67.3381ZM11.0785 5.54675L10.2065 3.82656L11.0785 5.54675ZM23.319 3.26251L23.1335 5.18215C27.0975 5.56507 31.0624 5.61578 35.0271 5.33414L34.8904 3.41041L34.7537 1.48669C31.0041 1.75305 27.2547 1.70516 23.5044 1.34288L23.319 3.26251ZM34.8904 3.41041L35.0271 5.33414C38.8848 5.06009 42.7425 4.78432 46.6002 4.50683L46.4618 2.58322L46.3235 0.659623C42.4669 0.937039 38.6103 1.21273 34.7537 1.48669L34.8904 3.41041ZM46.4618 2.58322L46.6002 4.50683C50.4244 4.23174 54.2484 4.0555 58.0723 3.97809L58.0333 2.04992L57.9942 0.121741C54.1039 0.200495 50.2136 0.379793 46.3235 0.659623L46.4618 2.58322ZM58.0333 2.04992L58.0723 3.97809C61.8339 3.90195 65.5963 4.10425 69.3602 4.58536L69.6047 2.67236L69.8492 0.759353C65.8988 0.254388 61.9469 0.0417261 57.9942 0.121741L58.0333 2.04992ZM69.6047 2.67236L69.3602 4.58536C73.3553 5.09605 77.3525 5.17139 81.3493 4.81098L81.1761 2.89021L81.0029 0.969428C77.2855 1.30464 73.5684 1.23476 69.8492 0.759353L69.6047 2.67236ZM81.1761 2.89021L81.3493 4.81098C85.1163 4.47131 88.8825 4.39821 92.6487 4.59158L92.7475 2.66555L92.8464 0.739513C88.8983 0.536804 84.9503 0.613482 81.0029 0.969428L81.1761 2.89021ZM92.7475 2.66555L92.6487 4.59158C96.5096 4.78981 100.37 4.97666 104.231 5.15213L104.319 3.22555L104.407 1.29897C100.553 1.12384 96.6998 0.937358 92.8464 0.739513L92.7475 2.66555ZM104.319 3.22555L104.231 5.15213C108.193 5.33217 112.154 5.19093 116.114 4.72872L115.89 2.81315L115.667 0.897587C111.912 1.33583 108.159 1.46951 104.407 1.29897L104.319 3.22555ZM115.89 2.81315L116.114 4.72872C119.847 4.29293 123.579 4.22125 127.311 4.51335L127.462 2.59066L127.612 0.667965C123.63 0.356281 119.648 0.432923 115.667 0.897587L115.89 2.81315ZM127.462 2.59066L127.311 4.51335C131.21 4.81846 135.108 4.99771 139.007 5.05106L139.033 3.12267L139.06 1.19427C135.244 1.14206 131.428 0.966637 127.612 0.667965L127.462 2.59066ZM139.033 3.12267L139.007 5.05106C142.94 5.10487 146.873 4.92695 150.804 4.51743L150.605 2.59924L150.405 0.681042C146.622 1.07499 142.841 1.24601 139.06 1.19427L139.033 3.12267ZM150.605 2.59924L150.804 4.51743C154.599 4.12224 158.393 3.91518 162.186 3.89613L162.176 1.96758L162.166 0.0390315C158.245 0.0587263 154.325 0.272768 150.405 0.681042L150.605 2.59924ZM162.176 1.96758L162.186 3.89613C165.988 3.87703 169.79 4.0215 173.592 4.32958L173.748 2.40731L173.903 0.485039C169.991 0.168066 166.079 0.0193794 162.166 0.0390315L162.176 1.96758ZM173.748 2.40731L173.592 4.32958C177.49 4.64546 181.389 4.83499 185.288 4.89814L185.319 2.96982L185.35 1.04151C181.535 0.9797 177.719 0.79422 173.903 0.485039L173.748 2.40731ZM185.319 2.96982L185.288 4.89814C189.113 4.96011 192.938 5.11718 196.764 5.36936L196.89 3.44497L197.017 1.52057C193.128 1.2642 189.239 1.10451 185.35 1.04151L185.319 2.96982ZM196.89 3.44497L196.764 5.36936C200.738 5.63139 204.713 5.52993 208.686 5.06532L208.462 3.1498L208.238 1.23428C204.497 1.67178 200.757 1.7671 197.017 1.52057L196.89 3.44497ZM208.462 3.1498L208.686 5.06532C212.503 4.61894 216.32 4.29383 220.136 4.08994L220.033 2.16412L219.93 0.238294C216.033 0.446529 212.135 0.77854 208.238 1.23428L208.462 3.1498ZM220.033 2.16412L220.136 4.08994C223.883 3.88977 227.63 4.01026 231.379 4.45177L231.605 2.53643L231.83 0.6211C227.865 0.154063 223.898 0.026345 219.93 0.238294L220.033 2.16412ZM231.605 2.53643L231.379 4.45177C235.296 4.91309 239.214 5.18862 243.132 5.27823L243.176 3.35016L243.22 1.42209C239.424 1.33528 235.628 1.06832 231.83 0.6211L231.605 2.53643ZM243.176 3.35016L243.132 5.27823C247.096 5.36889 251.059 5.1307 255.021 4.56425L254.748 2.6551L254.475 0.745953C250.721 1.28267 246.97 1.50785 243.22 1.42209L243.176 3.35016ZM254.748 2.6551L255.021 4.56425C258.699 4.03829 262.374 4.03297 266.051 4.54821L266.319 2.63829L266.587 0.728369C262.55 0.162861 258.511 0.168746 254.475 0.745953L254.748 2.6551ZM266.319 2.63829L266.051 4.54821C270.036 5.10645 274.023 5.26095 278.011 5.011L277.89 3.08621L277.77 1.16141C274.043 1.39499 270.316 1.25087 266.587 0.728369L266.319 2.63829ZM277.89 3.08621L278.011 5.011C281.884 4.76826 285.757 4.47801 289.629 4.14026L289.462 2.21898L289.294 0.297706C285.453 0.632734 281.611 0.920635 277.77 1.16141L277.89 3.08621ZM289.462 2.21898L289.629 4.14026C293.39 3.81231 297.15 3.76908 300.91 4.01051L301.033 2.0859L301.157 0.161295C297.203 -0.0926094 293.248 -0.0471103 289.294 0.297706L289.462 2.21898ZM301.033 2.0859L300.91 4.01051C304.589 4.24675 308.174 4.98156 311.669 6.21663L312.312 4.39823L312.954 2.57982C309.126 1.22713 305.192 0.420385 301.157 0.161295L301.033 2.0859ZM312.312 4.39823L311.669 6.21663C314.848 7.33972 317.173 9.40851 318.711 12.5145L320.439 11.6587L322.167 10.8029C320.193 6.816 317.1 4.0445 312.954 2.57982L312.312 4.39823ZM320.439 11.6587L318.711 12.5145C320.313 15.7507 320.956 19.1106 320.656 22.6307L322.578 22.7943L324.499 22.958C324.86 18.7233 324.077 14.6594 322.167 10.8029L320.439 11.6587ZM322.578 22.7943L320.656 22.6307C320.322 26.551 320.121 30.4617 320.054 34.3627L321.982 34.3961L323.91 34.4295C323.977 30.6162 324.173 26.7924 324.499 22.958L322.578 22.7943ZM321.982 34.3961L320.054 34.3627C319.986 38.2893 320.13 42.2181 320.485 46.1489L322.406 45.9754L324.326 45.8018C323.983 42.0079 323.845 38.2172 323.91 34.4295L321.982 34.3961ZM322.406 45.9754L320.485 46.1489C320.802 49.657 320.181 52.9428 318.62 56.0484L320.343 56.9145L322.066 57.7805C323.953 54.0254 324.707 50.0186 324.326 45.8018L322.406 45.9754ZM320.343 56.9145L318.62 56.0484C317.095 59.0812 314.876 61.1456 311.928 62.3393L312.651 64.1269L313.375 65.9145C317.234 64.3523 320.142 61.6083 322.066 57.7805L320.343 56.9145ZM312.651 64.1269L311.928 62.3393C308.745 63.6281 305.344 64.3362 301.713 64.4548L301.776 66.3824L301.839 68.3099C305.901 68.1772 309.751 67.3817 313.375 65.9145L312.651 64.1269ZM301.776 66.3824L301.713 64.4548C297.92 64.5787 294.122 64.5427 290.319 64.3467L290.22 66.2727L290.121 68.1987C294.031 68.4002 297.938 68.4373 301.839 68.3099L301.776 66.3824ZM290.22 66.2727L290.319 64.3467C286.411 64.1453 282.503 64.0983 278.595 64.2057L278.648 66.1335L278.701 68.0614C282.508 67.9568 286.314 68.0026 290.121 68.1987L290.22 66.2727ZM278.648 66.1335L278.595 64.2057C274.773 64.3107 270.95 64.3137 267.127 64.2148L267.077 66.1428L267.027 68.0707C270.918 68.1714 274.81 68.1683 278.701 68.0614L278.648 66.1335ZM267.077 66.1428L267.127 64.2148C263.169 64.1124 259.212 64.3187 255.257 64.8333L255.505 66.7458L255.754 68.6582C259.513 68.1692 263.27 67.9735 267.027 68.0707L267.077 66.1428ZM255.505 66.7458L255.257 64.8333C251.544 65.3163 247.834 65.3745 244.124 65.0081L243.934 66.9274L243.745 68.8466C247.748 69.2418 251.752 69.1789 255.754 68.6582L255.505 66.7458ZM243.934 66.9274L244.124 65.0081C240.113 64.6123 236.103 64.6956 232.095 65.2575L232.363 67.1674L232.63 69.0772C236.337 68.5576 240.04 68.481 243.745 68.8466L243.934 66.9274ZM232.363 67.1674L232.095 65.2575C228.441 65.7696 224.79 65.6974 221.133 65.0395L220.791 66.9376L220.45 68.8357C224.507 69.5656 228.57 69.6465 232.63 69.0772L232.363 67.1674ZM220.791 66.9376L221.133 65.0395C217.064 64.3075 212.99 64.2626 208.919 64.9054L209.22 66.8104L209.521 68.7154C213.164 68.14 216.804 68.1798 220.45 68.8357L220.791 66.9376ZM209.22 66.8104L208.919 64.9054C205.205 65.492 201.494 65.6536 197.784 65.3914L197.648 67.3152L197.512 69.239C201.517 69.522 205.52 69.3471 209.521 68.7154L209.22 66.8104ZM197.648 67.3152L197.784 65.3914C193.912 65.1178 190.039 64.8909 186.166 64.7109L186.077 66.6373L185.987 68.5638C189.829 68.7424 193.671 68.9675 197.512 69.239L197.648 67.3152ZM186.077 66.6373L186.166 64.7109C182.211 64.5269 178.255 64.6465 174.3 65.0694L174.505 66.987L174.711 68.9047C178.47 68.5026 182.229 68.3891 185.987 68.5638L186.077 66.6373ZM174.505 66.987L174.3 65.0694C170.567 65.4686 166.834 65.5056 163.101 65.1803L162.934 67.1016L162.767 69.0229C166.748 69.3698 170.73 69.3303 174.711 68.9047L174.505 66.987ZM162.934 67.1016L163.101 65.1803C159.152 64.8362 155.203 64.7767 151.253 65.002L151.363 66.9275L151.472 68.8529C155.237 68.6382 159.001 68.6948 162.767 69.0229L162.934 67.1016ZM151.363 66.9275L151.253 65.002C147.451 65.2189 143.649 65.272 139.847 65.1614L139.791 67.0891L139.735 69.0169C143.648 69.1308 147.56 69.0761 151.472 68.8529L151.363 66.9275ZM139.791 67.0891L139.847 65.1614C135.995 65.0492 132.143 64.9223 128.291 64.7807L128.22 66.708L128.149 68.6353C132.011 68.7772 135.873 68.9044 139.735 69.0169L139.791 67.0891ZM128.22 66.708L128.291 64.7807C124.43 64.6388 120.57 64.5069 116.709 64.3851L116.648 66.3127L116.587 68.2403C120.441 68.362 124.295 68.4936 128.149 68.6353L128.22 66.708ZM116.648 66.3127L116.709 64.3851C112.843 64.263 108.977 64.1674 105.111 64.0981L105.077 66.0264L105.042 67.9547C108.891 68.0236 112.739 68.1188 116.587 68.2403L116.648 66.3127ZM105.077 66.0264L105.111 64.0981C101.208 64.0282 97.3048 64.0985 93.4016 64.309L93.5055 66.2348L93.6093 68.1606C97.4204 67.955 101.231 67.8864 105.042 67.9547L105.077 66.0264ZM93.5055 66.2348L93.4016 64.309C89.5033 64.5193 85.6053 64.8548 81.7076 65.3156L81.9341 67.2309L82.1605 69.1461C85.9771 68.6949 89.7934 68.3664 93.6093 68.1606L93.5055 66.2348ZM81.9341 67.2309L81.7076 65.3156C77.9452 65.7604 74.1841 65.9233 70.4235 65.8046L70.3626 67.7322L70.3018 69.6598C74.2555 69.7846 78.2086 69.6133 82.1605 69.1461L81.9341 67.2309ZM70.3626 67.7322L70.4235 65.8046C66.5229 65.6814 62.6223 65.6901 58.7217 65.8309L58.7912 67.7582L58.8607 69.6855C62.6744 69.5479 66.4881 69.5393 70.3018 69.6598L70.3626 67.7322ZM58.7912 67.7582L58.7217 65.8309C54.9332 65.9675 51.1447 65.9018 47.3559 65.6337L47.2198 67.5574L47.0836 69.4812C51.0091 69.759 54.9349 69.8271 58.8607 69.6855L58.7912 67.7582ZM47.2198 67.5574L47.3559 65.6337C43.4196 65.3551 39.4829 65.3201 35.5463 65.5286L35.6483 67.4544L35.7503 69.3803C39.5281 69.1802 43.3057 69.2138 47.0836 69.4812L47.2198 67.5574ZM35.6483 67.4544L35.5463 65.5286C31.7701 65.7286 27.994 65.6906 24.2175 65.4147L24.0769 67.3381L23.9364 69.2616C27.8741 69.5493 31.8123 69.5889 35.7503 69.3803L35.6483 67.4544ZM24.0769 67.3381L24.2175 65.4147C20.4849 65.142 16.8047 64.5111 13.1751 63.5215L12.6678 65.3822L12.1605 67.2428C16.0288 68.2975 19.9547 68.9706 23.9364 69.2616L24.0769 67.3381ZM12.6678 65.3822L13.1751 63.5215C9.97439 62.6489 7.73637 60.7592 6.33967 57.7501L4.59035 58.562L2.84102 59.374C4.71626 63.4141 7.86319 66.0712 12.1605 67.2428L12.6678 65.3822ZM4.59035 58.562L6.33967 57.7501C4.84835 54.5371 4.27904 51.1906 4.62444 47.6749L2.70511 47.4863L0.785779 47.2978C0.372889 51.5003 1.0604 55.5376 2.84102 59.374L4.59035 58.562ZM2.70511 47.4863L4.62444 47.6749C5.019 43.6589 4.92165 39.6434 4.33309 35.632L2.42495 35.9119L0.516809 36.1919C1.06009 39.8947 1.14951 43.5955 0.785779 47.2978L2.70511 47.4863ZM2.42495 35.9119L4.33309 35.632C3.79037 31.9329 3.71193 28.2369 4.09708 24.5404L2.17889 24.3405L0.260705 24.1406C-0.157904 28.1584 -0.0722978 32.1767 0.516809 36.1919L2.42495 35.9119ZM2.17889 24.3405L4.09708 24.5404C4.48615 20.8062 5.21689 17.2582 6.28546 13.8929L4.44733 13.3093L2.6092 12.7256C1.45695 16.3544 0.675394 20.1605 0.260705 24.1406L2.17889 24.3405ZM4.44733 13.3093L6.28546 13.8929C7.23728 10.8954 9.09556 8.71407 11.9504 7.26695L11.0785 5.54675L10.2065 3.82656C6.44069 5.73543 3.87822 8.72912 2.6092 12.7256L4.44733 13.3093ZM11.0785 5.54675L11.9504 7.26695C13.5992 6.43121 14.8825 5.79853 15.8082 5.36408C16.2721 5.14633 16.632 4.98508 16.8956 4.875C17.2034 4.74646 17.2679 4.73599 17.2012 4.75061L16.7886 2.86669L16.376 0.982761C16.0611 1.05174 15.7015 1.19371 15.4094 1.31569C15.073 1.45613 14.6571 1.64347 14.1693 1.8724C13.1916 2.33131 11.8681 2.9843 10.2065 3.82656L11.0785 5.54675ZM16.7886 2.86669L17.2012 4.75061C17.0853 4.77599 17.1094 4.75573 17.4592 4.75877C17.746 4.76126 18.148 4.77709 18.6768 4.80915C19.7312 4.87306 21.2133 4.99665 23.1335 5.18215L23.319 3.26251L23.5044 1.34288C21.5676 1.15578 20.0326 1.0271 18.9102 0.959069C18.3506 0.925151 17.8743 0.90509 17.4928 0.901775C17.1743 0.899008 16.7402 0.903022 16.376 0.982761L16.7886 2.86669Z" fill="#18466F"/>
<path d="M34.8904 3.41041L34.7537 1.48669L34.8904 3.41041ZM69.6047 2.67236L69.8492 0.759353L69.6047 2.67236ZM150.605 2.59924L150.405 0.681042L150.605 2.59924ZM196.89 3.44497L196.764 5.36936L196.89 3.44497ZM220.033 2.16412L219.93 0.238294L220.033 2.16412ZM254.748 2.6551L254.475 0.745953L254.748 2.6551ZM289.462 2.21898L289.629 4.14026L289.462 2.21898ZM312.312 4.39823L312.954 2.57982L312.312 4.39823ZM322.578 22.7943L320.656 22.6307L322.578 22.7943ZM312.651 64.1269L311.928 62.3393L312.651 64.1269ZM301.776 66.3824L301.713 64.4548L301.776 66.3824ZM290.22 66.2727L290.319 64.3467L290.22 66.2727ZM255.505 66.7458L255.257 64.8333L255.505 66.7458ZM243.934 66.9274L243.745 68.8466L243.934 66.9274ZM232.363 67.1674L232.095 65.2575L232.363 67.1674ZM220.791 66.9376L220.45 68.8357L220.791 66.9376ZM209.22 66.8104L209.521 68.7154L209.22 66.8104ZM197.648 67.3152L197.784 65.3914L197.648 67.3152ZM174.505 66.987L174.711 68.9047L174.505 66.987ZM162.934 67.1016L162.767 69.0229L162.934 67.1016ZM139.791 67.0891L139.735 69.0169L139.791 67.0891ZM58.7912 67.7582L58.7217 65.8309L58.7912 67.7582ZM24.0769 67.3381L24.2175 65.4147L24.0769 67.3381ZM11.0785 5.54675L10.2065 3.82656L11.0785 5.54675ZM23.319 3.26251L23.1335 5.18215C27.0975 5.56507 31.0624 5.61578 35.0271 5.33414L34.8904 3.41041L34.7537 1.48669C31.0041 1.75305 27.2547 1.70516 23.5044 1.34288L23.319 3.26251ZM34.8904 3.41041L35.0271 5.33414C38.8848 5.06009 42.7425 4.78432 46.6002 4.50683L46.4618 2.58322L46.3235 0.659623C42.4669 0.937039 38.6103 1.21273 34.7537 1.48669L34.8904 3.41041ZM46.4618 2.58322L46.6002 4.50683C50.4244 4.23174 54.2484 4.0555 58.0723 3.97809L58.0333 2.04992L57.9942 0.121741C54.1039 0.200495 50.2136 0.379793 46.3235 0.659623L46.4618 2.58322ZM58.0333 2.04992L58.0723 3.97809C61.8339 3.90195 65.5963 4.10425 69.3602 4.58536L69.6047 2.67236L69.8492 0.759353C65.8988 0.254388 61.9469 0.0417261 57.9942 0.121741L58.0333 2.04992ZM69.6047 2.67236L69.3602 4.58536C73.3553 5.09605 77.3525 5.17139 81.3493 4.81098L81.1761 2.89021L81.0029 0.969428C77.2855 1.30464 73.5684 1.23476 69.8492 0.759353L69.6047 2.67236ZM81.1761 2.89021L81.3493 4.81098C85.1163 4.47131 88.8825 4.39821 92.6487 4.59158L92.7475 2.66555L92.8464 0.739513C88.8983 0.536804 84.9503 0.613482 81.0029 0.969428L81.1761 2.89021ZM92.7475 2.66555L92.6487 4.59158C96.5096 4.78981 100.37 4.97666 104.231 5.15213L104.319 3.22555L104.407 1.29897C100.553 1.12384 96.6998 0.937358 92.8464 0.739513L92.7475 2.66555ZM104.319 3.22555L104.231 5.15213C108.193 5.33217 112.154 5.19093 116.114 4.72872L115.89 2.81315L115.667 0.897587C111.912 1.33583 108.159 1.46951 104.407 1.29897L104.319 3.22555ZM115.89 2.81315L116.114 4.72872C119.847 4.29293 123.579 4.22125 127.311 4.51335L127.462 2.59066L127.612 0.667965C123.63 0.356281 119.648 0.432923 115.667 0.897587L115.89 2.81315ZM127.462 2.59066L127.311 4.51335C131.21 4.81846 135.108 4.99771 139.007 5.05106L139.033 3.12267L139.06 1.19427C135.244 1.14206 131.428 0.966637 127.612 0.667965L127.462 2.59066ZM139.033 3.12267L139.007 5.05106C142.94 5.10487 146.873 4.92695 150.804 4.51743L150.605 2.59924L150.405 0.681042C146.622 1.07499 142.841 1.24601 139.06 1.19427L139.033 3.12267ZM150.605 2.59924L150.804 4.51743C154.599 4.12224 158.393 3.91518 162.186 3.89613L162.176 1.96758L162.166 0.0390315C158.245 0.0587263 154.325 0.272768 150.405 0.681042L150.605 2.59924ZM162.176 1.96758L162.186 3.89613C165.988 3.87703 169.79 4.0215 173.592 4.32958L173.748 2.40731L173.903 0.485039C169.991 0.168066 166.079 0.0193794 162.166 0.0390315L162.176 1.96758ZM173.748 2.40731L173.592 4.32958C177.49 4.64546 181.389 4.83499 185.288 4.89814L185.319 2.96982L185.35 1.04151C181.535 0.9797 177.719 0.79422 173.903 0.485039L173.748 2.40731ZM185.319 2.96982L185.288 4.89814C189.113 4.96011 192.938 5.11718 196.764 5.36936L196.89 3.44497L197.017 1.52057C193.128 1.2642 189.239 1.10451 185.35 1.04151L185.319 2.96982ZM196.89 3.44497L196.764 5.36936C200.738 5.63139 204.713 5.52993 208.686 5.06532L208.462 3.1498L208.238 1.23428C204.497 1.67178 200.757 1.7671 197.017 1.52057L196.89 3.44497ZM208.462 3.1498L208.686 5.06532C212.503 4.61894 216.32 4.29383 220.136 4.08994L220.033 2.16412L219.93 0.238294C216.033 0.446529 212.135 0.77854 208.238 1.23428L208.462 3.1498ZM220.033 2.16412L220.136 4.08994C223.883 3.88977 227.63 4.01026 231.379 4.45177L231.605 2.53643L231.83 0.6211C227.865 0.154063 223.898 0.026345 219.93 0.238294L220.033 2.16412ZM231.605 2.53643L231.379 4.45177C235.296 4.91309 239.214 5.18862 243.132 5.27823L243.176 3.35016L243.22 1.42209C239.424 1.33528 235.628 1.06832 231.83 0.6211L231.605 2.53643ZM243.176 3.35016L243.132 5.27823C247.096 5.36889 251.059 5.1307 255.021 4.56425L254.748 2.6551L254.475 0.745953C250.721 1.28267 246.97 1.50785 243.22 1.42209L243.176 3.35016ZM254.748 2.6551L255.021 4.56425C258.699 4.03829 262.374 4.03297 266.051 4.54821L266.319 2.63829L266.587 0.728369C262.55 0.162861 258.511 0.168746 254.475 0.745953L254.748 2.6551ZM266.319 2.63829L266.051 4.54821C270.036 5.10645 274.023 5.26095 278.011 5.011L277.89 3.08621L277.77 1.16141C274.043 1.39499 270.316 1.25087 266.587 0.728369L266.319 2.63829ZM277.89 3.08621L278.011 5.011C281.884 4.76826 285.757 4.47801 289.629 4.14026L289.462 2.21898L289.294 0.297706C285.453 0.632734 281.611 0.920635 277.77 1.16141L277.89 3.08621ZM289.462 2.21898L289.629 4.14026C293.39 3.81231 297.15 3.76908 300.91 4.01051L301.033 2.0859L301.157 0.161295C297.203 -0.0926094 293.248 -0.0471103 289.294 0.297706L289.462 2.21898ZM301.033 2.0859L300.91 4.01051C304.589 4.24675 308.174 4.98156 311.669 6.21663L312.312 4.39823L312.954 2.57982C309.126 1.22713 305.192 0.420385 301.157 0.161295L301.033 2.0859ZM312.312 4.39823L311.669 6.21663C314.848 7.33972 317.173 9.40851 318.711 12.5145L320.439 11.6587L322.167 10.8029C320.193 6.816 317.1 4.0445 312.954 2.57982L312.312 4.39823ZM320.439 11.6587L318.711 12.5145C320.313 15.7507 320.956 19.1106 320.656 22.6307L322.578 22.7943L324.499 22.958C324.86 18.7233 324.077 14.6594 322.167 10.8029L320.439 11.6587ZM322.578 22.7943L320.656 22.6307C320.322 26.551 320.121 30.4617 320.054 34.3627L321.982 34.3961L323.91 34.4295C323.977 30.6162 324.173 26.7924 324.499 22.958L322.578 22.7943ZM321.982 34.3961L320.054 34.3627C319.986 38.2893 320.13 42.2181 320.485 46.1489L322.406 45.9754L324.326 45.8018C323.983 42.0079 323.845 38.2172 323.91 34.4295L321.982 34.3961ZM322.406 45.9754L320.485 46.1489C320.802 49.657 320.181 52.9428 318.62 56.0484L320.343 56.9145L322.066 57.7805C323.953 54.0254 324.707 50.0186 324.326 45.8018L322.406 45.9754ZM320.343 56.9145L318.62 56.0484C317.095 59.0812 314.876 61.1456 311.928 62.3393L312.651 64.1269L313.375 65.9145C317.234 64.3523 320.142 61.6083 322.066 57.7805L320.343 56.9145ZM312.651 64.1269L311.928 62.3393C308.745 63.6281 305.344 64.3362 301.713 64.4548L301.776 66.3824L301.839 68.3099C305.901 68.1772 309.751 67.3817 313.375 65.9145L312.651 64.1269ZM301.776 66.3824L301.713 64.4548C297.92 64.5787 294.122 64.5427 290.319 64.3467L290.22 66.2727L290.121 68.1987C294.031 68.4002 297.938 68.4373 301.839 68.3099L301.776 66.3824ZM290.22 66.2727L290.319 64.3467C286.411 64.1453 282.503 64.0983 278.595 64.2057L278.648 66.1335L278.701 68.0614C282.508 67.9568 286.314 68.0026 290.121 68.1987L290.22 66.2727ZM278.648 66.1335L278.595 64.2057C274.773 64.3107 270.95 64.3137 267.127 64.2148L267.077 66.1428L267.027 68.0707C270.918 68.1714 274.81 68.1683 278.701 68.0614L278.648 66.1335ZM267.077 66.1428L267.127 64.2148C263.169 64.1124 259.212 64.3187 255.257 64.8333L255.505 66.7458L255.754 68.6582C259.513 68.1692 263.27 67.9735 267.027 68.0707L267.077 66.1428ZM255.505 66.7458L255.257 64.8333C251.544 65.3163 247.834 65.3745 244.124 65.0081L243.934 66.9274L243.745 68.8466C247.748 69.2418 251.752 69.1789 255.754 68.6582L255.505 66.7458ZM243.934 66.9274L244.124 65.0081C240.113 64.6123 236.103 64.6956 232.095 65.2575L232.363 67.1674L232.63 69.0772C236.337 68.5576 240.04 68.481 243.745 68.8466L243.934 66.9274ZM232.363 67.1674L232.095 65.2575C228.441 65.7696 224.79 65.6974 221.133 65.0395L220.791 66.9376L220.45 68.8357C224.507 69.5656 228.57 69.6465 232.63 69.0772L232.363 67.1674ZM220.791 66.9376L221.133 65.0395C217.064 64.3075 212.99 64.2626 208.919 64.9054L209.22 66.8104L209.521 68.7154C213.164 68.14 216.804 68.1798 220.45 68.8357L220.791 66.9376ZM209.22 66.8104L208.919 64.9054C205.205 65.492 201.494 65.6536 197.784 65.3914L197.648 67.3152L197.512 69.239C201.517 69.522 205.52 69.3471 209.521 68.7154L209.22 66.8104ZM197.648 67.3152L197.784 65.3914C193.912 65.1178 190.039 64.8909 186.166 64.7109L186.077 66.6373L185.987 68.5638C189.829 68.7424 193.671 68.9675 197.512 69.239L197.648 67.3152ZM186.077 66.6373L186.166 64.7109C182.211 64.5269 178.255 64.6465 174.3 65.0694L174.505 66.987L174.711 68.9047C178.47 68.5026 182.229 68.3891 185.987 68.5638L186.077 66.6373ZM174.505 66.987L174.3 65.0694C170.567 65.4686 166.834 65.5056 163.101 65.1803L162.934 67.1016L162.767 69.0229C166.748 69.3698 170.73 69.3303 174.711 68.9047L174.505 66.987ZM162.934 67.1016L163.101 65.1803C159.152 64.8362 155.203 64.7767 151.253 65.002L151.363 66.9275L151.472 68.8529C155.237 68.6382 159.001 68.6948 162.767 69.0229L162.934 67.1016ZM151.363 66.9275L151.253 65.002C147.451 65.2189 143.649 65.272 139.847 65.1614L139.791 67.0891L139.735 69.0169C143.648 69.1308 147.56 69.0761 151.472 68.8529L151.363 66.9275ZM139.791 67.0891L139.847 65.1614C135.995 65.0492 132.143 64.9223 128.291 64.7807L128.22 66.708L128.149 68.6353C132.011 68.7772 135.873 68.9044 139.735 69.0169L139.791 67.0891ZM128.22 66.708L128.291 64.7807C124.43 64.6388 120.57 64.5069 116.709 64.3851L116.648 66.3127L116.587 68.2403C120.441 68.362 124.295 68.4936 128.149 68.6353L128.22 66.708ZM116.648 66.3127L116.709 64.3851C112.843 64.263 108.977 64.1674 105.111 64.0981L105.077 66.0264L105.042 67.9547C108.891 68.0236 112.739 68.1188 116.587 68.2403L116.648 66.3127ZM105.077 66.0264L105.111 64.0981C101.208 64.0282 97.3048 64.0985 93.4016 64.309L93.5055 66.2348L93.6093 68.1606C97.4204 67.955 101.231 67.8864 105.042 67.9547L105.077 66.0264ZM93.5055 66.2348L93.4016 64.309C89.5033 64.5193 85.6053 64.8548 81.7076 65.3156L81.9341 67.2309L82.1605 69.1461C85.9771 68.6949 89.7934 68.3664 93.6093 68.1606L93.5055 66.2348ZM81.9341 67.2309L81.7076 65.3156C77.9452 65.7604 74.1841 65.9233 70.4235 65.8046L70.3626 67.7322L70.3018 69.6598C74.2555 69.7846 78.2086 69.6133 82.1605 69.1461L81.9341 67.2309ZM70.3626 67.7322L70.4235 65.8046C66.5229 65.6814 62.6223 65.6901 58.7217 65.8309L58.7912 67.7582L58.8607 69.6855C62.6744 69.5479 66.4881 69.5393 70.3018 69.6598L70.3626 67.7322ZM58.7912 67.7582L58.7217 65.8309C54.9332 65.9675 51.1447 65.9018 47.3559 65.6337L47.2198 67.5574L47.0836 69.4812C51.0091 69.759 54.9349 69.8271 58.8607 69.6855L58.7912 67.7582ZM47.2198 67.5574L47.3559 65.6337C43.4196 65.3551 39.4829 65.3201 35.5463 65.5286L35.6483 67.4544L35.7503 69.3803C39.5281 69.1802 43.3057 69.2138 47.0836 69.4812L47.2198 67.5574ZM35.6483 67.4544L35.5463 65.5286C31.7701 65.7286 27.994 65.6906 24.2175 65.4147L24.0769 67.3381L23.9364 69.2616C27.8741 69.5493 31.8123 69.5889 35.7503 69.3803L35.6483 67.4544ZM24.0769 67.3381L24.2175 65.4147C20.4849 65.142 16.8047 64.5111 13.1751 63.5215L12.6678 65.3822L12.1605 67.2428C16.0288 68.2975 19.9547 68.9706 23.9364 69.2616L24.0769 67.3381ZM12.6678 65.3822L13.1751 63.5215C9.97439 62.6489 7.73637 60.7592 6.33967 57.7501L4.59035 58.562L2.84102 59.374C4.71626 63.4141 7.86319 66.0712 12.1605 67.2428L12.6678 65.3822ZM4.59035 58.562L6.33967 57.7501C4.84835 54.5371 4.27904 51.1906 4.62444 47.6749L2.70511 47.4863L0.785779 47.2978C0.372889 51.5003 1.0604 55.5376 2.84102 59.374L4.59035 58.562ZM2.70511 47.4863L4.62444 47.6749C5.019 43.6589 4.92165 39.6434 4.33309 35.632L2.42495 35.9119L0.516809 36.1919C1.06009 39.8947 1.14951 43.5955 0.785779 47.2978L2.70511 47.4863ZM2.42495 35.9119L4.33309 35.632C3.79037 31.9329 3.71193 28.2369 4.09708 24.5404L2.17889 24.3405L0.260705 24.1406C-0.157904 28.1584 -0.0722978 32.1767 0.516809 36.1919L2.42495 35.9119ZM2.17889 24.3405L4.09708 24.5404C4.48615 20.8062 5.21689 17.2582 6.28546 13.8929L4.44733 13.3093L2.6092 12.7256C1.45695 16.3544 0.675394 20.1605 0.260705 24.1406L2.17889 24.3405ZM4.44733 13.3093L6.28546 13.8929C7.23728 10.8954 9.09556 8.71407 11.9504 7.26695L11.0785 5.54675L10.2065 3.82656C6.44069 5.73543 3.87822 8.72912 2.6092 12.7256L4.44733 13.3093ZM11.0785 5.54675L11.9504 7.26695C13.5992 6.43121 14.8825 5.79853 15.8082 5.36408C16.2721 5.14633 16.632 4.98508 16.8956 4.875C17.2034 4.74646 17.2679 4.73599 17.2012 4.75061L16.7886 2.86669L16.376 0.982761C16.0611 1.05174 15.7015 1.19371 15.4094 1.31569C15.073 1.45613 14.6571 1.64347 14.1693 1.8724C13.1916 2.33131 11.8681 2.9843 10.2065 3.82656L11.0785 5.54675ZM16.7886 2.86669L17.2012 4.75061C17.0853 4.77599 17.1094 4.75573 17.4592 4.75877C17.746 4.76126 18.148 4.77709 18.6768 4.80915C19.7312 4.87306 21.2133 4.99665 23.1335 5.18215L23.319 3.26251L23.5044 1.34288C21.5676 1.15578 20.0326 1.0271 18.9102 0.959069C18.3506 0.925151 17.8743 0.90509 17.4928 0.901775C17.1743 0.899008 16.7402 0.903022 16.376 0.982761L16.7886 2.86669Z" fill="black" fill-opacity="0.2"/>
</svg>
