<svg width="324" height="69" viewBox="0 0 324 69" fill="none" xmlns="http://www.w3.org/2000/svg">
<path d="M1.97543 17.5433C1.97543 9.02236 8.88304 2.11475 17.404 2.11475H306.69C315.211 2.11475 322.118 9.02235 322.118 17.5433V50.829C322.118 59.35 315.211 66.2576 306.69 66.2576H17.404C8.88305 66.2576 1.97543 59.35 1.97543 50.829V17.5433Z" fill="#DFD4BE"/>
<path d="M84.904 2.5207L84.8359 4.01915L84.904 2.5207ZM129.904 1.54227L129.896 0.0422935L129.904 1.54227ZM156.904 2.69135L156.805 4.1881L156.904 2.69135ZM165.904 2.46178L165.73 0.971931L165.904 2.46178ZM183.904 1.98472L183.729 3.47442L183.904 1.98472ZM201.904 2.07702L202.116 3.56191V3.56191L201.904 2.07702ZM210.904 2.06394L210.696 3.54943L210.904 2.06394ZM246.904 1.75117L246.847 0.252267L246.904 1.75117ZM273.904 2.32112L273.878 3.82089L273.904 2.32112ZM316.855 7.41087L317.975 6.41316L316.855 7.41087ZM322.071 50.6145L320.574 50.7231L322.071 50.6145ZM295.233 66.0949L295.303 64.5966L295.233 66.0949ZM286.233 66.3669L286.393 67.8584L286.233 66.3669ZM277.233 66.456L277.103 67.9504L277.233 66.456ZM268.233 66.3206L268.148 64.823L268.233 66.3206ZM259.233 66.4463L259.19 67.9457L259.233 66.4463ZM250.233 66.1499L250.288 64.6509L250.233 66.1499ZM214.233 66.5566L214.409 68.0462L214.233 66.5566ZM205.233 66.9465L205.186 68.4457L205.233 66.9465ZM187.233 66.8106L187.339 65.3143L187.233 66.8106ZM178.233 66.7305L178.313 68.2284L178.233 66.7305ZM151.233 66.6132L151.135 68.11L151.233 66.6132ZM133.233 66.0085L133.451 67.4926L133.233 66.0085ZM124.233 66.1999L124.078 67.6918L124.233 66.1999ZM115.233 65.915L115.172 64.4163L115.233 65.915ZM88.2333 66.1042L88.084 67.5968L88.2333 66.1042ZM70.2333 66.1769L70.3638 67.6713L70.2333 66.1769ZM43.2334 65.973L43.2523 64.4732L43.2334 65.973ZM3.53351 55.6327L2.0888 56.0362L3.53351 55.6327ZM9.70112 4.87741L10.6315 6.05404L9.70112 4.87741ZM21.904 2.54945L21.7598 4.0425C24.8429 4.34032 27.9267 4.37976 31.0103 4.16071L30.904 2.66448L30.7977 1.16825C27.8813 1.37542 24.9651 1.33817 22.0482 1.0564L21.904 2.54945ZM30.904 2.66448L31.0103 4.16071C34.0107 3.94756 37.0112 3.73308 40.0116 3.51724L39.904 2.02111L39.7964 0.524976C36.7968 0.740744 33.7973 0.955168 30.7977 1.16825L30.904 2.66448ZM39.904 2.02111L40.0116 3.51724C42.986 3.30329 45.9602 3.16622 48.9344 3.10601L48.904 1.60632L48.8736 0.106623C45.8478 0.167876 42.822 0.30733 39.7964 0.524976L39.904 2.02111ZM48.904 1.60632L48.9344 3.10601C51.8601 3.04678 54.7864 3.20413 57.7138 3.57833L57.904 2.09044L58.0942 0.602543C55.0216 0.209793 51.9479 0.0443892 48.8736 0.106623L48.904 1.60632ZM57.904 2.09044L57.7138 3.57833C60.8211 3.97553 63.9301 4.03413 67.0387 3.75381L66.904 2.25987L66.7693 0.765935C63.8779 1.02666 60.9869 0.972302 58.0942 0.602543L57.904 2.09044ZM66.904 2.25987L67.0387 3.75381C69.9686 3.48962 72.8978 3.43277 75.8271 3.58317L75.904 2.08514L75.9809 0.587112C72.9102 0.42945 69.8395 0.489088 66.7693 0.765935L66.904 2.25987ZM75.904 2.08514L75.8271 3.58317C78.83 3.73735 81.833 3.88267 84.8359 4.01915L84.904 2.5207L84.9721 1.02224C81.975 0.886035 78.978 0.740992 75.9809 0.587112L75.904 2.08514ZM84.904 2.5207L84.8359 4.01915C87.9171 4.15918 90.9981 4.04932 94.0779 3.68983L93.904 2.19994L93.7301 0.710059C90.8099 1.05091 87.8909 1.15489 84.9721 1.02224L84.904 2.5207ZM93.904 2.19994L94.0779 3.68983C96.9817 3.35088 99.8843 3.29513 102.787 3.52232L102.904 2.02689L103.021 0.531464C99.9238 0.289043 96.8263 0.348654 93.7301 0.710059L93.904 2.19994ZM102.904 2.02689L102.787 3.52232C105.819 3.75963 108.851 3.89904 111.883 3.94054L111.904 2.44068L111.925 0.940816C108.957 0.900208 105.989 0.763764 103.021 0.531464L102.904 2.02689ZM111.904 2.44068L111.883 3.94054C114.943 3.98239 118.001 3.84401 121.059 3.52549L120.904 2.03356L120.749 0.541635C117.807 0.848039 114.865 0.981058 111.925 0.940816L111.904 2.44068ZM120.904 2.03356L121.059 3.52549C124.011 3.21812 126.961 3.05708 129.912 3.04226L129.904 1.54227L129.896 0.0422935C126.847 0.0576117 123.797 0.224088 120.749 0.541635L120.904 2.03356ZM129.904 1.54227L129.912 3.04226C132.868 3.0274 135.826 3.13977 138.783 3.37939L138.904 1.88429L139.025 0.389188C135.982 0.142653 132.94 0.0270085 129.896 0.0422935L129.904 1.54227ZM138.904 1.88429L138.783 3.37939C141.815 3.62507 144.847 3.77248 147.88 3.8216L147.904 2.3218L147.928 0.821996C144.961 0.773925 141.993 0.629663 139.025 0.389188L138.904 1.88429ZM147.904 2.3218L147.88 3.8216C150.855 3.8698 153.83 3.99196 156.805 4.1881L156.904 2.69135L157.003 1.1946C153.978 0.995201 150.953 0.870996 147.928 0.821996L147.904 2.3218ZM156.904 2.69135L156.805 4.1881C159.897 4.3919 162.988 4.31299 166.078 3.95163L165.904 2.46178L165.73 0.971931C162.82 1.31221 159.911 1.38635 157.003 1.1946L156.904 2.69135ZM165.904 2.46178L166.078 3.95163C169.047 3.60445 172.016 3.35158 174.984 3.193L174.904 1.69514L174.824 0.197275C171.792 0.359236 168.761 0.617467 165.73 0.971931L165.904 2.46178ZM174.904 1.69514L174.984 3.193C177.898 3.03731 180.813 3.13103 183.729 3.47442L183.904 1.98472L184.079 0.495014C180.995 0.131762 177.91 0.0324261 174.824 0.197275L174.904 1.69514ZM183.904 1.98472L183.729 3.47442C186.775 3.83323 189.822 4.04753 192.87 4.11722L192.904 2.61762L192.938 1.11801C189.986 1.05048 187.033 0.842853 184.079 0.495014L183.904 1.98472ZM192.904 2.61762L192.87 4.11722C195.953 4.18774 199.035 4.00248 202.116 3.56191L201.904 2.07702L201.692 0.592122C198.773 1.00957 195.855 1.18471 192.938 1.11801L192.904 2.61762ZM201.904 2.07702L202.116 3.56191C204.977 3.15283 207.835 3.14869 210.696 3.54943L210.904 2.06394L211.112 0.578445C207.973 0.138605 204.831 0.143182 201.692 0.592122L201.904 2.07702ZM210.904 2.06394L210.696 3.54943C213.795 3.98362 216.896 4.10378 219.998 3.90938L219.904 2.41232L219.81 0.915257C216.912 1.09693 214.013 0.984834 211.112 0.578445L210.904 2.06394ZM219.904 2.41232L219.998 3.90938C223.01 3.72058 226.022 3.49483 229.034 3.23214L228.904 1.73781L228.774 0.243485C225.786 0.504062 222.798 0.727985 219.81 0.915257L219.904 2.41232ZM228.904 1.73781L229.034 3.23214C231.959 2.97706 234.883 2.94345 237.808 3.13122L237.904 1.63431L238 0.137388C234.925 -0.0600939 231.849 -0.0247056 228.774 0.243485L228.904 1.73781ZM237.904 1.63431L237.808 3.13122C240.859 3.32713 243.91 3.36675 246.961 3.25008L246.904 1.75117L246.847 0.252267C243.898 0.365027 240.949 0.326742 238 0.137388L237.904 1.63431ZM246.904 1.75117L246.961 3.25008C249.95 3.1358 252.938 3.05581 255.927 3.0101L255.904 1.51028L255.881 0.0104549C252.87 0.0565066 249.858 0.137111 246.847 0.252267L246.904 1.75117ZM255.904 1.51028L255.927 3.0101C258.875 2.96503 261.823 3.07378 264.771 3.33642L264.904 1.84233L265.037 0.348251C261.985 0.0764015 258.933 -0.0362208 255.881 0.0104549L255.904 1.51028ZM264.904 1.84233L264.771 3.33642C267.806 3.60683 270.842 3.76833 273.878 3.82089L273.904 2.32112L273.93 0.821344C270.966 0.770023 268.002 0.612336 265.037 0.348251L264.904 1.84233ZM273.904 2.32112L273.878 3.82089C276.932 3.87377 279.986 3.76155 283.04 3.48429L282.904 1.99044L282.768 0.496585C279.822 0.764122 276.876 0.872349 273.93 0.821344L273.904 2.32112ZM282.904 1.99044L283.04 3.48429C285.958 3.21931 288.876 3.19443 291.794 3.40957L291.904 1.91364L292.014 0.417696C288.932 0.190456 285.85 0.216773 282.768 0.496585L282.904 1.99044ZM291.904 1.91364L291.794 3.40957C294.81 3.63199 297.827 3.80407 300.844 3.92583L300.904 2.42705L300.964 0.92827C297.981 0.807859 294.998 0.637669 292.014 0.417696L291.904 1.91364ZM300.904 2.42705L300.844 3.92583C303.775 4.04414 306.634 4.36046 309.423 4.8739L309.694 3.3987L309.966 1.9235C307.034 1.38357 304.033 1.05212 300.964 0.92827L300.904 2.42705ZM309.694 3.3987L309.423 4.8739C311.959 5.34089 314.046 6.5125 315.735 8.40858L316.855 7.41087L317.975 6.41316C315.837 4.01305 313.15 2.50987 309.966 1.9235L309.694 3.3987ZM316.855 7.41087L315.735 8.40858C317.482 10.3702 318.648 12.6169 319.246 15.169L320.706 14.8273L322.167 14.4855C321.455 11.4453 320.054 8.74776 317.975 6.41316L316.855 7.41087ZM320.706 14.8273L319.246 15.169C319.869 17.835 320.146 20.6049 320.071 23.4827L321.571 23.5215L323.07 23.5603C323.151 20.4381 322.851 17.4119 322.167 14.4855L320.706 14.8273ZM321.571 23.5215L320.071 23.4827C319.992 26.561 320.152 29.6386 320.553 32.715L322.04 32.5215L323.527 32.328C323.147 29.4044 322.995 26.482 323.07 23.5603L321.571 23.5215ZM322.04 32.5215L320.553 32.715C320.928 35.6024 320.973 38.488 320.688 41.3741L322.181 41.5215L323.674 41.6689C323.981 38.555 323.932 35.4406 323.527 32.328L322.04 32.5215ZM322.181 41.5215L320.688 41.3741C320.384 44.4608 320.346 47.5774 320.574 50.7231L322.071 50.6145L323.567 50.5059C323.35 47.5276 323.386 44.5822 323.674 41.6689L322.181 41.5215ZM322.071 50.6145L320.574 50.7231C320.768 53.3846 319.999 55.6281 318.255 57.5539L319.367 58.5609L320.478 59.5679C322.784 57.0225 323.818 53.9684 323.567 50.5059L322.071 50.6145ZM319.367 58.5609L318.255 57.5539C316.316 59.6947 314.15 61.5426 311.755 63.1002L312.573 64.3576L313.391 65.6149C316.004 63.9149 318.367 61.8983 320.478 59.5679L319.367 58.5609ZM312.573 64.3576L311.755 63.1002C309.523 64.5526 307.073 65.2032 304.358 65.0547L304.276 66.5525L304.194 68.0502C307.535 68.2329 310.617 67.4202 313.391 65.6149L312.573 64.3576ZM304.276 66.5525L304.358 65.0547C301.325 64.889 298.307 64.7362 295.303 64.5966L295.233 66.0949L295.164 67.5933C298.16 67.7326 301.17 67.8849 304.194 68.0502L304.276 66.5525ZM295.233 66.0949L295.303 64.5966C292.226 64.4535 289.15 64.5465 286.074 64.8754L286.233 66.3669L286.393 67.8584C289.317 67.5457 292.24 67.4574 295.164 67.5933L295.233 66.0949ZM286.233 66.3669L286.074 64.8754C283.17 65.186 280.267 65.2147 277.364 64.9617L277.233 66.456L277.103 67.9504C280.2 68.2202 283.297 68.1895 286.393 67.8584L286.233 66.3669ZM277.233 66.456L277.364 64.9617C274.292 64.694 271.22 64.6478 268.148 64.823L268.233 66.3206L268.319 67.8182C271.247 67.6511 274.175 67.6952 277.103 67.9504L277.233 66.456ZM268.233 66.3206L268.148 64.823C265.191 64.9917 262.234 65.033 259.277 64.947L259.233 66.4463L259.19 67.9457C262.233 68.0343 265.276 67.9918 268.319 67.8182L268.233 66.3206ZM259.233 66.4463L259.277 64.947C256.281 64.8597 253.285 64.7611 250.288 64.6509L250.233 66.1499L250.178 67.6489C253.182 67.7593 256.186 67.8582 259.19 67.9457L259.233 66.4463ZM250.233 66.1499L250.288 64.6509C247.286 64.5406 244.283 64.438 241.281 64.3432L241.233 65.8424L241.186 67.3417C244.183 67.4363 247.181 67.5387 250.178 67.6489L250.233 66.1499ZM241.233 65.8424L241.281 64.3432C238.274 64.2483 235.267 64.1739 232.26 64.12L232.233 65.6198L232.206 67.1195C235.2 67.1731 238.193 67.2472 241.186 67.3417L241.233 65.8424ZM232.233 65.6198L232.26 64.12C229.224 64.0656 226.188 64.1203 223.153 64.284L223.233 65.7819L223.314 67.2797C226.278 67.1198 229.242 67.0664 232.206 67.1195L232.233 65.6198ZM223.233 65.7819L223.153 64.284C220.121 64.4476 217.089 64.7085 214.057 65.0669L214.233 66.5566L214.409 68.0462C217.378 67.6952 220.346 67.4397 223.314 67.2797L223.233 65.7819ZM214.233 66.5566L214.057 65.0669C211.131 65.4129 208.206 65.5396 205.281 65.4472L205.233 66.9465L205.186 68.4457C208.261 68.5428 211.336 68.4096 214.409 68.0462L214.233 66.5566ZM205.233 66.9465L205.281 65.4472C202.247 65.3514 199.213 65.3582 196.179 65.4677L196.233 66.9667L196.287 68.4657C199.254 68.3587 202.22 68.3521 205.186 68.4457L205.233 66.9465ZM196.233 66.9667L196.179 65.4677C193.233 65.574 190.286 65.5229 187.339 65.3143L187.233 66.8106L187.127 68.3068C190.181 68.5229 193.234 68.5759 196.287 68.4657L196.233 66.9667ZM187.233 66.8106L187.339 65.3143C184.278 65.0977 181.216 65.0704 178.154 65.2326L178.233 66.7305L178.313 68.2284C181.251 68.0727 184.189 68.0989 187.127 68.3068L187.233 66.8106ZM178.233 66.7305L178.154 65.2326C175.217 65.3881 172.28 65.3586 169.343 65.144L169.233 66.64L169.124 68.136C172.187 68.3598 175.25 68.3906 178.313 68.2284L178.233 66.7305ZM169.233 66.64L169.343 65.144C166.273 64.9197 163.204 64.9093 160.134 65.1128L160.233 66.6096L160.333 68.1063C163.263 67.912 166.193 67.9219 169.124 68.136L169.233 66.64ZM160.233 66.6096L160.134 65.1128C157.2 65.3074 154.266 65.3086 151.331 65.1164L151.233 66.6132L151.135 68.11C154.201 68.3108 157.267 68.3095 160.333 68.1063L160.233 66.6096ZM151.233 66.6132L151.331 65.1164C148.352 64.9214 145.373 64.6632 142.394 64.3421L142.233 65.8334L142.073 67.3248C145.093 67.6504 148.114 67.9122 151.135 68.11L151.233 66.6132ZM142.233 65.8334L142.394 64.3421C139.268 64.005 136.14 64.0659 133.016 64.5244L133.233 66.0085L133.451 67.4926C136.326 67.0708 139.199 67.015 142.073 67.3248L142.233 65.8334ZM133.233 66.0085L133.016 64.5244C130.139 64.9465 127.264 65.0075 124.389 64.708L124.233 66.1999L124.078 67.6918C127.203 68.0174 130.328 67.9508 133.451 67.4926L133.233 66.0085ZM124.233 66.1999L124.389 64.708C121.317 64.3879 118.245 64.2906 115.172 64.4163L115.233 65.915L115.295 67.4138C118.222 67.2941 121.15 67.3867 124.078 67.6918L124.233 66.1999ZM115.233 65.915L115.172 64.4163C112.195 64.538 109.217 64.5924 106.24 64.5795L106.233 66.0795L106.227 67.5795C109.249 67.5926 112.272 67.5374 115.295 67.4138L115.233 65.915ZM106.233 66.0795L106.24 64.5795C103.21 64.5664 100.181 64.6431 97.1511 64.8095L97.2333 66.3072L97.3156 67.805C100.286 67.6418 103.256 67.5667 106.227 67.5795L106.233 66.0795ZM97.2333 66.3072L97.1511 64.8095C94.2286 64.97 91.306 64.9041 88.3827 64.6117L88.2333 66.1042L88.084 67.5968C91.1607 67.9046 94.2381 67.974 97.3156 67.805L97.2333 66.3072ZM88.2333 66.1042L88.3827 64.6117C85.3261 64.3059 82.2691 64.175 79.2117 64.2191L79.2334 65.719L79.255 67.2188C82.1976 67.1763 85.1406 67.3023 88.084 67.5968L88.2333 66.1042ZM79.2334 65.719L79.2117 64.2191C76.1752 64.263 73.1389 64.4175 70.1029 64.6826L70.2333 66.1769L70.3638 67.6713C73.3278 67.4124 76.2915 67.2616 79.255 67.2188L79.2334 65.719ZM70.2333 66.1769L70.1029 64.6826C67.1394 64.9414 64.1763 65.0906 61.2133 65.1303L61.2333 66.6301L61.2534 68.13C64.2904 68.0894 67.3273 67.9364 70.3638 67.6713L70.2333 66.1769ZM61.2333 66.6301L61.2133 65.1303C58.2567 65.1698 55.3 65.0811 52.3431 64.8641L52.2334 66.3601L52.1236 67.8561C55.1667 68.0794 58.21 68.1707 61.2534 68.13L61.2333 66.6301ZM52.2334 66.3601L52.3431 64.8641C49.313 64.6418 46.2827 64.5114 43.2523 64.4732L43.2334 65.973L43.2144 67.4729C46.184 67.5104 49.1537 67.6381 52.1236 67.8561L52.2334 66.3601ZM43.2334 65.973L43.2523 64.4732C40.1841 64.4344 37.1165 64.6041 34.0499 64.9821L34.2334 66.4708L34.4168 67.9596C37.3502 67.598 40.2826 67.4359 43.2144 67.4729L43.2334 65.973ZM34.2334 66.4708L34.0499 64.9821C31.1738 65.3366 28.2992 65.3306 25.4229 64.9641L25.2334 66.4521L25.0438 67.94C28.1675 68.3381 31.2929 68.3446 34.4168 67.9596L34.2334 66.4708ZM25.2334 66.4521L25.4229 64.9641C22.4095 64.5802 19.4309 64.2421 16.4872 63.9501L16.3392 65.4428L16.1911 66.9355C19.1063 67.2247 22.0572 67.5595 25.0438 67.94L25.2334 66.4521ZM16.3392 65.4428L16.4872 63.9501C13.8178 63.6853 11.3969 62.7791 9.20054 61.2214L8.33277 62.4449L7.46501 63.6685C10.085 65.5266 13.0016 66.619 16.1911 66.9355L16.3392 65.4428ZM8.33277 62.4449L9.20054 61.2214C7.07202 59.7118 5.67669 57.7301 4.97823 55.2292L3.53351 55.6327L2.0888 56.0362C2.97309 59.2024 4.77727 61.7622 7.46501 63.6685L8.33277 62.4449ZM3.53351 55.6327L4.97823 55.2292C4.20834 52.4726 3.65211 49.6345 3.31027 46.714L1.82044 46.8884L0.330613 47.0628C0.69012 50.1342 1.27593 53.1256 2.0888 56.0362L3.53351 55.6327ZM1.82044 46.8884L3.31027 46.714C2.9707 43.8129 2.90989 40.9109 3.12767 38.0066L1.63187 37.8945L0.136071 37.7823C-0.0960681 40.8781 -0.031163 43.972 0.330613 47.0628L1.82044 46.8884ZM1.63187 37.8945L3.12767 38.0066C3.3547 34.9791 3.49759 31.9514 3.55632 28.9236L2.0566 28.8945L0.556885 28.8654C0.499229 31.8376 0.358962 34.8099 0.136071 37.7823L1.63187 37.8945ZM2.0566 28.8945L3.55632 28.9236C3.61559 25.8681 3.50594 22.7959 3.22766 19.7073L1.73372 19.8419L0.239767 19.9765C0.508394 22.958 0.614004 25.9209 0.556885 28.8654L2.0566 28.8945ZM1.73372 19.8419L3.22766 19.7073C2.98364 16.9989 3.57938 14.5403 5.02079 12.2783L3.75578 11.4722L2.49077 10.6661C0.68918 13.4935 -0.0631211 16.6147 0.239767 19.9765L1.73372 19.8419ZM3.75578 11.4722L5.02079 12.2783C6.55319 9.87338 8.42228 7.80079 10.6315 6.05404L9.70112 4.87741L8.77078 3.70077C6.29582 5.65766 4.20136 7.98159 2.49077 10.6661L3.75578 11.4722ZM9.70112 4.87741L10.6315 6.05404C11.7521 5.16794 12.7144 4.54076 13.524 4.14086C14.3446 3.73553 14.9238 3.60584 15.3037 3.6072L15.3091 2.10721L15.3145 0.607223C14.2979 0.603568 13.2441 0.933063 12.1953 1.45113C11.1356 1.97463 9.99216 2.73506 8.77078 3.70077L9.70112 4.87741ZM15.3091 2.10721L15.3037 3.6072C16.6261 3.61196 18.7658 3.75328 21.7598 4.0425L21.904 2.54945L22.0482 1.0564C19.0422 0.766013 16.7853 0.612512 15.3145 0.607223L15.3091 2.10721Z" fill="#DFD4BE"/>
</svg>
