<svg width="117" height="32" viewBox="0 0 117 32" fill="none" xmlns="http://www.w3.org/2000/svg">
<path d="M57.9205 0C61.544 0.378975 71.8324 12.2039 72.1753 15.6688C70.6637 20.7759 63.358 27.6787 59.2291 31.0308C55.0776 30.142 46.2829 19.7744 44.0944 15.8718C48.9994 8.36452 51.9551 6.43356 57.9205 0Z" fill="#1E3656"/>
<path d="M57.8033 3.08105C59.9241 3.69915 66.8326 12.8396 68.6557 15.1225C66.4446 17.7573 60.7002 26.0722 58.3492 27.3806C54.3422 23.4419 50.3622 19.4717 46.4093 15.4744C50.1321 11.2741 53.9316 7.1415 57.8033 3.08105Z" fill="#C33E3F"/>
<path d="M9.27325 7.95093C9.02958 7.9419 8.78139 7.93286 8.53772 7.92835C-2.36435 7.72984 -2.77048 21.8151 7.00348 24.3732C16.6195 26.8907 21.2763 15.4222 29.6244 14.4928C34.3083 13.9694 35.1521 21.197 37.5753 23.5475L38.2748 23.4347C39.1005 22.2437 39.0374 21.3414 39.1772 19.8841C38.1845 17.1411 36.0366 12.7422 33.4735 11.1857C22.6888 4.63486 16.0825 25.3612 5.76256 19.3653C2.8069 17.6509 3.96659 11.8399 7.32836 11.664C9.2281 12.9453 8.76783 14.371 10.4284 15.9139C12.3282 15.3816 11.8228 15.7876 12.8877 14.5424C13.3931 11.7362 12.0123 9.56608 9.6568 8.17199L9.27325 7.95093Z" fill="#1E3656"/>
<path d="M28.9236 18.2085C29.9958 19.4717 30.2309 21.475 30.5968 23.1668L31.2868 25.4361C26.7089 28.2874 22.6486 19.4943 28.9236 18.2085Z" fill="#1E3656"/>
<path d="M107.291 6.97021C107.535 6.96119 107.783 6.95215 108.027 6.94763C118.929 6.74912 119.335 20.8344 109.561 23.3925C99.945 25.91 95.2881 14.4414 86.9401 13.512C82.2562 12.9887 81.4123 20.2163 78.9891 22.5668L78.2897 22.454C77.4639 21.263 77.5271 20.3606 77.3872 18.9034C78.3799 16.1603 80.5279 11.7615 83.0909 10.205C93.8757 3.65415 100.482 24.3805 110.802 18.3846C113.758 16.6701 112.598 10.8592 109.236 10.6833C107.336 11.9646 107.797 13.3902 106.136 14.9332C104.236 14.4008 104.742 14.8069 103.677 13.5617C103.171 10.7554 104.552 8.58537 106.908 7.19128L107.291 6.97021Z" fill="#1E3656"/>
<path d="M87.9508 18.0237C88.6186 18.1861 89.3271 18.5741 89.9543 18.8719C92.0075 21.4209 90.7666 23.7354 89.0969 26.0182C88.1358 26.1491 87.8921 26.0904 86.9626 25.9822L86.3399 25.1746C85.9473 23.1489 87.2152 20.0404 87.9508 18.0237Z" fill="#1E3656"/>
</svg>
