<svg width="82" height="82" viewBox="0 0 82 82" fill="none" xmlns="http://www.w3.org/2000/svg">
<path fill-rule="evenodd" clip-rule="evenodd" d="M46.1592 54.8833C51.2111 48.0913 58.34 33.7774 58.0594 25.0768C57.9497 21.1285 56.2973 17.3804 53.4565 14.6361C50.4979 11.3429 46.5644 9.08112 42.2299 8.18085C39.9075 7.9404 37.5605 8.1855 35.338 8.90059C33.1154 9.61568 31.0658 10.7851 29.3194 12.3347C25.4806 15.2098 22.9375 19.4888 22.2466 24.2348C21.8597 30.7622 23.4438 37.2552 26.7934 42.8709L34.1468 54.0975C34.9739 55.5934 35.8925 57.0369 36.8973 58.4197C37.1118 58.6972 37.3829 58.9258 37.6926 59.0903C38.0023 59.2549 38.3435 59.3516 38.6935 59.374C39.1353 59.3454 39.5496 59.1496 39.852 58.8263C40.1545 58.503 40.3223 58.0766 40.3214 57.6339C40.3214 55.1079 37.627 52.7503 37.4025 52.0206L31.0033 41.0747C28.9873 36.9662 27.9134 32.4596 27.8599 27.8835C28.2528 9.58417 51.2673 12.7276 52.4461 25.5259C53.2319 33.609 46.1592 47.979 43.0158 52.8626C42.7297 53.2734 42.6164 53.7801 42.7004 54.2736C42.7844 54.7671 43.0589 55.2078 43.4648 55.5008C43.6804 55.6435 43.9227 55.7408 44.177 55.787C44.4313 55.8332 44.6924 55.8272 44.9443 55.7695C45.1963 55.7118 45.4339 55.6034 45.6427 55.4511C45.8515 55.2988 46.0273 55.1056 46.1592 54.8833Z" fill="#FFF4E2"/>
<path fill-rule="evenodd" clip-rule="evenodd" d="M38.9742 22.2702C34.9887 21.8211 31.3962 29.6797 36.5605 32.2618C40.3775 34.1704 41.8369 32.2618 43.2964 30.4095C43.8691 29.6344 44.2109 28.7131 44.2823 27.752C44.3536 26.7909 44.1516 25.8292 43.6996 24.9781C43.2476 24.1269 42.5641 23.421 41.7279 22.9418C40.8917 22.4626 39.9371 22.2298 38.9742 22.2702Z" fill="#FFF4E2"/>
<path fill-rule="evenodd" clip-rule="evenodd" d="M65.2449 64.6714C61.8769 63.8864 63.2802 68.3655 57.8915 74.83C56.0391 75.2456 24.9977 76.8156 23.9311 75.5227C21.4913 72.0495 19.353 68.4388 17.532 64.7176C17.3449 64.4196 17.0327 64.1875 16.6534 64.0645C16.2741 63.9415 15.8534 63.9359 15.4694 64.0487C15.0854 64.1615 14.7643 64.3851 14.5655 64.6779C14.3667 64.9708 14.3038 65.313 14.3886 65.6411C15.7919 69.5198 18.9353 78.6626 21.8542 79.4938C32.0704 82.726 58.3406 79.817 61.1472 78.3394C63.9538 76.8618 65.4133 70.5357 66.7605 66.4261C66.8019 66.0333 66.6722 65.6411 66.3945 65.3197C66.1169 64.9983 65.7094 64.7685 65.2449 64.6714Z" fill="#FFF4E2"/>
</svg>
