<svg width="78" height="78" viewBox="0 0 78 78" fill="none" xmlns="http://www.w3.org/2000/svg">
<g clip-path="url(#clip0_271_6264)">
<path fill-rule="evenodd" clip-rule="evenodd" d="M2.24254 25.3167C2.37607 25.3213 2.5091 25.2983 2.63339 25.2493C2.75767 25.2003 2.87055 25.1262 2.96503 25.0317C3.0595 24.9373 3.13355 24.8244 3.18258 24.7001C3.23161 24.5758 3.25457 24.4428 3.25004 24.3092L3.67254 8.51424C3.67254 4.90674 1.75504 4.12674 9.03504 3.83424C12.285 3.60674 15.535 3.47674 18.785 3.24924C20.7675 3.24924 22.9125 2.89174 25.09 2.59924C25.3695 2.55892 25.6217 2.41005 25.7921 2.18493C25.9624 1.95982 26.0372 1.67661 26 1.39674C25.988 1.25263 25.947 1.11243 25.8794 0.984588C25.8118 0.856742 25.719 0.743886 25.6067 0.652807C25.4944 0.561728 25.3648 0.494307 25.2257 0.454599C25.0867 0.414891 24.941 0.403716 24.7975 0.421745H20.0525C16.25 0.519245 12.6425 0.324245 8.90504 0.259245C7.11894 0.153172 5.32667 0.284314 3.57504 0.649245C2.57892 0.932025 1.67956 1.48288 0.975038 2.24174C0.560238 2.782 0.291606 3.42 0.195038 4.09424C-0.00419579 5.58038 -0.0694583 7.08142 3.78496e-05 8.57925L1.23504 24.3417C1.24348 24.6033 1.35334 24.8513 1.54138 25.0332C1.72941 25.2152 1.98087 25.3169 2.24254 25.3167Z" fill="#FFF4E2"/>
<path fill-rule="evenodd" clip-rule="evenodd" d="M54.1772 3.47714C55.2497 3.47714 56.4522 3.47714 57.6872 3.31464H63.0172C64.5772 3.31464 67.3397 3.50964 69.8422 3.73714C71.1402 3.76694 72.4246 4.00845 73.6447 4.45214C73.9697 4.64714 73.9372 5.13464 73.9697 5.58964C74.0444 6.51981 74.0444 7.45447 73.9697 8.38464L74.7497 22.7496C74.7409 22.8932 74.7611 23.037 74.809 23.1725C74.857 23.3081 74.9317 23.4326 75.0287 23.5388C75.1257 23.6449 75.2431 23.7304 75.3738 23.7903C75.5045 23.8501 75.646 23.8831 75.7897 23.8871C75.9403 23.8916 76.0902 23.8653 76.2303 23.8097C76.3703 23.7541 76.4975 23.6705 76.6041 23.564C76.7106 23.4575 76.7942 23.3303 76.8498 23.1902C76.9054 23.0502 76.9317 22.9002 76.9272 22.7496L77.5772 8.48214C77.7538 6.88761 77.677 5.27518 77.3497 3.70464C77.0482 2.65773 76.3481 1.77087 75.3997 1.23464C73.719 0.540556 71.9205 0.176434 70.1022 0.162142C67.7051 0.115475 65.3072 0.202276 62.9197 0.422142L53.9497 1.52714C53.8212 1.54312 53.6972 1.58453 53.5848 1.64896C53.4725 1.7134 53.3741 1.79957 53.2955 1.90243C53.2168 2.0053 53.1594 2.12281 53.1267 2.24809C53.0939 2.37338 53.0865 2.50394 53.1047 2.63214C53.1373 2.88536 53.2678 3.11572 53.4684 3.27372C53.6689 3.43172 53.9234 3.50476 54.1772 3.47714Z" fill="#FFF4E2"/>
<path fill-rule="evenodd" clip-rule="evenodd" d="M24.31 74.1H13.7475C11.5834 74.2486 9.41162 74.2486 7.2475 74.1C3.1525 73.71 3.575 73.19 3.6075 70.85C3.6075 69.615 3.6075 67.86 3.315 65.9425C3.0225 62.075 2.4375 57.395 2.2425 54.8925C2.24257 54.7617 2.21632 54.6322 2.1653 54.5118C2.11428 54.3913 2.03954 54.2823 1.94554 54.1914C1.85153 54.1004 1.74017 54.0293 1.6181 53.9822C1.49604 53.9352 1.36575 53.9132 1.235 53.9175C0.979217 53.9341 0.739354 54.0475 0.564249 54.2347C0.389145 54.4218 0.291966 54.6687 0.2925 54.925L0 70.8175C0.0112009 72.0143 0.175023 73.2047 0.4875 74.36C0.690102 75.1814 1.15858 75.9126 1.82 76.44C3.40614 77.4165 5.22292 77.9548 7.085 78C9.42376 78.0355 11.7613 77.8724 14.0725 77.5125L24.505 76.4725C24.7981 76.4467 25.0689 76.3055 25.2578 76.0799C25.4467 75.8544 25.5384 75.5631 25.5125 75.27C25.4866 74.977 25.3454 74.7062 25.1199 74.5172C24.8944 74.3283 24.6031 74.2367 24.31 74.2625V74.1Z" fill="#FFF4E2"/>
<path fill-rule="evenodd" clip-rule="evenodd" d="M77.9997 64.2198L76.8297 52.6498C76.8297 52.3912 76.727 52.1432 76.5442 51.9604C76.3613 51.7775 76.1133 51.6748 75.8547 51.6748C75.5961 51.6748 75.3481 51.7775 75.1653 51.9604C74.9825 52.1432 74.8797 52.3912 74.8797 52.6498V64.1548C74.8797 65.2273 74.6197 67.6648 74.3272 69.8423C74.2921 70.8926 74.1061 71.9325 73.7747 72.9298C73.6122 73.2223 73.1247 73.2223 72.6697 73.3198C72.2147 73.4173 70.7847 73.6448 70.1347 73.7423C68.5965 74.0024 67.0449 74.176 65.4872 74.2623C61.3597 74.5223 56.3872 74.6198 53.9497 74.8148C53.6537 74.8316 53.376 74.9633 53.1757 75.1818C52.9754 75.4004 52.8683 75.6885 52.8772 75.9848C52.8855 76.13 52.9224 76.2721 52.9857 76.403C53.0491 76.534 53.1376 76.6511 53.2463 76.7477C53.355 76.8443 53.4817 76.9185 53.6191 76.9661C53.7566 77.0136 53.9021 77.0336 54.0472 77.0248C56.4847 77.0248 61.4247 77.3823 65.5522 77.4798C67.2764 77.5355 69.0024 77.4812 70.7197 77.3173C72.0797 77.2409 73.4292 77.0341 74.7497 76.6998C75.6572 76.387 76.4348 75.7809 76.9597 74.9773C77.5775 73.5129 77.9297 71.9502 77.9997 70.3623C78.1261 68.3168 78.1261 66.2654 77.9997 64.2198Z" fill="#FFF4E2"/>
<path fill-rule="evenodd" clip-rule="evenodd" d="M52.6501 34.3849L58.2726 33.6049C59.0787 33.6158 59.8839 33.5505 60.6776 33.4099C61.0689 33.2845 61.4328 33.086 61.7501 32.8249C62.4203 32.207 62.9139 31.4218 63.1801 30.5499C63.5387 29.134 63.7564 27.6862 63.8301 26.2274C64.5017 23.6791 64.5795 21.0106 64.0576 18.4274C63.7534 17.7296 63.2728 17.123 62.6631 16.6671C62.0534 16.2113 61.3355 15.9219 60.5801 15.8274L58.0126 15.5024H53.9501C52.3576 15.5024 50.4726 15.5024 48.6201 15.7949C47.5295 15.9046 46.4449 16.0673 45.3701 16.2824C45.2591 16.1181 45.099 15.993 44.9127 15.925C44.7264 15.8569 44.5234 15.8493 44.3326 15.9034C44.1418 15.9574 43.9728 16.0702 43.8499 16.2258C43.7269 16.3814 43.6561 16.5718 43.6476 16.7699C43.3876 18.5899 43.1926 20.4099 43.0626 22.2624C42.9326 24.1149 42.6401 25.9999 42.5751 27.7224C42.5751 28.2749 42.2826 29.5099 42.2501 30.5174C42.2119 31.1489 42.3118 31.781 42.5426 32.3699C42.8828 32.9564 43.3524 33.4574 43.9157 33.8347C44.4789 34.2121 45.1209 34.4559 45.7926 34.5474C48.0743 34.8257 50.3842 34.771 52.6501 34.3849ZM45.2726 30.9724V27.7224V22.2949V18.4599C46.3462 18.2699 47.4327 18.1613 48.5226 18.1349H53.7226L57.5901 18.4274L59.7026 18.8174C60.0423 18.8692 60.3538 19.0365 60.5847 19.291C60.8155 19.5455 60.9517 19.8718 60.9701 20.2149C60.892 22.0974 60.5864 23.9634 60.0601 25.7724C59.4426 29.5749 59.2801 29.6724 57.5901 29.8674L52.0001 30.8099C50.6153 31.0802 49.2152 31.2647 47.8076 31.3624C47.1071 31.4633 46.3957 31.4633 45.6951 31.3624C45.5001 31.1674 45.5001 31.1349 45.2726 30.9724Z" fill="#FFF4E2"/>
<path fill-rule="evenodd" clip-rule="evenodd" d="M35.23 48.0024C35.2772 47.3641 35.2772 46.7232 35.23 46.0849C35.1582 45.5766 34.9568 45.0953 34.645 44.6874C34.1545 44.0674 33.5021 43.595 32.76 43.3224C31.4876 42.9273 30.1596 42.7407 28.8275 42.7699C26.6519 42.7375 24.4774 42.8897 22.3275 43.2249C20.1214 43.5556 17.9821 44.2358 15.99 45.2399C15.7262 45.3728 15.5244 45.6031 15.4274 45.8821C15.3303 46.1611 15.3456 46.467 15.47 46.7349C15.5355 46.8657 15.6263 46.9822 15.7371 47.0777C15.8479 47.1732 15.9766 47.2457 16.1157 47.291C16.2548 47.3364 16.4014 47.3536 16.5472 47.3419C16.693 47.3301 16.8351 47.2895 16.965 47.2224C18.7867 46.4542 20.7161 45.9718 22.685 45.7924C24.707 45.6145 26.7406 45.6145 28.7625 45.7924C29.4949 45.8514 30.2224 45.96 30.94 46.1174C31.3406 46.1824 31.7134 46.3631 32.0125 46.6374V48.1324V53.2999C32.0949 54.4359 32.0949 55.5764 32.0125 56.7124C32.0034 57.099 31.9377 57.4823 31.8175 57.8499C31.5843 57.7753 31.3451 57.7209 31.1025 57.6874C30.1925 57.6874 29.25 57.6874 28.34 57.8824L25.5775 58.2399L21.0275 59.1174C16.25 59.8324 16.25 59.5724 16.25 58.0124V49.5299C16.25 49.2713 16.1473 49.0233 15.9645 48.8405C15.7816 48.6576 15.5336 48.5549 15.275 48.5549C15.0165 48.5549 14.7685 48.6576 14.5856 48.8405C14.4028 49.0233 14.3 49.2713 14.3 49.5299L13.5525 57.9474C13.477 58.7038 13.477 59.4659 13.5525 60.2224C13.612 60.6952 13.8164 61.1379 14.1375 61.4899C14.5549 61.8887 15.0709 62.1691 15.6325 62.3024C16.528 62.5018 17.4464 62.5783 18.3625 62.5299L21.6125 62.3024L26 61.7499L31.07 61.3274C31.7076 61.3921 32.35 61.3921 32.9875 61.3274C33.6832 61.1757 34.2907 60.7551 34.6775 60.1574C35.1226 59.4228 35.4103 58.6039 35.5225 57.7524C35.6691 56.2175 35.6691 54.6722 35.5225 53.1374L35.23 48.0024Z" fill="#FFF4E2"/>
<path fill-rule="evenodd" clip-rule="evenodd" d="M36.9851 25.2523C36.8226 22.5873 36.4976 19.9548 36.3351 17.3223C36.3353 17.0606 36.2336 16.8091 36.0516 16.6211C35.8696 16.4331 35.6216 16.3232 35.3601 16.3148C35.2336 16.3104 35.1076 16.3316 34.9894 16.377C34.8713 16.4224 34.7635 16.4911 34.6726 16.5791C34.5816 16.667 34.5092 16.7724 34.4598 16.8889C34.4105 17.0054 34.385 17.1307 34.3851 17.2573C34.0276 19.9223 33.7026 22.5548 33.5076 25.2198C33.5076 26.3573 33.5076 27.4948 33.3451 28.6323C33.3451 31.0698 33.7676 31.8823 30.8751 32.1423C29.5219 32.3711 28.1525 32.4907 26.7801 32.4998C26.4917 32.4627 26.2002 32.5409 25.969 32.7174C25.7378 32.8938 25.5855 33.1543 25.5451 33.4423C25.5222 33.5857 25.5288 33.7324 25.5643 33.8732C25.5998 34.0141 25.6635 34.1463 25.7517 34.2618C25.8398 34.3773 25.9505 34.4737 26.077 34.5451C26.2035 34.6165 26.3432 34.6615 26.4876 34.6773C28.6306 35.0705 30.8108 35.2232 32.9876 35.1323C34.2316 35.0917 35.4336 34.6721 36.4326 33.9298C36.8745 33.4438 37.148 32.8284 37.2126 32.1748C37.293 31.0929 37.293 30.0066 37.2126 28.9248C37.0501 27.5273 37.0501 26.3898 36.9851 25.2523Z" fill="#FFF4E2"/>
<path fill-rule="evenodd" clip-rule="evenodd" d="M21.8724 21.7746C21.4072 21.7412 20.9401 21.7412 20.4749 21.7746C19.3374 21.7746 18.3299 22.1646 17.2249 22.1646C16.9862 22.1331 16.7443 22.191 16.5457 22.3272C16.3472 22.4635 16.206 22.6684 16.1495 22.9024C16.093 23.1365 16.1252 23.3832 16.2397 23.595C16.3542 23.8068 16.5431 23.9687 16.7699 24.0496C18.051 24.7257 19.4344 25.1869 20.8649 25.4146C21.6745 25.5117 22.4928 25.5117 23.3024 25.4146C24.4724 25.4146 25.5774 24.9271 26.7474 24.7971C27.0437 24.806 27.3318 24.6989 27.5504 24.4986C27.7689 24.2983 27.9006 24.0206 27.9174 23.7246C27.893 23.4574 27.7693 23.209 27.5708 23.0285C27.3722 22.848 27.1132 22.7485 26.8449 22.7496C25.6812 22.4409 24.4975 22.2129 23.3024 22.0671C22.8334 21.9355 22.3555 21.8377 21.8724 21.7746Z" fill="#FFF4E2"/>
<path fill-rule="evenodd" clip-rule="evenodd" d="M44.3302 44.1024C46.4427 44.1024 48.7177 44.3299 51.1552 44.2974C52.4552 44.2974 53.7876 44.1024 55.1201 43.9724C57.1676 43.7774 59.1502 43.4849 61.0677 43.4199C61.2128 43.4327 61.359 43.4168 61.4979 43.3731C61.6369 43.3294 61.7659 43.2588 61.8776 43.1652C61.9892 43.0716 62.0814 42.957 62.1487 42.8278C62.2161 42.6987 62.2573 42.5575 62.2702 42.4124C62.283 42.2673 62.2671 42.1211 62.2233 41.9821C62.1796 41.8432 62.109 41.7142 62.0154 41.6025C61.9219 41.4908 61.8073 41.3987 61.6781 41.3313C61.5489 41.264 61.4078 41.2227 61.2627 41.2099C59.2772 40.8279 57.2687 40.5782 55.2502 40.4624H52.6177C51.757 40.5117 50.8998 40.6094 50.0502 40.7549C47.9377 41.1124 46.0202 41.6974 44.2002 42.1524C43.9383 42.185 43.6997 42.319 43.5357 42.5256C43.3716 42.7323 43.2951 42.995 43.3227 43.2574C43.3549 43.4986 43.4761 43.719 43.6625 43.8753C43.8489 44.0317 44.0871 44.1127 44.3302 44.1024Z" fill="#FFF4E2"/>
<path fill-rule="evenodd" clip-rule="evenodd" d="M55.2496 55.5097C56.0148 55.4996 56.7769 55.4125 57.5246 55.2497C58.2113 55.0368 58.8284 54.644 59.3121 54.1122C59.6895 53.5957 59.8736 52.9631 59.8321 52.3247C59.8321 51.1547 59.3446 49.2697 59.3121 48.7172C59.3123 48.4555 59.2106 48.2041 59.0286 48.0161C58.8467 47.828 58.5987 47.7182 58.3371 47.7097C58.2091 47.7097 58.0823 47.7349 57.964 47.7839C57.8457 47.8329 57.7382 47.9047 57.6477 47.9953C57.5572 48.0858 57.4854 48.1933 57.4364 48.3116C57.3874 48.4299 57.3621 48.5567 57.3621 48.6847C57.3621 49.1722 57.1021 51.1872 56.9071 52.2272H56.5496C56.1119 52.1792 55.6777 52.1033 55.2496 51.9997C53.6896 51.9997 51.7071 51.6097 49.8546 51.6097C48.3282 51.5631 46.8192 51.946 45.4996 52.7147C44.7093 53.2208 44.0908 53.9543 43.7253 54.8186C43.3598 55.683 43.2646 56.6377 43.4521 57.5572L43.9396 60.4497C43.9951 60.7409 44.1619 60.9989 44.4047 61.1688C44.6475 61.3388 44.9471 61.4073 45.2396 61.3597C45.3829 61.3325 45.5193 61.2772 45.641 61.1969C45.7628 61.1167 45.8675 61.0132 45.949 60.8924C46.0306 60.7716 46.0874 60.6358 46.1163 60.4929C46.1451 60.3499 46.1454 60.2027 46.1171 60.0597V57.4272C46.0904 56.9152 46.2664 56.4133 46.607 56.03C46.9477 55.6468 47.4255 55.4132 47.9371 55.3797C49.0162 55.2438 50.1081 55.2438 51.1871 55.3797C52.5846 55.5097 54.0471 55.5747 55.2496 55.5097Z" fill="#FFF4E2"/>
</g>
<defs>
<clipPath id="clip0_271_6264">
<rect width="78" height="78" fill="white"/>
</clipPath>
</defs>
</svg>
