<svg width="79" height="79" viewBox="0 0 79 79" fill="none" xmlns="http://www.w3.org/2000/svg">
<g clip-path="url(#clip0_271_6250)">
<path d="M48.6828 50.7572C48.0903 50.7572 46.6749 50.7572 44.4037 50.4939L45.0949 48.9139C45.8252 47.3734 46.3987 45.7634 46.8066 44.1081C46.9397 43.4978 46.9224 42.8642 46.7561 42.2621C46.5898 41.66 46.2795 41.1073 45.852 40.6518C44.7495 39.7348 43.3956 39.1726 41.9678 39.0389C39.3674 38.6768 36.1087 39.3022 34.1995 39.0389C32.7676 38.7667 31.3029 38.7112 29.8545 38.8743C29.2949 39.1377 28.867 40.4214 30.4141 40.8164C31.237 41.0139 33.2778 41.2772 34.0349 41.376C35.6149 41.5735 38.1824 41.6064 40.4207 41.9685C41.5728 42.166 43.482 42.9889 43.3503 43.5156C43.0212 44.7006 41.9349 47.1364 41.7374 47.7289L40.8816 50.1977H39.1699C32.0928 50.461 31.8624 50.7902 31.3028 52.041C30.7432 53.2918 38.7749 53.7197 39.1041 53.7527H39.6637L36.7012 62.311C36.6061 62.5817 36.622 62.879 36.7453 63.138C36.8686 63.397 37.0894 63.5967 37.3595 63.6935C37.6214 63.7891 37.9106 63.777 38.1635 63.6597C38.4165 63.5425 38.6127 63.3297 38.7091 63.0681L42.7907 53.7856C44.4365 53.6737 46.0742 53.4649 47.6953 53.1602C48.1124 53.1143 48.5217 53.0147 48.9132 52.8639C49.5057 52.5347 49.6374 52.1397 49.6045 51.8106C49.6065 51.5526 49.5138 51.3028 49.3439 51.1087C49.174 50.9145 48.9388 50.7895 48.6828 50.7572Z" fill="#FFF4E2"/>
<path d="M51.876 12.7388C51.5042 15.2346 51.7762 17.7839 52.666 20.1451C53.2609 21.3028 54.2587 22.2029 55.4714 22.6758C56.684 23.1487 58.0277 23.1618 59.2494 22.7126C60.0804 22.5113 60.8475 22.1043 61.4802 21.5292C62.1128 20.954 62.5908 20.2291 62.8702 19.4209C63.4085 17.5738 63.6092 15.6447 63.4627 13.7263V12.6072V8.92051C63.5119 8.1917 63.4019 7.4609 63.1404 6.77883C62.879 6.09675 62.4723 5.47971 61.9485 4.97051C60.1937 3.78008 58.0534 3.29792 55.9577 3.62093C55.8166 3.61652 55.6761 3.6405 55.5445 3.69146C55.4129 3.74242 55.2928 3.81931 55.1915 3.91756C55.0902 4.01581 55.0096 4.13343 54.9547 4.26342C54.8997 4.39341 54.8714 4.53312 54.8714 4.67426C54.7907 4.47129 54.6404 4.3036 54.4475 4.20111C54.2546 4.09862 54.0315 4.06799 53.8181 4.11468C53.6029 4.17493 53.406 4.28768 53.2452 4.4428C53.0843 4.59792 52.9645 4.79056 52.8964 5.00343C52.7003 6.15552 52.6231 7.32472 52.666 8.4926L52.2052 10.5005C52.0336 11.2362 51.9235 11.9849 51.876 12.7388ZM54.6081 11.3893C54.6081 11.3893 55.1348 5.26676 55.1348 5.03635C55.2178 5.23004 55.3553 5.39541 55.5307 5.5123C55.706 5.62919 55.9116 5.69256 56.1223 5.69468C59.0848 5.69468 60.3356 6.25426 60.6648 7.40635C60.7717 9.50067 60.628 11.6003 60.2369 13.6605C60.2458 14.9349 60.1022 16.2057 59.8089 17.4459C59.5785 18.2359 59.2823 19.0259 58.4594 19.2234C58.1382 19.3689 57.7886 19.4409 57.4361 19.4341C57.0835 19.4274 56.737 19.342 56.4216 19.1844C56.1062 19.0267 55.83 18.8006 55.6131 18.5227C55.3962 18.2447 55.244 17.9218 55.1677 17.5776C54.6445 15.5592 54.4555 13.4688 54.6081 11.3893Z" fill="#FFF4E2"/>
<path d="M28.1433 11.7184C28.1433 12.0475 28.3737 12.3767 29.6575 12.5084C31.5008 12.5084 32.2908 13.1009 34.8254 13.2325H38.9729H43.0875C45.3587 13.2325 46.7412 13.035 49.0454 12.8704C50.1317 12.8704 50.9875 10.7638 49.5392 10.4017C47.0375 10.3029 45.3258 9.87502 42.7912 9.87502H36.2079C34.1725 9.8683 32.1386 9.98923 30.1183 10.2371C28.7358 10.3359 28.1104 11.2246 28.1433 11.7184Z" fill="#FFF4E2"/>
<path d="M75.7078 13.3969C74.597 12.1884 73.1348 11.3594 71.5274 11.0269C70.0041 10.624 68.4259 10.4684 66.8533 10.566C64.5162 10.8952 65.1416 12.5081 66.3595 12.5081C67.4624 12.4971 68.5641 12.5852 69.6512 12.7714C71.2931 12.8887 72.8316 13.6168 73.9633 14.8123C74.7303 16.3508 75.1676 18.0325 75.247 19.7498C75.5762 22.3173 75.8395 25.6419 76.0041 29.2956C71.1653 29.2956 61.4549 28.9006 50.5595 28.7031H39.4008H28.242C16.4578 28.8019 6.22075 29.1969 2.99492 29.3285C2.97403 24.3622 3.48161 19.4078 4.50909 14.5489C4.83289 13.9545 5.30766 13.4559 5.88555 13.1034C6.46343 12.7509 7.12402 12.5569 7.80075 12.541C9.16787 12.2084 10.5759 12.0753 11.9812 12.146C12.1672 12.114 12.3383 12.0236 12.4695 11.8878C12.6007 11.7521 12.6853 11.5781 12.7109 11.391C12.7366 11.204 12.7021 11.0136 12.6123 10.8475C12.5225 10.6814 12.3821 10.5482 12.2116 10.4673C10.1725 10.0256 8.06238 10.0256 6.02325 10.4673C5.21555 10.6616 4.46319 11.0386 3.82405 11.5693C3.18492 12.1 2.67605 12.7703 2.33658 13.5285C1.05283 16.5569 -0.263832 33.2785 0.0324181 48.091C0.262835 58.8548 1.54659 68.4994 3.91659 71.396C5.66117 73.5027 10.2037 74.6877 15.9312 75.1485C24.8516 75.741 36.7016 74.7535 42.8241 74.7535C50.5129 74.997 58.2095 74.7441 65.8658 73.9964C69.3172 73.6966 72.6743 72.7119 75.7408 71.0998C76.6339 70.3426 77.2289 69.2926 77.4195 68.1373C78.5915 61.3778 79.1206 54.5224 78.9995 47.6631C78.9995 32.9164 77.7816 15.8327 75.7078 13.3969ZM74.8849 64.286C74.7014 65.7306 74.3365 67.1462 73.7987 68.4994C70.1151 70.0412 66.1717 70.8678 62.1791 70.9352C54.4766 71.5606 45.9841 71.2644 42.8241 71.2644C36.7674 71.2644 25.0162 72.2848 16.1616 71.7581C11.6191 71.4948 7.86659 71.0339 6.48409 69.3881C4.24575 66.7877 3.29117 57.9331 2.99492 48.1569C2.77609 42.5306 2.75413 36.8984 2.92908 31.2706C6.22075 31.2706 16.2603 31.7973 28.242 32.0277H39.4008H50.5595C61.5208 31.8302 71.2641 31.5339 76.0699 31.4023C76.0699 34.6939 76.2345 38.4135 76.0699 42.0344C76.1359 49.469 75.7401 56.9005 74.8849 64.286Z" fill="#FFF4E2"/>
<path d="M14.7461 12.6399C14.4928 15.2757 14.7498 17.9356 15.5032 20.474C16.0981 21.6317 17.0959 22.5318 18.3086 23.0048C19.5212 23.4777 20.8649 23.4908 22.0866 23.0415C22.9249 22.848 23.7001 22.4443 24.3393 21.8685C24.9785 21.2926 25.4607 20.5635 25.7403 19.7499C26.3002 17.8845 26.5012 15.9298 26.3328 13.9895V10.5003V9.18363C26.3776 8.45524 26.2656 7.72572 26.0044 7.0443C25.7432 6.36289 25.3388 5.74544 24.8186 5.23363C23.0698 4.02863 20.9279 3.53434 18.8278 3.85113C18.5397 3.85113 18.2634 3.96557 18.0597 4.16928C17.856 4.37299 17.7416 4.64929 17.7416 4.93738C17.6608 4.7344 17.5105 4.56672 17.3176 4.46423C17.1247 4.36174 16.9016 4.3311 16.6882 4.37779C16.473 4.43804 16.2762 4.55079 16.1153 4.70591C15.9544 4.86103 15.8346 5.05368 15.7666 5.26654C15.5194 6.34764 15.3761 7.44986 15.3386 8.55821L14.9766 10.3028V11.1586L14.7461 12.6399ZM17.4453 11.6853C17.4453 11.6853 17.972 5.59571 17.972 5.33238C18.0461 5.5348 18.1805 5.70961 18.3571 5.83322C18.5337 5.95683 18.7439 6.02329 18.9595 6.02363C21.922 6.02363 23.1728 6.58321 23.502 7.73529C23.598 9.83093 23.4433 11.9305 23.0411 13.9895C23.044 15.2635 22.9005 16.5336 22.6132 17.7749C22.4157 18.532 22.1195 19.322 21.2966 19.5195C20.9754 19.6649 20.6258 19.7369 20.2733 19.7302C19.9207 19.7234 19.5742 19.6381 19.2588 19.4804C18.9434 19.3227 18.6672 19.0966 18.4503 18.8187C18.2334 18.5407 18.0812 18.2179 18.0049 17.8736C17.4757 15.8563 17.2866 13.7648 17.4453 11.6853Z" fill="#FFF4E2"/>
</g>
<defs>
<clipPath id="clip0_271_6250">
<rect width="79" height="79" fill="white"/>
</clipPath>
</defs>
</svg>
