<svg width="79" height="79" viewBox="0 0 79 79" fill="none" xmlns="http://www.w3.org/2000/svg">
<g clip-path="url(#clip0_271_6235)">
<path d="M78.3089 28.5388C77.3596 23.9421 75.4652 19.5929 72.746 15.7671C67.0514 7.3075 64.1219 4.80583 55.2673 2.86375C52.4904 2.24004 49.6754 1.8002 46.8406 1.54708C43.9939 1.28444 41.129 1.28444 38.2823 1.54708C35.8973 1.80055 33.5326 2.21849 31.2052 2.79792C29.625 3.18597 28.0827 3.71475 26.5969 4.37792C23.8273 5.59329 21.1629 7.03556 18.631 8.69C16.0305 10.3567 13.6619 12.36 11.5869 14.6479C9.20672 17.2964 7.11056 20.1869 5.3327 23.2721C3.58156 26.3729 2.25311 29.694 1.3827 33.1471C0.851907 35.2339 0.47781 37.3574 0.26353 39.5C-0.0313114 41.6813 -0.119481 43.8855 0.000196874 46.0833C0.337585 49.5153 1.28509 52.8595 2.79811 55.9583C4.22264 59.0645 6.02471 61.9832 8.16353 64.6483C9.38145 66.1296 10.5006 67.6108 11.7844 68.9604C12.699 69.9514 13.7139 70.8449 14.8127 71.6267C20.0859 75.2612 26.2863 77.3166 32.6864 77.5517C38.9065 77.7906 45.1257 77.0576 51.1198 75.3792C56.4527 74.1788 61.4686 71.856 65.8335 68.5654C69.9545 65.0089 73.4001 60.7381 76.0048 55.9583C76.9037 54.2562 77.568 52.4403 77.9798 50.56C78.6066 47.849 78.9486 45.08 79.0002 42.2979C79.2032 37.7 78.9718 33.0932 78.3089 28.5388ZM76.0706 42.265C76.0011 44.3805 75.7366 46.4851 75.2806 48.5521C74.9208 50.5515 74.2546 52.4834 73.3056 54.2796C70.8484 58.6669 67.6267 62.5796 63.7927 65.8333C59.7453 68.7724 55.1062 70.7942 50.1981 71.7583C44.5739 73.2992 38.7418 73.9435 32.9169 73.6675C27.2283 73.4655 21.7143 71.6504 17.0181 68.4338C16.1285 67.7891 15.3019 67.0617 14.5494 66.2612C13.3314 64.9775 12.2452 63.5621 11.2577 62.1796C9.29958 59.7548 7.64172 57.1022 6.3202 54.2796C4.99225 51.5392 4.1566 48.5866 3.85145 45.5567C3.68854 43.629 3.68854 41.691 3.85145 39.7633C4.01183 37.8226 4.31995 35.8968 4.77311 34.0029C5.49203 30.8109 6.6438 27.7322 8.19645 24.8521C9.80268 21.9203 11.7232 19.1721 13.9239 16.6558C15.7556 14.5135 17.8707 12.6309 20.211 11.06C22.5971 9.44944 25.1066 8.02962 27.716 6.81375C29.3785 6.02269 31.1225 5.41562 32.9169 5.00333C34.764 4.58668 36.6319 4.26804 38.5127 4.04875C41.2079 3.69516 43.9322 3.61795 46.6431 3.81833C49.3914 3.95488 52.1228 4.32934 54.8064 4.9375C62.2127 6.74792 65.0106 8.22917 70.6064 17.1167C73.0959 20.7025 74.8316 24.7563 75.7085 29.0325C76.2648 33.4206 76.386 37.853 76.0706 42.265Z" fill="#FFF4E2"/>
<path d="M43.4834 44.3714C42.7921 43.6802 42.035 43.0548 41.3767 42.3306C41.0667 41.9696 40.8217 41.5575 40.6525 41.1127C40.4351 40.2372 40.4351 39.3219 40.6525 38.4464C40.8829 36.5702 41.4096 34.661 41.5413 33.081C41.7388 28.8677 41.3767 24.4898 41.5413 20.1777C41.5413 18.3929 41.6734 16.6105 41.9363 14.8452C41.9601 14.7177 41.9585 14.5867 41.9317 14.4598C41.9049 14.3328 41.8533 14.2125 41.78 14.1055C41.7066 13.9985 41.6129 13.907 41.5041 13.8362C41.3954 13.7655 41.2738 13.7168 41.1463 13.6931C41.0207 13.6643 40.8907 13.6612 40.7639 13.684C40.6371 13.7068 40.5163 13.755 40.4087 13.8258C40.301 13.8965 40.2088 13.9883 40.1376 14.0956C40.0664 14.2029 40.0176 14.3235 39.9942 14.4502C39.5105 16.2769 39.1584 18.136 38.9409 20.0131C38.4471 24.2593 38.4142 28.5714 37.8546 32.7518C37.8546 34.5623 36.9329 36.9323 36.9 39.0718C36.8796 40.2004 37.0925 41.3211 37.5254 42.3635C37.9058 43.1849 38.4297 43.9317 39.0725 44.5689C39.8296 45.2931 40.7184 45.8856 41.5742 46.5768L49.0463 52.7323C49.2776 52.9243 49.5758 53.0166 49.8752 52.9888C50.1746 52.9611 50.4507 52.8155 50.6427 52.5841C50.8348 52.3528 50.9271 52.0546 50.8993 51.7552C50.8715 51.4558 50.726 51.1797 50.4946 50.9877L43.4834 44.3714Z" fill="#FFF4E2"/>
<path d="M40.7837 63.4307V60.1391C40.7837 59.1186 40.6191 58.0982 40.5204 57.1107C40.5452 56.9652 40.537 56.8159 40.4964 56.6739C40.4559 56.5319 40.384 56.4008 40.2861 56.2903C40.1882 56.1797 40.0668 56.0926 39.9307 56.0352C39.7947 55.9778 39.6475 55.9516 39.5 55.9586C39.2349 55.9585 38.9803 56.0615 38.7898 56.2458C38.5994 56.4301 38.4881 56.6812 38.4796 56.9461C38.4796 57.9336 38.1504 58.9211 38.0187 59.9415C37.8871 60.962 38.0187 61.2911 38.0187 61.9824C38.0499 63.7475 38.2818 65.5034 38.71 67.2161C38.8013 67.4766 38.9831 67.6957 39.2224 67.8334C39.4616 67.9711 39.7424 68.0184 40.0135 67.9665C40.2846 67.9147 40.5282 67.7672 40.6997 67.551C40.8713 67.3347 40.9595 67.064 40.9483 66.7882C40.8272 65.6733 40.7723 64.5522 40.7837 63.4307Z" fill="#FFF4E2"/>
<path d="M69.8826 37.2948C67.9406 37.2948 66.0314 36.9986 64.1222 37.0973C62.7909 37.1801 61.4693 37.3783 60.1722 37.6898C60.0423 37.7021 59.9161 37.7401 59.8009 37.8015C59.6858 37.8629 59.5839 37.9465 59.5013 38.0476C59.4187 38.1486 59.3568 38.265 59.3195 38.39C59.2821 38.515 59.2698 38.6463 59.2835 38.776C59.2958 38.906 59.3338 39.0322 59.3952 39.1473C59.4566 39.2625 59.5402 39.3643 59.6412 39.447C59.7422 39.5296 59.8586 39.5914 59.9837 39.6288C60.1087 39.6662 60.2399 39.6784 60.3697 39.6648C61.3243 39.6648 62.246 39.6648 63.2006 39.8623H65.1097C66.7387 39.8235 68.3646 39.7027 69.9814 39.5002C70.2782 39.5002 70.5629 39.3823 70.7728 39.1724C70.9826 38.9625 71.1006 38.6779 71.1006 38.381C71.1006 38.0842 70.9826 37.7996 70.7728 37.5897C70.5629 37.3798 70.2782 37.2619 69.9814 37.2619L69.8826 37.2948Z" fill="#FFF4E2"/>
<path d="M21.8567 38.1501C20.4634 37.9192 19.0554 37.7872 17.6434 37.7551H12.9034C11.3914 37.8703 9.87288 37.8703 8.36091 37.7551C8.23334 37.7261 8.10127 37.7227 7.97237 37.7451C7.84348 37.7675 7.72032 37.8154 7.61007 37.8858C7.49982 37.9562 7.40466 38.0479 7.33013 38.1554C7.25559 38.263 7.20317 38.3842 7.17591 38.5122C7.12606 38.7691 7.17684 39.0354 7.31775 39.2559C7.45865 39.4765 7.67891 39.6344 7.93299 39.6972C9.31453 40.1304 10.7378 40.4172 12.1792 40.553C13.7797 40.6518 15.3847 40.6518 16.9851 40.553C18.5651 40.553 20.0792 40.3555 21.6263 40.553C21.7899 40.5917 21.96 40.5942 22.1247 40.5602C22.2894 40.5262 22.4446 40.4565 22.5795 40.3561C22.7143 40.2558 22.8256 40.1271 22.9055 39.9791C22.9853 39.8312 23.0318 39.6675 23.0417 39.4997C23.0782 39.329 23.0743 39.1522 23.0303 38.9834C22.9863 38.8145 22.9035 38.6583 22.7883 38.5272C22.6732 38.396 22.529 38.2937 22.3672 38.2282C22.2055 38.1627 22.0307 38.136 21.8567 38.1501Z" fill="#FFF4E2"/>
<path d="M17.6439 25.9381C18.123 26.3984 18.6406 26.8169 19.191 27.1889C19.6858 27.4805 20.1491 27.8225 20.5735 28.2093C20.7561 28.4444 21.0226 28.5997 21.3171 28.6427C21.6116 28.6856 21.9114 28.6129 22.1535 28.4398C22.3909 28.2514 22.547 27.9792 22.5899 27.6792C22.6327 27.3792 22.559 27.0742 22.3839 26.8268C21.9159 26.086 21.3514 25.4108 20.7052 24.8189C20.2724 24.4423 19.8101 24.101 19.3227 23.7985C18.8289 23.5023 18.3352 23.3377 17.8743 23.0414C17.6866 22.8537 17.4321 22.7483 17.1666 22.7483C16.9012 22.7483 16.6466 22.8537 16.4589 23.0414C16.2712 23.2291 16.1658 23.4837 16.1658 23.7491C16.1658 24.0146 16.2712 24.2692 16.4589 24.4568C16.7964 24.994 17.194 25.4909 17.6439 25.9381Z" fill="#FFF4E2"/>
<path d="M30.1847 16.458C30.0143 16.1413 29.8275 15.8336 29.6251 15.5363C29.2301 15.0755 28.7693 14.7134 28.3413 14.2855C28.27 14.1753 28.1777 14.0802 28.0696 14.0056C27.9615 13.9311 27.8398 13.8786 27.7114 13.851C27.5831 13.8235 27.4505 13.8216 27.3214 13.8453C27.1923 13.869 27.0691 13.9179 26.9588 13.9893C26.8486 14.0606 26.7535 14.1529 26.679 14.261C26.6044 14.3691 26.5519 14.4908 26.5244 14.6191C26.4969 14.7475 26.4949 14.8801 26.5186 15.0092C26.5424 15.1383 26.5913 15.2615 26.6626 15.3718C26.9491 16.1305 27.2901 16.8676 27.683 17.5772C28.2755 18.5647 29.0984 19.3547 29.7238 20.3422C29.793 20.4718 29.887 20.5866 30.0006 20.68C30.1141 20.7733 30.2449 20.8434 30.3855 20.8862C30.5261 20.929 30.6737 20.9436 30.82 20.9294C30.9663 20.9151 31.1083 20.8722 31.238 20.803C31.3709 20.7373 31.489 20.645 31.5849 20.532C31.6808 20.4189 31.7526 20.2874 31.7958 20.1455C31.8389 20.0037 31.8526 19.8545 31.8359 19.7072C31.8193 19.5598 31.7726 19.4175 31.6988 19.2888C31.2853 18.2992 30.7783 17.3513 30.1847 16.458Z" fill="#FFF4E2"/>
<path d="M51.8111 16.82C52.1073 16.3921 52.4694 16.063 52.7657 15.635C52.9732 15.324 53.1496 14.9932 53.2923 14.6475C53.5109 14.0109 53.6329 13.3452 53.6544 12.6725C53.6894 12.5472 53.6992 12.4161 53.6834 12.287C53.6675 12.1578 53.6263 12.033 53.562 11.9199C53.4978 11.8067 53.4118 11.7073 53.309 11.6275C53.2063 11.5476 53.0887 11.4889 52.9632 11.4546C52.8378 11.4149 52.7057 11.4014 52.5749 11.4151C52.4441 11.4288 52.3176 11.4694 52.2033 11.5343C52.0889 11.5992 51.9892 11.687 51.9104 11.7923C51.8316 11.8975 51.7754 12.0179 51.7453 12.1459C51.5148 12.475 51.2186 12.7055 50.9882 13.0346C50.8442 13.2578 50.7123 13.4885 50.5932 13.7259C50.2706 14.4196 49.9957 15.1344 49.7703 15.8655C49.6457 16.132 49.6311 16.4369 49.7297 16.7141C49.8283 16.9913 50.032 17.2186 50.2969 17.3467C50.5683 17.4727 50.878 17.4882 51.1606 17.3899C51.4432 17.2916 51.6765 17.0873 51.8111 16.82Z" fill="#FFF4E2"/>
<path d="M60.929 23.5684C61.6193 22.9775 62.2785 22.3512 62.904 21.6922C63.0278 21.6074 63.1326 21.498 63.212 21.3707C63.2914 21.2434 63.3436 21.1011 63.3652 20.9526C63.3868 20.8042 63.3775 20.6529 63.3378 20.5082C63.2981 20.3636 63.2288 20.2287 63.1344 20.1122C62.9718 19.8559 62.7147 19.6741 62.4189 19.6063C62.123 19.5385 61.8124 19.5902 61.5544 19.7501C61.0277 20.0463 60.534 20.2438 60.0402 20.573C59.7003 20.7966 59.3808 21.05 59.0857 21.3301C58.6112 21.8465 58.2222 22.4355 57.9336 23.0747C57.839 23.1667 57.7639 23.2767 57.7125 23.3983C57.6612 23.5198 57.6348 23.6504 57.6348 23.7824C57.6348 23.9143 57.6612 24.0449 57.7125 24.1665C57.7639 24.288 57.839 24.3981 57.9336 24.4901C58.1182 24.671 58.3663 24.7724 58.6248 24.7724C58.8833 24.7724 59.1315 24.671 59.3161 24.4901C59.9415 24.128 60.4682 23.9305 60.929 23.5684Z" fill="#FFF4E2"/>
<path d="M63.4961 48.0913C63.2508 47.9426 62.9845 47.8316 62.7061 47.7621C62.2686 47.7134 61.827 47.7134 61.3895 47.7621C61.1445 47.674 60.8751 47.6829 60.6364 47.7869C60.3978 47.8909 60.2079 48.0822 60.1057 48.3217C60.0277 48.571 60.0451 48.8405 60.1546 49.0777C60.2641 49.315 60.4578 49.503 60.6982 49.6054C61.1261 49.9017 61.4224 50.2967 61.8832 50.56C62.344 50.8233 63.2657 51.0867 63.8911 51.4158C64.01 51.5023 64.1447 51.5645 64.2876 51.5989C64.4306 51.6333 64.5788 51.6392 64.724 51.6162C64.8692 51.5933 65.0085 51.542 65.1338 51.4653C65.2592 51.3885 65.3682 51.2878 65.4547 51.169C65.5411 51.0501 65.6033 50.9154 65.6377 50.7724C65.6721 50.6295 65.678 50.4813 65.655 50.3361C65.6321 50.1909 65.5808 50.0516 65.5041 49.9263C65.4273 49.8009 65.3267 49.6919 65.2078 49.6054C64.7157 49.0184 64.1388 48.5081 63.4961 48.0913Z" fill="#FFF4E2"/>
<path d="M55.1687 58.2293C54.9668 57.9222 54.7352 57.6355 54.4774 57.3735C54.1153 56.9456 53.6874 56.6164 53.2924 56.2214C53.2304 56.1062 53.1462 56.0045 53.0445 55.9221C52.9428 55.8397 52.8258 55.7784 52.7003 55.7417C52.5747 55.7049 52.4431 55.6935 52.313 55.708C52.183 55.7226 52.0572 55.7628 51.9429 55.8264C51.7221 55.9631 51.5618 56.1788 51.4946 56.4295C51.4273 56.6802 51.4581 56.9472 51.5808 57.176C51.8278 57.9662 52.1589 58.7276 52.5683 59.4472C52.8043 59.8368 53.08 60.2009 53.3912 60.5335C53.8191 61.0602 54.2799 61.4881 54.6749 62.0148C54.8265 62.2733 55.0728 62.4626 55.3617 62.5425C55.6505 62.6224 55.9591 62.5866 56.222 62.4427C56.3505 62.368 56.4629 62.2684 56.5525 62.1498C56.6421 62.0312 56.7072 61.896 56.744 61.752C56.7807 61.6079 56.7884 61.458 56.7666 61.311C56.7449 61.164 56.694 61.0227 56.617 60.8956C56.2255 59.9602 55.7403 59.0669 55.1687 58.2293Z" fill="#FFF4E2"/>
<path d="M26.498 58.5255C26.1222 58.7812 25.7596 59.0559 25.4117 59.3484C25.1802 59.5473 24.9803 59.7804 24.8192 60.0396C24.3844 60.6785 23.9993 61.3498 23.6671 62.0476C23.5089 62.2999 23.4515 62.6027 23.5064 62.8955C23.5613 63.1883 23.7245 63.4496 23.9634 63.6276C24.0858 63.7142 24.2243 63.7753 24.3708 63.8073C24.5173 63.8394 24.6687 63.8416 24.8161 63.814C24.9635 63.7864 25.1038 63.7294 25.2288 63.6465C25.3537 63.5636 25.4607 63.4564 25.5434 63.3313C26.1695 62.7271 26.7629 62.0898 27.3209 61.4221C27.6334 60.8916 27.8872 60.3288 28.078 59.7434C28.2395 59.5339 28.3111 59.2688 28.2772 59.0064C28.2432 58.7441 28.1065 58.5059 27.8969 58.3444C27.6874 58.1829 27.4223 58.1113 27.16 58.1452C26.8976 58.1792 26.6595 58.3159 26.498 58.5255Z" fill="#FFF4E2"/>
<path d="M18.1044 49.0461C17.3144 49.0461 16.5573 49.0461 15.8002 49.3094C15.2821 49.4974 14.7855 49.7401 14.3189 50.0336C14.1914 50.0574 14.0698 50.106 13.9611 50.1768C13.8524 50.2476 13.7587 50.3391 13.6853 50.446C13.5372 50.6621 13.4809 50.9282 13.5289 51.1857C13.577 51.4432 13.7253 51.6711 13.9414 51.8193C14.0484 51.8927 14.1687 51.9442 14.2956 51.9711C14.4226 51.9979 14.5535 51.9995 14.681 51.9757C15.2395 52.0248 15.8013 52.0248 16.3598 51.9757C17.1688 51.7955 17.9534 51.5192 18.6969 51.1528C18.9884 51.0685 19.235 50.8725 19.3829 50.6075C19.5308 50.3425 19.5682 50.0298 19.4869 49.7374C19.3895 49.4665 19.1916 49.2435 18.9341 49.1147C18.6766 48.986 18.3795 48.9614 18.1044 49.0461Z" fill="#FFF4E2"/>
</g>
<defs>
<clipPath id="clip0_271_6235">
<rect width="79" height="79" fill="white"/>
</clipPath>
</defs>
</svg>
