<svg width="557" height="406" viewBox="0 0 557 406" fill="none" xmlns="http://www.w3.org/2000/svg">
<path fill-rule="evenodd" clip-rule="evenodd" d="M555.298 153.261C548.413 204.594 540.642 231.709 495.282 285.467C449.922 339.224 242.35 374.589 165.611 374.589C88.8722 374.589 -5.69978 315.415 0.268935 246.853C6.23765 178.29 37.3774 122.252 111.912 115.353C188.082 108.304 254.99 140.95 329.771 123.441C394.423 108.304 414.205 50.6046 458.609 32.4008C548.413 -4.41497 559.982 118.339 555.298 153.261Z" fill="#DC4649"/>
<path d="M509.097 178.331C506.56 182.631 474.442 204.392 454.959 207.612C451.189 208.236 447.072 208.45 443.797 206.481C441.863 205.318 440.421 203.505 439.052 201.71C435.921 197.608 432.934 193.395 430.098 189.083C428.608 186.818 427.13 184.452 426.624 181.788C425.284 174.733 430.971 168.396 436.591 163.925C449.511 153.649 464.638 146.163 480.645 142.125C483.478 141.41 486.483 140.805 489.29 141.617C493.846 142.935 496.57 147.545 498.308 151.957C500.046 156.37 501.402 161.197 504.877 164.425C505.67 165.162 511.634 174.03 509.097 178.331Z" fill="#FFF5E5"/>
<path fill-rule="evenodd" clip-rule="evenodd" d="M336.515 365.803C305.343 371.134 320.2 348.478 324.499 320.121C331.562 273.527 340.273 202.718 340.273 202.718C340.273 202.718 345.953 310.613 345.953 336.885C345.953 363.157 340.272 365.16 336.515 365.803Z" fill="#FFF5E5"/>
<path d="M303.208 340.133C304.003 347.637 304.842 355.299 308.031 362.137C306.291 346.652 304.551 331.167 302.812 315.681C302.597 313.769 302.66 311.335 304.42 310.555C305.908 328.041 308.127 345.464 311.07 362.765C311.419 364.818 308.334 365.992 306.601 364.835C304.869 363.678 304.314 361.426 303.92 359.38C301.049 344.472 299.47 329.315 299.208 314.136C295.553 314.856 292.989 318.399 292.25 322.051C291.51 325.702 292.223 329.473 292.935 333.13C295.228 344.901 297.52 356.672 299.813 368.443C300.885 373.949 301.957 379.637 300.774 385.12C296.224 364.348 292.566 343.38 289.814 322.294C254.904 343.641 209.921 347.611 171.812 332.708C163.489 329.453 155.223 325.139 149.725 318.093C145.395 312.542 143.084 305.651 141.873 298.716C137.574 274.085 146.384 248.961 158.343 227.003C162.881 218.671 168.049 209.994 167.683 200.513C167.557 197.25 166.853 193.636 168.759 190.983C169.029 191.474 156.281 100.29 161.395 80.1208C173.706 31.5641 213.697 24.9881 239.303 25.587C256.483 25.9889 365.383 47.6309 381.117 77.0615C401.796 115.742 397.406 148.262 393.733 169.705C392.639 176.091 340.287 202.249 340.272 202.381C337.279 230.205 317.194 290.832 300.349 313.179C301.302 322.164 302.255 331.149 303.208 340.133Z" fill="#FFF5E5"/>
<path fill-rule="evenodd" clip-rule="evenodd" d="M51.8399 226.918C42.0219 222.999 30.3217 224.161 21.4701 229.935C20.6132 230.494 19.3811 229.871 18.9569 228.941C18.5327 228.011 18.6914 226.929 18.9083 225.93C21.7354 212.921 32.9974 202.966 45.5218 198.392C58.0462 193.817 71.7457 193.804 85.0592 194.586C86.3803 194.664 87.761 194.767 88.8878 195.459C90.0147 196.152 90.7729 197.633 90.2112 198.829C84.974 209.981 81.0289 221.737 78.4795 233.788C78.0661 235.742 76.0413 237.039 74.0471 237.202C72.0529 237.365 70.0989 236.629 68.2892 235.777C62.6491 233.122 57.6297 229.229 51.8399 226.918" fill="#FFF5E5"/>
<path d="M257.602 396.683C263.338 396.523 269.108 397.79 274.248 400.34C272.874 402.315 270.113 402.592 267.709 402.683C246.767 403.478 225.825 404.273 204.883 405.068C204.307 404.996 204.198 404.106 204.606 403.694C205.014 403.281 205.652 403.229 206.231 403.201L267.561 400.209C264.018 399.884 260.561 398.66 257.602 396.683ZM359.993 344.744C360.465 344.047 361.53 343.678 362.168 344.227C359.651 355.874 357.134 367.521 354.618 379.167C357.109 377.316 360.256 376.367 363.355 376.534C360.609 378.579 358.52 381.493 357.464 384.75C359.286 383.346 362.39 384.321 363.08 386.516C364.142 385.732 365.898 386.263 366.347 387.504C366.797 388.746 365.787 390.279 364.469 390.356C387.865 390.561 411.261 390.766 434.657 390.972C420.081 393.734 405.089 391.614 390.256 391.34C380.617 391.162 370.964 391.772 361.425 393.16C362.268 391.502 362.875 389.724 363.222 387.896C344.842 393.055 325.352 386.947 306.261 387.066C301.103 387.098 294.928 388.3 293.029 393.096C292.194 387.869 291.359 382.642 290.524 377.415C289.764 381.63 289.004 385.845 288.244 390.06C288.058 391.093 287.818 392.218 286.997 392.871C285.94 393.711 284.301 393.374 283.292 392.477C282.283 391.58 281.757 390.272 281.283 389.008C278.489 381.548 276.342 373.845 274.876 366.014C274.782 375.64 278.729 384.789 282.602 393.601C280.915 393.133 279.227 392.665 277.54 392.198C278.905 393.91 280.271 395.623 281.636 397.335C277.411 395.751 273.316 393.818 269.408 391.562C271.02 393.812 272.631 396.061 274.243 398.311C270.291 396.445 266.824 393.56 264.271 390.013C267.844 389.044 271.842 389.793 274.823 391.989C273.441 390.019 272.811 387.533 273.09 385.142C274.997 386.816 276.905 388.49 278.812 390.163C275.591 382.789 273.355 374.985 272.182 367.024C271.949 365.441 272.125 363.293 273.69 362.96C275.3 362.618 276.316 364.61 276.733 366.202C278.527 373.043 280.321 379.884 282.115 386.725C282.826 384.316 283.536 381.908 284.247 379.499C284.593 382.391 285.549 385.209 287.033 387.715C287.532 382.605 289.088 377.6 291.574 373.108C292.116 378.11 292.658 383.112 293.201 388.114C309.513 383.058 327 388.394 344.063 389.116C347.509 389.261 351.156 389.164 354.105 387.376C357.054 385.589 358.906 381.563 357.211 378.56C355.454 381.411 353.187 383.948 350.551 386.013C352.976 380.772 355.452 375.313 355.411 369.538C352.987 374.333 350.563 379.128 348.138 383.922C346.888 381.824 345.637 379.726 344.386 377.628C342.709 380.623 343.223 384.686 345.593 387.169C343.526 385.785 341.459 384.4 339.392 383.016C339.079 383.855 338.766 384.694 338.453 385.533C336.437 384.892 334.8 383.17 334.261 381.124C336.37 380.269 338.921 380.621 340.72 382.014C342.042 378.824 343.365 375.634 344.688 372.445C345.611 375.115 346.535 377.785 347.458 380.455C354.509 370.806 358.717 359.104 359.424 347.173C359.473 346.333 359.521 345.442 359.993 344.744ZM360.117 387.193C359.851 386.339 358.401 386.272 358.056 387.097L357.851 387.019C357.594 387.322 357.593 387.812 357.847 388.117C358.663 387.995 359.448 387.675 360.117 387.193ZM168.759 190.983C170.858 194.802 171.658 199.322 170.997 203.63C207.138 202.075 243.332 201.761 279.495 202.691C279.917 204.353 277.508 205.126 275.793 205.1C242.045 204.597 208.281 205.171 174.57 206.824C173.503 206.876 172.382 206.946 171.477 207.514C170.525 208.112 169.97 209.161 169.459 210.162C159.891 228.883 150.292 247.876 145.668 268.384C143.29 278.931 142.378 290.474 147.253 300.124C149.102 303.785 151.718 307.018 154.637 309.898C170.313 325.36 193.787 330.101 215.803 329.731C229.854 329.495 243.874 327.475 257.421 323.736C271.782 319.771 286.104 313.521 295.906 302.302C301.662 295.714 305.575 287.735 309.002 279.685C315.544 264.314 320.562 248.294 323.959 231.938C326.085 232.386 326.116 235.393 325.625 237.51C319.553 263.705 312.495 291.627 292.496 309.601C274.433 325.835 248.979 330.869 224.731 332.227C210.725 333.011 196.498 332.766 182.931 329.196C169.365 325.625 156.411 318.482 147.799 307.409C150.311 316.986 158.819 323.822 167.678 328.245C190.937 339.86 218.404 339.246 244.087 335.208C261.195 332.519 278.755 328.106 292.069 317.031C303.45 307.564 310.703 294.044 316.162 280.284C322.205 265.053 326.397 249.089 328.616 232.854C329.998 231.981 331.022 234.423 330.847 236.048C327.855 263.872 317.194 290.832 300.349 313.179C301.302 322.164 302.255 331.148 303.208 340.133C304.004 347.636 304.842 355.299 308.031 362.137C306.291 346.652 304.552 331.166 302.812 315.681C302.597 313.769 302.661 311.335 304.42 310.555C305.908 328.041 308.128 345.465 311.07 362.765C311.419 364.819 308.334 365.992 306.601 364.835C304.869 363.678 304.315 361.426 303.921 359.38C301.049 344.472 299.47 329.316 299.208 314.136C295.553 314.856 292.989 318.4 292.25 322.051C291.51 325.702 292.223 329.473 292.935 333.13C295.228 344.901 297.521 356.672 299.813 368.443C300.885 373.948 301.957 379.638 300.774 385.12C296.224 364.348 292.567 343.38 289.814 322.294C254.904 343.642 209.921 347.611 171.812 332.707C163.489 329.452 155.223 325.139 149.725 318.093C145.395 312.543 143.084 305.651 141.874 298.716C137.574 274.086 146.385 248.961 158.344 227.003C162.881 218.672 168.048 209.994 167.682 200.514C167.556 197.25 166.853 193.635 168.759 190.983ZM340.698 236.705C341.427 235.838 342.958 236.235 343.595 237.173C344.231 238.111 344.232 239.327 344.211 240.46C343.587 274.205 343.996 308.015 347.227 341.611C347.999 349.637 348.925 357.814 347.233 365.699C346.638 366.13 346.041 365.147 345.954 364.416C341.903 330.36 341.292 295.999 340.685 261.707C340.549 254.002 340.412 246.296 340.276 238.59C340.264 237.932 340.275 237.21 340.698 236.705ZM322.607 172.343C312.258 177.223 301.627 182.307 293.917 190.761C292.89 191.887 291.903 193.099 291.395 194.535C289.781 199.106 293.444 203.745 297.033 207.002C313.571 222.011 334.808 231.766 356.97 234.533C357.37 231.976 359.393 229.908 361.716 228.766C364.038 227.624 366.653 227.256 369.217 226.905C378.291 225.661 388.018 224.546 396.192 228.677C398.224 229.704 398.396 232.779 397.052 234.616C395.707 236.452 393.407 237.297 391.201 237.858C381.452 240.334 371.194 239.128 361.21 237.908C358.758 237.608 357.875 241.165 358.525 243.548C359.843 248.374 363.342 252.382 367.462 255.22C371.581 258.058 376.318 259.851 381.043 261.494C392.56 265.499 404.331 268.772 416.263 271.284C421.209 272.325 426.329 273.294 430.544 276.082C430.302 277.217 428.729 277.306 427.585 277.118C410.256 274.265 393.212 269.684 376.789 263.463C371.486 261.455 366.142 259.211 361.875 255.476C357.608 251.741 354.529 246.229 355.043 240.581C355.158 239.312 355.094 237.533 353.829 237.372C332.738 234.694 312.494 225.673 296.399 211.783C291.355 207.429 286.316 201.342 287.829 194.853C288.442 192.225 290.081 189.958 291.86 187.929C299.623 179.077 310.878 173.372 322.607 172.343ZM393.35 230.651C385.89 228.182 377.781 229.216 369.995 230.277C366.412 230.765 362.298 231.607 360.614 234.806C364.08 234.527 367.582 234.685 371.009 235.275C378.101 236.496 385.464 236.119 392.395 234.182C393.053 233.998 393.734 233.787 394.232 233.32C394.731 232.852 394.987 232.054 394.636 231.467C394.37 231.022 393.843 230.814 393.35 230.651ZM218.27 159.973C218.369 161.139 217.017 161.821 215.906 162.189C203.323 166.349 191.375 172.426 180.603 180.147C171.017 187.018 161.797 195.442 150.199 197.587C146.794 198.217 144.598 201.408 142.341 204.034C134.753 212.857 123.258 217.159 112.106 220.487C104.502 222.756 96.0272 224.675 88.8787 221.231C87.9163 220.767 86.944 219.395 87.8552 218.838C95.2012 222.136 103.749 220.217 111.455 217.879C123.801 214.134 136.65 208.828 143.784 198.077C139.422 197.753 135.8 193.185 136.695 188.904C137.591 184.622 143.008 181.905 146.883 183.934C150.758 185.963 151.482 192.223 148.048 194.932C158.735 193.332 167.785 186.5 176.458 180.054C189.032 170.709 202.669 161.405 218.27 159.973ZM476.662 140.531C479.495 139.816 482.5 139.211 485.306 140.023C489.862 141.341 492.587 145.951 494.325 150.364C496.063 154.776 497.419 159.602 500.893 162.83C501.687 163.567 502.614 164.258 502.969 165.282C503.323 166.305 502.678 167.737 501.598 167.654C497.04 165.921 494.559 161.074 492.796 156.528C491.032 151.981 489.343 147.017 485.38 144.175C482.609 155.208 478.394 165.878 472.876 175.826C472.226 176.996 471.484 178.228 470.266 178.785C469.321 179.216 468.236 179.169 467.198 179.111C454.164 178.377 441.156 177.167 428.21 175.484C426.832 175.305 425.71 176.807 425.739 178.196C425.768 179.584 426.574 180.821 427.352 181.972C430.431 186.527 433.509 191.083 436.588 195.638C438.077 197.842 439.655 200.127 441.991 201.399C445.114 203.098 448.939 202.645 452.41 201.875C470.718 197.814 486.49 186.518 501.256 174.957C502.183 174.231 503.411 173.467 504.451 174.02C505.358 174.502 505.541 175.802 505.113 176.737C504.685 177.671 503.827 178.323 503.001 178.935C487.133 190.69 470.458 202.798 450.975 206.019C447.206 206.642 443.089 206.855 439.814 204.887C437.88 203.724 436.438 201.911 435.068 200.117C431.937 196.014 428.95 191.802 426.115 187.49C424.625 185.224 423.148 182.858 422.641 180.194C421.301 173.139 426.988 166.802 432.608 162.331C445.528 152.056 460.655 144.569 476.662 140.531ZM357.39 0.00131762C359.918 0.053383 362.259 1.26057 364.496 2.43882C375.222 8.08928 386.142 13.8824 394.587 22.5804C394.86 29.843 393.086 37.0071 391.4 44.0765C384.561 72.7493 378.961 101.718 374.62 130.873C374.204 133.668 373.414 136.965 370.763 137.944C368.862 138.645 366.652 137.748 365.302 136.237C363.951 134.726 363.305 132.72 362.854 130.744C361.743 125.868 361.61 120.772 362.464 115.845C363.455 110.127 365.744 104.704 366.87 99.0111C367.402 96.3181 367.67 93.5807 367.93 90.848C368.654 83.2527 369.318 75.6516 369.927 68.0462C339.356 50.2267 305.005 40.1262 271.042 30.1898C293.804 39.3574 318.433 50.176 329.56 72.0472C334.269 81.3021 336.057 91.7351 337.459 102.024C341.626 132.614 342.9 163.599 341.258 194.428C354.484 188 367.709 181.571 380.935 175.143C384.351 173.483 387.936 171.677 389.999 168.488C391.93 165.502 392.214 161.776 392.404 158.226C393.518 137.435 393.305 116.573 391.765 95.8089C396.207 115.003 398.176 134.769 397.609 154.462C397.456 159.795 396.989 165.48 393.734 169.706C391.369 172.777 387.827 174.67 384.396 176.473C372.141 182.911 359.885 189.349 347.63 195.787C333.427 203.249 316.323 204.998 300.904 200.565C311.934 199.991 322.963 199.416 333.993 198.842C334.893 198.795 335.857 198.725 336.563 198.165C337.596 197.346 337.677 195.834 337.671 194.516C337.506 161.923 337.331 129.2 332.58 96.9544C331.083 86.7947 329.009 76.3885 323.303 67.85C317.02 58.4466 307.005 52.2949 297.128 46.7865C279.41 36.9057 260.185 27.9089 239.903 28.346C223.159 28.707 207.217 35.505 192.552 43.5921C180.908 50.0129 169.042 58.1725 164.441 70.6478C161.9 77.5392 161.861 85.0683 161.983 92.4125C162.42 118.604 164.513 144.767 168.247 170.695C168.653 173.518 168.376 177.401 165.569 177.908C161.978 150.106 158.383 122.254 157.418 94.2376C157.138 86.1144 157.118 77.7558 160.02 70.1634C163.931 59.9306 172.665 52.3418 181.718 46.1722C204.289 30.7887 231.808 21.4222 258.953 24.4632C268.114 25.4896 277.062 27.8873 285.934 30.389C313.69 38.215 341.444 47.2846 365.99 62.4222C367.689 63.4699 369.549 64.9198 370.032 66.7171C370.547 60.2134 371.022 53.7065 371.453 47.1966C371.589 45.1384 371.713 43.0153 371.039 41.0658C369.84 37.5983 366.346 35.4066 362.817 34.4017C360.793 33.8254 358.662 33.5357 356.787 32.5804C354.912 31.6251 353.285 29.7622 353.423 27.6625C353.864 20.8997 353.355 14.0755 351.913 7.45347C351.659 6.28956 351.376 5.08705 351.611 3.91929C352.11 1.44115 354.863 -0.0507095 357.39 0.00131762ZM310.595 151.102C311.566 150.815 312.661 150.538 313.549 151.026C314.436 151.513 314.595 153.127 313.62 153.398C268.189 166.006 223.273 180.472 179.024 196.75C178.153 197.071 177.229 197.398 176.316 197.23C175.403 197.062 174.55 196.196 174.751 195.289C174.94 194.433 175.885 194.012 176.712 193.719C220.865 178.085 265.679 164.387 310.595 151.102ZM143.689 185.422C143.067 185.423 142.456 185.622 141.91 185.92C139.987 186.972 138.904 189.443 139.605 191.52C140.371 193.789 142.85 195.044 145.217 195.407C146.229 193.619 147.27 191.724 147.257 189.67C147.243 187.617 145.743 185.42 143.689 185.422ZM481.402 143.301C478.761 143.011 476.147 143.903 473.654 144.824C465.781 147.731 458.064 151.059 450.547 154.791C442.605 158.734 434.658 163.323 429.307 170.393C440.056 171.592 450.805 172.792 461.554 173.992C463.579 174.217 465.767 174.412 467.525 173.382C468.907 172.573 469.784 171.139 470.574 169.746C475.288 161.44 478.936 152.528 481.402 143.301ZM325.113 90.6966C326.206 90.1765 327.544 89.8128 328.586 90.4291C329.627 91.0454 329.664 93.0054 328.475 93.2318C324.801 93.9314 321.919 96.9876 320.466 100.434C319.012 103.88 318.76 107.701 318.629 111.439C318.232 122.742 318.768 134.078 320.229 145.293C320.453 147.008 320.717 148.774 321.618 150.249C322.519 151.725 324.227 152.847 325.927 152.533C328.837 151.995 331.965 152.763 334.295 154.589C330.8 154.811 327.305 155.033 323.81 155.255C321.739 155.387 319.267 155.333 318.115 153.607C317.549 152.759 317.456 151.692 317.38 150.676C316.629 140.715 315.879 130.753 315.129 120.791C314.705 115.169 314.289 109.445 315.549 103.95C316.808 98.454 320.022 93.1198 325.113 90.6966ZM371.575 138.783C371.607 138.187 372.404 137.881 372.947 138.128C373.49 138.375 373.795 138.959 373.984 139.525C374.676 141.59 374.321 143.976 373.057 145.75C372.065 144.645 373.286 142.886 372.975 141.434C372.765 140.451 371.871 139.743 371.575 138.783ZM360.773 3.67612C360.127 11.4669 359.861 19.2892 359.976 27.1058C364.964 28.1584 369.839 29.7473 374.489 31.8373C375.425 32.258 376.41 32.7508 376.916 33.6439C377.329 34.3733 377.353 35.252 377.365 36.0902C377.511 45.9354 377.541 55.8071 376.499 65.598C375.677 73.3165 374.192 80.9462 372.917 88.6029C371.4 97.7123 370.179 106.871 369.257 116.06C368.587 122.727 368.097 129.618 370.171 135.99C371.235 135.795 371.645 134.513 371.846 133.451C378.235 99.7778 384.623 66.1047 391.011 32.432C391.476 29.9845 391.939 27.4541 391.392 25.0238C390.434 20.7688 386.658 17.8101 383.016 15.4095C376.007 10.7882 368.545 6.8523 360.773 3.67612ZM368.362 103.144C365.567 111.463 364.511 120.362 365.283 129.104C365.484 131.378 365.856 133.763 367.274 135.552C366.663 130.757 366.503 125.904 366.797 121.079C367.161 115.088 368.223 109.145 368.362 103.144ZM369.186 96.9808C368.73 97.206 368.535 97.8441 368.789 98.2855L368.812 98.2298C369.262 98.0283 369.451 97.3962 369.186 96.9808ZM360.22 29.5833C359.137 29.3717 357.544 29.6013 357.592 30.7044C362.077 32.558 366.563 34.4114 371.049 36.265C371.838 36.5911 372.679 36.9605 373.125 37.6888C373.562 38.4031 373.52 39.3005 373.463 40.1361C372.253 57.9078 371.043 75.6798 369.834 93.4515C373.343 75.4363 374.927 57.0466 374.553 38.6966C374.525 37.3107 374.451 35.8208 373.603 34.724C372.982 33.9204 372.033 33.4497 371.106 33.0345C367.625 31.4751 363.964 30.3147 360.22 29.5833ZM357.31 1.8939C356.201 1.15875 354.598 1.91726 353.98 3.09604C353.363 4.27478 353.456 5.68569 353.596 7.00913C354.372 14.3391 356.075 21.6837 355.207 29.0033C356.224 29.3525 357.361 28.636 357.854 27.68C358.348 26.724 358.36 25.6007 358.362 24.5248C358.373 18.0574 358.385 11.5898 358.396 5.12241C358.398 3.93659 358.299 2.54913 357.31 1.8939Z" fill="#1E1E2F"/>
<path fill-rule="evenodd" clip-rule="evenodd" d="M471.577 349.381C470.63 349.797 469.604 350.185 468.584 350.01C467.563 349.834 466.609 348.876 466.814 347.862C468.687 338.586 466.335 328.541 460.539 321.061C458.507 318.439 456.088 316.132 454.109 313.471C452.861 311.795 451.752 309.686 452.385 307.694C453.285 304.86 456.91 304.171 459.877 303.969C466.774 303.498 473.671 303.028 480.568 302.558C483.746 302.342 487.406 302.309 489.528 304.686C495.433 311.3 506.943 311.744 513.341 305.605C514.331 304.654 515.578 306.546 515.538 307.918C515.415 312.23 513.637 316.475 510.651 319.589C509.947 320.324 509.046 321.043 508.033 320.938C507.021 320.833 506.274 319.379 507.081 318.759C508.813 317.428 510.577 316.065 511.791 314.25C513.006 312.435 513.594 310.055 512.766 308.034C508.311 313.671 503.813 319.273 499.273 324.842C491.401 334.496 482.983 344.371 471.577 349.381M484.018 320.97C482.885 321.284 481.677 321.043 480.545 320.723C472.405 318.423 464.905 312.062 456.578 313.551C466.287 321.371 471.443 334.483 469.659 346.821C476.057 345.451 481.109 340.675 485.64 335.956C492.346 328.97 498.715 321.66 504.714 314.059C500.402 314.023 496.106 312.779 492.442 310.505C487.915 311.625 488.513 319.727 484.018 320.97M489.931 308.128C487.234 304.949 482.388 305.047 478.235 305.412C472.818 305.888 467.401 306.363 461.985 306.839C459.786 307.032 457.26 307.418 456.113 309.305C465.488 311.268 474.629 314.35 483.277 318.466C484.39 314.972 486.619 311.844 489.558 309.651C489.889 309.405 490.267 309.088 490.223 308.678C490.201 308.469 490.067 308.289 489.931 308.128V308.128Z" fill="#1E1E2F"/>
<path fill-rule="evenodd" clip-rule="evenodd" d="M47.8337 222.234C39.6752 218.971 29.9528 219.939 22.5974 224.745C21.8853 225.211 20.8615 224.692 20.509 223.918C20.1565 223.144 20.2884 222.243 20.4687 221.412C22.8178 210.581 32.1762 202.294 42.5835 198.486C52.9908 194.678 64.3747 194.667 75.4377 195.318C76.5355 195.383 77.6828 195.469 78.6192 196.045C79.5556 196.622 80.1856 197.854 79.7189 198.85C75.3669 208.134 72.0886 217.921 69.9702 227.953C69.6267 229.58 67.9441 230.659 66.287 230.795C64.6299 230.93 63.0062 230.318 61.5024 229.609C56.8157 227.399 52.6448 224.158 47.8337 222.234M48.7673 211.275C48.0402 211.866 46.9037 211.554 46.2196 210.914C45.5354 210.274 45.1456 209.388 44.6078 208.621C41.7231 204.506 35.1035 204.848 31.1797 207.987C27.2559 211.127 25.3571 216.088 23.6281 220.806C35.1396 215.806 49.318 217.6 59.221 225.31C60.573 226.363 61.9146 227.549 63.5796 227.955C65.2445 228.36 67.342 227.632 67.7637 225.971C70.0167 217.098 72.7929 208.358 76.0733 199.812C69.7791 207.635 56.5607 204.943 48.7673 211.275M46.2619 206.548C46.9084 207.36 48.082 207.576 49.1038 207.392C50.1255 207.209 51.0537 206.7 52.0057 206.286C55.2833 204.862 58.9135 204.544 62.4275 203.892C65.9414 203.241 69.5658 202.138 72.0395 199.559C66.4582 199.542 60.877 199.525 55.2957 199.509C49.6867 199.492 43.6424 199.611 39.1365 202.951C41.8795 203.051 44.5525 204.4 46.2619 206.548Z" fill="#1E1E2F"/>
<path fill-rule="evenodd" clip-rule="evenodd" d="M339.931 224.23C339.916 218.812 339.902 213.395 339.887 207.977C339.883 206.421 339.879 204.866 339.875 203.31C339.872 202.237 340.052 200.895 341.071 200.561C341.842 200.309 342.691 200.863 343.052 201.59C343.413 202.317 343.408 203.164 343.396 203.975C343.284 211.535 343.171 219.095 343.059 226.656C343.042 227.743 342.86 229.08 341.842 229.462C340.144 228.5 339.936 226.181 339.931 224.23H339.931Z" fill="#1E1E2F"/>
<path fill-rule="evenodd" clip-rule="evenodd" d="M329.117 219.216C328.333 219.56 327.928 218.268 328.049 217.421C328.483 214.387 328.918 211.347 329.656 208.373C330.115 206.521 330.777 204.572 332.307 203.432C333.836 202.291 336.462 202.491 337.211 204.246C337.573 205.096 337.422 206.067 337.256 206.976C336.226 212.604 334.839 218.167 333.107 223.62C333.033 223.851 332.953 224.092 332.777 224.26C332.351 224.669 331.582 224.394 331.286 223.883C330.991 223.371 331.029 222.74 331.076 222.151C331.781 222.1 332.109 221.272 332.278 220.586C332.969 217.786 333.659 214.987 334.35 212.187C334.887 210.009 335.377 207.528 334.127 205.665C332.842 206.456 332.36 208.056 331.977 209.515C331.208 212.451 330.439 215.388 329.67 218.324C329.578 218.675 329.449 219.071 329.117 219.216L329.117 219.216Z" fill="#1E1E2F"/>
</svg>
