<svg width="530" height="424" viewBox="0 0 530 424" fill="none" xmlns="http://www.w3.org/2000/svg">
<path fill-rule="evenodd" clip-rule="evenodd" d="M304.927 423.83C368.352 423.83 424.011 376.824 392.753 312.978C361.495 249.131 477.639 251.194 511.756 207.067C553.363 153.254 541.314 -75.1777 274.212 64.0851C231.426 86.3934 121.541 41.1351 85.0916 63.5914C42.1871 90.0248 -18.1771 144.152 42.1871 199.597C71.9213 226.908 -34.6829 297.796 12.0077 361.293C57.5659 423.25 89.5014 364.187 158.863 376.824C228.225 389.461 257.823 423.83 304.927 423.83Z" fill="#DC4649"/>
<path d="M231.312 312.755C231.312 312.755 245.915 305.911 251.367 301.149C256.819 296.387 263.597 284.557 263.597 284.557C263.597 284.557 338.051 338.13 386.597 330.488C397.782 328.727 419.577 321.319 420.967 308.268C424.762 272.628 372.252 263.52 383.722 245.447C390.724 234.415 412.473 250.834 412.473 250.834L502.684 295.044C502.684 295.044 471.519 371.586 395.888 374.653C302.852 378.427 231.312 312.755 231.312 312.755Z" fill="#FFF5E6"/>
<path fill-rule="evenodd" clip-rule="evenodd" d="M159.787 12.9989C158.94 12.6677 154.393 7.12043 148.621 6.1108C145.997 5.652 148.378 8.97999 145.491 9.00994C136.893 9.09913 122.92 7.48966 120.331 9.00994C118.407 10.1362 122.644 14.071 120.331 14.2516C98.5079 15.9559 65.2147 37.666 57.9914 48.1986C55.6926 51.5505 74.2846 45.8635 71.3224 47.5206C67.9976 49.3805 64.3102 61.559 62.1056 70.9648C60.5793 77.4419 59.6183 85.7777 59.2791 94.8456C58.9964 102.674 59.1095 103.97 60.2401 108.25C61.5403 113.038 62.5578 114.446 64.3102 113.77C64.9321 113.545 65.2147 112.7 65.2147 111.123C65.2147 109.884 65.8931 106.166 66.741 102.843L68.2108 96.8733L68.8326 99.3514C69.624 102.224 74.2595 111.123 78.4427 117.6C78.6683 117.944 79.639 117.506 80.5143 115.399C81.3119 113.478 80.9882 110.409 82.3432 107.12C85.4298 99.6282 91.4903 89.8876 98.5079 82.0906C108.879 70.5672 112.32 57.2312 122.042 46.5261C140.185 26.5481 162.957 14.2387 159.787 12.9989Z" fill="#FFF5E6"/>
<path fill-rule="evenodd" clip-rule="evenodd" d="M71.5804 50.239C68.67 52.5708 64.3498 71.4845 64.2757 71.8006C62.7494 78.2777 61.2781 100.77 62.782 105.029C64.2859 109.287 68.497 93.9364 68.497 93.9364C68.497 93.9364 74.8621 110.404 80.4862 114.919C80.7265 115.112 73.8012 94.5451 71.5804 82.5388C68.6489 66.6898 73.2369 48.9119 71.5804 50.239Z" fill="#DFD4BE"/>
<path fill-rule="evenodd" clip-rule="evenodd" d="M180.06 381.484C185.487 380.302 194.644 376.183 198.15 374.774C201.656 373.366 212.339 358.336 216.183 341.383C218.953 328.879 220.366 311.081 218.783 308.096C218.549 307.673 217.694 299.579 219.97 302.222C225.03 308.096 231.036 317.318 249.987 300.793C255.148 296.292 261.99 290.484 260.188 285.349C255.148 270.981 233.301 242.049 229.97 239.858C225.988 237.237 205.86 239.464 175.906 230.655C141.935 220.666 127.79 191.249 114.496 195.078C103.745 198.175 77.9869 217.205 71.5225 229.257C41.0038 286.152 77.9869 326.019 86.4094 337.47L94.5871 340.989L94.8697 348.254L95.2654 352.816C96.0003 361.546 96.283 362.335 100.24 365.264C110.133 372.754 129.636 379.739 147.273 382.217C155.47 383.343 173.276 382.949 180.06 381.484Z" fill="#FFF5E6"/>
<path fill-rule="evenodd" clip-rule="evenodd" d="M97.8023 345.596L98.198 350.158C98.9329 358.888 99.2155 359.676 103.173 362.605C109.009 367.024 118.189 371.267 128.358 374.512C135.427 376.768 142.973 378.542 150.205 379.558C158.402 380.685 176.209 380.29 182.993 378.826C186.346 378.102 158.765 356.513 142.517 362.605C130.04 367.283 100.63 331.6 112.588 322.277C126.001 311.819 101.422 270.572 100.63 261.617C99.8387 252.662 96.722 250.523 96.631 250.837C96.5401 251.151 96.5401 252.222 96.7848 254.804C97.8394 265.931 97.8023 345.596 97.8023 345.596Z" fill="#DFD4BE"/>
<path d="M216.436 0.000288553C239.003 -0.0371436 248.356 3.57043 262.426 8.99638H262.428C264.127 9.65185 265.896 10.334 267.765 11.0394C309.069 26.6276 323.511 57.5214 327.103 65.2044C327.252 65.5251 327.384 65.8053 327.497 66.0423C339.312 90.8241 342.893 114.166 338.258 141.257C337.636 144.918 337.24 148.016 337.354 148.129C337.469 148.24 338.768 147.678 340.293 146.89C342.554 145.651 343.515 145.481 345.55 145.763C349.054 146.27 350.581 147.115 351.881 149.199C353.803 152.353 353.86 157.31 352.051 165.927C351.916 166.531 351.835 166.895 351.978 167.115C352.194 167.447 352.925 167.448 354.765 167.448C358.608 167.448 359.965 168.405 361.152 171.897C361.831 173.981 361.943 175.333 361.548 177.754C361.078 180.615 366.249 182.899 390.104 193.434C392.081 194.307 394.186 195.236 396.427 196.227C409.706 202.082 420.838 205.181 421.13 205.184C421.469 205.184 422.318 203.944 422.996 202.367C425.314 197.242 430.967 193.581 438.881 192.116C442.5 191.447 447.695 191.584 450.695 193.075C454.079 194.755 458.44 200.565 459.74 204.733L460.418 206.761L463.641 205.296C466.41 204.001 467.598 203.776 471.95 203.776C477.547 203.776 478.452 204.058 484.67 208.169C488.853 210.873 491.566 214.477 492.866 218.983L493.77 221.968L496.711 220.841C502.986 218.476 510.561 220.447 516.157 225.91C519.323 229.121 521.641 232.246 521.641 238.865C521.641 244.455 517.231 266.857 515.422 272.49C511.295 284.993 498.92 321.209 485.009 336.81C472.607 350.718 468.075 353.392 460.469 357.878L460.464 357.881C459.54 358.426 458.57 358.998 457.535 359.62C435.715 372.743 411.69 378.714 381.221 378.714C363.075 378.714 349.563 377.081 330.569 372.462C292.468 363.282 255.781 343.681 231.134 319.293C230.345 318.507 229.197 317.333 227.917 316.024L227.916 316.023C223.694 311.704 218.027 305.907 218.979 307.634C220.562 310.619 219.15 328.418 216.38 340.921C212.536 357.874 201.853 372.904 198.347 374.313C197.658 374.589 196.751 374.971 195.697 375.414C191.387 377.227 184.618 380.072 180.257 381.023C173.473 382.487 155.667 382.882 147.47 381.755C129.832 379.277 110.329 372.293 100.437 364.802C96.4797 361.873 96.1968 361.085 95.4619 352.355L95.0664 347.792L92.4658 345.934C88.339 342.949 78.4466 333.261 75.168 328.812C72.4694 325.255 68.704 317.383 66.7598 313.32L66.7588 313.319C66.0563 311.85 65.5923 310.879 65.5019 310.788C64.4844 309.944 60.8097 298.003 59.9053 292.484C56.0047 269.222 61.5447 241.962 73.8682 223.489C82.6303 210.309 95.5193 200.002 107.843 196.229C111.63 195.046 118.526 194.538 117.452 195.552C117.169 195.777 114.682 196.679 111.855 197.524C94.5576 202.762 82.7428 213.576 73.1328 233.064C61.827 255.931 58.9439 281.337 67.1406 303.979C67.4393 304.787 67.7542 305.706 68.0957 306.704C69.564 310.995 71.527 316.73 74.8291 321.208C78.7297 326.446 89.9228 337.767 92.8623 339.456L94.7842 340.527L94.4443 337.767C92.9181 325.657 92.6356 268.039 94.0488 257C94.6706 252.157 95.2362 250.805 96.6494 250.805C97.3277 250.805 97.4404 253.058 97.4404 263.309C97.4404 288.091 100.268 341.653 102.303 355.565C102.415 356.283 102.521 356.972 102.619 357.61V357.611C102.969 359.871 103.22 361.491 103.264 361.535C104.001 362.043 114.909 366.604 119.148 368.181C135.146 374.151 156.119 377.306 170.364 375.898C181.614 374.771 189.738 372.922 195.165 368.811C196.635 367.684 201.512 363.562 204.056 358.043C208.691 347.849 213.27 331.459 216.04 314.844C216.888 309.663 217.792 305.607 218.075 305.832C218.358 306.058 217.567 304.649 216.323 302.621C213.214 297.496 210.5 292.315 210.5 291.47C210.5 289.555 212.874 291.583 217.058 297.215C219.545 300.594 222.767 304.255 224.124 305.325C225.481 306.452 229.268 309.662 232.547 312.478C251.371 328.811 268.952 340.471 288.794 349.99C319.829 364.746 355.612 372.856 384.725 371.673C429.553 369.871 466.184 352.636 485.009 324.475C486.987 321.49 501.306 297.897 500.498 296.99C500.087 296.527 498.129 296.955 496.212 297.375V297.376C494.778 297.69 493.365 297.999 492.64 297.927C489.473 297.589 477.583 294.234 476.473 286.232C476.331 285.214 474.005 282.25 473.975 282.212C473.975 282.212 471.612 282.74 468.729 284.092C463.189 286.683 457.705 285.275 450.639 279.417C446.908 276.32 445.155 273.221 445.099 269.842C445.099 267.871 443.284 265.434 442.781 265.14C442.279 264.846 439.842 265.815 439.107 266.604C436.224 269.701 425.77 269.4 421.526 267.139C419.11 265.852 415.365 262.07 414.573 259.141C414.501 258.904 414.418 258.521 414.315 258.048C413.857 255.934 413.011 252.035 411.012 251.481C410.333 251.143 406.998 249.566 403.55 247.989C400.158 246.355 396.031 244.44 394.448 243.708C391.791 242.413 391.339 242.356 388.965 242.976C386.365 243.595 384.613 246.637 384.612 247.989C384.612 250.073 385.516 253.959 387.947 257.395C391.791 262.858 397.614 267.984 407.055 274.236C415.534 279.868 417.399 281.67 420.226 286.908C422.166 290.546 423.338 294.261 423.932 298.893C420.324 287.087 408.403 278.783 400.929 274.163C389.399 267.038 383.377 256.663 383.377 250.888C383.377 245.762 385.798 242.404 387.099 240.636L388.34 238.986L387.04 238.16C378.943 233.211 370.432 228.438 362.394 224.314C357.015 221.544 350.751 218.068 348.505 216.477L344.309 213.707L342.831 215.063C340.112 217.655 335.207 219.482 331.129 219.482C327.583 219.482 327.228 219.363 325.337 217.478L323.268 215.416L320.727 217.124C317.003 219.658 310.857 222.428 309.024 222.428C304.474 222.428 298.326 218.539 296.73 214.709L296.021 213L293.539 214.826C276.695 227.495 255.832 236.393 234.378 240.046C232.628 240.33 231.353 240.559 230.486 240.75C230.121 240.429 228.777 240.517 224.746 240.78C217.906 241.286 205.356 240.554 197.781 239.259C178.222 235.88 160.811 228.05 143.626 214.984C142.157 213.858 141.082 213.295 141.251 213.744C141.534 214.42 140.686 214.759 137.69 215.209C133.112 215.998 128.984 215.097 127.006 212.956C123.953 209.633 119.997 199.495 119.714 194.2C119.601 191.554 119.205 190.033 118.64 189.639C118.187 189.301 117.792 188.568 117.792 188.005C117.792 187.386 117.509 187.16 117 187.329C116.548 187.498 115.757 187.161 115.191 186.541C115.132 186.476 114.77 186.223 114.17 185.804L114.169 185.803L113.161 185.096C107.389 181.027 91.157 169.072 88.1133 157.028C84.4389 142.487 82.8564 133.034 82.3476 129.148C81.3867 122.277 81.3302 121.995 78.4473 117.602C74.2642 111.125 69.6286 102.227 68.8369 99.3538L68.2148 96.8753L66.7451 102.845C65.8972 106.168 65.2187 109.886 65.2187 111.125C65.2187 112.702 64.9361 113.546 64.3144 113.772C62.562 114.448 61.5443 113.04 60.2441 108.252C59.1136 103.972 59.0006 102.676 59.2832 94.8479C59.6224 85.7801 60.5831 77.4441 62.1094 70.9671C63.6059 64.5822 65.7027 58.4571 67.7256 54.2825C67.8858 55.642 67.9533 56.5797 68.1318 57.7698C66.2361 63.4742 64.3131 71.3239 63.2969 78.2884C62.3924 84.7655 61.9968 104.929 62.8447 104.929C63.071 104.928 63.8053 103.239 64.54 101.212C66.0662 96.8758 68.384 93.1026 69.5713 93.1019C70.1366 93.1019 70.1937 93.3837 69.8545 94.0032C69.2329 95.0735 70.0803 98.283 71.5498 100.423C71.7475 100.73 72.2018 101.453 72.8154 102.431C73.781 103.97 75.1419 106.139 76.5244 108.309L80.5381 114.785L80.1992 107.464C79.9166 102.846 80.0292 98.3399 80.4814 95.3548C81.1032 90.4551 82.5733 86.5124 83.5908 86.7933C84.2692 86.9622 84.2698 88.9342 83.4219 96.4251C83.0264 99.6336 82.8561 102.392 82.9687 102.564C83.1383 102.676 83.5907 102.057 84.043 101.156C84.5517 100.311 86.0222 98.2833 87.3789 96.7063C88.792 95.1294 90.6002 92.4259 91.4482 90.68C93.0311 87.4696 99.8153 79.3024 103.264 76.43C104.62 75.3035 105.92 73.2756 107.39 70.0091C116.943 48.2686 134.016 29.1751 154.988 16.8968C160.358 13.743 160.754 13.4049 159.511 12.9544C158.832 12.6728 156.288 11.49 153.971 10.3636C152.312 9.55754 150.77 8.83782 149.943 8.45244H149.942C149.615 8.29955 149.399 8.19928 149.335 8.16728C149.165 8.05481 148.827 8.50504 148.601 9.12431C148.124 10.7082 147.348 10.6099 146.647 8.92119L146.439 8.38212C146.064 7.48703 145.276 6.6286 144.587 6.36455C142.834 5.68867 142.834 4.22431 144.587 3.77373C146.113 3.43604 149.109 4.78849 153.971 8.05498C155.667 9.18139 157.985 10.5894 159.059 11.1526C160.132 11.7158 161.206 12.3916 161.376 12.6731C161.546 12.8981 163.581 12.2782 165.898 11.2083C182.574 3.60484 191.142 0.0422847 216.436 0.000288553ZM230.429 242.025C231.24 242.592 232.037 243.649 233.019 245.35C239.52 256.84 255.95 277.58 268.598 288.245C298.622 313.465 340.113 329.788 374.451 332.793C383.504 333.574 394.906 332.092 403.19 329.252C396.314 332.921 388.079 335.258 378.959 334.444C352.475 332.078 323.503 324.588 305.357 315.576C286.081 305.945 269.065 293.498 253.463 277.446C246.114 269.955 245.548 269.223 238.935 258.127C231.435 245.471 230.29 243.456 230.429 242.025ZM423.932 298.893C424.696 301.394 425.087 304.053 424.983 306.866C424.912 308.811 422.738 313.643 419.842 318.003C417.951 320.773 412.691 324.897 407.903 327.313C406.5 328.012 404.912 328.662 403.19 329.252C416.282 322.267 424.446 310.458 424.409 306.396C424.372 303.614 424.22 301.145 423.932 298.893ZM364.373 184.962C360.981 182.991 360.303 182.822 360.303 184.117C360.303 185.807 356.854 193.636 354.197 197.861C352.784 200.17 350.015 204.337 348.036 207.097L344.531 212.11L348.602 213.912C349.448 214.302 358.757 218.759 369.938 224.112C387.961 232.74 410.85 243.697 411.01 243.707C411.236 243.707 412.297 241.263 412.536 238.412C413.101 232.273 415.193 223.938 417.624 218.137C418.755 215.546 419.659 212.307 419.659 212.026C419.657 211.897 418.738 211.527 417.235 210.923C415.444 210.203 412.823 209.15 409.936 207.773C395.69 200.958 367.821 187.046 364.373 184.962ZM230.486 240.75C230.669 240.911 230.606 241.173 230.512 241.568C230.473 241.721 230.444 241.87 230.429 242.025C230.116 241.806 229.8 241.66 229.472 241.578C228.658 241.347 228.836 241.115 230.486 240.75ZM352.954 208.9C351.767 207.379 352.897 206.703 356.232 206.985C358.237 207.154 406.545 231.546 410.049 233.569C411.67 234.505 408.862 235.877 408.184 236.103C404.189 236.441 399.487 235.693 395.634 233.456C393.619 232.033 377.756 223.252 367.234 217.428C362.424 214.765 358.73 212.72 357.985 212.279C355.611 210.871 353.35 209.35 352.954 208.9ZM186.432 67.8626C185.794 67.4307 184.315 67.6844 183.015 68.4466C181.918 69.0563 181.535 69.4628 181.025 70.5296C180.694 71.2664 180.413 71.9787 180.413 72.1565C180.412 72.6923 178.093 78.2032 177.175 79.8548C174.421 84.8094 171.232 88.9769 167.075 93.0423L164.372 95.7102L165.138 96.6497C165.597 97.2341 166.311 97.7423 166.974 97.971C168.784 98.6316 169.855 98.5049 171.691 97.4886C173.553 96.4468 174.93 95.0999 177.047 92.305C177.837 91.2633 178.934 89.7645 179.52 89.0022C183.269 83.9968 185.08 80.5154 186.432 75.6624C187.656 71.2418 187.655 68.6759 186.432 67.8626ZM189.431 77.3948C188.466 77.3948 187.75 78.2916 186.534 81.4554C184.943 85.5974 176.069 96.8323 176.053 96.8528L176.589 97.387C177.048 97.8442 177.303 97.8949 178.195 97.7679C179.598 97.5392 182.008 96.5225 183.079 95.5315C183.538 95.0738 184.584 93.7527 185.399 92.5589C188.919 87.3503 190.091 84.9364 190.856 81.2776C191.315 79.017 190.972 78.3561 190.615 77.8226C190.411 77.5177 189.97 77.3949 189.431 77.3948ZM71.9385 71.3704C71.0245 72.4221 69.3219 73.8347 68.3232 74.2327C67.4193 74.6268 67.7021 74.7962 69.9062 75.303C71.4325 75.641 72.4507 76.148 72.2246 76.3733C71.4896 77.1055 67.589 76.7667 66.6846 75.8655C65.2714 74.5138 65.6103 73.5566 67.5889 73.1624C68.6063 72.9934 70.1325 72.1488 70.9805 71.304C71.2123 71.073 71.4364 70.8761 71.6387 70.7171C71.7378 70.9422 71.8373 71.1606 71.9385 71.3704ZM90.2031 72.1487C91.1074 70.3468 91.5032 70.0088 91.6728 70.7405C91.7859 71.3037 91.5039 72.3745 90.9951 73.1067C89.7515 75.0216 89.8641 75.2467 91.7861 74.9651C93.7081 74.6835 94.0475 75.3033 92.4082 76.2044C91.0515 76.8802 89.6947 76.8799 87.9424 76.1477C86.5858 75.6409 86.6984 74.5151 88.1113 74.5149C88.5636 74.5149 89.5248 73.4441 90.2031 72.1487ZM105.298 15.6009C110.781 14.0239 116.943 13.7986 118.695 15.094C119.656 15.826 119.316 15.8825 115.134 15.9388C106.089 15.9388 95.6307 20.5564 78.6152 31.8772C69.7972 37.7344 59.5668 46.1262 59.5654 47.4788C59.5654 47.7604 61.2042 47.1973 63.2392 46.2962C65.8181 45.1283 68.4372 44.2988 70.5547 43.9085C69.6741 45.0901 68.9618 46.1668 68.7168 46.8235C68.7093 46.8436 68.6999 46.8638 68.6914 46.8851C67.0837 47.5442 65.2481 48.3652 63.5224 49.2249C59.735 51.0272 56.5122 52.5478 56.2861 52.4915C50.5204 51.8718 58.5474 42.2974 73.1318 32.4974C87.0947 23.0915 96.5357 18.1354 105.298 15.6009ZM72.6836 48.6028C72.9595 48.6393 73.1328 48.8219 73.1328 49.1702C73.1326 49.508 72.7373 49.7337 72.2851 49.7337C71.743 49.7337 71.0375 50.6873 70.2529 52.3157C70.2515 52.2982 70.2471 52.2801 70.2471 52.261C70.2472 51.8067 71.4927 49.9442 72.4932 48.8118L72.6836 48.6028ZM103.373 31.4847C106.143 31.4283 106.765 31.5976 106.935 32.386C107.104 33.1745 106.765 33.287 105.239 33.0618C104.222 32.8928 102.751 33.0058 101.96 33.2874L100.547 33.7942L101.847 34.1888C103.543 34.752 103.429 35.7091 101.338 37.0608C100.377 37.6807 97.6632 40.328 95.3457 42.9749L91.1064 47.762L95.6855 47.931C98.2285 48.0436 100.263 48.3252 100.265 48.6067C100.265 49.1699 100.038 49.2261 94.7246 50.2962C88.6761 51.4789 87.7145 50.9725 89.4668 47.6497C90.5972 45.3971 99.6962 36.2188 100.772 36.2161C101.112 36.2161 101.395 35.9902 101.395 35.7649C101.393 35.4833 99.9242 35.0327 98.1728 34.7513C91.8416 33.7375 95.2895 31.5973 103.373 31.4847ZM74.5127 43.9104C75.6895 44.327 75.5977 44.8014 74.2978 45.1644C74.3537 44.8037 74.4282 44.3731 74.5127 43.9104ZM130.001 24.219C130.455 23.769 135.993 24.3887 136.784 25.0081C137.123 25.2897 137.632 25.2328 137.972 24.8948C138.763 24.1069 139.837 24.7264 139.837 25.9651C139.837 26.641 139.667 26.6976 139.158 26.1907C138.706 25.7404 138.31 25.7399 137.802 26.1341C137.35 26.5283 137.01 26.5289 136.728 26.0784C136.558 25.7968 135.484 25.5149 134.354 25.5149C133.31 25.5149 132.817 25.515 132.717 25.7132C132.627 25.8909 132.852 26.2279 133.279 26.8665C134.181 28.2702 134.127 28.2743 132.055 28.4417L132.036 28.4436C130.397 28.5563 130.001 28.8378 130.114 29.6263C130.12 29.6659 130.125 29.7046 130.131 29.7415C130.194 30.1575 130.231 30.3971 130.138 30.47C130.011 30.5682 129.647 30.3624 128.792 29.8792C128.744 29.8522 128.694 29.824 128.644 29.7952C127.57 29.2321 127.457 28.9508 128.079 28.5003C128.475 28.1624 129.549 27.6546 130.396 27.4856L131.979 27.0921L130.792 25.8528C130.17 25.1207 129.831 24.4443 130.001 24.219ZM110.102 9.46318C109.028 6.64709 114.737 5.57609 126.043 6.36455C135.483 7.04042 140.402 7.99872 144.246 9.97002C146.451 11.1527 146.676 11.3772 145.489 11.3772C144.698 11.3771 142.55 11.0397 140.685 10.5892C138.819 10.0823 133.505 9.57519 128.813 9.3499L120.334 9.01201L121.917 10.5892C122.765 11.4338 123.443 12.729 123.443 13.4612C123.443 15.0946 122.991 15.0946 121.352 13.4612C119.825 11.9406 115.303 10.3081 112.533 10.3079C111.177 10.3079 110.271 10.0262 110.102 9.46318Z" fill="#1C1C35"/>
<path d="M481.785 270.983C488.818 251.891 487.754 247.823 486.534 247.425C486.534 247.425 483.848 248.946 482.661 252.157C480.456 258.183 472.91 273.953 470.084 276.77C466.748 280.093 466.748 280.093 463.357 280.093C459.965 280.093 450.183 275.003 448.851 269.987C446.72 261.961 455.895 234.077 456.121 232.5L454.595 231.43C453.577 232.387 440.341 272.376 422.938 261.957C420.945 260.764 416.72 255.142 416.38 252.157C414.497 243.483 423.14 213.153 424.609 206.923C425.925 201.347 432.774 196.172 441.197 196.172C454.142 196.172 452.403 207.446 458.202 211.419C460.772 213.18 464.994 209.988 466.296 209.746C473.589 208.394 476.383 209.968 481.729 214.195C485.855 217.458 488.909 223.916 492.269 226.192C494.136 227.456 496.117 225.728 496.766 225.403C499.425 224.073 505.132 225.065 506.715 226.192C509.035 227.2 514.722 232.646 515.62 235.813C519.691 250.169 506.835 281.995 501.982 287.965C493.948 297.847 474.752 290.074 481.785 270.983Z" fill="#FFF5E6"/>
<path fill-rule="evenodd" clip-rule="evenodd" d="M156.792 218.668C172.281 228.412 188.253 234.777 206.455 236.523C220.814 237.874 240.174 236.016 254.08 231.51C265.782 227.736 281.61 217.283 292.181 208.44C312.701 191.318 325.647 164.573 331.3 136.186C332.091 132.187 333.298 122.135 333.242 112.166C333.242 100.564 328.117 68.8577 312.588 50.576C280.561 12.8701 227.916 -4.11537 183.671 10.3976C167.71 15.6329 150.717 25.1182 137.885 37.5092C121.717 53.2232 109.789 74.6258 105.041 96.479C100.066 119.571 106.537 147.169 117.787 169.811C126.775 187.834 141.586 209.037 156.792 218.668ZM307.728 150.606C297.101 182.428 269.401 206.196 234.579 213.405C229.265 214.475 225.59 214.87 218.128 214.982C212.871 215.151 207.614 215.095 206.54 214.982C182.176 212.054 163.634 203.098 146.562 186.089C139.1 178.598 135.934 174.543 131.299 166.545C124.006 153.872 120.106 140.918 118.919 125.317C114.849 71.8666 153.232 27.3154 207.275 22.697C228.473 20.8947 251.99 27.3718 269.853 39.988C276.467 44.6628 288.451 56.4906 292.182 62.0102C293.709 64.2068 308.52 85.7783 311.12 98.1693C314.455 114.278 313.155 134.441 307.728 150.606Z" fill="#FFF5E6"/>
<path fill-rule="evenodd" clip-rule="evenodd" d="M333.264 112.167C333.264 149.971 315.315 191.301 292.152 208.952C281.101 217.373 266.659 227.571 254.082 231.51C235.651 237.283 206.457 236.523 206.457 236.523C206.457 236.523 236.241 232.556 247.278 228.13C278.928 215.44 296.205 195.959 306.874 177.267C327.933 140.371 333.264 111.248 333.264 112.167Z" fill="#DFD4BE"/>
<path fill-rule="evenodd" clip-rule="evenodd" d="M207.105 208.223C192.012 206.308 177.031 200.957 164.934 193.016C157.755 188.341 146.901 177.358 141.644 169.529C134.125 158.265 129.151 146.212 126.72 133.257C124.968 123.852 125.024 109.377 126.777 100.985C128.585 92.4236 130.903 85.8901 135.03 77.6107C139.835 68.0359 144.923 60.9955 152.554 53.392C165.556 40.4378 180.649 32.2147 198.626 28.2721C204.448 27.033 225.534 26.0192 226.269 26.9767C226.439 27.2583 227.569 27.9905 228.756 28.61C229.943 29.2859 233.109 31.6514 235.709 33.9607C239.61 37.34 241.362 39.4803 244.754 44.7746C247.072 48.3793 248.937 51.646 248.937 51.9276C248.937 52.5471 250.746 53.6736 251.764 53.6736C253.177 53.6736 254.138 49.4494 254.421 42.0148C254.59 37.9033 254.93 34.5239 255.156 34.5239C255.947 34.5239 264.653 39.3113 268.723 42.0148C276.693 47.3091 284.664 54.7437 290.543 62.5162C293.2 66.0082 293.596 66.9094 293.596 69.0497C293.596 71.021 294.161 72.5417 295.914 75.5831C300.323 83.243 303.771 92.8741 305.863 103.519C307.22 110.672 307.22 124.19 305.806 131.68C301.962 152.294 290.543 172.796 275.676 185.806C263.07 196.789 249.672 203.548 233.844 206.871C228.417 208.054 212.136 208.842 207.105 208.223ZM166.69 169.699C167.198 169.136 167.538 168.291 167.368 167.897C167.317 167.778 166.609 167.447 165.573 166.962C163.158 165.83 158.959 163.863 157.139 161.814C149.903 153.591 147.247 147.452 145.607 134.779C144.024 122.444 145.354 114.106 148.208 100.704C149.6 94.1662 153.299 88.766 155.601 85.4063C157.166 83.1219 158.085 81.7808 157.193 81.6668C154.988 81.3289 154.649 81.4979 152.331 83.6944C147.356 88.4255 145.095 92.1992 142.721 99.4648C139.047 110.842 138.337 141.589 145.607 155.449C152.878 169.31 165.389 171.163 166.69 169.699ZM247.074 122.388C246.114 131.138 242.043 143.791 237.295 149.31C235.09 151.901 226.997 156.351 220.166 155.45C213.568 154.579 208.408 151.507 203.999 144.917C200.211 139.229 198.255 132.324 196.932 123.627C194.649 108.61 204.62 91.1292 208.917 86.7923C213.27 82.3428 216.379 80.7658 220.336 80.7095C224.18 80.7095 226.667 81.5543 230.568 84.3141C237.69 89.2705 248.94 105.386 247.074 122.388ZM170.869 75.8081C172 74.5127 172.169 73.8931 171.83 71.4713C171.604 69.2184 171.152 68.3172 169.965 67.3597C167.873 65.67 165.273 65.67 163.351 67.4724C161.994 68.7678 161.824 69.2184 161.994 72.3161C162.164 75.6391 162.277 75.8644 164.142 76.8782C166.629 78.23 169.06 77.8357 170.869 75.8081ZM206.144 41.0582C195.969 48.3238 191.56 51.3089 186.981 54.1251C183.363 56.378 182.232 56.4343 182.232 54.4067C182.232 53.3365 183.024 52.1538 185.059 50.2951L187.885 47.7043L182.402 46.9721C176.24 46.1836 170.248 44.4939 168.948 43.1985C166.8 41.0019 168.665 40.495 174.77 41.6214C177.484 42.072 182.741 42.6352 186.472 42.7479L193.255 43.0295L198.174 39.4812C208.971 31.7087 220.164 27.3155 225.534 28.6672C228.869 29.4557 228.474 30.3569 224.686 30.8075C220.333 31.3144 217.676 32.7788 206.144 41.0582Z" fill="#FFF5E6"/>
<path d="M220.669 147.734C220.669 147.453 221.009 147.171 221.461 147.171C221.913 147.171 222.478 147.453 222.648 147.734C222.818 148.072 222.478 148.297 221.857 148.297C221.178 148.297 220.669 148.072 220.669 147.734Z" fill="#FFF5E6"/>
<path d="M224.062 147.226C224.062 146.606 225.475 146.043 227.058 146.043C228.302 146.099 228.302 146.099 227.228 146.888C225.984 147.845 224.062 148.014 224.062 147.226Z" fill="#FFF5E6"/>
<path d="M215.3 145.762C215.131 145.311 214.905 144.523 214.735 144.072C214.566 143.509 214.848 143.228 215.583 143.228C216.205 143.228 216.714 143.565 216.714 144.016C216.714 144.467 216.883 145.199 217.053 145.706C217.279 146.325 217.109 146.607 216.488 146.607C215.979 146.607 215.414 146.213 215.3 145.762Z" fill="#FFF5E6"/>
<path d="M218.295 144.354C218.013 142.665 218.635 142.102 220.67 142.102C221.291 142.102 221.8 142.665 222.026 143.622C222.479 145.256 221.744 146.044 219.765 146.044C218.861 146.044 218.465 145.65 218.295 144.354Z" fill="#FFF5E6"/>
<path d="M212.53 144.637C211.456 143.792 211.456 143.792 212.643 143.792C213.378 143.792 213.886 144.13 213.886 144.637C213.886 145.651 213.886 145.651 212.53 144.637Z" fill="#FFF5E6"/>
<path d="M230.466 117.539C229.731 116.807 230.07 114.611 230.975 114.273C232.614 113.653 233.349 113.935 233.688 115.399C233.914 116.244 234.027 116.976 233.914 117.033C233.462 117.539 230.805 117.877 230.466 117.539Z" fill="#FFF5E6"/>
<path d="M228.926 143.396C228.757 143.227 228.587 142.495 228.587 141.819C228.587 140.862 229.039 140.467 230.396 140.186C231.583 139.961 232.318 140.073 232.657 140.524C233.222 141.425 233.222 142.551 232.714 142.833C231.696 143.396 229.322 143.734 228.926 143.396Z" fill="#FFF5E6"/>
<path d="M209.93 141.651C209.93 140.975 210.439 140.412 211.174 140.243C212.644 139.849 212.587 139.793 212.87 141.257C212.983 142.102 212.7 142.44 211.513 142.552C210.269 142.721 209.93 142.496 209.93 141.651Z" fill="#FFF5E6"/>
<path d="M214.229 141.707C213.437 140.862 213.946 139.285 215.02 139.285C215.755 139.285 216.151 139.679 216.151 140.355C216.151 141.425 214.85 142.327 214.229 141.707Z" fill="#FFF5E6"/>
<path d="M217.62 140.018C217.168 138.948 218.129 138.159 219.994 138.159C220.842 138.159 221.238 138.497 221.238 139.229C221.238 139.849 220.729 140.412 219.994 140.637C218.129 141.088 218.016 141.088 217.62 140.018Z" fill="#FFF5E6"/>
<path d="M233.955 139.848C234.125 139.567 234.408 139.285 234.577 139.285C234.747 139.285 234.69 139.567 234.521 139.848C234.351 140.186 234.068 140.412 233.899 140.412C233.729 140.412 233.786 140.186 233.955 139.848Z" fill="#FFF5E6"/>
<path d="M222.708 138.891C222.256 137.765 222.821 137.201 224.63 136.92C225.647 136.807 226.1 137.032 226.213 137.821C226.609 139.68 223.386 140.693 222.708 138.891Z" fill="#FFF5E6"/>
<path d="M209.138 137.934C208.629 136.075 208.742 135.906 210.212 135.906C211.003 135.906 211.625 136.132 211.625 136.413C211.625 136.695 211.795 137.314 211.964 137.765C212.134 138.328 211.795 138.666 210.834 138.835C209.76 139.06 209.364 138.835 209.138 137.934Z" fill="#FFF5E6"/>
<path d="M228.022 137.314C228.022 136.3 228.418 135.85 229.492 135.568C231.075 135.174 231.979 135.962 231.979 137.765C231.979 138.497 231.527 138.722 230.001 138.722C228.248 138.722 228.022 138.553 228.022 137.314Z" fill="#FFF5E6"/>
<path d="M207.445 137.314C207.275 136.863 207.388 136.469 207.671 136.469C208.01 136.469 208.236 136.863 208.236 137.314C208.236 137.764 208.123 138.158 208.01 138.158C207.897 138.158 207.671 137.764 207.445 137.314Z" fill="#FFF5E6"/>
<path d="M213.153 137.765C212.362 137.033 212.814 135.456 213.831 135.174C214.453 135.005 215.075 135.062 215.245 135.231C215.923 135.85 215.527 137.484 214.679 137.821C213.605 138.216 213.605 138.216 213.153 137.765Z" fill="#FFF5E6"/>
<path d="M233.334 137.372C232.712 135.738 233.39 134.499 234.973 134.33C236.16 134.161 236.499 134.386 236.499 135.288C236.499 137.146 235.878 138.16 234.747 138.16C234.125 138.16 233.503 137.822 233.334 137.372Z" fill="#FFF5E6"/>
<path d="M217.112 136.638C216.434 136.019 216.66 134.892 217.621 134.554C218.695 134.16 220.956 135.287 220.334 135.906C219.543 136.582 217.508 137.089 217.112 136.638Z" fill="#FFF5E6"/>
<path d="M222.029 135.23C221.52 134.442 223.329 133.09 224.799 133.09C225.477 133.09 225.76 133.428 225.647 134.047C225.421 135.174 222.538 136.075 222.029 135.23Z" fill="#FFF5E6"/>
<path d="M206.54 134.836C206.54 134.554 206.371 133.934 206.201 133.428C206.031 132.921 206.088 132.526 206.427 132.526C207.162 132.526 207.727 134.667 207.049 135.117C206.766 135.286 206.54 135.174 206.54 134.836Z" fill="#FFF5E6"/>
<path d="M208.066 133.54C207.727 132.301 208.405 131.399 209.705 131.399C210.44 131.399 211.175 133.596 210.723 134.328C210.101 135.286 208.348 134.722 208.066 133.54Z" fill="#FFF5E6"/>
<path d="M212.024 133.823C211.176 132.978 211.685 130.95 212.815 130.668C213.663 130.443 214.116 130.725 214.568 131.739C214.907 132.471 215.077 133.203 214.963 133.316C214.398 133.823 212.363 134.217 212.024 133.823Z" fill="#FFF5E6"/>
<path d="M227.283 133.821C226.549 133.089 226.888 132.638 228.584 132.019C229.997 131.568 230.393 131.624 230.675 132.3C231.184 133.652 228.358 134.947 227.283 133.821Z" fill="#FFF5E6"/>
<path d="M232.259 132.526C231.694 131.624 232.485 130.836 233.955 130.836C235.707 130.836 236.216 132.3 234.633 132.751C232.937 133.201 232.655 133.145 232.259 132.526Z" fill="#FFF5E6"/>
<path d="M237.065 131.173C237.065 130.329 238.083 129.427 238.535 129.878C238.931 130.272 238.139 131.962 237.574 131.962C237.292 131.962 237.065 131.624 237.065 131.173Z" fill="#FFF5E6"/>
<path d="M205.804 130.442C205.578 130.273 205.408 129.541 205.465 128.921C205.465 127.851 205.521 127.851 206.03 129.09C206.595 130.442 206.482 131.118 205.804 130.442Z" fill="#FFF5E6"/>
<path d="M206.878 129.597C206.369 127.626 206.426 127.457 207.896 127.457C209.535 127.457 210.553 129.541 209.309 130.329C208.009 131.118 207.274 130.893 206.878 129.597Z" fill="#FFF5E6"/>
<path d="M226.323 130.724C226.323 130.555 226.605 129.654 226.945 128.64C227.736 126.388 229.488 126.275 229.884 128.471C230.054 129.316 230.11 130.049 230.054 130.105C229.771 130.443 226.323 130.95 226.323 130.724Z" fill="#FFF5E6"/>
<path d="M210.892 129.315C210.666 129.146 210.497 128.47 210.497 127.85C210.497 126.949 210.666 126.893 211.345 127.456C211.797 127.85 212.193 128.526 212.193 128.92C212.193 129.765 211.514 129.99 210.892 129.315Z" fill="#FFF5E6"/>
<path d="M231.245 128.189C230.905 126.443 231.64 125.654 233.393 125.879C234.241 125.992 234.523 126.499 234.523 127.738C234.523 129.146 234.297 129.484 233.054 129.597C231.81 129.766 231.527 129.484 231.245 128.189Z" fill="#FFF5E6"/>
<path d="M236.782 128.415C236.047 126.162 236.273 125.486 237.8 125.317C239.156 125.148 239.326 125.317 239.326 126.781C239.326 128.02 238.987 128.527 238.139 128.753C237.517 128.922 236.895 128.753 236.782 128.415Z" fill="#FFF5E6"/>
<path d="M122.319 56.4804C122.319 55.9977 122.37 55.7944 122.446 56.0485C122.497 56.2772 122.497 56.6837 122.446 56.9378C122.37 57.1665 122.319 56.9632 122.319 56.4804Z" fill="#FFF5E6"/>
<path d="M206.367 125.936C205.632 125.26 205.972 123.063 206.876 122.725C208.176 122.219 208.798 122.838 208.798 124.697C208.798 125.88 208.515 126.33 207.78 126.33C207.215 126.33 206.537 126.161 206.367 125.936Z" fill="#FFF5E6"/>
<path d="M209.762 124.416C209.536 123.571 209.423 122.67 209.649 122.501C210.214 121.938 210.553 122.839 210.384 124.472L210.214 126.049L209.762 124.416Z" fill="#FFF5E6"/>
<path d="M228.022 124.022C228.022 123.403 228.305 123.065 228.587 123.234C228.926 123.403 229.153 123.966 229.153 124.417C229.153 124.867 228.926 125.205 228.587 125.205C228.305 125.205 228.022 124.698 228.022 124.022Z" fill="#FFF5E6"/>
<path d="M230.563 124.753C229.771 123.909 230.393 122.388 231.693 122.05C233.332 121.656 233.389 121.656 233.898 123.289C234.237 124.303 234.011 124.528 232.541 124.753C231.637 124.922 230.732 124.866 230.563 124.753Z" fill="#FFF5E6"/>
<path d="M235.762 123.683C235.14 123.12 235.31 121.262 235.932 121.262C236.271 121.262 236.497 121.036 236.497 120.698C236.497 120.417 236.158 120.135 235.706 120.135C234.745 120.135 233.953 117.375 234.745 116.587C235.762 115.573 236.893 116.643 237.571 119.403C237.967 120.867 238.362 122.557 238.532 123.12C238.758 123.852 238.532 124.078 237.458 124.078C236.723 124.078 235.932 123.909 235.762 123.683Z" fill="#FFF5E6"/>
<path d="M238.817 120.699C238.421 119.01 237.404 115.63 236.669 113.152C235.538 109.547 235.425 108.646 236.047 108.252C236.443 107.97 236.951 107.745 237.121 107.745C237.743 107.745 240.004 119.291 239.778 121.544L239.608 123.797L238.817 120.699Z" fill="#FFF5E6"/>
<path d="M204.39 120.418C204.39 119.517 204.503 119.179 204.672 119.742C204.785 120.249 204.785 121.038 204.672 121.432C204.503 121.77 204.39 121.376 204.39 120.418Z" fill="#FFF5E6"/>
<path d="M205.524 120.304C205.75 118.333 207.389 117.882 207.842 119.684C208.237 121.149 208.35 120.98 206.655 121.543C205.467 121.881 205.354 121.768 205.524 120.304Z" fill="#FFF5E6"/>
<path d="M229.375 119.798C228.922 118.164 229.883 117.207 231.692 117.432C233.049 117.601 233.558 120.023 232.427 120.755C231.014 121.656 229.714 121.262 229.375 119.798Z" fill="#FFF5E6"/>
<path d="M208.8 119.347C208.8 118.39 209.083 117.883 209.705 117.883C210.27 117.883 210.496 118.277 210.383 119.122C210.1 120.924 208.8 121.093 208.8 119.347Z" fill="#FFF5E6"/>
<path d="M203.769 116.981C203.769 116.362 203.938 116.193 204.108 116.643C204.278 117.037 204.221 117.544 204.052 117.713C203.882 117.939 203.712 117.601 203.769 116.981Z" fill="#FFF5E6"/>
<path d="M204.843 116.812C204.843 115.967 205.182 115.629 206.03 115.629C206.822 115.629 207.104 115.911 206.991 116.586C206.709 118.051 204.843 118.22 204.843 116.812Z" fill="#FFF5E6"/>
<path d="M207.952 116.306C207.556 115.292 207.556 115.292 209.252 114.842C210.27 114.504 210.496 114.673 210.496 115.518C210.496 116.87 208.461 117.545 207.952 116.306Z" fill="#FFF5E6"/>
<path d="M228.419 115.518C228.023 114.11 228.758 113.378 230.736 113.378C231.697 113.378 231.98 113.716 231.98 114.786C231.98 115.631 231.641 116.194 231.189 116.194C230.736 116.194 230.002 116.363 229.549 116.532C229.041 116.701 228.645 116.363 228.419 115.518Z" fill="#FFF5E6"/>
<path d="M233.335 114.221C232.883 113.095 233.561 112.25 234.861 112.25C235.653 112.25 235.935 112.644 235.935 113.658C235.935 114.672 235.653 115.066 234.805 115.066C234.183 115.066 233.504 114.672 233.335 114.221Z" fill="#FFF5E6"/>
<path d="M204.278 113.433C204.278 112.25 205.579 110.898 206.144 111.518C206.37 111.687 206.54 112.475 206.54 113.208C206.54 114.109 206.2 114.503 205.409 114.503C204.674 114.503 204.278 114.109 204.278 113.433Z" fill="#FFF5E6"/>
<path d="M207.385 112.757C206.933 111.349 207.442 110.729 209.364 110.447C211.116 110.222 211.681 112.081 210.155 113.207C208.685 114.277 207.781 114.108 207.385 112.757Z" fill="#FFF5E6"/>
<path d="M227.85 112.42C227.454 112.082 227.285 109.998 227.624 109.998C227.68 109.998 228.528 109.772 229.546 109.491C231.242 108.984 231.355 109.04 231.298 110.561C231.242 111.687 230.902 112.251 230.055 112.476C228.528 112.87 228.302 112.87 227.85 112.42Z" fill="#FFF5E6"/>
<path d="M225.761 111.126C225.761 110.731 225.931 110.561 226.157 110.731C226.327 110.957 226.327 111.296 226.157 111.522C225.931 111.692 225.761 111.522 225.761 111.126Z" fill="#FFF5E6"/>
<path d="M232.09 110.222C232.259 109.265 234.012 107.857 234.407 108.307C234.577 108.476 234.86 109.152 235.029 109.884C235.425 111.011 235.255 111.123 233.672 111.123C232.316 111.123 231.92 110.898 232.09 110.222Z" fill="#FFF5E6"/>
<path d="M204.843 110.166C204.843 109.884 205.126 109.321 205.409 108.87C205.861 108.194 205.974 108.251 205.974 109.321C205.974 109.997 205.748 110.56 205.409 110.56C205.126 110.56 204.843 110.391 204.843 110.166Z" fill="#FFF5E6"/>
<path d="M206.54 108.929C206.54 107.352 207.727 106.845 208.631 108.027C209.196 108.872 209.196 109.154 208.631 109.548C207.444 110.28 206.54 110.055 206.54 108.929Z" fill="#FFF5E6"/>
<path d="M223.724 108.195C222.706 107.069 222.706 107.012 223.667 107.35C224.233 107.576 224.968 107.745 225.25 107.745C225.533 107.745 225.759 108.139 225.759 108.59C225.759 109.772 224.968 109.66 223.724 108.195Z" fill="#FFF5E6"/>
<path d="M211.572 108.139C209.141 106.28 208.802 102.112 211.063 102.112C212.59 102.112 214.003 104.478 213.777 106.674C213.607 108.702 212.929 109.153 211.572 108.139Z" fill="#FFF5E6"/>
<path d="M227.061 108.478C227.287 108.308 227.626 108.308 227.852 108.478C228.022 108.704 227.852 108.873 227.456 108.873C227.061 108.873 226.891 108.704 227.061 108.478Z" fill="#FFF5E6"/>
<path d="M235.596 106.28C235.765 105.774 235.935 105.267 235.935 105.154C235.935 105.041 236.217 104.929 236.5 104.929C236.839 104.929 237.065 105.436 237.065 106.055C237.065 106.731 236.67 107.182 236.161 107.182C235.539 107.182 235.37 106.9 235.596 106.28Z" fill="#FFF5E6"/>
<path d="M205.974 106.11C205.974 104.815 207.161 102.675 207.84 102.675C209.027 102.675 208.179 106.279 206.935 106.505C206.426 106.617 205.974 106.448 205.974 106.11Z" fill="#FFF5E6"/>
<path d="M218.692 105.493L216.996 105.098L218.522 104.704C220.105 104.253 221.236 104.591 221.236 105.549C221.236 106.112 221.179 106.112 218.692 105.493Z" fill="#FFF5E6"/>
<path d="M216.717 102.789C216.717 100.48 218.017 100.142 219.204 102.169C219.995 103.521 220.052 103.803 219.317 103.803C218.865 103.803 218.13 103.972 217.621 104.141C216.943 104.422 216.717 104.084 216.717 102.789Z" fill="#FFF5E6"/>
<path d="M226.553 103.577C224.009 102.451 222.37 99.4655 222.37 95.9172C222.37 93.3826 222.596 92.7631 224.123 91.355C225.084 90.4539 226.045 89.7217 226.327 89.7217C227.571 89.7217 232.15 94.0585 233.676 96.762L235.428 99.8597L233.563 101.831C231.415 104.084 229.041 104.703 226.553 103.577Z" fill="#FFF5E6"/>
<path d="M214.737 102.113C214.567 101.831 214.68 101.55 214.963 101.55C215.302 101.55 215.585 101.831 215.585 102.113C215.585 102.451 215.472 102.676 215.359 102.676C215.189 102.676 214.906 102.451 214.737 102.113Z" fill="#FFF5E6"/>
<path d="M207.33 101.21C207.5 100.703 207.669 100.196 207.669 100.084C207.669 99.971 208.178 99.8584 208.8 99.8584C210.213 99.8584 210.269 100.76 208.856 101.548C207.33 102.337 206.934 102.28 207.33 101.21Z" fill="#FFF5E6"/>
<path d="M211.796 100.535C210.495 100.366 210.1 99.6343 210.948 99.1274C211.174 98.9584 212.191 98.6768 213.209 98.4515C214.735 98.1136 215.018 98.2262 215.018 99.1837C215.018 100.366 213.831 100.873 211.796 100.535Z" fill="#FFF5E6"/>
<path d="M216.148 98.6211C216.148 97.9452 216.205 97.551 216.318 97.6636C216.375 97.7763 216.827 98.3395 217.223 98.9027C217.901 99.6912 217.844 99.8602 217.053 99.8602C216.488 99.8602 216.148 99.4096 216.148 98.6211Z" fill="#FFF5E6"/>
<path d="M208.235 98.2268C208.235 97.8889 208.518 97.4946 208.801 97.3256C209.14 97.1567 209.366 97.382 209.366 97.8325C209.366 98.3394 209.14 98.7337 208.801 98.7337C208.518 98.7337 208.235 98.5084 208.235 98.2268Z" fill="#FFF5E6"/>
<path d="M210.327 97.3816C209.875 96.2552 213.889 95.0161 214.567 96.0862C215.076 96.9874 214.567 97.3816 212.419 97.8322C211.119 98.1138 210.554 98.0012 210.327 97.3816Z" fill="#FFF5E6"/>
<path d="M215.639 95.5788C215.639 94.9593 215.809 94.7903 215.978 95.2409C216.148 95.6352 216.091 96.1421 215.922 96.311C215.752 96.5363 215.582 96.1984 215.639 95.5788Z" fill="#FFF5E6"/>
<path d="M210.837 94.6788C211.515 93.4397 213.494 91.4121 214.002 91.4121C214.568 91.4121 214.624 94.0593 214.059 94.3972C213.776 94.5099 212.872 94.7915 212.024 95.0168C210.78 95.2984 210.497 95.2421 210.837 94.6788Z" fill="#FFF5E6"/>
<path d="M215.358 93.3811C214.736 91.6915 215.018 90.9593 216.375 90.734C217.788 90.4524 217.788 90.4524 216.884 92.1984C215.753 94.4513 215.81 94.4513 215.358 93.3811Z" fill="#FFF5E6"/>
<path d="M215.018 90.002C215.018 89.8893 216.148 89.1008 217.561 88.3123C219.257 87.2985 220.444 86.9606 221.292 87.1859C222.31 87.5238 222.027 87.7491 219.54 88.9319C216.77 90.171 215.018 90.6215 215.018 90.002Z" fill="#FFF5E6"/>
<path d="M246.395 40.1005C244.869 37.904 241.646 34.3556 239.329 32.2154C237.011 30.0751 235.485 28.3291 235.937 28.3291C237.18 28.3291 246.677 30.9199 249.052 31.9338C251.03 32.7786 251.087 32.8912 250.578 34.6372C250.295 35.651 250.069 38.1856 250.069 40.2695C250.069 42.4098 249.9 44.0994 249.674 44.0994C249.391 44.0994 247.978 42.2971 246.395 40.1005Z" fill="#FFF5E6"/>
<path d="M131.353 210.702C129.036 209.519 128.527 208.844 125.587 203.042C121.347 194.819 121.234 192.904 125.248 197.579C126.831 199.438 130.505 203.268 133.388 206.084C138.306 210.815 138.533 211.153 136.893 210.927C135.706 210.759 135.254 210.871 135.536 211.322C136.215 212.336 134.067 212.054 131.353 210.702Z" fill="#FFF5E6"/>
<path fill-rule="evenodd" clip-rule="evenodd" d="M226.092 313.316C225.623 312.206 226.146 310.927 227.26 310.459L228.478 309.944C240.32 304.896 247.116 301.864 251.735 297.049C256.353 292.234 256.905 285.161 257.773 280.858C258.011 279.677 260.695 281.751 261.881 281.988C263.066 282.225 263.834 283.375 263.596 284.556C262.553 289.73 259.743 294.663 255.221 299.346C250.714 304.013 241.987 309.015 228.959 314.48C227.845 314.947 226.561 314.426 226.092 313.316Z" fill="#1C1C35"/>
<path fill-rule="evenodd" clip-rule="evenodd" d="M279.641 88.5885C280.68 87.9723 282.023 88.312 282.642 89.3471C288.834 99.7114 292.151 111.559 292.151 123.885C292.151 161.229 261.767 191.502 224.286 191.502C214.326 191.502 204.667 189.362 195.821 185.284C194.724 184.778 190.578 180.751 194.753 182.389C198.928 184.027 215.081 187.704 224.402 187.704C259.465 187.704 284.27 158.82 284.27 123.885C284.27 112.35 279.641 102.111 278.88 91.5785C278.791 90.3576 278.602 89.2047 279.641 88.5885Z" fill="#1C1C35"/>
<path fill-rule="evenodd" clip-rule="evenodd" d="M62.8265 253.67C63.6003 252.744 64.9807 250.874 65.9097 251.645C69.7208 254.808 73.7877 258.472 78.138 259.179C82.665 259.915 88.0355 259.915 94.2425 259.167C95.4429 259.022 96.5337 259.874 96.679 261.07C96.8243 262.266 95.9691 263.353 94.7687 263.497C88.1772 264.293 82.4009 264.293 77.4329 263.485C72.2883 262.648 67.5039 260.39 63.1075 256.742C62.1785 255.971 62.0527 254.595 62.8265 253.67Z" fill="#1C1C35"/>
<path d="M109.309 177.359C106.482 175.106 100.434 168.46 95.8549 162.603C93.4806 159.505 90.8237 153.197 89.2409 146.832C88.506 143.96 87.7711 141.369 87.6015 141.031C87.3754 140.749 86.4709 136.751 85.5664 132.132C84.2097 125.599 84.4967 123.494 83.3052 115.679C82.8008 112.37 82.3442 109.737 82.3442 109.737L83.814 107.857C84.662 106.731 85.7346 104.867 86.1317 103.802C87.9407 98.9522 101.225 83.751 101.621 84.1452C101.734 84.2579 101.282 86.905 100.49 90.0028C99.7554 93.1005 98.8509 97.7753 98.4552 100.422C97.8899 104.816 97.6638 105.323 95.9114 106.787C93.7067 108.646 89.5235 114.616 89.5235 115.855C89.5235 117.545 92.0674 116.418 94.7243 113.658L97.4377 110.842V113.94C97.4377 115.967 97.042 117.826 96.3071 119.291C94.8939 122.05 94.8939 124.979 96.2506 127.232C96.9289 128.358 97.5508 131.062 97.9465 134.272C99.6989 148.804 103.43 161.42 109.818 174.092C111.401 177.246 112.644 179.837 112.588 179.837C112.475 179.837 111.005 178.711 109.309 177.359Z" fill="#FFF5E6"/>
<path fill-rule="evenodd" clip-rule="evenodd" d="M344.528 212.11L348.598 213.912C349.442 214.3 358.752 218.757 369.936 224.111C387.967 232.743 410.867 243.707 411.007 243.707C411.233 243.707 412.294 241.263 412.533 238.412C413.098 232.273 415.19 223.937 417.621 218.136C418.751 215.545 419.656 212.307 419.656 212.026C419.656 211.897 418.737 211.528 417.232 210.923C415.441 210.203 412.821 209.15 409.933 207.773C395.687 200.958 367.818 187.046 364.37 184.962C360.978 182.991 360.3 182.822 360.3 184.117C360.3 185.807 356.851 193.636 354.194 197.86C352.781 200.169 350.011 204.337 348.033 207.097L344.528 212.11ZM410.046 233.569C411.667 234.505 408.859 235.878 408.181 236.103C404.186 236.441 399.484 235.693 395.631 233.456C393.616 232.033 377.754 223.252 367.232 217.428C362.421 214.765 358.727 212.72 357.982 212.279C355.608 210.871 353.347 209.35 352.951 208.899C351.764 207.379 352.894 206.703 356.23 206.984C358.235 207.154 406.545 231.547 410.046 233.569Z" fill="#FFF4E2"/>
<path d="M303.938 217.179C302.469 216.672 300.886 215.546 299.868 214.25L298.172 212.167L304.165 206.253C313.379 197.241 320.162 187.392 326.268 176.41C328.303 172.749 334.351 157.984 335.086 156.351C336.217 153.985 337.065 153.084 339.496 151.732C342.379 150.043 345.657 149.479 347.071 150.437C349.784 152.239 349.784 157.928 347.071 167.728C344.075 178.486 340.061 186.202 331.751 197.297C330.451 198.987 328.02 202.31 326.268 204.619C321.576 210.815 318.523 213.8 314.396 216.109C310.326 218.362 307.952 218.644 303.938 217.179Z" fill="#FFF4E2"/>
<path d="M325.252 215.884L324.065 214.701C324.065 214.701 343.768 189.76 347.299 180.569C349.993 173.556 351.579 171.567 353.718 171.567C354.914 171.567 355.891 171.839 356.343 172.515C357.135 173.698 357.897 175.163 356.88 180.175C355.184 188.286 352.584 193.636 344.783 205.182C342.974 207.83 340.656 210.758 339.638 211.772C337.264 213.969 331.923 216.222 328.813 216.729C326.835 217.01 326.27 216.898 325.252 215.884Z" fill="#FFF4E2"/>
<path fill-rule="evenodd" clip-rule="evenodd" d="M358.349 189.803C359.489 187.204 360.301 184.938 360.301 184.117C360.301 182.822 360.98 182.991 364.371 184.962C367.82 187.046 395.689 200.958 409.934 207.773C415.248 210.307 419.658 211.744 419.658 212.026C419.658 212.307 357.14 192.558 358.349 189.803Z" fill="#DFD4BE"/>
<path fill-rule="evenodd" clip-rule="evenodd" d="M164.933 193.017C157.753 188.342 146.9 177.359 141.642 169.53C134.124 158.266 129.149 146.213 126.719 133.259C124.966 123.853 125.023 109.378 126.775 100.986C128.584 92.4248 130.902 85.8913 135.028 77.6119C139.833 68.0371 144.921 60.9968 152.553 53.3932C160.036 45.9369 126.775 76.7718 135.028 131.942C141.642 178.175 170.067 196.387 164.933 193.017Z" fill="#DFD4BE"/>
<path d="M209.921 75.9629C234.171 72.3966 253.93 77.4149 269.551 85.6455C285.237 93.9097 296.846 105.468 304.558 115.031C308.405 119.802 311.257 124.044 313.137 127.076C313.428 127.545 313.695 127.985 313.939 128.393C248.003 173.068 200.717 168.855 170.049 154.265C154.269 146.757 142.575 136.354 134.814 127.797C130.94 123.525 128.065 119.734 126.17 117.03C125.945 116.708 125.733 116.402 125.536 116.112C158.332 91.0163 186.386 79.4241 209.921 75.9629Z" fill="#FFF4E2" stroke="#1C1C35" stroke-width="9.055"/>
<path d="M254.2 111.854C251.188 92.7572 232.363 79.5842 213.266 82.596C194.169 85.6078 180.996 104.433 184.008 123.53C187.02 142.627 205.845 155.799 224.942 152.788C244.039 149.776 257.212 130.951 254.2 111.854Z" fill="#18466F"/>
<path d="M254.2 111.854C251.188 92.7572 232.363 79.5842 213.266 82.596C194.169 85.6078 180.996 104.433 184.008 123.53C187.02 142.627 205.845 155.799 224.942 152.788C244.039 149.776 257.212 130.951 254.2 111.854Z" fill="white"/>
<path d="M254.2 111.854C251.188 92.7572 232.363 79.5842 213.266 82.596C194.169 85.6078 180.996 104.433 184.008 123.53C187.02 142.627 205.845 155.799 224.942 152.788C244.039 149.776 257.212 130.951 254.2 111.854Z" stroke="#1C1C35" stroke-width="11.7778" stroke-miterlimit="10" stroke-linecap="round" stroke-linejoin="round"/>
<path d="M245.262 114.025C243.006 99.7256 228.911 89.8619 214.612 92.1171C200.312 94.3723 190.448 108.468 192.704 122.767C194.959 137.067 209.054 146.93 223.354 144.675C237.653 142.42 247.517 128.324 245.262 114.025Z" fill="#18466F"/>
<path d="M245.262 114.025C243.006 99.7256 228.911 89.8619 214.612 92.1171C200.312 94.3723 190.448 108.468 192.704 122.767C194.959 137.067 209.054 146.93 223.354 144.675C237.653 142.42 247.517 128.324 245.262 114.025Z" fill="#0072A3"/>
<path d="M245.262 114.025C243.006 99.7256 228.911 89.8619 214.612 92.1171C200.312 94.3723 190.448 108.468 192.704 122.767C194.959 137.067 209.054 146.93 223.354 144.675C237.653 142.42 247.517 128.324 245.262 114.025Z" stroke="#1C1C35" stroke-width="11.7778" stroke-miterlimit="10" stroke-linecap="round" stroke-linejoin="round"/>
<path d="M266.415 49.5557L245.264 79.5111" stroke="#1C1C35" stroke-width="7.28857" stroke-miterlimit="10" stroke-linecap="round" stroke-linejoin="round"/>
<path d="M219.368 78.1948L226.993 42.7403" stroke="#1C1C35" stroke-width="7.28857" stroke-miterlimit="10" stroke-linecap="round" stroke-linejoin="round"/>
<path d="M191.413 42.5813L195.221 77.3495" stroke="#1C1C35" stroke-width="7.28857" stroke-miterlimit="10" stroke-linecap="round" stroke-linejoin="round"/>
<path d="M160.165 55.188L183.171 79.3921" stroke="#1C1C35" stroke-width="7.28857" stroke-miterlimit="10" stroke-linecap="round" stroke-linejoin="round"/>
</svg>
