<svg width="931" height="2081" viewBox="0 0 931 2081" fill="none" xmlns="http://www.w3.org/2000/svg">
<path d="M466.829 7.55566C466.829 7.55566 476.921 43.0817 502.362 63.2622C527.593 83.4426 588.357 113.924 628.937 118.969C669.516 124.014 725.024 189.81 719.978 245.517C719.978 245.517 826.367 235.427 821.111 321.404L907.106 336.539L912.152 483.268C912.152 483.268 912.152 544.02 917.198 564.2C922.244 584.381 917.198 619.907 917.198 655.222C917.198 690.748 907.106 852.613 907.106 862.703C907.106 872.793 922.244 1004.39 922.244 1039.91C922.244 1075.44 902.06 1176.55 907.106 1212.08C912.152 1247.6 917.198 1424.6 917.198 1449.83C917.198 1475.05 912.152 1556.2 912.152 1576.38C912.152 1596.56 907.106 1728.15 907.106 1728.15L821.111 1743.29C821.111 1743.29 836.249 1814.13 719.978 1814.13C719.978 1814.13 719.978 1890.01 654.167 1930.59C588.357 1971.16 507.408 1950.77 466.829 2052.09H461.783C461.783 2052.09 436.552 1981.25 360.649 1961.07C284.747 1940.89 218.936 1925.54 208.844 1814.34C208.844 1814.34 107.711 1829.47 107.711 1743.5L21.7157 1723.32C21.7157 1723.32 16.6695 1687.79 16.6695 1647.43C16.6695 1606.86 16.6695 1546.32 11.6234 1505.74C6.57723 1465.17 16.6695 1465.17 11.6234 1429.86C6.57723 1394.33 16.6695 1283.13 16.6695 1283.13C16.6695 1283.13 21.7157 1166.67 16.6695 1116.22C11.6234 1065.56 6.57723 1030.24 11.6234 979.581C16.6695 928.92 21.7157 847.988 16.6695 787.236C11.6234 726.485 11.6234 665.733 11.6234 640.507C11.6234 615.282 11.6234 544.44 16.6695 529.095C16.6695 529.095 16.6695 498.824 16.6695 483.478C16.6695 468.343 21.7157 336.749 21.7157 336.749L107.711 321.614C107.711 321.614 97.6183 291.343 122.849 270.953C148.08 250.772 188.659 245.727 208.844 245.727C208.844 245.727 213.89 159.75 279.7 129.269C345.511 98.9984 401.229 93.7431 426.46 63.4724C451.69 33.2017 461.993 17.8561 461.993 12.811C461.783 7.55566 466.829 7.55566 466.829 7.55566Z" fill="#18466F"/>
<path d="M470.518 53.6445C470.518 53.6445 479.658 85.8228 502.698 104.102C525.548 122.38 580.578 149.989 617.328 154.558C654.078 159.128 704.347 218.725 699.777 269.182C699.777 269.182 796.127 260.042 791.366 337.917L869.246 351.626L873.816 484.528C873.816 484.528 873.816 539.555 878.386 557.834C882.956 576.112 878.386 608.291 878.386 640.278C878.386 672.457 869.246 819.068 869.246 828.207C869.246 837.346 882.956 956.539 882.956 988.717C882.956 1020.9 864.676 1112.48 869.246 1144.66C873.816 1176.84 878.386 1337.16 878.386 1360C878.386 1382.85 873.816 1456.35 873.816 1474.63C873.816 1492.91 869.246 1612.1 869.246 1612.1L791.366 1625.81C791.366 1625.81 805.076 1689.97 699.777 1689.97C699.777 1689.97 699.777 1758.71 640.177 1795.46C580.578 1832.21 507.268 1813.74 470.518 1905.51H465.948C465.948 1905.51 443.098 1841.35 374.359 1823.07C305.619 1804.79 246.019 1790.89 236.88 1690.16C236.88 1690.16 145.29 1703.87 145.29 1626L67.4108 1607.72C67.4108 1607.72 62.8408 1575.54 62.8408 1538.98C62.8408 1502.24 62.8408 1447.4 58.2709 1410.65C53.7009 1373.9 62.8408 1373.9 58.2709 1341.92C53.7009 1309.74 62.8408 1209.01 62.8408 1209.01C62.8408 1209.01 67.4108 1103.53 62.8408 1057.83C58.2709 1011.95 53.7009 979.959 58.2709 934.071C62.8408 888.184 67.4108 814.879 62.8408 759.852C58.2709 704.825 58.2709 649.799 58.2709 626.95C58.2709 604.102 58.2709 539.936 62.8408 526.036C62.8408 526.036 62.8408 498.618 62.8408 484.719C62.8408 471.01 67.4108 351.817 67.4108 351.817L145.29 338.108C145.29 338.108 136.15 310.69 159 292.22C181.85 273.942 218.6 269.372 236.88 269.372C236.88 269.372 241.45 191.497 301.049 163.888C360.649 136.47 411.109 131.71 433.959 104.292C456.808 76.8738 466.139 62.9743 466.139 58.4046C465.948 53.6445 470.518 53.6445 470.518 53.6445Z" fill="#FFF4E2"/>
<path d="M879.421 875.224C877.691 848.511 879.036 821.605 878.844 794.892C878.844 782.976 880.574 771.253 881.15 759.338C881.919 744.54 882.304 729.934 882.88 715.136C884.034 689.96 886.725 664.592 886.34 639.416C885.956 618.084 885.187 596.944 884.802 575.612C884.418 554.856 878.652 534.677 879.805 513.729C880.766 499.315 879.036 484.709 879.228 470.104C879.613 436.087 879.805 402.071 878.267 368.055C878.075 363.25 878.844 357.485 870.963 356.139C847.514 352.296 824.256 347.876 800.999 344.032C797.731 343.455 797.923 342.302 798.116 339.612C798.5 334.999 799.077 330.387 798.116 325.582C793.31 305.403 779.663 293.488 761.788 285.032C745.642 277.345 728.535 276.576 711.429 276.576C705.086 276.576 702.779 275.231 704.894 268.889C705.47 267.351 704.894 265.237 704.509 263.508C699.896 238.716 688.94 216.615 674.524 196.052C670.103 189.517 664.337 183.175 657.802 179.14C643.194 170.299 628.009 162.228 611.672 157.039C602.83 154.156 594.757 148.775 585.146 147.814C570.346 146.469 556.892 139.742 543.437 134.169C528.829 128.211 516.72 118.026 504.226 108.609C487.504 96.309 479.046 79.0126 473.088 60.1787C472.127 56.9116 471.742 53.6445 467.898 53.6445C464.054 53.6445 463.67 56.9116 462.516 60.1787C457.903 72.8628 454.251 85.739 444.256 96.1168C437.145 103.42 429.456 109.762 421.575 116.104C401.009 133.016 376.598 141.664 351.226 147.622C345.845 148.967 340.27 149.928 335.081 152.234C326.431 155.886 317.59 159.345 308.94 162.804C296.254 167.801 283.761 173.951 273.381 182.791C255.506 197.973 245.511 218.729 237.63 240.446C233.786 251.016 229.365 261.778 231.479 273.693C231.864 275.615 230.903 276.576 228.981 276.768C223.599 276.96 218.217 277.537 213.027 277.537C189.77 277.537 169.395 283.687 152.097 300.407C140.18 311.938 135.374 324.814 137.296 340.765C137.489 342.302 138.065 344.224 135.759 344.224C130.761 344.224 126.34 347.683 121.727 347.683C101.93 348.068 83.093 354.602 63.4876 356.908C60.4122 357.293 58.1057 358.253 57.7213 362.674C57.1446 368.631 56.9524 374.781 56.7602 380.739C56.1836 398.804 56.3758 417.061 56.1836 435.126C55.9914 455.69 55.9914 476.446 55.607 497.009C55.4147 516.42 57.1446 535.83 52.7238 555.048C51.3783 560.621 50.8017 566.579 50.6095 572.345C50.2251 593.1 51.5705 614.048 49.0718 634.804C47.3419 650.755 50.9939 666.514 51.3783 682.273C51.5705 701.683 52.1472 721.094 53.1082 740.696C54.0693 762.989 56.7602 785.09 56.7602 807.384C56.7602 835.442 58.1057 863.501 54.8381 891.559C52.3394 913.276 52.5316 935.377 49.0718 957.094C42.7289 996.491 50.0329 1035.89 52.916 1075.09C54.2615 1092.58 56.7602 1110.26 56.7602 1127.75C56.568 1157.35 57.5291 1186.94 55.2225 1216.54C52.916 1245.17 52.1472 1274.19 51.5705 1303.02C51.1861 1321.66 47.3419 1339.92 49.0718 1358.56C49.6484 1365.67 50.4173 1372.78 50.6095 1379.89C51.1861 1398.92 48.6874 1418.14 52.7238 1436.78C55.0303 1446.97 56.1836 1457.34 55.9914 1467.34C55.607 1478.87 55.9914 1490.59 55.7992 1502.12C55.607 1521.53 56.3758 1541.14 56.1836 1560.55C56.1836 1583.42 55.607 1606.09 57.7213 1628.96C58.1057 1633.58 60.22 1634.73 63.6798 1635.3C87.3217 1639.53 110.771 1643.57 134.413 1647.6C136.912 1647.99 137.873 1648.37 137.489 1651.26C134.029 1670.67 143.255 1685.27 157.094 1696.8C170.549 1708.14 187.271 1712.56 204.186 1714.68C210.721 1715.44 217.64 1714.87 224.368 1714.87C230.518 1715.06 233.402 1715.83 230.903 1722.75C230.326 1724.29 230.903 1726.4 231.287 1728.13C234.363 1742.35 238.015 1756.57 245.319 1769.26C255.698 1787.51 264.924 1806.15 285.106 1816.73C306.826 1828.06 328.738 1838.25 352.572 1844.01C387.362 1852.66 418.308 1867.85 443.295 1894.75C453.482 1905.71 457.903 1918.39 462.708 1931.46C463.862 1934.53 464.054 1937.8 467.898 1937.99C471.935 1938.18 472.703 1934.92 473.472 1931.65C476.163 1920.89 480.392 1910.51 486.735 1901.48C494.615 1890.14 505.956 1881.68 516.912 1873.42C537.478 1858.04 561.12 1849.2 586.108 1843.82C591.874 1842.67 597.448 1840.94 602.83 1838.63C613.017 1834.21 623.589 1830.37 633.583 1825.57C643.771 1820.76 654.727 1816.92 662.799 1809.04C686.249 1786.55 698.551 1758.11 705.47 1726.78C706.431 1722.75 701.049 1717.37 707.392 1715.25C711.621 1713.91 716.618 1714.48 721.424 1714.29C723.153 1714.29 725.076 1714.48 728.535 1714.68C736.608 1716.41 745.258 1711.99 754.292 1709.68C769.668 1705.84 781.585 1696.61 791.004 1684.31C798.116 1674.89 800.999 1663.75 799.077 1652.02C798.692 1649.33 798.5 1648.18 801.768 1647.6C825.409 1643.76 849.051 1639.53 872.501 1635.3C875.384 1634.73 878.267 1634.34 878.459 1629.54C878.652 1625.5 878.652 1621.47 879.036 1617.62C881.343 1595.72 879.805 1573.81 880.382 1551.9C880.958 1520.96 880.574 1490.02 881.343 1458.88C881.727 1437.74 887.493 1416.79 885.763 1395.46C884.61 1378.93 888.454 1362.21 887.301 1345.88C885.571 1318.4 884.418 1290.91 883.457 1263.43C882.496 1239.99 880.189 1216.73 879.613 1193.29C879.036 1168.69 879.997 1144.09 878.844 1119.49C878.652 1116.41 878.267 1112.38 879.036 1110.26C883.072 1099.88 881.535 1089.12 882.688 1078.74C884.034 1066.45 883.457 1053.95 886.148 1041.85C887.878 1034.35 888.454 1026.66 889.031 1019.17C891.914 985.344 885.379 951.905 883.649 918.273C882.111 903.667 880.382 889.445 879.421 875.224ZM878.075 1041.46C874.807 1071.06 872.693 1100.85 871.54 1130.44C870.963 1146.59 871.348 1162.73 871.348 1178.87C871.155 1202.7 874.231 1226.34 875 1250.17C876.153 1282.65 877.114 1315.13 879.421 1347.61C880.189 1356.83 878.267 1366.44 877.883 1375.86C877.306 1395.08 879.421 1414.49 876.345 1433.51C871.348 1465.03 873.27 1496.74 873.078 1528.26C872.885 1560.16 872.309 1592.06 872.117 1623.97C872.117 1628.39 870.771 1629.92 866.35 1629.73C859.046 1629.35 852.127 1630.88 845.784 1634.73C843.285 1636.27 841.555 1634.54 839.441 1634.73C823.487 1636.27 808.11 1640.88 792.157 1641.65C788.889 1641.84 788.121 1643.95 788.697 1646.84C793.31 1672.97 784.469 1688.54 760.635 1700.26C742.567 1709.1 723.73 1708.72 704.701 1708.14C696.244 1707.95 694.899 1708.91 696.628 1717.17C698.358 1725.63 695.667 1733.32 693.553 1741.39C688.171 1760.61 678.945 1777.52 667.413 1793.47C662.415 1800.58 656.457 1806.92 647.999 1810.58C643.578 1812.5 639.926 1816.15 635.313 1818.07C625.126 1822.49 614.362 1826.14 604.175 1830.75C588.414 1838.06 571.115 1839.98 554.969 1846.32C534.595 1854.2 516.527 1865.15 499.997 1879.18C487.888 1889.37 477.893 1900.52 472.319 1915.51C471.55 1917.43 470.781 1920.12 468.09 1920.12C465.207 1920.12 464.823 1917.24 464.054 1915.31C450.791 1885.33 425.804 1867.85 397.934 1853.82C381.98 1845.74 365.258 1839.59 347.19 1836.71C342 1835.94 337.195 1832.68 332.198 1830.75C314.899 1824.41 297.984 1817.11 282.415 1807.31C274.727 1802.5 269.345 1795.01 264.54 1787.51C253.584 1771.18 246.087 1753.3 240.513 1734.47C238.976 1729.09 238.399 1723.52 239.552 1717.94C241.282 1708.72 240.321 1708.33 231.095 1708.14C218.409 1707.76 205.723 1710.06 193.037 1706.41C176.892 1701.8 162.091 1695.07 152.289 1680.85C145.561 1671.05 142.486 1660.1 147.099 1648.37C148.637 1644.15 147.676 1641.65 143.063 1641.45C125.956 1641.26 109.618 1635.88 92.7036 1634.73C84.0541 1634.15 75.0202 1629.92 65.7941 1628.39C63.6798 1628 64.4486 1625.7 64.4486 1624.35C63.6798 1598.21 63.2954 1572.08 63.2954 1545.75C63.2954 1518.84 63.1032 1492.13 62.911 1465.22C62.7187 1442.55 55.607 1420.64 57.9135 1397.77C59.6434 1380.86 55.9914 1364.14 56.7602 1347.61C57.7213 1326.28 59.0667 1305.14 60.0278 1283.8C61.1811 1260.55 61.5655 1237.1 63.2954 1213.85C65.6019 1182.72 65.2175 1151.58 64.2564 1120.45C63.872 1103.92 61.3733 1087.39 60.6044 1070.67C60.0278 1057.22 58.1057 1043.96 56.9524 1030.51C55.9914 1029.16 55.9914 1027.82 56.568 1026.28C55.607 1024.17 55.4147 1022.05 55.7992 1019.74C54.8381 1018.78 54.8381 1017.82 55.7992 1016.86C55.2225 1012.63 54.6459 1008.41 55.9914 1004.18C55.2225 1004.18 54.0693 1003.99 54.2615 1003.03C54.2615 1002.45 55.4147 1002.06 55.9914 1001.49C56.1836 989.572 53.8771 977.657 56.568 965.742C56.1836 963.82 55.9914 961.898 57.1446 960.168C57.1446 954.787 57.9135 949.406 59.4512 944.217C59.0667 942.296 58.4901 940.374 59.6434 938.644C59.0667 934.993 60.0278 931.533 60.6044 928.074C60.6044 926.152 60.4122 924.423 60.4122 922.501C60.7966 917.12 61.3733 911.931 61.7577 906.55C61.5655 904.243 61.5655 901.937 62.5265 899.631C62.1421 896.556 62.3343 893.289 62.911 890.214C62.7187 887.524 62.5265 884.641 63.6798 881.95C63.1032 879.644 63.1032 877.338 64.2564 875.224C63.2954 870.611 63.872 866.191 64.4486 861.771C63.872 861.002 63.6798 860.041 64.2564 859.081C63.872 858.12 64.0642 856.967 64.8331 856.198C64.8331 854.853 64.8331 853.699 64.8331 852.354C63.4876 851.009 63.6798 849.471 64.8331 848.126C64.2564 846.781 64.2564 845.628 64.8331 844.475C63.2954 844.667 62.911 843.898 62.911 842.553C62.911 841.208 62.7187 839.862 64.8331 840.055C64.2564 837.364 64.2564 834.866 64.8331 832.175C62.7187 824.68 64.4486 817.185 64.0642 809.69C63.6798 802.387 64.0642 794.892 64.0642 787.589C63.872 786.82 63.6798 785.859 63.4876 785.09C61.9499 782.4 62.3343 779.709 62.911 776.827C61.5655 771.445 61.9499 766.064 62.3343 760.683C61.1811 757.032 61.1811 753.38 61.7577 749.729C60.4122 746.462 60.7966 743.002 60.9888 739.543C60.0278 739.543 59.0667 739.351 59.0667 738.39C59.0667 737.429 60.0278 737.237 60.9888 737.045L60.7966 736.66L60.9888 736.276C60.0278 736.276 58.8745 736.084 59.0667 735.123C61.5655 727.436 58.6823 719.556 60.4122 711.869C59.4512 708.025 58.6823 703.989 59.4512 699.954C57.5291 693.227 59.259 686.309 58.8745 679.582C58.2979 678.621 58.2979 677.853 58.8745 676.892C58.8745 675.931 58.8745 675.162 58.8745 674.201C57.3369 671.511 58.2979 668.82 58.4901 666.13C56.568 663.055 57.3368 659.788 57.7213 656.713C56.9524 654.983 56.3758 653.253 56.9524 651.524C55.607 645.95 55.4147 640.569 56.9524 634.996C56.568 631.921 56.7602 628.654 57.7213 625.771C57.3368 623.849 56.9524 621.928 58.2979 620.198C58.2979 618.853 58.2979 617.7 58.4901 616.354C57.1446 615.009 57.1446 613.664 58.2979 612.126C57.3368 608.09 58.2979 604.247 58.2979 600.211C56.1836 594.253 57.1446 588.296 58.2979 582.53C57.3368 579.071 57.7213 575.42 58.1057 571.96C57.1446 570.999 56.9524 570.038 58.1057 568.885C58.2979 563.889 58.6823 558.892 60.22 554.279C59.8356 553.126 59.8356 552.165 60.9888 551.397C60.9888 549.667 60.22 547.745 61.5655 546.016C61.3733 544.478 60.9888 543.133 62.3343 541.788C61.7577 540.25 61.9499 539.097 62.911 537.752C62.1421 534.485 63.4876 530.449 59.4512 528.143C58.8745 527.758 58.8745 526.221 58.6823 525.068C64.6408 524.107 61.1811 518.918 62.911 516.035C61.9499 514.69 61.9499 513.345 62.911 511.999C61.1811 500.084 62.9109 488.361 62.3343 476.446C61.5655 458.188 62.5265 439.931 62.7187 421.674C61.9499 420.713 62.1421 419.752 62.911 418.983C62.3343 409.951 61.5655 400.918 63.4876 391.885C62.9109 388.81 62.7187 385.736 63.4876 382.661C62.3343 381.7 62.3343 380.739 63.2954 379.778C62.9109 378.817 63.1032 377.856 63.6798 377.28C63.6798 375.55 63.6798 373.628 63.872 371.898C62.911 370.169 63.1032 368.247 63.872 366.517C62.7187 364.019 62.9109 362.289 66.3707 362.866C87.1295 357.293 108.465 355.563 129.416 350.758C133.452 349.797 137.873 350.182 142.102 349.99C146.33 349.797 148.252 348.068 146.715 343.455C141.525 329.234 145.561 316.934 155.364 306.364C170.357 290.221 189.385 283.11 211.297 283.302C218.986 283.302 226.482 282.534 234.17 283.495C238.015 283.879 240.513 281.957 239.744 277.921C235.708 256.205 245.895 238.14 254.737 219.882C259.542 210.081 265.116 200.664 272.805 192.4C282.8 181.83 295.87 176.065 308.364 169.915C319.896 164.342 331.813 159.729 343.922 155.693C352.38 152.811 361.414 151.658 369.871 148.967C400.048 139.55 425.804 123.215 448.1 100.921C455.597 93.4263 459.633 83.8172 464.246 74.5924C465.015 73.0549 465.207 70.7488 467.514 70.7488C469.82 70.7488 470.205 72.8628 470.974 74.4002C482.698 103.035 505.956 119.755 531.712 134.169C549.395 144.162 568.232 150.889 588.414 154.348C593.027 155.117 597.063 158 601.484 159.729C619.168 166.263 636.467 173.374 652.612 183.368C660.685 188.364 666.451 195.859 671.641 203.739C682.597 220.267 690.093 238.524 695.667 257.55C697.397 263.315 697.013 269.465 696.052 275.615C694.899 282.149 696.436 283.687 702.971 283.302C722.961 282.149 742.951 282.149 761.403 291.951C775.435 299.254 786.199 309.439 790.235 325.39C791.773 331.54 791.004 337.498 788.889 343.263C787.352 347.683 788.697 349.99 793.118 349.99C808.11 350.182 822.334 355.563 837.134 356.139C848.282 356.524 858.085 362.674 869.233 362.674C871.924 362.674 871.732 364.596 871.732 366.517C871.924 381.123 872.309 395.537 872.501 410.143C872.693 429.169 872.885 448.003 872.693 467.029C872.501 482.595 872.693 498.354 873.078 513.921C873.462 528.335 873.078 542.748 875.961 557.162C879.805 576.38 877.114 595.983 877.691 615.393C878.075 625.003 879.228 634.612 879.228 644.221C879.036 655.367 877.691 666.514 877.114 677.66C876.153 699.954 875.769 722.439 874.423 744.732C872.117 780.862 870.194 816.801 870.771 852.931C871.155 870.419 872.501 887.908 874.039 905.204C875.576 923.077 876.73 940.758 878.652 958.631C881.535 986.305 881.15 1013.79 878.075 1041.46Z" fill="#253166"/>
<path d="M919.435 907.229C917.525 877.731 919.011 848.021 918.798 818.522C918.798 805.365 920.708 792.42 921.345 779.262C922.193 762.921 922.618 746.793 923.254 730.452C924.528 702.652 927.498 674.639 927.074 646.839C926.649 623.282 925.801 599.938 925.376 576.382C924.952 553.463 918.586 531.18 919.859 508.048C920.92 492.132 919.011 476.004 919.223 459.875C919.647 422.313 919.859 384.75 918.162 347.188C917.95 341.882 918.798 335.516 910.099 334.03C884.212 329.786 858.537 324.905 832.862 320.66C829.255 320.024 829.467 318.75 829.679 315.779C830.103 310.686 830.74 305.593 829.679 300.288C824.374 278.005 809.309 264.847 789.575 255.51C771.751 247.021 752.866 246.172 733.982 246.172C726.979 246.172 724.433 244.687 726.767 237.683C727.404 235.986 726.767 233.651 726.343 231.741C721.25 204.365 709.155 179.96 693.241 157.253C688.361 150.038 681.995 143.034 674.781 138.578C658.655 128.816 641.892 119.903 623.855 114.173C614.095 110.99 605.183 105.048 594.573 103.987C578.235 102.501 563.382 95.0734 548.528 88.9191C532.402 82.3403 519.034 71.0928 505.242 60.6942C486.781 47.1123 477.445 28.0127 470.867 7.21539C469.806 3.6077 469.382 0 465.138 0C460.894 0 460.47 3.6077 459.197 7.21539C454.104 21.2217 450.073 35.4403 439.039 46.9C431.188 54.9643 422.7 61.9675 414 68.9706C391.296 87.6458 364.348 97.1955 336.339 103.774C330.398 105.26 324.244 106.321 318.515 108.868C308.967 112.9 299.206 116.72 289.657 120.539C275.653 126.057 261.861 132.848 250.402 142.61C230.669 159.375 219.635 182.295 210.935 206.275C206.691 217.947 201.811 229.831 204.145 242.989C204.57 245.111 203.509 246.172 201.387 246.384C195.445 246.597 189.504 247.233 183.775 247.233C158.1 247.233 135.608 254.024 116.511 272.487C103.355 285.22 98.0506 299.439 100.173 317.053C100.385 318.75 101.021 320.873 98.475 320.873C92.9581 320.873 88.0777 324.693 82.9852 324.693C61.1297 325.117 40.3352 332.332 18.6919 334.879C15.2968 335.303 12.7506 336.365 12.3262 341.246C11.6896 347.824 11.4774 354.615 11.2652 361.194C10.6287 381.142 10.8409 401.303 10.6287 421.251C10.4165 443.959 10.4165 466.878 9.99211 489.585C9.77992 511.019 11.6896 532.453 6.80927 553.675C5.32394 559.829 4.68738 566.408 4.47519 572.775C4.05081 595.694 5.53613 618.826 2.77767 641.745C0.867972 659.359 4.89957 676.761 5.32395 694.163C5.53614 715.597 6.1727 737.031 7.23365 758.677C8.29459 783.294 11.2652 807.699 11.2652 832.316C11.2652 863.3 12.7506 894.284 9.14335 925.268C6.38489 949.248 6.59708 973.653 2.77767 997.634C-4.22457 1041.14 3.83862 1084.64 7.02146 1127.94C8.50678 1147.25 11.2652 1166.77 11.2652 1186.08C11.0531 1218.76 12.114 1251.45 9.56773 1284.13C7.02146 1315.75 6.1727 1347.79 5.53613 1379.63C5.11175 1400.21 0.867972 1420.37 2.77767 1440.96C3.41424 1448.81 4.263 1456.66 4.47519 1464.51C5.11175 1485.52 2.3533 1506.74 6.80927 1527.33C9.35554 1538.58 10.6287 1550.04 10.4165 1561.07C9.99211 1573.8 10.4165 1586.75 10.2043 1599.48C9.99211 1620.92 10.8409 1642.56 10.6287 1664C10.6287 1689.25 9.99211 1714.29 12.3262 1739.55C12.7506 1744.64 15.0846 1745.91 18.9041 1746.55C45.0033 1751.22 70.8904 1755.67 96.9897 1760.13C99.7481 1760.56 100.809 1760.98 100.385 1764.16C96.5653 1785.6 106.75 1801.73 122.028 1814.46C136.881 1826.98 155.342 1831.86 174.014 1834.19C181.229 1835.04 188.868 1834.41 196.294 1834.41C203.084 1834.62 206.267 1835.47 203.509 1843.11C202.872 1844.81 203.509 1847.14 203.933 1849.05C207.328 1864.75 211.36 1880.46 219.423 1894.46C230.881 1914.63 241.066 1935.21 263.346 1946.88C287.323 1959.4 311.513 1970.65 337.824 1977.02C376.231 1986.57 410.393 2003.33 437.978 2033.04C449.224 2045.14 454.104 2059.15 459.409 2073.58C460.682 2076.97 460.894 2080.58 465.138 2080.79C469.594 2081 470.443 2077.4 471.291 2073.79C474.262 2061.9 478.93 2050.44 485.932 2040.47C494.632 2027.95 507.151 2018.61 519.246 2009.49C541.95 1992.51 568.05 1982.75 595.634 1976.8C602 1975.53 608.153 1973.62 614.095 1971.07C625.341 1966.19 637.011 1961.95 648.045 1956.64C659.291 1951.34 671.386 1947.09 680.298 1938.39C706.185 1913.56 719.765 1882.16 727.404 1847.56C728.465 1843.11 722.523 1837.17 729.526 1834.83C734.194 1833.35 739.711 1833.98 745.015 1833.77C746.925 1833.77 749.047 1833.98 752.866 1834.19C761.778 1836.1 771.327 1831.22 781.3 1828.68C798.275 1824.43 811.431 1814.25 821.828 1800.66C829.679 1790.27 832.862 1777.96 830.74 1765.01C830.316 1762.04 830.103 1760.77 833.711 1760.13C859.81 1755.89 885.909 1751.22 911.796 1746.55C914.979 1745.91 918.162 1745.49 918.374 1740.18C918.586 1735.73 918.586 1731.27 919.011 1727.02C921.557 1702.83 919.859 1678.64 920.496 1654.45C921.133 1620.28 920.708 1586.11 921.557 1551.73C921.981 1528.39 928.347 1505.26 926.437 1481.7C925.164 1463.45 929.408 1444.99 928.135 1426.95C926.225 1396.6 924.952 1366.26 923.891 1335.91C922.83 1310.02 920.284 1284.34 919.647 1258.45C919.011 1231.29 920.072 1204.12 918.798 1176.96C918.586 1173.56 918.162 1169.11 919.011 1166.77C923.467 1155.31 921.769 1143.43 923.042 1131.97C924.528 1118.39 923.891 1104.59 926.862 1091.22C928.771 1082.95 929.408 1074.46 930.044 1066.18C933.227 1028.83 926.013 991.904 924.103 954.766C922.406 938.637 920.496 922.933 919.435 907.229ZM917.95 1090.8C914.342 1123.48 912.008 1156.37 910.735 1189.05C910.099 1206.88 910.523 1224.71 910.523 1242.53C910.311 1268.85 913.706 1294.95 914.555 1321.27C915.828 1357.13 916.889 1392.99 919.435 1428.86C920.284 1439.05 918.162 1449.66 917.738 1460.06C917.101 1481.28 919.435 1502.71 916.04 1523.72C910.523 1558.52 912.645 1593.54 912.433 1628.34C912.221 1663.57 911.584 1698.8 911.372 1734.03C911.372 1738.91 909.887 1740.61 905.006 1740.39C896.943 1739.97 889.304 1741.67 882.302 1745.91C879.543 1747.61 877.634 1745.7 875.3 1745.91C857.688 1747.61 840.713 1752.7 823.101 1753.55C819.494 1753.76 818.645 1756.1 819.282 1759.28C824.374 1788.14 814.614 1805.33 788.302 1818.28C768.356 1828.04 747.562 1827.62 726.555 1826.98C717.219 1826.77 715.733 1827.83 717.643 1836.95C719.553 1846.29 716.582 1854.78 714.248 1863.69C708.307 1884.91 698.122 1903.59 685.39 1921.2C679.873 1929.06 673.296 1936.06 663.959 1940.09C659.079 1942.21 655.047 1946.25 649.955 1948.37C638.709 1953.25 626.826 1957.28 615.58 1962.37C598.181 1970.44 579.084 1972.56 561.26 1979.56C538.768 1988.26 518.822 2000.36 500.574 2015.85C487.206 2027.1 476.172 2039.41 470.018 2055.96C469.17 2058.08 468.321 2061.05 465.35 2061.05C462.167 2061.05 461.743 2057.87 460.894 2055.75C446.253 2022.64 418.668 2003.33 387.901 1987.84C370.289 1978.93 351.829 1972.14 331.883 1968.95C326.154 1968.1 320.849 1964.5 315.332 1962.37C296.235 1955.37 277.563 1947.31 260.375 1936.48C251.888 1931.18 245.947 1922.9 240.642 1914.63C228.547 1896.59 220.272 1876.85 214.118 1856.05C212.421 1850.11 211.784 1843.96 213.057 1837.8C214.967 1827.62 213.906 1827.19 203.721 1826.98C189.716 1826.55 175.712 1829.1 161.707 1825.07C143.884 1819.98 127.545 1812.55 116.723 1796.84C109.297 1786.02 105.902 1773.92 110.994 1760.98C112.692 1756.31 111.631 1753.55 106.538 1753.34C87.6534 1753.13 69.6173 1747.19 50.9446 1745.91C41.3961 1745.28 31.4232 1740.61 21.2381 1738.91C18.9041 1738.48 19.7528 1735.94 19.7528 1734.45C18.9041 1705.59 18.4797 1676.73 18.4797 1647.66C18.4797 1617.95 18.2675 1588.45 18.0553 1558.74C17.8431 1533.69 9.99211 1509.5 12.5384 1484.25C14.4481 1465.57 10.4165 1447.11 11.2652 1428.86C12.3262 1405.3 13.8115 1381.96 14.8725 1358.4C16.1456 1332.73 16.57 1306.83 18.4797 1281.16C21.0259 1246.78 20.6016 1212.4 19.5406 1178.02C19.1162 1159.77 16.3578 1141.52 15.509 1123.05C14.8725 1108.2 12.7506 1093.56 11.4774 1078.7C10.4165 1077.22 10.4165 1075.73 11.0531 1074.03C9.99211 1071.7 9.77992 1069.36 10.2043 1066.82C9.14335 1065.76 9.14335 1064.69 10.2043 1063.63C9.56773 1058.96 8.93116 1054.3 10.4165 1049.63C9.56773 1049.63 8.2946 1049.41 8.50678 1048.35C8.50678 1047.72 9.77992 1047.29 10.4165 1046.66C10.6287 1033.5 8.0824 1020.34 11.0531 1007.18C10.6287 1005.06 10.4165 1002.94 11.6896 1001.03C11.6896 995.087 12.5384 989.145 14.2359 983.415C13.8115 981.293 13.1749 979.171 14.4481 977.261C13.8115 973.229 14.8725 969.409 15.509 965.589C15.509 963.467 15.2968 961.557 15.2968 959.435C15.7212 953.493 16.3578 947.763 16.7822 941.821C16.57 939.274 16.57 936.727 17.6309 934.181C17.2065 930.785 17.4187 927.178 18.0553 923.782C17.8431 920.811 17.6309 917.628 18.9041 914.657C18.2675 912.11 18.2675 909.564 19.5406 907.229C18.4797 902.136 19.1162 897.255 19.7528 892.374C19.1162 891.525 18.9041 890.464 19.5406 889.403C19.1162 888.342 19.3284 887.069 20.1772 886.22C20.1772 884.734 20.1772 883.461 20.1772 881.975C18.6919 880.49 18.9041 878.792 20.1772 877.307C19.5406 875.821 19.5406 874.548 20.1772 873.274C18.4797 873.487 18.0553 872.638 18.0553 871.152C18.0553 869.667 17.8431 868.181 20.1772 868.393C19.5406 865.422 19.5406 862.664 20.1772 859.693C17.8431 851.416 19.7528 843.14 19.3284 834.863C18.9041 826.799 19.3284 818.522 19.3284 810.458C19.1162 809.609 18.9041 808.548 18.6919 807.699C16.9944 804.728 17.4187 801.757 18.0553 798.574C16.57 792.632 16.9943 786.69 17.4187 780.748C16.1456 776.716 16.1456 772.683 16.7822 768.651C15.2968 765.044 15.7212 761.224 15.9334 757.404C14.8725 757.404 13.8115 757.192 13.8115 756.13C13.8115 755.069 14.8725 754.857 15.9334 754.645L15.7212 754.221L15.9334 753.796C14.8725 753.796 13.5993 753.584 13.8115 752.523C16.57 744.034 13.3871 735.333 15.2968 726.844C14.2359 722.6 13.3871 718.144 14.2359 713.687C12.114 706.259 14.0237 698.62 13.5993 691.192C12.9628 690.131 12.9628 689.282 13.5993 688.221C13.5993 687.16 13.5993 686.311 13.5993 685.25C11.9018 682.279 12.9628 679.308 13.1749 676.337C11.0531 672.941 11.9018 669.334 12.3262 665.938C11.4774 664.028 10.8409 662.118 11.4774 660.208C9.99211 654.054 9.77992 648.112 11.4774 641.957C11.0531 638.562 11.2652 634.954 12.3262 631.771C11.9018 629.649 11.4774 627.527 12.9628 625.617C12.9628 624.131 12.9628 622.858 13.1749 621.372C11.6896 619.887 11.6896 618.401 12.9628 616.704C11.9018 612.247 12.9628 608.003 12.9628 603.546C10.6287 596.967 11.6896 590.389 12.9628 584.022C11.9018 580.202 12.3262 576.17 12.7506 572.35C11.6896 571.289 11.4774 570.228 12.7506 568.955C12.9628 563.437 13.3871 557.919 15.0846 552.826C14.6603 551.553 14.6603 550.492 15.9334 549.643C15.9334 547.733 15.0846 545.611 16.57 543.701C16.3578 542.003 15.9334 540.518 17.4187 539.032C16.7822 537.334 16.9944 536.061 18.0553 534.576C17.2065 530.968 18.6919 526.511 14.2359 523.965C13.5993 523.54 13.5993 521.842 13.3871 520.569C19.965 519.508 16.1456 513.778 18.0553 510.595C16.9944 509.109 16.9944 507.624 18.0553 506.138C16.1456 492.981 18.0553 480.036 17.4187 466.878C16.57 446.718 17.6309 426.557 17.8431 406.396C16.9944 405.335 17.2065 404.274 18.0553 403.425C17.4187 393.451 16.57 383.477 18.6919 373.503C18.0553 370.107 17.8431 366.712 18.6919 363.316C17.4187 362.255 17.4187 361.194 18.4797 360.133C18.0553 359.072 18.2675 358.011 18.9041 357.374C18.9041 355.464 18.9041 353.342 19.1162 351.432C18.0553 349.522 18.2675 347.4 19.1162 345.49C17.8431 342.731 18.0553 340.821 21.8747 341.458C44.7911 335.303 68.3441 333.393 91.4728 328.088C95.9287 327.027 100.809 327.451 105.477 327.239C110.145 327.027 112.267 325.117 110.57 320.024C104.841 304.32 109.297 290.738 120.118 279.066C136.669 261.24 157.676 253.388 181.865 253.6C190.353 253.6 198.628 252.751 207.116 253.812C211.36 254.236 214.118 252.114 213.269 247.658C208.813 223.677 220.059 203.729 229.82 183.568C235.125 172.745 241.278 162.346 249.766 153.221C260.8 141.549 275.229 135.182 289.021 128.392C301.752 122.237 314.908 117.144 328.276 112.687C337.612 109.504 347.585 108.231 356.921 105.26C390.235 94.8612 418.669 76.8227 443.282 52.2055C451.558 43.929 456.014 33.3181 461.106 23.1317C461.955 21.434 462.167 18.8873 464.714 18.8873C467.26 18.8873 467.684 21.2217 468.533 22.9195C481.476 54.5399 507.151 73.0028 535.585 88.9191C555.106 99.9544 575.901 107.382 598.181 111.202C603.273 112.051 607.729 115.234 612.609 117.144C632.131 124.359 651.228 132.211 669.052 143.247C677.964 148.764 684.329 157.041 690.058 165.742C702.153 183.992 710.429 204.153 716.582 225.163C718.492 231.529 718.067 238.32 717.007 245.111C715.733 252.326 717.431 254.024 724.645 253.6C746.713 252.326 768.781 252.326 789.151 263.15C804.641 271.214 816.523 282.461 820.979 300.075C822.677 306.866 821.828 313.445 819.494 319.812C817.796 324.693 819.282 327.239 824.162 327.239C840.713 327.451 856.415 333.393 872.753 334.03C885.06 334.455 895.882 341.246 908.189 341.246C911.16 341.246 910.947 343.368 910.947 345.49C911.16 361.618 911.584 377.535 911.796 393.663C912.008 414.673 912.221 435.47 912.008 456.48C911.796 473.669 912.008 491.071 912.433 508.261C912.857 524.177 912.433 540.093 915.616 556.009C919.859 577.231 916.889 598.877 917.525 620.311C917.95 630.922 919.223 641.533 919.223 652.144C919.011 664.453 917.525 676.761 916.889 689.07C915.828 713.687 915.403 738.516 913.918 763.134C911.372 803.03 909.25 842.715 909.886 882.612C910.311 901.924 911.796 921.236 913.494 940.335C915.191 960.071 916.464 979.595 918.586 999.332C921.769 1029.89 921.345 1060.24 917.95 1090.8Z" fill="#253166"/>
</svg>
