<svg width="1880" height="5775" viewBox="0 0 1880 5775" fill="none" xmlns="http://www.w3.org/2000/svg">
<g clip-path="url(#clip0_359_17072)">
<path d="M945.933 105.987C945.933 105.987 965.178 202.557 1013.69 257.414C1061.81 312.271 1177.68 395.127 1255.06 408.842C1332.45 422.556 1438.3 601.412 1428.68 752.839C1428.68 752.839 1631.56 725.411 1621.53 959.124L1785.52 1000.27L1795.14 1399.12C1795.14 1399.12 1795.14 1564.26 1804.77 1619.12C1814.39 1673.98 1804.77 1770.55 1804.77 1866.55C1804.77 1963.12 1785.52 2403.11 1785.52 2430.54C1785.52 2457.97 1814.39 2815.68 1814.39 2912.25C1814.39 3008.82 1775.9 3283.68 1785.52 3380.25C1795.14 3476.82 1804.77 3957.96 1804.77 4026.53C1804.77 4095.1 1795.14 4315.67 1795.14 4370.53C1795.14 4425.39 1785.52 4783.1 1785.52 4783.1L1621.53 4824.24C1621.53 4824.24 1650.4 5016.81 1428.68 5016.81C1428.68 5016.81 1428.68 5223.09 1303.18 5333.38C1177.68 5443.66 1023.32 5388.24 945.933 5663.66H936.31C936.31 5663.66 888.196 5471.09 743.453 5416.24C598.71 5361.38 473.213 5319.66 453.967 5017.38C453.967 5017.38 261.11 5058.52 261.11 4824.81L97.1216 4769.95C97.1216 4769.95 87.4988 4673.38 87.4988 4563.67C87.4988 4453.38 87.4988 4288.81 77.876 4178.53C68.2532 4068.24 87.4988 4068.24 77.876 3972.25C68.2532 3875.67 87.4988 3573.39 87.4988 3573.39C87.4988 3573.39 97.1216 3256.82 87.4988 3119.68C77.876 2981.97 68.2532 2885.97 77.876 2748.25C87.4988 2610.54 97.1216 2390.54 87.4988 2225.4C77.876 2060.26 77.876 1895.12 77.876 1826.55C77.876 1757.97 77.876 1565.4 87.4988 1523.69C87.4988 1523.69 87.4988 1441.41 87.4988 1399.69C87.4988 1358.55 97.1216 1000.84 97.1216 1000.84L261.11 959.695C261.11 959.695 241.865 877.41 289.978 821.982C338.092 767.125 415.476 753.411 453.967 753.411C453.967 753.411 463.59 519.698 589.087 436.841C714.584 354.556 820.836 340.271 868.95 257.986C917.064 175.7 936.711 133.986 936.711 120.272C936.31 105.987 945.933 105.987 945.933 105.987Z" fill="#FFF4E2"/>
<path d="M1851.15 1412.4V944.351L1658.5 903.204C1658.5 903.204 1658.5 696.896 1475.47 696.896C1475.47 696.896 1475.47 449.442 1302.06 366.576C1128.64 284.282 1003.28 215.131 974.043 105.406C945.207 -4.89161 935.595 8.82411 935.595 8.82411C935.595 8.82411 916.371 187.7 713.715 297.997C511.06 408.295 434.164 422.01 414.939 696.896C414.939 696.896 347.254 669.465 260.745 765.475C222.297 820.338 212.685 903.204 212.685 903.204L29.6543 944.351L19.2412 2966.85L28.8533 4824.19C28.8533 4824.19 134.987 4865.33 211.884 4865.33C211.884 4865.33 221.496 4975.63 298.793 5030.49C376.09 5085.36 414.539 5071.64 414.539 5071.64C414.539 5071.64 385.703 5332.81 626.806 5429.39C867.91 5525.97 925.582 5704.28 935.194 5759.71C935.194 5759.71 983.255 5553.41 1176.3 5470.54C1368.94 5388.25 1475.07 5277.95 1465.46 5071.64C1465.46 5071.64 1629.27 5112.79 1668.12 4879.05L1851.15 4824.19L1860.76 2994.28L1851.15 1412.4ZM1783.46 3379.46C1793.07 3476.04 1802.69 3957.24 1802.69 4025.82C1802.69 4094.4 1793.07 4314.99 1793.07 4369.85C1793.07 4424.72 1783.46 4782.47 1783.46 4782.47L1619.66 4823.61C1619.66 4823.61 1648.49 5016.21 1427.01 5016.21C1427.01 5016.21 1427.01 5222.51 1301.66 5332.81C1176.3 5443.11 1022.1 5387.67 944.806 5663.13H935.194C935.194 5663.13 887.134 5470.54 742.552 5415.68C597.97 5360.81 472.612 5319.1 453.388 5016.78C453.388 5016.78 260.745 5057.93 260.745 4824.19L96.939 4769.32C96.939 4769.32 87.3269 4672.74 87.3269 4563.02C87.3269 4452.72 87.3269 4288.13 77.7148 4177.83C68.1027 4067.54 87.3269 4067.54 77.7148 3971.53C68.1027 3874.94 87.3269 3572.63 87.3269 3572.63C87.3269 3572.63 96.939 3256.02 87.3269 3118.86C77.7148 2981.14 68.1027 2885.13 77.7148 2747.4C87.3269 2609.67 96.939 2389.65 87.3269 2224.49C77.7148 2059.32 77.7148 1894.16 77.7148 1825.59C77.7148 1757.01 77.7148 1564.42 87.3269 1522.7C87.3269 1522.7 87.3269 1440.4 87.3269 1398.68C87.3269 1357.54 96.939 999.785 96.939 999.785L260.745 958.638C260.745 958.638 241.521 876.344 289.582 820.909C337.642 766.046 414.939 752.331 453.388 752.331C453.388 752.331 463 518.592 588.358 435.726C713.716 353.432 819.849 339.144 867.91 256.85C915.97 174.556 935.595 132.837 935.595 119.121C935.595 105.406 945.207 105.406 945.207 105.406C945.207 105.406 964.431 201.987 1012.89 256.85C1060.95 311.713 1176.7 394.579 1254 408.295C1331.29 422.01 1437.03 600.886 1427.41 752.331C1427.41 752.331 1630.07 724.899 1620.06 958.638L1783.86 999.785L1793.47 1398.68C1793.47 1398.68 1793.47 1563.84 1803.09 1618.71C1812.7 1673.57 1803.09 1770.15 1803.09 1866.16C1803.09 1962.74 1783.86 2402.79 1783.86 2430.22C1783.86 2457.65 1812.7 2815.4 1812.7 2911.99C1812.3 3008 1773.85 3283.45 1783.46 3379.46Z" fill="#FFF4E2"/>
<path d="M1880.51 2817.57C1877.3 2811.28 1877.3 2804.99 1878.91 2797.56C1875.7 2747.84 1876.5 2698.12 1876.9 2648.97C1875.3 2643.83 1875.3 2638.11 1876.9 2632.97C1876.9 2623.25 1872.49 2614.11 1876.1 2604.39C1876.1 2584.39 1875.7 2564.96 1875.7 2544.96C1870.89 2516.95 1874.5 2488.38 1874.1 2460.37C1872.49 2458.09 1872.89 2455.23 1873.7 2452.37C1871.69 2438.65 1872.49 2425.51 1874.1 2412.36C1871.29 2403.22 1872.09 2394.08 1872.89 2384.36C1870.09 2378.64 1869.29 2373.5 1872.89 2367.79C1872.89 2365.5 1872.89 2362.64 1872.89 2360.36C1870.49 2356.36 1869.69 2351.78 1872.49 2347.78C1872.49 2343.78 1872.49 2340.35 1872.49 2336.35C1870.49 2333.5 1870.49 2330.64 1872.49 2327.78C1872.49 2324.35 1872.49 2320.35 1872.09 2316.92C1869.69 2274.06 1869.69 2231.19 1870.49 2187.76C1866.48 2165.47 1868.89 2142.61 1869.29 2119.75C1866.48 2116.89 1867.68 2114.03 1869.69 2111.18C1869.69 2108.89 1869.69 2106.03 1869.69 2103.75C1867.68 2100.89 1868.08 2098.03 1869.69 2095.17C1869.69 2093.46 1869.29 2092.32 1869.29 2090.6L1868.48 2088.89L1869.29 2087.17C1869.29 2085.46 1869.29 2084.31 1869.69 2082.6C1865.28 2043.74 1867.68 2004.87 1868.08 1966.01C1865.68 1947.72 1865.28 1928.86 1866.88 1910C1863.67 1906 1862.87 1901.43 1866.88 1897.43C1866.88 1895.14 1866.88 1892.29 1866.88 1890C1861.67 1870.57 1865.28 1850.57 1864.07 1831.13C1863.67 1821.42 1864.48 1811.13 1864.88 1801.41C1862.07 1797.41 1862.87 1793.41 1864.88 1789.41C1863.67 1777.41 1862.47 1765.41 1864.88 1753.41C1863.27 1749.41 1862.47 1745.41 1864.48 1741.41C1863.27 1738.55 1863.67 1735.69 1864.88 1733.4C1864.48 1729.4 1864.48 1725.4 1864.07 1721.4C1858.86 1715.69 1860.47 1710.54 1864.48 1704.83C1863.67 1695.68 1862.47 1686.54 1864.48 1677.4C1862.07 1671.68 1861.67 1666.54 1864.48 1660.82C1864.48 1658.54 1864.48 1655.68 1864.48 1653.39C1860.87 1610.53 1862.07 1567.67 1862.87 1524.8C1862.07 1516.8 1860.47 1508.8 1863.27 1500.8C1863.27 1497.94 1863.27 1495.65 1862.87 1492.8C1861.27 1483.65 1860.07 1473.94 1862.47 1464.79C1857.26 1423.07 1860.47 1381.35 1859.26 1339.63C1858.86 1320.2 1858.86 1300.77 1858.86 1281.91C1858.86 1271.05 1862.07 1276.19 1864.48 1280.19C1864.07 1241.9 1864.07 1203.04 1863.67 1164.75C1860.47 1157.89 1864.88 1157.89 1867.68 1156.17C1867.68 1139.03 1867.68 1121.31 1867.68 1104.17C1864.88 1080.16 1865.68 1056.16 1865.68 1032.16C1863.67 1013.3 1863.67 995.007 1865.68 976.147C1865.68 968.146 1865.68 960.145 1866.08 952.144C1864.07 940.142 1857.26 936.713 1849.64 934.427C1830.4 928.712 1810.36 928.14 1791.52 917.853C1788.71 918.424 1785.51 920.139 1783.1 916.71C1769.07 912.709 1755.04 909.28 1741.01 905.279C1739.01 906.422 1737 906.422 1735.4 904.708C1712.95 908.137 1691.31 894.421 1668.86 897.85C1668.46 897.85 1668.06 894.421 1667.66 892.706C1665.25 886.419 1665.65 879.561 1666.05 872.703C1665.65 869.846 1665.65 867.559 1665.25 864.702C1663.25 861.273 1662.85 856.701 1663.65 852.7C1663.25 849.842 1662.85 847.556 1662.45 844.699C1657.64 839.555 1658.44 831.554 1658.04 824.696C1654.43 818.409 1650.82 812.694 1647.61 805.836C1616.75 748.113 1577.46 709.821 1527.76 693.247C1524.95 694.39 1521.75 695.533 1519.34 692.104C1507.31 692.104 1494.89 692.104 1482.86 691.533C1475.25 692.676 1477.25 685.818 1478.05 680.103C1476.45 676.102 1476.45 672.101 1477.25 668.101C1474.85 661.814 1474.04 654.956 1474.85 648.098C1474.85 645.24 1474.44 642.954 1474.44 640.097C1471.24 635.524 1472.04 629.809 1472.04 624.094C1470.04 621.808 1469.23 618.951 1470.04 615.521C1466.03 611.521 1465.23 606.377 1466.83 600.091C1462.42 592.661 1461.22 583.517 1460.41 573.801C1454 572.658 1456.41 565.228 1455.2 560.085C1442.38 521.221 1427.95 483.502 1407.1 451.497C1400.29 449.782 1396.28 443.495 1393.47 435.494C1381.05 421.778 1368.22 408.062 1353.79 397.774C1300.87 359.483 1243.95 334.908 1190.64 298.331C1162.98 278.899 1132.52 268.612 1105.66 246.323C1095.24 247.466 1087.62 240.608 1080.41 230.892C1035.11 206.888 1007.45 154.881 981.394 101.73C975.381 89.1563 965.761 76.583 966.162 58.2945C962.554 52.5794 958.545 47.4357 957.744 38.863C957.343 38.2915 956.942 37.72 957.343 37.1485C957.343 36.0054 957.744 34.8624 958.145 33.7194C950.128 28.5757 952.533 19.4315 953.735 10.2873C952.533 6.85818 951.33 4.0006 949.727 0.571515C943.313 0.571515 937.3 0.571515 930.887 0C929.684 1.71454 928.481 4.0006 927.279 5.71515C927.68 10.2873 928.882 14.2879 926.477 18.2885C922.068 48.0072 911.245 73.7254 899.219 97.729C900.422 104.016 898.016 105.73 894.409 106.873C884.387 132.591 871.159 154.881 856.328 174.884C855.526 180.599 852.72 182.885 849.513 184.028C819.048 226.891 778.161 243.465 740.481 266.897C737.675 270.898 735.671 275.47 730.86 274.327C725.649 279.471 719.636 281.757 713.624 282.328C708.813 291.473 701.999 293.759 694.383 293.759C691.176 298.331 686.766 298.902 682.758 300.617C680.754 304.046 678.348 306.903 674.741 306.903C664.319 317.762 652.694 326.335 640.267 330.907C598.178 346.338 560.097 376.628 521.214 403.489C470.305 438.923 441.844 503.505 420.599 576.087C416.992 593.232 416.19 611.521 407.772 626.952C408.974 632.095 408.173 636.096 406.168 640.668C406.97 646.383 407.371 652.098 404.565 656.67C404.164 660.671 403.763 664.672 403.763 668.672C402.561 676.674 408.574 687.532 398.953 692.104C385.725 692.676 372.898 692.676 359.669 693.247C358.066 695.533 356.062 695.533 354.057 693.819C292.326 716.68 243.823 762.972 217.366 849.271C218.168 852.129 217.767 854.986 215.763 857.272C215.362 861.273 214.961 865.273 214.56 869.274C214.961 872.132 215.362 874.989 213.358 877.275C212.155 885.276 216.965 900.136 207.746 898.993C189.306 897.278 172.07 905.851 154.031 905.851C152.027 908.137 150.023 908.137 148.419 905.851C131.583 909.852 114.748 913.852 97.9117 917.281C95.1057 920.71 92.2997 920.139 89.4937 918.424C77.0673 923.568 64.2399 928.14 51.4126 930.426C38.9861 932.712 25.7579 932.712 15.7366 945.285C15.7366 948.143 16.1374 951.572 13.7323 953.287C13.7323 958.43 13.7323 964.145 13.7323 969.289C16.5383 979.576 16.1374 990.435 14.9349 1001.29C16.1374 1005.29 16.5383 1009.3 15.3357 1013.3C15.7366 1024.15 16.1374 1035.01 13.7323 1045.3C15.7366 1091.02 11.3272 1136.17 16.1374 1181.89C19.3443 1213.33 15.3357 1247.05 14.534 1279.05C19.3443 1279.05 22.1502 1281.34 22.1502 1289.91C20.9477 1373.35 20.146 1456.79 19.3443 1540.23C19.3443 1541.38 18.1417 1542.52 17.7409 1543.66C17.7409 1551.66 17.7409 1559.09 17.7409 1567.09C19.7451 1569.95 20.146 1572.81 17.7409 1575.67C17.7409 1599.67 19.3443 1623.67 16.5383 1647.68C17.34 1692.26 19.7451 1736.26 14.534 1780.27C14.534 1782.55 14.534 1785.41 14.534 1787.7C16.9391 1793.41 19.3443 1798.56 14.9349 1804.84C14.9349 1813.99 14.534 1823.13 14.534 1832.28C17.34 1835.13 16.9391 1837.99 14.534 1840.85C14.534 1845.99 14.9349 1851.14 14.9349 1856.28C18.9434 1859.71 16.5383 1862.57 14.534 1865.42C14.534 1870.57 14.1332 1875.71 14.1332 1880.86C14.9349 1909.43 14.9349 1940.29 10.9263 1971.15C10.9263 1975.16 10.9263 1978.58 10.9263 1982.58C13.3315 1985.44 13.3315 1988.3 10.9263 1991.16C12.5298 2026.02 12.5298 2060.31 9.72377 2095.17C11.728 2100.32 10.9263 2106.03 9.72377 2111.18C10.9263 2114.03 11.728 2116.32 10.1246 2119.18C10.5255 2144.9 13.3315 2170.61 8.52121 2195.76C8.12036 2256.91 7.7195 2318.64 7.31865 2379.79C7.7195 2396.36 8.12036 2412.36 5.71523 2428.37C5.71523 2430.65 5.71523 2432.94 5.71523 2435.22C9.32292 2443.8 8.92206 2451.8 5.71523 2460.37C5.71523 2491.23 8.52121 2521.52 4.11181 2552.39C5.71523 2569.53 5.71523 2587.25 4.11181 2604.39C4.11181 2607.25 4.11181 2609.54 4.51267 2612.39C3.71096 2626.11 6.51694 2639.83 2.90925 2652.97C4.51267 2705.55 4.51267 2758.13 1.70669 2810.71C-0.698434 2857.57 -1.50014 2904.44 0.504128 2950.73C2.90925 2998.74 2.90925 3046.17 2.5084 3094.18C4.91352 3097.04 5.71523 3099.9 2.5084 3102.75C2.5084 3105.04 2.5084 3107.9 2.5084 3110.18C5.71523 3126.19 4.11181 3142.76 4.11181 3158.76C5.71523 3161.62 5.31438 3163.91 4.11181 3166.76C5.31438 3185.62 5.31438 3204.48 4.11181 3222.77C8.52121 3251.92 5.71523 3281.07 5.31438 3310.79C9.32292 3337.65 6.51694 3364.51 6.91779 3391.37C8.52121 3446.23 8.92206 3501.1 7.7195 3555.39C10.1246 3558.25 10.1246 3561.11 7.7195 3563.97C8.92206 3567.4 9.32292 3571.4 8.12036 3575.4C12.5298 3601.11 10.9263 3626.26 9.72377 3651.98C11.3272 3654.84 10.9263 3657.12 9.72377 3659.98C10.5255 3665.12 11.728 3670.84 9.72377 3675.98C11.3272 3697.13 12.9306 3718.28 10.9263 3739.99C13.7323 3742.85 13.7323 3745.71 10.9263 3748.57C10.9263 3768.57 10.9263 3788 11.3272 3808C15.3357 3820 13.3315 3832.58 12.5298 3844.58C12.5298 3847.44 12.5298 3849.72 12.5298 3852.58C13.7323 3855.44 13.7323 3857.72 12.5298 3860.58C13.7323 3862.87 14.534 3865.73 13.7323 3868.58C13.7323 3873.73 13.3315 3879.44 13.3315 3884.59C16.1374 3893.73 12.9306 3902.87 14.1332 3912.02C16.5383 3915.45 18.1417 3918.31 13.7323 3920.59C14.534 3938.88 14.9349 3957.74 15.7366 3976.03C16.5383 3979.46 16.1374 3982.89 14.1332 3985.17C14.1332 3988.6 14.1332 3992.6 14.534 3996.03C17.7409 4000.6 17.34 4004.6 14.534 4009.18C14.534 4011.46 14.534 4013.75 14.534 4016.03C19.3443 4028.04 15.3357 4040.61 16.5383 4052.61C18.5426 4054.9 18.9434 4057.76 16.9391 4060.61C16.5383 4081.76 16.5383 4103.48 16.1374 4124.62C18.9434 4148.63 17.34 4172.63 16.9391 4196.63C19.3443 4199.49 19.3443 4202.35 17.34 4205.78C17.34 4214.92 17.34 4224.07 17.7409 4232.64C20.9477 4238.35 19.3443 4244.07 17.7409 4249.78C17.7409 4252.07 17.7409 4254.36 17.7409 4256.64C19.7451 4259.5 20.146 4262.93 17.7409 4265.79C17.7409 4269.22 17.7409 4273.22 17.7409 4276.65C21.3485 4317.79 20.5468 4359.51 20.9477 4400.66C20.9477 4425.81 20.9477 4450.96 21.3485 4476.1C21.3485 4483.53 22.1503 4491.53 14.534 4492.11C17.34 4545.26 14.9349 4598.41 13.3315 4651.56C11.728 4704.14 18.5426 4756.72 14.1332 4809.87C12.9306 4825.3 17.7409 4835.02 29.3656 4837.87C43.7964 4841.3 58.2271 4844.16 72.257 4848.73C116.351 4862.45 160.445 4871.02 205.341 4874.45C212.556 4875.02 213.358 4879.59 214.159 4887.59C216.965 4914.46 219.37 4940.75 231.797 4964.18C247.029 4993.32 265.068 5016.76 285.912 5037.9C318.381 5070.48 352.855 5087.62 392.539 5081.34C399.755 5080.2 404.164 5081.91 404.565 5093.91C405.367 5120.2 409.776 5145.35 415.388 5169.92C433.026 5247.08 459.883 5313.94 509.188 5360.24C532.838 5382.53 560.898 5390.53 584.549 5411.67C607.397 5432.25 635.858 5433.96 658.707 5452.82C696.387 5483.68 738.477 5500.83 777.76 5526.55C815.841 5551.69 851.117 5578.56 877.172 5627.13C899.62 5668.86 921.266 5711.15 929.283 5764.3C930.887 5775.73 936.899 5774.59 942.511 5774.59C948.524 5774.59 954.136 5772.87 954.938 5762.58C955.339 5756.87 954.938 5751.15 956.541 5744.87C971.774 5696.86 989.812 5651.14 1015.87 5612.85C1017.47 5606.56 1020.28 5601.99 1024.69 5600.27C1025.09 5595.13 1027.09 5592.27 1030.7 5591.7C1037.91 5578.56 1047.13 5569.98 1056.75 5561.41C1056.75 5559.12 1057.16 5557.41 1059.16 5558.55C1087.22 5539.12 1115.28 5519.12 1144.54 5504.26C1145.74 5499.12 1148.15 5496.83 1152.16 5497.97C1154.16 5495.69 1155.77 5494.54 1158.17 5495.69C1160.98 5491.11 1164.99 5489.97 1168.99 5491.11C1173 5488.83 1177.01 5486.54 1181.02 5484.26C1182.62 5479.68 1185.03 5476.83 1188.64 5479.11C1192.64 5476.83 1196.65 5474.54 1201.06 5472.83C1204.67 5464.25 1209.48 5458.54 1217.1 5458.54C1255.18 5436.25 1293.66 5417.39 1330.94 5392.24C1340.56 5380.81 1352.18 5375.1 1363.81 5369.38V5368.81C1363.81 5366.52 1364.21 5364.81 1366.21 5365.95C1367.42 5365.38 1368.22 5364.81 1369.42 5364.81C1369.42 5362.52 1369.82 5360.81 1371.83 5361.95C1375.43 5359.09 1379.04 5355.67 1383.05 5352.81C1383.45 5347.66 1385.05 5344.81 1389.06 5345.95C1412.71 5319.09 1431.15 5285.94 1445.58 5248.22C1444.78 5241.93 1447.19 5237.93 1450.39 5234.5V5232.79L1451.2 5231.65C1450.79 5225.93 1453.2 5221.93 1456.01 5218.5C1459.61 5202.5 1462.42 5185.93 1468.43 5171.64C1467.23 5167.07 1467.23 5162.49 1470.44 5159.64C1470.04 5155.06 1471.24 5150.49 1473.64 5147.63C1473.24 5143.06 1472.84 5139.06 1475.25 5135.06C1475.65 5131.06 1476.05 5127.06 1476.45 5123.06C1476.05 5116.2 1476.05 5109.34 1478.85 5103.06C1477.65 5099.06 1478.05 5095.05 1479.66 5091.05C1480.06 5069.34 1490.08 5083.62 1495.69 5082.48C1501.3 5082.48 1506.91 5082.48 1512.53 5082.48C1514.13 5080.19 1516.13 5080.77 1518.14 5081.34C1527.76 5078.48 1537.38 5077.34 1547 5073.34C1577.06 5060.19 1602.32 5033.9 1625.57 5005.9C1641.2 4987.04 1654.83 4963.03 1662.04 4934.46C1661.64 4931.03 1662.45 4928.17 1664.45 4926.46C1664.85 4923.6 1665.25 4921.31 1665.65 4918.46C1664.85 4915.6 1665.25 4912.74 1666.85 4910.46C1667.26 4906.45 1667.66 4902.45 1668.06 4898.45C1668.86 4890.45 1664.85 4880.16 1672.47 4874.45C1690.1 4876.16 1706.94 4867.59 1723.78 4866.45C1767.87 4864.16 1810.36 4844.73 1853.65 4836.16C1861.27 4834.44 1866.48 4828.73 1868.08 4817.87C1868.08 4809.87 1867.68 4801.87 1867.68 4793.87C1865.28 4784.72 1866.88 4775.01 1866.88 4765.86C1865.28 4763 1865.28 4760.72 1866.88 4758.43C1866.88 4753.29 1867.28 4747.57 1867.28 4742.43C1867.28 4716.71 1866.48 4691.56 1869.29 4666.42C1866.48 4607.55 1864.48 4548.69 1866.08 4489.82C1863.67 4494.39 1860.87 4499.54 1860.47 4488.68C1860.07 4474.39 1860.07 4459.53 1860.47 4445.24C1861.67 4400.09 1858.06 4354.37 1863.67 4309.22C1861.27 4298.36 1862.07 4288.08 1864.07 4277.22C1864.07 4273.22 1864.07 4269.22 1864.07 4265.21C1862.47 4260.07 1863.27 4254.36 1864.07 4249.21C1863.27 4205.21 1862.07 4160.63 1866.08 4116.62C1863.67 4099.48 1865.28 4082.33 1866.08 4065.18C1861.67 4059.47 1861.67 4054.33 1866.08 4048.61C1864.88 4044.61 1865.28 4040.61 1866.48 4036.61C1863.67 4017.75 1866.08 3998.89 1866.48 3980.6C1865.28 3978.31 1864.07 3975.46 1866.08 3972.6C1867.68 3942.88 1863.67 3913.16 1868.08 3884.01C1868.08 3881.73 1868.48 3878.87 1868.48 3876.58C1865.68 3872.58 1864.48 3868.58 1868.08 3864.01C1866.88 3845.15 1866.88 3826.86 1869.29 3808C1868.48 3761.14 1867.28 3714.27 1870.89 3667.41C1870.89 3665.12 1870.89 3662.27 1870.89 3659.98C1868.48 3657.12 1868.48 3654.27 1871.29 3651.41C1870.09 3638.26 1869.29 3625.12 1871.29 3611.97C1868.89 3609.12 1868.08 3606.26 1871.29 3603.4C1870.49 3595.4 1870.49 3587.4 1872.49 3579.97C1871.69 3538.25 1870.89 3496.53 1874.1 3455.38C1874.1 3453.09 1874.1 3450.81 1874.1 3447.95C1871.69 3443.95 1872.09 3439.38 1874.1 3435.38C1874.1 3433.09 1874.1 3430.23 1874.1 3427.95C1870.89 3422.23 1871.69 3417.09 1874.1 3411.37C1874.1 3409.09 1874.1 3406.23 1873.7 3403.94C1870.09 3398.23 1871.29 3392.51 1874.1 3387.37C1873.29 3379.37 1872.09 3371.37 1874.9 3363.36C1872.49 3352.51 1874.1 3342.22 1874.5 3331.36C1872.49 3324.5 1872.89 3317.64 1874.9 3311.36C1874.9 3283.35 1871.29 3254.78 1876.5 3226.77C1875.3 3206.77 1875.3 3186.77 1876.5 3167.34C1873.29 3158.76 1877.3 3151.33 1877.3 3142.76C1875.7 3135.9 1875.7 3129.62 1877.3 3122.76C1876.5 3074.18 1876.1 3026.17 1878.91 2978.16C1878.91 2974.16 1878.91 2970.73 1878.91 2966.73C1882.11 2917.01 1879.71 2867.29 1880.51 2817.57ZM1852.85 3083.89C1852.45 3175.34 1850.85 3266.21 1850.04 3357.65C1849.24 3441.09 1849.64 3525.1 1849.24 3608.54C1848.44 3693.7 1847.24 3778.86 1846.44 3864.01C1845.64 3946.31 1846.04 4028.61 1845.23 4110.91C1844.43 4202.92 1843.63 4294.36 1842.83 4386.38C1841.63 4520.11 1840.42 4653.85 1839.22 4787.58C1839.22 4795.01 1838.82 4803.58 1841.23 4809.3C1848.04 4824.73 1839.22 4824.73 1833.61 4825.3C1809.16 4827.59 1785.91 4837.87 1761.86 4843.02C1730.59 4849.3 1698.92 4856.16 1667.26 4854.45C1659.24 4853.88 1653.63 4857.3 1651.62 4869.31C1650.82 4875.02 1649.62 4880.74 1649.22 4887.02C1645.61 4943.03 1625.57 4983.61 1592.7 5013.33C1581.07 5023.62 1571.05 5036.19 1559.02 5045.33C1536.98 5061.33 1514.13 5068.19 1489.68 5063.05C1483.26 5061.91 1476.45 5061.91 1470.04 5064.19C1464.42 5066.48 1461.22 5070.48 1460.82 5079.62C1460.01 5125.92 1451.6 5169.35 1439.17 5211.07C1417.92 5281.37 1385.86 5336.81 1335.75 5368.81C1314.5 5382.53 1293.26 5397.96 1272.01 5411.67C1249.57 5425.96 1224.71 5432.25 1203.07 5449.39C1168.99 5475.68 1131.71 5491.11 1096.84 5515.69C1070.78 5533.98 1043.13 5547.12 1021.48 5577.98C991.416 5620.28 965.761 5666 948.925 5721.43C946.921 5728.29 945.718 5738.58 938.904 5738.58C931.287 5738.58 930.085 5727.72 928.081 5719.72C913.249 5655.14 881.581 5607.7 847.509 5563.7C829.871 5540.84 807.023 5528.83 785.376 5515.69C752.907 5495.69 720.037 5476.25 687.568 5455.68C661.913 5439.11 636.259 5424.25 609.402 5412.25C592.566 5404.82 576.932 5392.81 560.497 5382.53C540.054 5369.95 520.813 5355.09 503.576 5335.66C486.339 5316.8 471.909 5292.8 460.284 5266.51C435.832 5209.93 420.599 5148.21 418.595 5081.34C417.793 5061.91 408.574 5063.05 400.156 5061.91C388.932 5060.19 378.109 5064.76 366.484 5063.62C344.036 5061.34 323.993 5050.48 306.356 5032.19C284.71 5009.9 261.059 4992.75 245.827 4957.32C236.206 4935.03 233.801 4911.6 230.194 4887.59C225.383 4854.45 226.185 4856.16 202.134 4854.45C175.277 4852.73 148.018 4848.73 121.161 4843.02C96.7091 4837.87 73.0587 4826.44 47.8049 4827.01C40.5895 4827.01 29.7665 4828.16 37.7836 4806.44C42.5938 4792.72 39.7878 4773.86 39.7878 4757.29C38.9861 4640.7 38.5853 4524.11 37.3827 4407.52C36.581 4338.37 34.9776 4269.22 34.1759 4199.49C33.775 4133.77 34.5767 4067.47 33.775 4001.75C32.9733 3912.59 31.3699 3823.43 30.969 3734.28C30.1673 3633.69 31.3699 3533.1 29.3656 3433.09C27.3614 3333.07 28.9648 3233.63 26.5596 3133.62C24.9562 3059.32 24.9562 2984.45 25.3571 2910.15C25.7579 2827.86 26.5596 2745.56 27.3614 2663.83C28.1631 2568.96 28.5639 2473.52 29.3656 2378.64C30.1673 2272.91 31.3699 2167.18 32.1716 2061.45C32.5725 1975.73 30.969 1890 32.9733 1804.27C34.5767 1737.41 33.775 1671.11 34.9776 1604.24C36.581 1497.37 36.1801 1389.92 36.9819 1282.48C37.7836 1185.89 38.5853 1089.31 39.387 992.721C39.387 983.577 40.9904 972.147 38.1844 965.288C31.7707 950.429 36.581 947.572 44.9989 947.572C61.0331 948.143 76.6664 940.713 91.8989 936.713C132.385 925.282 172.871 917.281 214.159 918.424C220.172 918.424 224.582 915.567 226.987 905.851C228.991 897.85 229.392 890.42 230.194 882.419C234.603 826.41 255.447 786.976 288.718 757.829C302.748 745.255 315.575 730.967 330.407 721.252C348.045 709.821 366.484 708.107 385.324 709.25C389.733 709.25 393.742 710.393 397.751 710.393C414.186 710.393 416.19 706.964 417.793 683.532C425.409 593.232 446.655 511.506 494.757 448.068C515.602 420.635 542.058 405.775 566.911 388.059C613.41 354.339 663.517 333.193 710.818 301.188C748.498 276.042 787.782 254.324 825.462 229.177C851.117 212.032 869.556 180.599 886.793 149.165C900.021 125.733 914.051 102.873 922.068 74.2969C926.477 58.2945 932.891 43.4351 938.904 26.2897C953.735 62.8666 963.356 100.587 980.993 132.591C997.829 162.882 1015.87 190.314 1035.91 215.461C1049.14 232.035 1065.97 241.751 1082.01 250.895C1120.09 273.756 1158.97 294.33 1196.25 320.62C1207.88 328.621 1219.5 338.337 1231.93 342.909C1266 354.339 1295.26 380.057 1326.93 398.917C1415.52 452.64 1449.19 559.513 1460.01 686.389C1461.62 704.678 1466.43 709.821 1476.85 709.821C1485.67 709.821 1494.49 708.678 1503.31 708.107C1533.77 707.535 1559.43 724.109 1583.08 750.399C1595.9 764.687 1609.93 776.117 1621.16 793.834C1637.59 820.124 1645.21 850.414 1648.01 884.133C1650.82 917.281 1651.62 915.567 1675.27 916.71C1716.96 918.996 1758.25 925.854 1798.74 939.57C1809.56 943.571 1820.78 945.857 1832.01 946.428C1838.42 947 1846.44 945.285 1840.02 963.002C1834.41 979.005 1838.42 998.436 1838.42 1016.15C1838.42 1091.59 1839.22 1166.46 1840.02 1241.9C1841.23 1351.06 1842.03 1460.22 1843.23 1569.38C1844.03 1629.96 1843.63 1690.54 1843.63 1751.12C1843.63 1844.85 1845.64 1938.58 1846.44 2032.31C1847.24 2133.46 1846.04 2234.62 1848.04 2335.78C1850.04 2435.8 1848.04 2536.38 1851.25 2636.4C1852.85 2691.83 1852.05 2747.27 1851.65 2802.71C1852.85 2898.15 1853.25 2991.31 1852.85 3083.89Z" fill="#253166"/>
<path d="M1797.82 2529.48C1794.22 2450.03 1797.02 2370.02 1796.62 2290.57C1796.62 2255.14 1800.22 2220.27 1801.43 2184.84C1803.03 2140.83 1803.83 2097.39 1805.03 2053.38C1807.43 1978.51 1813.04 1903.06 1812.24 1828.19C1811.44 1764.75 1809.84 1701.88 1809.04 1638.44C1808.24 1576.71 1796.22 1516.7 1798.62 1454.4C1800.63 1411.53 1797.02 1368.09 1797.42 1324.66C1798.22 1223.49 1798.62 1122.33 1795.42 1021.17C1795.02 1006.88 1796.62 989.73 1780.2 985.73C1731.33 974.299 1682.87 961.153 1634.41 949.722C1627.6 948.007 1628 944.578 1628.4 936.577C1629.2 922.859 1630.4 909.142 1628.4 894.854C1618.39 834.841 1589.95 799.405 1552.7 774.257C1519.05 751.395 1483.41 749.109 1447.76 749.109C1434.54 749.109 1429.74 745.108 1434.14 726.247C1435.34 721.675 1434.14 715.388 1433.34 710.244C1423.73 636.514 1400.9 570.786 1370.86 509.631C1361.65 490.198 1349.63 471.337 1336.01 459.335C1305.57 433.043 1273.93 409.038 1239.89 393.607C1221.46 385.033 1204.64 369.03 1184.61 366.172C1153.77 362.172 1125.74 342.167 1097.7 325.593C1067.26 307.875 1042.03 277.583 1015.99 249.577C981.145 212.998 963.522 161.559 951.106 105.547C949.103 95.8306 948.302 86.1143 940.291 86.1143C932.281 86.1143 931.48 95.8306 929.077 105.547C919.464 143.269 911.854 181.563 891.026 212.426C876.207 234.145 860.186 253.006 843.764 271.867C800.908 322.163 750.041 347.883 697.171 365.601C685.956 369.602 674.341 372.459 663.527 379.318C645.503 390.177 627.078 400.465 609.055 410.753C582.62 425.613 556.586 443.903 534.957 470.194C497.708 515.346 476.881 577.073 460.459 641.658C452.448 673.093 443.236 705.1 447.642 740.536C448.443 746.251 446.44 749.109 442.435 749.681C431.22 750.252 420.006 751.967 409.191 751.967C360.727 751.967 318.271 770.256 282.224 819.981C257.391 854.274 247.378 892.567 251.383 940.006C251.784 944.578 252.985 950.294 248.179 950.294C237.765 950.294 228.553 960.582 218.941 960.582C177.686 961.725 138.434 981.157 97.5806 988.016C91.1721 989.159 86.3658 992.017 85.5647 1005.16C84.3632 1022.88 83.9626 1041.17 83.5621 1058.89C82.3605 1112.61 82.761 1166.91 82.3605 1220.64C81.96 1281.79 81.96 1343.52 81.1589 1404.67C80.7584 1462.4 84.3632 1520.13 75.151 1577.28C72.3473 1593.86 71.1457 1611.57 70.7452 1628.72C69.9441 1690.45 72.7478 1752.75 67.541 1814.47C63.9362 1861.91 71.5463 1908.78 72.3473 1955.65C72.7479 2013.37 73.9494 2071.1 75.9521 2129.4C77.9547 2195.7 83.5621 2261.42 83.5621 2327.72C83.5621 2411.17 86.3658 2494.61 79.5568 2578.06C74.35 2642.65 74.7505 2708.37 67.541 2772.96C54.3236 2890.13 69.5436 3007.29 75.5515 3123.89C78.3552 3175.9 83.5621 3228.48 83.5621 3280.49C83.1616 3368.51 85.1642 3456.53 80.3579 3544.55C75.5515 3629.71 73.9494 3716.01 72.7478 3801.74C71.9468 3857.18 63.9362 3911.48 67.541 3966.92C68.7426 3988.07 70.3447 4009.21 70.7452 4030.36C71.9468 4086.95 66.7399 4144.1 75.151 4199.54C79.9573 4229.83 82.3605 4260.7 81.96 4290.42C81.1589 4324.71 81.96 4359.57 81.5595 4393.87C81.1589 4451.59 82.761 4509.89 82.3605 4567.62C82.3605 4635.63 81.1589 4703.07 85.5647 4771.09C86.3658 4784.8 90.7716 4788.23 97.9811 4789.95C147.246 4802.52 196.11 4814.52 245.375 4826.53C250.582 4827.67 252.585 4828.81 251.784 4837.39C244.574 4895.11 263.8 4938.55 292.638 4972.84C320.675 5006.56 355.521 5019.71 390.767 5026C404.385 5028.28 418.804 5026.57 432.822 5026.57C445.639 5027.14 451.647 5029.43 446.44 5050C445.239 5054.57 446.44 5060.86 447.241 5066.01C453.65 5108.3 461.26 5150.59 476.48 5188.32C498.108 5242.61 517.334 5298.05 559.389 5329.49C604.649 5363.21 650.309 5393.5 699.975 5410.65C772.47 5436.37 836.955 5481.52 889.024 5561.54C910.252 5594.12 919.464 5631.84 929.477 5670.7C931.88 5679.85 932.281 5689.56 940.291 5690.14C948.702 5690.71 950.304 5680.99 951.907 5671.27C957.514 5639.27 966.326 5608.4 979.543 5581.54C995.965 5547.82 1019.6 5522.67 1042.43 5498.1C1085.28 5452.37 1134.55 5426.08 1186.62 5410.08C1198.63 5406.65 1210.25 5401.5 1221.46 5394.65C1242.69 5381.5 1264.72 5370.07 1285.55 5355.78C1306.77 5341.49 1329.6 5330.06 1346.43 5306.63C1395.29 5239.76 1420.92 5155.17 1435.34 5062C1437.35 5050 1426.13 5034 1439.35 5027.71C1448.16 5023.71 1458.57 5025.43 1468.59 5024.85C1472.19 5024.85 1476.2 5025.43 1483.41 5026C1500.23 5031.14 1518.25 5018 1537.08 5011.14C1569.12 4999.71 1593.95 4972.27 1613.58 4935.69C1628.4 4907.69 1634.41 4874.54 1630.4 4839.67C1629.6 4831.67 1629.2 4828.24 1636.01 4826.53C1685.27 4815.1 1734.54 4802.52 1783.4 4789.95C1789.41 4788.23 1795.42 4787.09 1795.82 4772.8C1796.22 4760.8 1796.22 4748.8 1797.02 4737.37C1801.83 4672.21 1798.62 4607.05 1799.82 4541.9C1801.03 4449.88 1800.22 4357.86 1801.83 4265.27C1802.63 4202.4 1814.64 4140.1 1811.04 4076.66C1808.64 4027.5 1816.65 3977.78 1814.24 3929.2C1810.64 3847.47 1808.24 3765.74 1806.23 3684C1804.23 3614.28 1799.42 3545.12 1798.22 3475.39C1797.02 3402.23 1799.02 3329.07 1796.62 3255.92C1796.22 3246.77 1795.42 3234.77 1797.02 3228.48C1805.43 3197.62 1802.23 3165.61 1804.63 3134.75C1807.43 3098.17 1806.23 3061.02 1811.84 3025.01C1815.44 3002.72 1816.65 2979.86 1817.85 2957.57C1823.86 2856.98 1810.24 2757.53 1806.63 2657.51C1803.43 2614.07 1799.82 2571.77 1797.82 2529.48ZM1795.02 3023.87C1788.21 3111.89 1783.8 3200.48 1781.4 3288.49C1780.2 3336.5 1781 3384.51 1781 3432.52C1780.6 3503.4 1787.01 3573.7 1788.61 3644.57C1791.01 3741.16 1793.02 3837.75 1797.82 3934.34C1799.42 3961.78 1795.42 3990.35 1794.62 4018.36C1793.42 4075.51 1797.82 4133.24 1791.41 4189.82C1781 4283.56 1785 4377.86 1784.6 4471.6C1784.2 4566.47 1783 4661.35 1782.6 4756.23C1782.6 4769.37 1779.8 4773.95 1770.59 4773.37C1755.37 4772.23 1740.95 4776.8 1727.73 4788.23C1722.52 4792.81 1718.92 4787.66 1714.51 4788.23C1681.27 4792.81 1649.23 4806.52 1615.98 4808.81C1609.17 4809.38 1607.57 4815.67 1608.77 4824.24C1618.38 4901.97 1599.96 4948.27 1550.3 4983.13C1512.65 5009.42 1473.39 5008.28 1433.74 5006.56C1416.12 5005.99 1413.31 5008.85 1416.92 5033.43C1420.52 5058.58 1414.92 5081.44 1410.51 5105.44C1399.3 5162.6 1380.07 5212.89 1356.04 5260.33C1345.63 5281.48 1333.21 5300.34 1315.59 5311.2C1306.37 5316.91 1298.76 5327.77 1289.15 5333.49C1267.92 5346.64 1245.49 5357.49 1224.27 5371.21C1191.42 5392.93 1155.37 5398.65 1121.73 5417.51C1079.27 5440.94 1041.62 5473.52 1007.18 5515.24C981.946 5545.53 961.119 5578.68 949.503 5623.26C947.901 5628.98 946.299 5636.98 940.692 5636.98C934.684 5636.98 933.883 5628.41 932.281 5622.69C904.644 5533.53 852.576 5481.52 794.499 5439.8C761.255 5415.79 726.409 5397.5 688.76 5388.93C677.946 5386.64 667.932 5376.93 657.519 5371.21C621.471 5352.35 586.225 5330.63 553.782 5301.48C537.761 5287.19 526.546 5264.9 516.533 5242.61C493.703 5194.03 478.082 5140.88 466.467 5084.87C463.263 5068.86 462.061 5052.29 464.464 5035.71C468.069 5008.28 466.066 5007.14 446.841 5006.56C420.406 5005.42 393.971 5012.28 367.536 5001.42C333.892 4987.7 303.051 4967.7 282.624 4925.41C268.606 4896.26 262.198 4863.68 271.81 4828.81C275.014 4816.24 273.012 4808.81 263.399 4808.24C227.752 4807.67 193.707 4791.66 158.461 4788.23C140.437 4786.52 121.612 4773.95 102.387 4769.37C97.9811 4768.23 99.5832 4761.37 99.5832 4757.37C97.9811 4679.64 97.18 4601.91 97.18 4523.61C97.18 4443.59 96.7795 4364.15 96.379 4284.13C95.9785 4216.69 81.1589 4151.53 85.9653 4083.52C89.57 4033.22 81.96 3983.5 83.5621 3934.34C85.5647 3870.9 88.3684 3808.03 90.3711 3744.59C92.7742 3675.43 93.5753 3605.7 97.18 3536.55C101.986 3443.95 101.185 3351.36 99.1827 3258.77C98.3816 3209.62 93.1748 3160.47 91.5727 3110.74C90.3711 3070.73 86.3658 3031.3 83.9626 2991.29C81.96 2987.29 81.96 2983.29 83.1616 2978.72C81.1589 2972.43 80.7584 2966.14 81.5595 2959.28C79.5568 2956.42 79.5568 2953.57 81.5595 2950.71C80.3579 2938.14 79.1563 2925.56 81.96 2912.99C80.3579 2912.99 77.9547 2912.42 78.3552 2909.56C78.3552 2907.84 80.7584 2906.7 81.96 2904.99C82.3605 2869.55 77.5542 2834.11 83.1616 2798.68C82.3605 2792.96 81.96 2787.25 84.3632 2782.1C84.3632 2766.1 85.9653 2750.1 89.1695 2734.66C88.3684 2728.95 87.1669 2723.23 89.57 2718.09C88.3684 2707.23 90.3711 2696.94 91.5727 2686.65C91.5727 2680.94 91.1721 2675.79 91.1721 2670.08C91.9732 2654.08 93.1748 2638.64 93.9758 2622.64C93.5753 2615.78 93.5753 2608.92 95.5779 2602.07C94.7769 2592.92 95.1774 2583.2 96.379 2574.06C95.9785 2566.06 95.5779 2557.48 97.9811 2549.48C96.7795 2542.62 96.7795 2535.77 99.1827 2529.48C97.18 2515.76 98.3816 2502.62 99.5832 2489.47C98.3816 2487.18 97.9811 2484.33 99.1827 2481.47C98.3816 2478.61 98.7822 2475.18 100.384 2472.9C100.384 2468.89 100.384 2465.47 100.384 2461.46C97.5806 2457.46 97.9811 2452.89 100.384 2448.89C99.1827 2444.89 99.1827 2441.46 100.384 2438.03C97.1801 2438.6 96.379 2436.32 96.379 2432.32C96.379 2428.31 95.9785 2424.31 100.384 2424.89C99.1827 2416.88 99.1827 2409.45 100.384 2401.45C95.9785 2379.16 99.5832 2356.87 98.7822 2334.58C97.9811 2312.86 98.7822 2290.57 98.7822 2268.85C98.3816 2266.57 97.9811 2263.71 97.5806 2261.42C94.3764 2253.42 95.1774 2245.42 96.379 2236.85C93.5753 2220.84 94.3764 2204.84 95.1774 2188.84C92.7742 2177.98 92.7742 2167.12 93.9758 2156.26C91.1721 2146.54 91.9732 2136.25 92.3737 2125.97C90.3711 2125.97 88.3684 2125.4 88.3684 2122.54C88.3684 2119.68 90.3711 2119.11 92.3737 2118.54L91.9732 2117.39L92.3737 2116.25C90.3711 2116.25 87.9679 2115.68 88.3684 2112.82C93.5753 2089.96 87.5674 2066.53 91.1721 2043.66C89.1695 2032.23 87.5674 2020.23 89.1695 2008.23C85.1642 1988.22 88.769 1967.65 87.9679 1947.64C86.7663 1944.79 86.7663 1942.5 87.9679 1939.64C87.9679 1936.78 87.9679 1934.5 87.9679 1931.64C84.7637 1923.64 86.7663 1915.64 87.1669 1907.64C83.1616 1898.49 84.7637 1888.77 85.5647 1879.63C83.9626 1874.49 82.761 1869.34 83.9626 1864.2C81.1589 1847.62 80.7584 1831.62 83.9626 1815.04C83.1616 1805.9 83.5621 1796.18 85.5647 1787.61C84.7637 1781.9 83.9626 1776.18 86.7663 1771.04C86.7663 1767.03 86.7663 1763.61 87.1669 1759.6C84.3632 1755.6 84.3632 1751.6 86.7663 1747.03C84.7637 1735.03 86.7663 1723.6 86.7663 1711.59C82.3605 1693.88 84.3632 1676.16 86.7663 1659.01C84.7637 1648.72 85.5647 1637.87 86.3658 1627.58C84.3632 1624.72 83.9626 1621.86 86.3658 1618.43C86.7663 1603.57 87.5674 1588.71 90.7716 1574.99C89.9705 1571.57 89.9706 1568.71 92.3737 1566.42C92.3737 1561.28 90.7716 1555.56 93.5753 1550.42C93.1748 1545.85 92.3737 1541.85 95.1774 1537.84C93.9758 1533.27 94.3764 1529.84 96.379 1525.84C94.7769 1516.13 97.5806 1504.12 89.1695 1497.26C87.9679 1496.12 87.9679 1491.55 87.5674 1488.12C99.9837 1485.26 92.7742 1469.83 96.379 1461.26C94.3764 1457.26 94.3764 1453.26 96.379 1449.25C92.7742 1413.82 96.379 1378.95 95.1774 1343.52C93.5753 1289.22 95.5779 1234.92 95.9785 1180.63C94.3764 1177.77 94.7769 1174.91 96.379 1172.63C95.1774 1145.76 93.5753 1118.9 97.5806 1092.04C96.379 1082.89 95.9785 1073.75 97.5806 1064.6C95.1774 1061.75 95.1774 1058.89 97.18 1056.03C96.379 1053.17 96.7795 1050.31 97.9811 1048.6C97.9811 1043.46 97.9811 1037.74 98.3816 1032.6C96.379 1027.45 96.7795 1021.74 98.3816 1016.59C95.9785 1009.16 96.379 1004.02 103.588 1005.73C146.846 989.159 191.304 984.015 234.962 969.726C243.373 966.869 252.585 968.012 261.396 967.44C270.208 966.869 274.213 961.725 271.009 948.008C260.195 905.713 268.606 869.134 289.033 837.699C320.274 789.689 359.926 768.542 405.587 769.113C421.608 769.113 437.228 766.827 453.249 769.685C461.26 770.828 466.467 765.112 464.865 753.11C456.454 688.525 477.682 634.8 496.106 580.503C506.119 551.354 517.734 523.348 533.755 498.771C554.583 467.336 581.819 450.19 607.853 431.9C631.885 415.326 656.717 401.608 681.951 389.606C699.574 381.033 718.399 377.603 736.022 369.602C798.905 341.596 852.576 293.014 899.037 226.715C914.658 204.425 923.069 175.847 932.681 148.413C934.283 143.841 934.684 136.982 939.49 136.982C944.297 136.982 945.098 143.269 946.7 147.841C971.132 233.002 1019.6 282.727 1073.27 325.593C1110.12 355.313 1149.37 375.317 1191.42 385.605C1201.03 387.891 1209.45 396.464 1218.66 401.608C1255.51 421.041 1291.55 442.188 1325.2 471.909C1342.02 486.769 1354.04 509.059 1364.85 532.493C1387.68 581.646 1403.3 635.943 1414.92 692.526C1418.52 709.672 1417.72 727.962 1415.72 746.251C1413.31 765.684 1416.52 770.256 1430.14 769.113C1471.79 765.684 1513.45 765.684 1551.9 794.833C1581.14 816.552 1603.57 846.844 1611.98 894.282C1615.18 912.572 1613.58 930.29 1609.17 947.436C1605.97 960.582 1608.77 967.44 1617.98 967.44C1649.23 968.012 1678.86 984.015 1709.71 985.73C1732.94 986.873 1753.36 1005.16 1776.59 1005.16C1782.2 1005.16 1781.8 1010.88 1781.8 1016.59C1782.2 1060.03 1783 1102.9 1783.4 1146.33C1783.8 1202.92 1784.2 1258.93 1783.8 1315.51C1783.4 1361.81 1783.8 1408.67 1784.6 1454.97C1785.41 1497.84 1784.6 1540.7 1790.61 1583.57C1798.62 1640.72 1793.02 1699.02 1794.22 1756.75C1795.02 1785.32 1797.42 1813.9 1797.42 1842.48C1797.02 1875.63 1794.22 1908.78 1793.02 1941.93C1791.01 2008.23 1790.21 2075.1 1787.41 2141.4C1782.6 2248.85 1778.6 2355.73 1779.8 2463.18C1780.6 2515.19 1783.4 2567.2 1786.61 2618.64C1789.81 2671.79 1792.21 2724.38 1796.22 2777.53C1802.23 2859.83 1801.43 2941.56 1795.02 3023.87Z" fill="#253166"/>
</g>
<defs>
<clipPath id="clip0_359_17072">
<rect width="1880" height="5774.62" fill="white"/>
</clipPath>
</defs>
</svg>
