<svg width="1620" height="704" viewBox="0 0 1620 704" fill="none" xmlns="http://www.w3.org/2000/svg">
<g clip-path="url(#clip0_147_4555)">
<path d="M814.436 63.538C814.436 63.538 831.002 121.864 872.762 154.996C914.177 188.128 1013.92 238.171 1080.53 246.454C1147.14 254.737 1238.25 362.761 1229.97 454.219C1229.97 454.219 1404.6 437.653 1395.97 578.808L1537.13 603.657L1545.41 844.554C1545.41 844.554 1545.41 944.295 1553.69 977.427C1561.97 1010.56 1553.69 1068.88 1553.69 1126.87C1553.69 1185.19 1537.13 1450.94 1537.13 1467.5C1537.13 1484.07 1561.97 1700.12 1561.97 1758.44C1561.97 1816.77 1528.84 1982.77 1537.13 2041.1C1545.41 2099.43 1553.69 2390.02 1553.69 2431.43C1553.69 2472.85 1545.41 2606.07 1545.41 2639.2C1545.41 2672.33 1537.13 2888.38 1537.13 2888.38L1395.97 2913.23C1395.97 2913.23 1420.82 3029.53 1229.97 3029.53C1229.97 3029.53 1229.97 3154.12 1121.94 3220.73C1013.92 3287.34 881.045 3253.87 814.436 3420.22H806.153C806.153 3420.22 764.738 3303.91 640.148 3270.78C515.558 3237.64 407.534 3212.45 390.968 3029.88C390.968 3029.88 224.964 3054.73 224.964 2913.57L83.8079 2880.44C83.8079 2880.44 75.5249 2822.11 75.5249 2755.85C75.5249 2689.24 75.5249 2589.85 67.242 2523.24C58.959 2456.63 75.5249 2456.63 67.242 2398.65C58.959 2340.32 75.5249 2157.75 75.5249 2157.75C75.5249 2157.75 83.8079 1966.55 75.5249 1883.72C67.242 1800.55 58.959 1742.57 67.242 1659.39C75.5249 1576.22 83.8079 1443.34 75.5249 1343.6C67.242 1243.86 67.242 1144.12 67.242 1102.71C67.242 1061.29 67.242 944.985 75.5249 919.791C75.5249 919.791 75.5249 870.093 75.5249 844.899C75.5249 820.05 83.8079 604.002 83.8079 604.002L224.964 579.153C224.964 579.153 208.398 529.456 249.813 495.979C291.228 462.847 357.836 454.564 390.968 454.564C390.968 454.564 399.251 313.408 507.275 263.365C615.299 213.667 706.757 205.039 748.172 155.341C789.587 105.643 806.498 80.4491 806.498 72.1661C806.153 63.538 814.436 63.538 814.436 63.538Z" fill="#FFF4E2"/>
<path d="M1595.45 852.837V570.181L1429.45 545.332C1429.45 545.332 1429.45 420.742 1271.73 420.742C1271.73 420.742 1271.73 271.303 1122.29 221.26C972.848 171.562 864.824 129.802 839.63 63.5385C814.781 -3.07049 806.498 5.21249 806.498 5.21249C806.498 5.21249 789.932 113.236 615.299 179.845C440.666 246.454 374.402 254.737 357.836 420.742C357.836 420.742 299.51 404.176 224.964 462.157C191.832 495.289 183.549 545.332 183.549 545.332L25.827 570.181L16.8538 1791.57L25.1367 2913.23C25.1367 2913.23 116.595 2938.08 182.858 2938.08C182.858 2938.08 191.141 3004.69 257.75 3037.82C324.359 3070.95 357.491 3062.67 357.491 3062.67C357.491 3062.67 332.642 3220.39 540.407 3278.71C748.172 3337.04 797.87 3444.72 806.153 3478.2C806.153 3478.2 847.568 3353.61 1013.92 3303.56C1179.92 3253.87 1271.38 3187.26 1263.1 3062.67C1263.1 3062.67 1404.25 3087.52 1437.73 2946.36L1595.45 2913.23L1603.73 1808.14L1595.45 852.837ZM1537.13 2040.75C1545.41 2099.08 1553.69 2389.68 1553.69 2431.09C1553.69 2472.5 1545.41 2605.72 1545.41 2638.85C1545.41 2671.99 1537.13 2888.03 1537.13 2888.03L1395.97 2912.88C1395.97 2912.88 1420.82 3029.19 1229.97 3029.19C1229.97 3029.19 1229.97 3153.78 1121.94 3220.39C1013.92 3287 881.045 3253.52 814.436 3419.87H806.153C806.153 3419.87 764.738 3303.56 640.148 3270.43C515.558 3237.3 407.534 3212.11 390.968 3029.53C390.968 3029.53 224.964 3054.38 224.964 2913.23L83.8078 2880.1C83.8078 2880.1 75.5249 2821.77 75.5249 2755.51C75.5249 2688.9 75.5249 2589.5 67.2419 2522.89C58.9589 2456.28 75.5249 2456.28 67.2419 2398.3C58.9589 2339.98 75.5249 2157.41 75.5249 2157.41C75.5249 2157.41 83.8078 1966.21 75.5249 1883.38C67.2419 1800.2 58.9589 1742.22 67.2419 1659.05C75.5249 1575.87 83.8078 1443 75.5249 1343.26C67.2419 1243.52 67.2419 1143.78 67.2419 1102.36C67.2419 1060.95 67.2419 944.64 75.5249 919.446C75.5249 919.446 75.5249 869.748 75.5249 844.554C75.5249 819.705 83.8078 603.658 83.8078 603.658L224.964 578.809C224.964 578.809 208.398 529.111 249.813 495.634C291.227 462.502 357.836 454.219 390.968 454.219C390.968 454.219 399.251 313.063 507.275 263.02C615.299 213.322 706.757 204.694 748.172 154.996C789.587 105.298 806.498 80.1044 806.498 71.8214C806.498 63.5385 814.781 63.5385 814.781 63.5385C814.781 63.5385 831.347 121.864 873.107 154.996C914.522 188.128 1014.26 238.171 1080.87 246.454C1147.48 254.737 1238.59 362.761 1230.31 454.219C1230.31 454.219 1404.94 437.653 1396.31 578.809L1537.47 603.658L1545.75 844.554C1545.75 844.554 1545.75 944.295 1554.04 977.427C1562.32 1010.56 1554.04 1068.88 1554.04 1126.87C1554.04 1185.19 1537.47 1450.94 1537.47 1467.5C1537.47 1484.07 1562.32 1700.12 1562.32 1758.44C1561.97 1816.42 1528.84 1982.77 1537.13 2040.75Z" fill="#00A29C"/>
<path d="M1619.61 1701.5C1616.85 1697.7 1616.85 1693.91 1618.23 1689.42C1615.47 1659.39 1616.16 1629.37 1616.5 1599.69C1615.12 1596.58 1615.12 1593.13 1616.5 1590.02C1616.5 1584.16 1612.71 1578.63 1615.81 1572.77C1615.81 1560.69 1615.47 1548.95 1615.47 1536.87C1611.33 1519.96 1614.43 1502.71 1614.09 1485.8C1612.71 1484.42 1613.05 1482.69 1613.74 1480.96C1612.02 1472.68 1612.71 1464.74 1614.09 1456.81C1611.67 1451.28 1612.36 1445.76 1613.05 1439.89C1610.64 1436.44 1609.95 1433.34 1613.05 1429.89C1613.05 1428.51 1613.05 1426.78 1613.05 1425.4C1610.98 1422.98 1610.29 1420.22 1612.71 1417.81C1612.71 1415.39 1612.71 1413.32 1612.71 1410.9C1610.98 1409.18 1610.98 1407.45 1612.71 1405.73C1612.71 1403.66 1612.71 1401.24 1612.36 1399.17C1610.29 1373.29 1610.29 1347.4 1610.98 1321.17C1607.53 1307.71 1609.6 1293.91 1609.95 1280.1C1607.53 1278.38 1608.57 1276.65 1610.29 1274.92C1610.29 1273.54 1610.29 1271.82 1610.29 1270.44C1608.57 1268.71 1608.91 1266.99 1610.29 1265.26C1610.29 1264.23 1609.95 1263.54 1609.95 1262.5L1609.26 1261.46L1609.95 1260.43C1609.95 1259.39 1609.95 1258.7 1610.29 1257.67C1606.5 1234.2 1608.57 1210.73 1608.91 1187.26C1606.84 1176.22 1606.5 1164.83 1607.88 1153.44C1605.11 1151.03 1604.42 1148.26 1607.88 1145.85C1607.88 1144.47 1607.88 1142.74 1607.88 1141.36C1603.39 1129.63 1606.5 1117.55 1605.46 1105.81C1605.11 1099.95 1605.81 1093.73 1606.15 1087.87C1603.73 1085.45 1604.42 1083.04 1606.15 1080.62C1605.11 1073.37 1604.08 1066.12 1606.15 1058.88C1604.77 1056.46 1604.08 1054.05 1605.81 1051.63C1604.77 1049.9 1605.11 1048.18 1606.15 1046.8C1605.81 1044.38 1605.81 1041.97 1605.46 1039.55C1600.97 1036.1 1602.35 1032.99 1605.81 1029.54C1605.11 1024.02 1604.08 1018.5 1605.81 1012.98C1603.73 1009.52 1603.39 1006.42 1605.81 1002.97C1605.81 1001.59 1605.81 999.861 1605.81 998.48C1602.7 972.596 1603.73 946.712 1604.42 920.827C1603.73 915.996 1602.35 911.164 1604.77 906.332C1604.77 904.607 1604.77 903.226 1604.42 901.5C1603.04 895.978 1602.01 890.111 1604.08 884.589C1599.59 859.395 1602.35 834.201 1601.32 809.007C1600.97 797.273 1600.97 785.539 1600.97 774.15C1600.97 767.592 1603.73 770.698 1605.81 773.114C1605.46 749.991 1605.46 726.522 1605.12 703.399C1602.35 699.258 1606.15 699.258 1608.57 698.222C1608.57 687.869 1608.57 677.17 1608.57 666.816C1606.15 652.321 1606.84 637.826 1606.84 623.33C1605.12 611.941 1605.12 600.897 1606.84 589.508C1606.84 584.676 1606.84 579.845 1607.19 575.013C1605.46 567.765 1599.59 565.695 1593.04 564.314C1576.47 560.863 1559.21 560.518 1542.99 554.305C1540.58 554.651 1537.82 555.686 1535.75 553.615C1523.67 551.199 1511.59 549.129 1499.51 546.713C1497.78 547.403 1496.06 547.403 1494.68 546.368C1475.35 548.438 1456.71 540.155 1437.38 542.226C1437.04 542.226 1436.69 540.155 1436.35 539.12C1434.28 535.324 1434.62 531.182 1434.97 527.041C1434.62 525.315 1434.62 523.935 1434.28 522.209C1432.55 520.138 1432.21 517.377 1432.9 514.961C1432.55 513.236 1432.21 511.855 1431.86 510.13C1427.72 507.024 1428.41 502.192 1428.07 498.05C1424.96 494.254 1421.85 490.803 1419.09 486.661C1392.52 451.804 1358.7 428.68 1315.9 418.672C1313.49 419.362 1310.72 420.052 1308.65 417.981C1298.3 417.981 1287.6 417.981 1277.25 417.636C1270.69 418.327 1272.42 414.185 1273.11 410.734C1271.73 408.318 1271.73 405.902 1272.42 403.486C1270.34 399.69 1269.65 395.548 1270.34 391.407C1270.34 389.681 1270 388.301 1270 386.575C1267.24 383.814 1267.93 380.363 1267.93 376.912C1266.2 375.531 1265.51 373.806 1266.2 371.735C1262.75 369.319 1262.06 366.213 1263.44 362.416C1259.65 357.93 1258.61 352.408 1257.92 346.541C1252.4 345.851 1254.47 341.364 1253.43 338.258C1242.39 314.789 1229.97 292.011 1212.02 272.684C1206.15 271.649 1202.7 267.852 1200.28 263.021C1189.59 254.738 1178.54 246.455 1166.12 240.243C1120.56 217.119 1071.55 202.279 1025.65 180.191C1001.84 168.457 975.609 162.244 952.485 148.785C943.512 149.475 936.955 145.333 930.742 139.466C891.743 124.971 867.93 93.5648 845.497 61.4682C840.32 53.8755 832.037 46.2828 832.382 35.2388C829.276 31.7876 825.825 28.6814 825.134 23.5046C824.789 23.1594 824.444 22.8143 824.789 22.4692C824.789 21.779 825.134 21.0887 825.48 20.3985C818.577 17.2923 820.648 11.7704 821.683 6.24837C820.648 4.17762 819.612 2.452 818.232 0.381257C812.71 0.381257 807.533 0.381257 802.011 0.0361328C800.976 1.07151 799.94 2.452 798.905 3.48737C799.25 6.24837 800.286 8.66424 798.215 11.0801C794.418 29.0266 785.1 44.5572 774.746 59.0524C775.782 62.8487 773.711 63.8841 770.605 64.5744C761.977 80.1049 750.588 93.5648 737.818 105.644C737.128 109.095 734.712 110.476 731.951 111.166C705.722 137.05 670.519 147.059 638.077 161.209C635.661 163.625 633.936 166.386 629.794 165.696C625.308 168.802 620.131 170.182 614.954 170.527C610.812 176.049 604.945 177.43 598.388 177.43C595.627 180.191 591.831 180.536 588.379 181.571C586.654 183.642 584.583 185.368 581.477 185.368C572.504 191.925 562.495 197.102 551.796 199.863C515.558 209.181 482.771 227.473 449.294 243.694C405.464 265.091 380.96 304.09 362.668 347.921C359.562 358.275 358.872 369.319 351.624 378.637C352.66 381.743 351.969 384.159 350.244 386.92C350.934 390.372 351.279 393.823 348.863 396.584C348.518 399 348.173 401.416 348.173 403.831C347.138 408.663 352.314 415.22 344.031 417.981C332.642 418.327 321.598 418.327 310.209 418.672C308.829 420.052 307.103 420.052 305.378 419.017C252.228 432.822 210.468 460.777 187.69 512.891C188.38 514.616 188.035 516.342 186.31 517.722C185.965 520.138 185.619 522.554 185.274 524.97C185.619 526.696 185.965 528.421 184.239 529.802C183.204 534.633 187.345 543.607 179.407 542.916C163.531 541.881 148.691 547.058 133.161 547.058C131.435 548.438 129.709 548.438 128.329 547.058C113.834 549.474 99.3384 551.89 84.8432 553.96C82.4273 556.031 80.0115 555.686 77.5956 554.651C66.8967 557.757 55.8528 560.518 44.8088 561.898C34.1099 563.279 22.7209 563.279 14.0927 570.871C14.0927 572.597 14.4379 574.668 12.3671 575.703C12.3671 578.809 12.3671 582.261 12.3671 585.367C14.783 591.579 14.4379 598.136 13.4025 604.694C14.4379 607.11 14.783 609.525 13.7476 611.941C14.0927 618.499 14.4379 625.056 12.3671 631.268C14.0928 658.878 10.2964 686.143 14.4379 713.753C17.1989 732.735 13.7476 753.097 13.0574 772.424C17.1989 772.424 19.6147 773.804 19.6147 778.981C18.5794 829.369 17.8891 879.758 17.1989 930.146C17.1989 930.836 16.1635 931.526 15.8184 932.216C15.8184 937.048 15.8184 941.535 15.8184 946.367C17.544 948.092 17.8891 949.818 15.8184 951.543C15.8184 966.039 17.1989 980.534 14.783 995.029C15.4732 1021.95 17.544 1048.52 13.0574 1075.1C13.0574 1076.48 13.0574 1078.2 13.0574 1079.58C15.1281 1083.04 17.1989 1086.14 13.4025 1089.94C13.4025 1095.46 13.0574 1100.98 13.0574 1106.5C15.4732 1108.23 15.1281 1109.96 13.0574 1111.68C13.0574 1114.79 13.4025 1117.89 13.4025 1121C16.8537 1123.07 14.783 1124.8 13.0574 1126.52C13.0574 1129.63 12.7123 1132.73 12.7123 1135.84C13.4025 1153.1 13.4025 1171.73 9.95126 1190.37C9.95126 1192.79 9.95126 1194.86 9.95126 1197.27C12.022 1199 12.022 1200.72 9.95126 1202.45C11.3318 1223.5 11.3318 1244.21 8.91589 1265.26C10.6415 1268.37 9.95126 1271.82 8.91589 1274.92C9.95126 1276.65 10.6415 1278.03 9.26101 1279.76C9.60614 1295.29 12.022 1310.82 7.88052 1326C7.53539 1362.93 7.19027 1400.2 6.84514 1437.13C7.19027 1447.14 7.53539 1456.81 5.46465 1466.47C5.46465 1467.85 5.46465 1469.23 5.46465 1470.61C8.57076 1475.79 8.22564 1480.62 5.46465 1485.8C5.46465 1504.43 7.88052 1522.72 4.08415 1541.36C5.46465 1551.71 5.46465 1562.41 4.08415 1572.77C4.08415 1574.49 4.08415 1575.87 4.42927 1577.6C3.73903 1585.88 6.15489 1594.16 3.04878 1602.1C4.42927 1633.85 4.42927 1665.61 2.01341 1697.36C-0.0573394 1725.66 -0.747588 1753.96 0.978033 1781.91C3.04878 1810.9 3.04878 1839.55 2.70365 1868.54C4.7744 1870.26 5.46465 1871.99 2.70365 1873.72C2.70365 1875.1 2.70365 1876.82 2.70365 1878.2C5.46465 1887.87 4.08415 1897.87 4.08415 1907.54C5.46465 1909.26 5.11952 1910.64 4.08415 1912.37C5.11952 1923.76 5.11952 1935.15 4.08415 1946.19C7.88052 1963.79 5.46465 1981.39 5.11952 1999.34C8.57076 2015.56 6.15489 2031.78 6.50002 2048C7.88052 2081.13 8.22564 2114.27 7.19027 2147.05C9.26101 2148.78 9.26101 2150.5 7.19027 2152.23C8.22564 2154.3 8.57076 2156.72 7.53539 2159.13C11.3318 2174.66 9.95126 2189.85 8.91589 2205.38C10.2964 2207.11 9.95126 2208.49 8.91589 2210.21C9.60614 2213.32 10.6415 2216.77 8.91589 2219.87C10.2964 2232.64 11.6769 2245.41 9.95126 2258.53C12.3671 2260.25 12.3671 2261.98 9.95126 2263.71C9.95126 2275.78 9.95126 2287.52 10.2964 2299.6C13.7476 2306.85 12.022 2314.44 11.3318 2321.69C11.3318 2323.41 11.3318 2324.79 11.3318 2326.52C12.3671 2328.24 12.3671 2329.62 11.3318 2331.35C12.3671 2332.73 13.0574 2334.46 12.3671 2336.18C12.3671 2339.29 12.022 2342.74 12.022 2345.85C14.4379 2351.37 11.6769 2356.89 12.7123 2362.41C14.783 2364.48 16.1635 2366.21 12.3671 2367.59C13.0574 2378.63 13.4025 2390.02 14.0927 2401.06C14.783 2403.14 14.4379 2405.21 12.7123 2406.59C12.7123 2408.66 12.7123 2411.07 13.0574 2413.14C15.8184 2415.91 15.4732 2418.32 13.0574 2421.08C13.0574 2422.46 13.0574 2423.84 13.0574 2425.22C17.1989 2432.47 13.7476 2440.06 14.783 2447.31C16.5086 2448.69 16.8537 2450.42 15.1281 2452.14C14.783 2464.91 14.783 2478.03 14.4379 2490.8C16.8537 2505.29 15.4732 2519.79 15.1281 2534.28C17.1989 2536.01 17.1989 2537.73 15.4732 2539.8C15.4732 2545.33 15.4732 2550.85 15.8184 2556.03C18.5794 2559.48 17.1989 2562.93 15.8184 2566.38C15.8184 2567.76 15.8184 2569.14 15.8184 2570.52C17.544 2572.25 17.8891 2574.32 15.8184 2576.04C15.8184 2578.11 15.8184 2580.53 15.8184 2582.6C18.9245 2607.45 18.2342 2632.64 18.5794 2657.49C18.5794 2672.68 18.5794 2687.86 18.9245 2703.05C18.9245 2707.54 19.6147 2712.37 13.0574 2712.71C15.4732 2744.81 13.4025 2776.91 12.022 2809C10.6415 2840.75 16.5086 2872.5 12.7123 2904.6C11.6769 2913.92 15.8184 2919.79 25.827 2921.51C38.2514 2923.58 50.6759 2925.31 62.7553 2928.07C100.719 2936.35 138.683 2941.53 177.336 2943.6C183.549 2943.95 184.239 2946.71 184.929 2951.54C187.345 2967.76 189.416 2983.63 200.115 2997.78C213.229 3015.39 228.76 3029.54 246.706 3042.31C274.661 3061.98 304.342 3072.33 338.509 3068.54C344.722 3067.84 348.518 3068.88 348.863 3076.13C349.553 3092 353.35 3107.19 358.182 3122.03C373.367 3168.62 396.49 3209 438.941 3236.96C459.303 3250.42 483.462 3255.25 503.824 3268.02C523.496 3280.44 548 3281.48 567.672 3292.87C600.114 3311.5 636.352 3321.86 670.174 3337.39C702.961 3352.57 733.331 3368.79 755.765 3398.13C775.091 3423.32 793.728 3448.86 800.631 3480.96C802.011 3487.86 807.188 3487.17 812.02 3487.17C817.197 3487.17 822.028 3486.14 822.719 3479.92C823.064 3476.47 822.719 3473.02 824.099 3469.22C837.214 3440.23 852.744 3412.62 875.177 3389.5C876.558 3385.7 878.974 3382.94 882.77 3381.91C883.115 3378.8 884.841 3377.08 887.947 3376.73C894.159 3368.79 902.097 3363.62 910.38 3358.44C910.38 3357.06 910.725 3356.02 912.451 3356.71C936.61 3344.98 960.768 3332.9 985.962 3323.93C986.998 3320.82 989.068 3319.44 992.52 3320.13C994.245 3318.75 995.626 3318.06 997.697 3318.75C1000.11 3315.99 1003.56 3315.3 1007.01 3315.99C1010.47 3314.61 1013.92 3313.23 1017.37 3311.85C1018.75 3309.09 1020.82 3307.36 1023.93 3308.74C1027.38 3307.36 1030.83 3305.98 1034.62 3304.95C1037.73 3299.77 1041.87 3296.32 1048.43 3296.32C1081.22 3282.86 1114.35 3271.47 1146.44 3256.28C1154.73 3249.38 1164.74 3245.93 1174.75 3242.48V3242.13C1174.75 3240.75 1175.09 3239.72 1176.82 3240.41C1177.85 3240.06 1178.54 3239.72 1179.58 3239.72C1179.58 3238.34 1179.92 3237.3 1181.65 3237.99C1184.75 3236.27 1187.86 3234.19 1191.31 3232.47C1191.66 3229.36 1193.04 3227.64 1196.49 3228.33C1216.85 3212.11 1232.73 3192.09 1245.15 3169.31C1244.46 3165.51 1246.53 3163.1 1249.29 3161.03V3159.99L1249.98 3159.3C1249.64 3155.85 1251.71 3153.44 1254.12 3151.36C1257.23 3141.7 1259.65 3131.69 1264.82 3123.06C1263.79 3120.3 1263.79 3117.54 1266.55 3115.82C1266.2 3113.06 1267.24 3110.3 1269.31 3108.57C1268.96 3105.81 1268.62 3103.39 1270.69 3100.98C1271.03 3098.56 1271.38 3096.14 1271.73 3093.73C1271.38 3089.59 1271.38 3085.45 1273.8 3081.65C1272.76 3079.23 1273.11 3076.82 1274.49 3074.4C1274.83 3061.29 1283.46 3069.92 1288.29 3069.23C1293.12 3069.23 1297.95 3069.23 1302.79 3069.23C1304.17 3067.84 1305.89 3068.19 1307.62 3068.54C1315.9 3066.81 1324.18 3066.12 1332.47 3063.7C1358.35 3055.77 1380.09 3039.89 1400.11 3022.98C1413.57 3011.59 1425.31 2997.09 1431.52 2979.84C1431.17 2977.77 1431.86 2976.04 1433.59 2975.01C1433.93 2973.28 1434.28 2971.9 1434.62 2970.17C1433.93 2968.45 1434.28 2966.72 1435.66 2965.34C1436 2962.93 1436.35 2960.51 1436.69 2958.1C1437.38 2953.26 1433.93 2947.05 1440.49 2943.6C1455.68 2944.64 1470.17 2939.46 1484.67 2938.77C1522.63 2937.39 1559.21 2925.65 1596.49 2920.48C1603.04 2919.44 1607.53 2915.99 1608.91 2909.43C1608.91 2904.6 1608.57 2899.77 1608.57 2894.94C1606.5 2889.42 1607.88 2883.55 1607.88 2878.03C1606.5 2876.3 1606.5 2874.92 1607.88 2873.54C1607.88 2870.43 1608.22 2866.98 1608.22 2863.88C1608.22 2848.35 1607.53 2833.16 1609.95 2817.97C1607.53 2782.43 1605.81 2746.88 1607.19 2711.33C1605.11 2714.09 1602.7 2717.2 1602.35 2710.64C1602.01 2702.01 1602.01 2693.04 1602.35 2684.41C1603.39 2657.15 1600.28 2629.54 1605.12 2602.27C1603.04 2595.71 1603.73 2589.5 1605.46 2582.95C1605.46 2580.53 1605.46 2578.11 1605.46 2575.7C1604.08 2572.59 1604.77 2569.14 1605.46 2566.03C1604.77 2539.46 1603.73 2512.54 1607.19 2485.97C1605.11 2475.61 1606.5 2465.26 1607.19 2454.9C1603.39 2451.45 1603.39 2448.35 1607.19 2444.9C1606.15 2442.48 1606.5 2440.06 1607.53 2437.65C1605.11 2426.26 1607.19 2414.87 1607.53 2403.83C1606.5 2402.45 1605.46 2400.72 1607.19 2398.99C1608.57 2381.05 1605.11 2363.1 1608.91 2345.5C1608.91 2344.12 1609.26 2342.39 1609.26 2341.01C1606.84 2338.6 1605.81 2336.18 1608.91 2333.42C1607.88 2322.03 1607.88 2310.99 1609.95 2299.6C1609.26 2271.3 1608.22 2243 1611.33 2214.7C1611.33 2213.32 1611.33 2211.59 1611.33 2210.21C1609.26 2208.49 1609.26 2206.76 1611.67 2205.03C1610.64 2197.1 1609.95 2189.16 1611.67 2181.22C1609.6 2179.5 1608.91 2177.77 1611.67 2176.04C1610.98 2171.21 1610.98 2166.38 1612.71 2161.89C1612.02 2136.7 1611.33 2111.51 1614.09 2086.66C1614.09 2085.28 1614.09 2083.9 1614.09 2082.17C1612.02 2079.75 1612.36 2076.99 1614.09 2074.58C1614.09 2073.2 1614.09 2071.47 1614.09 2070.09C1611.33 2066.64 1612.02 2063.53 1614.09 2060.08C1614.09 2058.7 1614.09 2056.98 1613.74 2055.6C1610.64 2052.14 1611.67 2048.69 1614.09 2045.59C1613.4 2040.76 1612.36 2035.92 1614.78 2031.09C1612.71 2024.53 1614.09 2018.32 1614.43 2011.76C1612.71 2007.62 1613.05 2003.48 1614.78 1999.69C1614.78 1982.77 1611.67 1965.52 1616.16 1948.61C1615.12 1936.53 1615.12 1924.45 1616.16 1912.71C1613.4 1907.54 1616.85 1903.05 1616.85 1897.87C1615.47 1893.73 1615.47 1889.94 1616.85 1885.79C1616.16 1856.46 1615.81 1827.47 1618.23 1798.48C1618.23 1796.06 1618.23 1793.99 1618.23 1791.58C1620.99 1761.55 1618.92 1731.52 1619.61 1701.5ZM1595.8 1862.33C1595.45 1917.55 1594.07 1972.42 1593.38 2027.64C1592.69 2078.03 1593.04 2128.76 1592.69 2179.15C1592 2230.57 1590.96 2282 1590.27 2333.42C1589.58 2383.12 1589.93 2432.82 1589.24 2482.51C1588.55 2538.08 1587.86 2593.3 1587.17 2648.86C1586.13 2729.62 1585.1 2810.38 1584.06 2891.14C1584.06 2895.63 1583.72 2900.8 1585.79 2904.26C1591.66 2913.57 1584.06 2913.57 1579.23 2913.92C1558.18 2915.3 1538.16 2921.51 1517.45 2924.62C1490.53 2928.41 1463.27 2932.56 1436 2931.52C1429.1 2931.18 1424.27 2933.25 1422.54 2940.49C1421.85 2943.95 1420.82 2947.4 1420.47 2951.19C1417.37 2985.02 1400.11 3009.52 1371.81 3027.47C1361.8 3033.68 1353.17 3041.27 1342.82 3046.79C1323.84 3056.46 1304.17 3060.6 1283.11 3057.49C1277.59 3056.8 1271.73 3056.8 1266.2 3058.18C1261.37 3059.56 1258.61 3061.98 1258.27 3067.5C1257.58 3095.45 1250.33 3121.68 1239.63 3146.88C1221.34 3189.33 1193.73 3222.81 1150.59 3242.13C1132.29 3250.42 1114 3259.73 1095.71 3268.02C1076.38 3276.64 1054.99 3280.44 1036.35 3290.79C1007.01 3306.67 974.918 3315.99 944.893 3330.83C922.459 3341.87 898.646 3349.81 880.009 3368.45C854.125 3393.99 832.037 3421.6 817.542 3455.07C815.816 3459.22 814.781 3465.43 808.914 3465.43C802.356 3465.43 801.321 3458.87 799.595 3454.04C786.826 3415.04 759.561 3386.39 730.225 3359.82C715.04 3346.01 695.368 3338.77 676.731 3330.83C648.776 3318.75 620.476 3307.02 592.521 3294.59C570.433 3284.58 548.345 3275.61 525.222 3268.36C510.726 3263.88 497.267 3256.63 483.116 3250.42C465.515 3242.82 448.949 3233.85 434.109 3222.12C419.268 3210.73 406.844 3196.23 396.835 3180.36C375.783 3146.19 362.668 3108.91 360.942 3068.54C360.252 3056.8 352.314 3057.49 345.067 3056.8C335.403 3055.77 326.085 3058.53 316.076 3057.84C296.749 3056.46 279.493 3049.9 264.308 3038.85C245.671 3025.39 225.309 3015.04 212.194 2993.64C203.911 2980.18 201.84 2966.03 198.734 2951.54C194.593 2931.52 195.283 2932.56 174.575 2931.52C151.452 2930.49 127.984 2928.07 104.86 2924.62C83.8078 2921.51 63.4455 2914.61 41.7027 2914.95C35.4904 2914.95 26.1721 2915.64 33.0746 2902.53C37.2161 2894.25 34.8002 2882.86 34.8002 2872.85C34.1099 2802.44 33.7648 2732.04 32.7295 2661.63C32.0392 2619.87 30.6587 2578.11 29.9685 2536.01C29.6233 2496.32 30.3136 2456.28 29.6233 2416.6C28.9331 2362.76 27.5526 2308.92 27.2075 2255.08C26.5172 2194.34 27.5526 2133.59 25.827 2073.2C24.1013 2012.8 25.4818 1952.75 23.4111 1892.35C22.0306 1847.49 22.0306 1802.27 22.3757 1757.41C22.7209 1707.71 23.4111 1658.01 24.1013 1608.66C24.7916 1551.37 25.1367 1493.73 25.827 1436.44C26.5172 1372.59 27.5526 1308.75 28.2428 1244.9C28.588 1193.13 27.2075 1141.36 28.9331 1089.59C30.3136 1049.21 29.6233 1009.18 30.6587 968.8C32.0392 904.261 31.6941 839.378 32.3843 774.495C33.0746 716.169 33.7648 657.843 34.4551 599.517C34.4551 593.995 35.8356 587.092 33.4197 582.951C27.8977 573.978 32.0392 572.252 39.2868 572.252C53.0918 572.597 66.5516 568.11 79.6663 565.695C114.524 558.792 149.381 553.96 184.929 554.651C190.106 554.651 193.902 552.925 195.973 547.058C197.699 542.226 198.044 537.74 198.734 532.908C202.531 499.086 220.477 475.272 249.122 457.671C261.202 450.078 272.246 441.45 285.015 435.583C300.201 428.68 316.076 427.645 332.297 428.335C336.094 428.335 339.545 429.025 342.996 429.025C357.146 429.025 358.872 426.955 360.252 412.805C366.81 358.275 385.101 308.922 426.516 270.613C444.463 254.047 467.241 245.074 488.638 234.375C528.673 214.013 571.813 201.244 612.538 181.917C644.98 166.731 678.802 153.616 711.243 138.431C733.331 128.077 749.207 109.095 764.047 90.1135C775.437 75.9634 787.516 62.1585 794.418 44.9023C798.215 35.2388 803.737 26.2656 808.914 15.9118C821.683 37.9998 829.966 60.778 845.152 80.1049C859.647 98.3965 875.178 114.962 892.434 130.148C903.823 140.157 918.318 146.024 932.123 151.546C964.91 165.351 998.387 177.775 1030.48 193.651C1040.49 198.483 1050.5 204.35 1061.2 207.111C1090.53 214.013 1115.73 229.544 1142.99 240.933C1219.27 273.374 1248.26 337.913 1257.57 414.53C1258.96 425.574 1263.1 428.68 1272.07 428.68C1279.66 428.68 1287.26 427.99 1294.85 427.645C1321.08 427.3 1343.17 437.308 1363.53 453.184C1374.57 461.812 1386.65 468.715 1396.31 479.414C1410.47 495.289 1417.02 513.581 1419.44 533.943C1421.85 553.96 1422.54 552.925 1442.91 553.615C1478.8 554.996 1514.35 559.137 1549.2 567.42C1558.52 569.836 1568.19 571.217 1577.85 571.562C1583.37 571.907 1590.27 570.871 1584.75 581.57C1579.92 591.234 1583.37 602.968 1583.37 613.667C1583.37 659.223 1584.06 704.435 1584.75 749.991C1585.79 815.91 1586.48 881.828 1587.51 947.747C1588.2 984.33 1587.86 1020.91 1587.86 1057.5C1587.86 1114.1 1589.58 1170.7 1590.27 1227.3C1590.96 1288.38 1589.93 1349.47 1591.66 1410.56C1593.38 1470.96 1591.66 1531.7 1594.42 1592.09C1595.8 1625.57 1595.11 1659.05 1594.76 1692.53C1595.8 1750.16 1596.14 1806.42 1595.8 1862.33Z" fill="#253166"/>
<path d="M1549.2 1527.21C1546.1 1479.24 1548.51 1430.92 1548.17 1382.95C1548.17 1361.55 1551.28 1340.5 1552.31 1319.1C1553.69 1292.53 1554.38 1266.3 1555.42 1239.72C1557.49 1194.51 1562.32 1148.95 1561.63 1103.74C1560.94 1065.43 1559.56 1027.47 1558.87 989.161C1558.18 951.888 1547.82 915.65 1549.89 878.031C1551.62 852.147 1548.51 825.918 1548.86 799.688C1549.55 738.601 1549.89 677.514 1547.13 616.427C1546.79 607.799 1548.17 597.445 1534.02 595.03C1491.91 588.127 1450.15 580.189 1408.39 573.287C1402.53 572.251 1402.87 570.181 1403.22 565.349C1403.91 557.066 1404.94 548.783 1403.22 540.155C1394.59 503.917 1370.09 482.519 1337.99 467.334C1309 453.529 1278.28 452.148 1247.57 452.148C1236.18 452.148 1232.04 449.732 1235.83 438.343C1236.87 435.582 1235.83 431.786 1235.14 428.68C1226.86 384.159 1207.19 344.469 1181.3 307.541C1173.36 295.807 1163.01 284.418 1151.28 277.17C1125.05 261.294 1097.78 246.799 1068.45 237.481C1052.57 232.304 1038.08 222.641 1020.82 220.915C994.245 218.499 970.087 206.42 945.928 196.411C919.698 185.712 897.956 167.421 875.522 150.51C845.497 128.422 830.311 97.3605 819.612 63.5384C817.887 57.6713 817.196 51.8041 810.294 51.8041C803.391 51.8041 802.701 57.6713 800.631 63.5384C792.348 86.3166 785.79 109.44 767.844 128.077C755.074 141.191 741.269 152.58 727.119 163.969C690.191 194.34 646.36 209.871 600.804 220.57C591.14 222.986 581.132 224.711 571.813 228.853C556.283 235.41 540.407 241.622 524.876 247.835C502.098 256.808 479.665 267.852 461.028 283.728C428.932 310.992 410.985 348.266 396.835 387.265C389.933 406.247 381.995 425.574 385.791 446.971C386.482 450.423 384.756 452.148 381.305 452.493C371.641 452.838 361.978 453.874 352.659 453.874C310.899 453.874 274.316 464.918 243.255 494.944C221.857 515.651 213.229 538.774 216.681 567.42C217.026 570.181 218.061 573.632 213.92 573.632C204.946 573.632 197.008 579.844 188.726 579.844C153.178 580.534 119.356 592.269 84.1529 596.41C78.6309 597.1 74.4894 598.826 73.7992 606.764C72.7638 617.463 72.4187 628.507 72.0736 639.205C71.0382 671.647 71.3833 704.434 71.0382 736.876C70.6931 773.804 70.6931 811.077 70.0028 848.006C69.6577 882.863 72.7638 917.721 64.826 952.233C62.4101 962.242 61.3747 972.941 61.0296 983.294C60.3393 1020.57 62.7552 1058.19 58.2686 1095.46C55.1625 1124.11 61.7198 1152.41 62.4101 1180.71C62.7552 1215.56 63.7906 1250.42 65.5162 1285.62C67.2418 1325.66 72.0736 1365.35 72.0736 1405.38C72.0736 1455.77 74.4894 1506.16 68.6223 1556.55C64.1357 1595.54 64.4808 1635.23 58.2686 1674.23C46.8795 1744.98 59.9942 1815.73 65.1711 1886.14C67.5869 1917.55 72.0736 1949.3 72.0736 1980.7C71.7284 2033.85 73.4541 2087 69.3126 2140.15C65.1711 2191.57 63.7906 2243.69 62.7552 2295.46C62.065 2328.93 55.1625 2361.72 58.2686 2395.2C59.304 2407.97 60.6845 2420.74 61.0296 2433.51C62.065 2467.67 57.5783 2502.19 64.826 2535.66C68.9674 2553.95 71.0382 2572.59 70.6931 2590.54C70.0028 2611.25 70.6931 2632.3 70.3479 2653.01C70.0028 2687.86 71.3833 2723.07 71.0382 2757.92C71.0382 2798.99 70.0028 2839.72 73.7992 2880.79C74.4894 2889.07 78.2858 2891.14 84.498 2892.18C126.948 2899.77 169.053 2907.02 211.504 2914.26C215.99 2914.95 217.716 2915.64 217.026 2920.82C210.813 2955.68 227.379 2981.91 252.228 3002.62C276.387 3022.98 306.413 3030.92 336.784 3034.71C348.518 3036.09 360.942 3035.06 373.022 3035.06C384.066 3035.4 389.243 3036.78 384.756 3049.21C383.721 3051.97 384.756 3055.76 385.446 3058.87C390.968 3084.41 397.526 3109.95 410.64 3132.73C429.277 3165.51 445.843 3198.99 482.081 3217.97C521.08 3238.34 560.424 3256.63 603.22 3266.98C665.687 3282.51 721.252 3309.78 766.118 3358.09C784.41 3377.77 792.348 3400.54 800.976 3424.01C803.046 3429.53 803.391 3435.4 810.294 3435.75C817.542 3436.09 818.922 3430.22 820.303 3424.36C825.134 3405.03 832.727 3386.39 844.116 3370.17C858.266 3349.81 878.629 3334.63 898.301 3319.79C935.229 3292.18 977.679 3276.3 1022.55 3266.64C1032.9 3264.57 1042.91 3261.46 1052.57 3257.32C1070.86 3249.38 1089.84 3242.48 1107.79 3233.85C1126.08 3225.22 1145.75 3218.32 1160.25 3204.17C1202.35 3163.79 1224.44 3112.71 1236.87 3056.46C1238.59 3049.21 1228.93 3039.54 1240.32 3035.75C1247.91 3033.33 1256.88 3034.37 1265.51 3034.02C1268.62 3034.02 1272.07 3034.37 1278.28 3034.71C1292.78 3037.82 1308.31 3029.88 1324.53 3025.74C1352.14 3018.84 1373.54 3002.27 1390.45 2980.18C1403.22 2963.27 1408.39 2943.25 1404.94 2922.2C1404.25 2917.37 1403.91 2915.3 1409.77 2914.26C1452.22 2907.36 1494.68 2899.77 1536.78 2892.18C1541.96 2891.14 1547.13 2890.45 1547.48 2881.82C1547.82 2874.57 1547.82 2867.33 1548.51 2860.42C1552.66 2821.08 1549.89 2781.74 1550.93 2742.39C1551.97 2686.83 1551.28 2631.26 1552.66 2575.35C1553.35 2537.39 1563.7 2499.77 1560.59 2461.46C1558.52 2431.78 1565.43 2401.75 1563.35 2372.42C1560.25 2323.07 1558.18 2273.71 1556.45 2224.36C1554.73 2182.26 1550.59 2140.5 1549.55 2098.39C1548.51 2054.21 1550.24 2010.04 1548.17 1965.86C1547.82 1960.34 1547.13 1953.09 1548.51 1949.3C1555.76 1930.66 1553 1911.33 1555.07 1892.7C1557.49 1870.61 1556.45 1848.18 1561.28 1826.43C1564.39 1812.97 1565.43 1799.17 1566.46 1785.71C1571.64 1724.97 1559.9 1664.91 1556.8 1604.52C1554.04 1578.29 1550.93 1552.75 1549.2 1527.21ZM1546.79 1825.74C1540.92 1878.89 1537.13 1932.39 1535.05 1985.53C1534.02 2014.53 1534.71 2043.52 1534.71 2072.51C1534.36 2115.3 1539.89 2157.75 1541.27 2200.55C1543.34 2258.87 1545.06 2317.2 1549.2 2375.53C1550.59 2392.09 1547.13 2409.35 1546.44 2426.26C1545.41 2460.77 1549.2 2495.63 1543.68 2529.8C1534.71 2586.4 1538.16 2643.34 1537.82 2699.94C1537.47 2757.23 1536.44 2814.52 1536.09 2871.81C1536.09 2879.75 1533.67 2882.51 1525.74 2882.17C1512.62 2881.48 1500.2 2884.24 1488.81 2891.14C1484.32 2893.9 1481.22 2890.8 1477.42 2891.14C1448.77 2893.9 1421.16 2902.18 1392.52 2903.57C1386.65 2903.91 1385.27 2907.71 1386.31 2912.88C1394.59 2959.82 1378.71 2987.78 1335.92 3008.83C1303.48 3024.7 1269.65 3024.01 1235.49 3022.98C1220.3 3022.63 1217.89 3024.36 1220.99 3039.2C1224.1 3054.38 1219.27 3068.19 1215.47 3082.68C1205.81 3117.2 1189.24 3147.57 1168.53 3176.21C1159.56 3188.98 1148.86 3200.37 1133.68 3206.93C1125.74 3210.38 1119.18 3216.94 1110.9 3220.39C1092.61 3228.33 1073.28 3234.88 1054.99 3243.17C1026.69 3256.28 995.626 3259.73 966.635 3271.12C930.052 3285.27 897.61 3304.94 867.93 3330.14C846.187 3348.43 828.24 3368.45 818.232 3395.37C816.851 3398.82 815.471 3403.65 810.639 3403.65C805.462 3403.65 804.772 3398.47 803.391 3395.02C779.578 3341.18 734.712 3309.78 684.669 3284.58C656.024 3270.09 625.998 3259.04 593.556 3253.87C584.238 3252.49 575.61 3246.62 566.636 3243.17C535.575 3231.78 505.204 3218.66 477.249 3201.06C463.444 3192.43 453.781 3178.97 445.153 3165.51C425.481 3136.18 412.021 3104.08 402.012 3070.26C399.251 3060.6 398.216 3050.59 400.287 3040.58C403.393 3024.01 401.667 3023.32 385.101 3022.98C362.323 3022.29 339.545 3026.43 316.767 3019.87C287.776 3011.59 261.202 2999.51 243.6 2973.97C231.521 2956.37 225.999 2936.7 234.282 2915.64C237.043 2908.05 235.317 2903.57 227.034 2903.22C196.318 2902.87 166.983 2893.21 136.612 2891.14C121.081 2890.11 104.86 2882.51 88.2944 2879.75C84.498 2879.06 85.8785 2874.92 85.8785 2872.5C84.498 2825.57 83.8078 2778.63 83.8078 2731.35C83.8078 2683.03 83.4627 2635.06 83.1175 2586.74C82.7724 2546.02 70.0028 2506.67 74.1443 2465.6C77.2504 2435.23 70.6931 2405.21 72.0736 2375.53C73.7992 2337.22 76.2151 2299.25 77.9407 2260.94C80.0114 2219.18 80.7017 2177.08 83.8078 2135.32C87.9493 2079.41 87.259 2023.5 85.5334 1967.59C84.8432 1937.91 80.3565 1908.23 78.976 1878.2C77.9407 1854.04 74.4894 1830.23 72.4187 1806.07C70.6931 1803.65 70.6931 1801.24 71.7284 1798.48C70.0028 1794.68 69.6577 1790.88 70.3479 1786.74C68.6223 1785.02 68.6223 1783.29 70.3479 1781.57C69.3126 1773.97 68.2772 1766.38 70.6931 1758.79C69.3126 1758.79 67.2418 1758.44 67.587 1756.72C67.587 1755.68 69.6577 1754.99 70.6931 1753.96C71.0382 1732.56 66.8967 1711.16 71.7284 1689.76C71.0382 1686.31 70.6931 1682.86 72.7638 1679.75C72.7638 1670.09 74.1443 1660.43 76.9053 1651.11C76.2151 1647.66 75.1797 1644.21 77.2504 1641.1C76.2151 1634.54 77.9407 1628.33 78.976 1622.12C78.976 1618.67 78.6309 1615.56 78.6309 1612.11C79.3212 1602.45 80.3565 1593.13 81.0468 1583.47C80.7017 1579.32 80.7017 1575.18 82.4273 1571.04C81.737 1565.52 82.0822 1559.65 83.1175 1554.13C82.7724 1549.3 82.4273 1544.12 84.498 1539.29C83.4627 1535.15 83.4627 1531.01 85.5334 1527.21C83.8078 1518.93 84.8432 1510.99 85.8785 1503.05C84.8432 1501.67 84.498 1499.95 85.5334 1498.22C84.8432 1496.49 85.1883 1494.42 86.5688 1493.04C86.5688 1490.63 86.5688 1488.56 86.5688 1486.14C84.1529 1483.72 84.498 1480.96 86.5688 1478.55C85.5334 1476.13 85.5334 1474.06 86.5688 1471.99C83.8078 1472.34 83.1175 1470.95 83.1175 1468.54C83.1175 1466.12 82.7724 1463.71 86.5688 1464.05C85.5334 1459.22 85.5334 1454.73 86.5688 1449.9C82.7724 1436.44 85.8785 1422.98 85.1883 1409.52C84.498 1396.41 85.1883 1382.95 85.1883 1369.83C84.8432 1368.45 84.498 1366.73 84.1529 1365.35C81.3919 1360.52 82.0822 1355.68 83.1175 1350.51C80.7017 1340.84 81.3919 1331.18 82.0822 1321.52C80.0114 1314.96 80.0114 1308.4 81.0468 1301.84C78.6309 1295.98 79.3212 1289.76 79.6663 1283.55C77.9407 1283.55 76.2151 1283.21 76.2151 1281.48C76.2151 1279.76 77.9407 1279.41 79.6663 1279.07L79.3212 1278.38L79.6663 1277.69C77.9407 1277.69 75.8699 1277.34 76.2151 1275.61C80.7017 1261.81 75.5248 1247.66 78.6309 1233.85C76.9053 1226.95 75.5248 1219.7 76.9053 1212.46C73.4541 1200.38 76.5602 1187.95 75.8699 1175.87C74.8346 1174.15 74.8346 1172.77 75.8699 1171.04C75.8699 1169.32 75.8699 1167.94 75.8699 1166.21C73.1089 1161.38 74.8346 1156.55 75.1797 1151.71C71.7284 1146.19 73.1089 1140.33 73.7992 1134.8C72.4187 1131.7 71.3833 1128.59 72.4187 1125.49C70.0028 1115.48 69.6577 1105.81 72.4187 1095.8C71.7284 1090.28 72.0736 1084.42 73.7992 1079.24C73.1089 1075.79 72.4187 1072.34 74.8346 1069.23C74.8346 1066.81 74.8346 1064.74 75.1797 1062.33C72.7638 1059.91 72.7638 1057.5 74.8346 1054.74C73.1089 1047.49 74.8346 1040.58 74.8346 1033.34C71.0382 1022.64 72.7638 1011.94 74.8346 1001.59C73.1089 995.374 73.7992 988.816 74.4894 982.604C72.7638 980.878 72.4187 979.153 74.4894 977.082C74.8346 968.109 75.5248 959.136 78.2858 950.853C77.5955 948.782 77.5956 947.056 79.6663 945.676C79.6663 942.57 78.2858 939.118 80.7017 936.012C80.3565 933.251 79.6663 930.835 82.0822 928.419C81.0468 925.658 81.3919 923.588 83.1175 921.172C81.737 915.305 84.1529 908.057 76.9053 903.916C75.8699 903.226 75.8699 900.464 75.5248 898.394C86.2237 896.668 80.0114 887.35 83.1175 882.173C81.3919 879.757 81.3919 877.341 83.1175 874.925C80.0114 853.528 83.1175 832.475 82.0822 811.077C80.7017 778.291 82.4273 745.504 82.7724 712.717C81.3919 710.991 81.737 709.266 83.1175 707.885C82.0822 691.664 80.7017 675.444 84.1529 659.223C83.1175 653.701 82.7724 648.179 84.1529 642.657C82.0822 640.931 82.0822 639.205 83.8078 637.48C83.1175 635.754 83.4627 634.029 84.498 632.993C84.498 629.887 84.498 626.436 84.8432 623.33C83.1175 620.224 83.4627 616.772 84.8432 613.666C82.7724 609.18 83.1175 606.074 89.3298 607.109C126.603 597.1 164.912 593.994 202.53 585.366C209.778 583.64 217.716 584.331 225.309 583.986C232.901 583.64 236.353 580.534 233.592 572.251C224.273 546.712 231.521 524.624 249.122 505.642C276.042 476.652 310.209 463.882 349.553 464.228C363.358 464.228 376.818 462.847 390.623 464.573C397.526 465.263 402.012 461.812 400.632 454.564C393.384 415.565 411.676 383.123 427.551 350.337C436.18 332.735 446.188 315.824 459.993 300.984C477.939 282.002 501.408 271.648 523.841 260.604C544.548 250.596 565.946 242.313 587.689 235.065C602.874 229.888 619.095 227.817 634.281 222.986C688.465 206.075 734.712 176.739 774.746 136.705C788.206 123.245 795.454 105.989 803.737 89.4227C805.117 86.6617 805.462 82.5202 809.604 82.5202C813.745 82.5202 814.435 86.3166 815.816 89.0775C836.869 140.501 878.629 170.527 924.875 196.411C956.627 214.358 990.449 226.437 1026.69 232.649C1034.97 234.03 1042.22 239.207 1050.16 242.313C1081.91 254.047 1112.97 266.816 1141.96 284.763C1156.45 293.736 1166.81 307.196 1176.13 321.346C1195.8 351.027 1209.26 383.814 1219.27 417.981C1222.37 428.335 1221.68 439.379 1219.96 450.423C1217.89 462.157 1220.65 464.918 1232.38 464.228C1268.27 462.157 1304.17 462.157 1337.3 479.758C1362.49 492.873 1381.82 511.164 1389.07 539.81C1391.83 550.854 1390.45 561.553 1386.65 571.906C1383.89 579.844 1386.31 583.986 1394.24 583.986C1421.16 584.331 1446.7 593.994 1473.28 595.03C1493.29 595.72 1510.9 606.764 1530.91 606.764C1535.74 606.764 1535.4 610.215 1535.4 613.666C1535.74 639.896 1536.44 665.78 1536.78 692.009C1537.13 726.177 1537.47 759.999 1537.13 794.166C1536.78 822.121 1537.13 850.421 1537.82 878.377C1538.51 904.261 1537.82 930.145 1542.99 956.029C1549.89 990.542 1545.06 1025.74 1546.1 1060.6C1546.79 1077.86 1548.86 1095.11 1548.86 1112.37C1548.51 1132.39 1546.1 1152.41 1545.06 1172.42C1543.34 1212.46 1542.65 1252.84 1540.23 1292.87C1536.09 1357.75 1532.64 1422.29 1533.67 1487.18C1534.36 1518.58 1536.78 1549.99 1539.54 1581.05C1542.3 1613.15 1544.37 1644.9 1547.82 1676.99C1553 1726.69 1552.31 1776.04 1546.79 1825.74Z" fill="#253166"/>
</g>
<defs>
<clipPath id="clip0_147_4555">
<rect width="1620" height="704" fill="white"/>
</clipPath>
</defs>
</svg>
