<svg id="eHWwLjxZABP1" xmlns="http://www.w3.org/2000/svg" xmlns:xlink="http://www.w3.org/1999/xlink" viewBox="0 0 480 235" shape-rendering="geometricPrecision" text-rendering="geometricPrecision" project-id="5726f3bc1cbc4e4d84053a8b029d4251" export-id="5fd5a950640f4a80a8298d4d592a83f3" cached="false"><g id="eHWwLjxZABP2" transform="matrix(0 0 0 0 229.967559 105.174)" clip-path="url(#eHWwLjxZABP82)"><g transform="translate(0.673932 0)"><path d="M263.059,29.7505c3.113,1.4631,14.801,8.0113,16.759,9.9603c6.141,6.111-15.311,24.798-19.006,28.0311c11.637,1.6268,17.449,8.7304,17.946,20.2246.176,4.0735,1.755,7.8786,6.412,8.3032c9.792.5779,4.453-17.0855,6.254-20.725.546-1.1018,11.209-1.7645,12.933-2.1146c3.28-.4503,6.52-1.9738,9.21-.1354c4.507,7.8534-11.25,33.5783,23.911,17.9973c4.291-2.0758,9.205-5.289,13.154-7.9102l-.05-.3997c-20.834-2.4652-23.523,21.0439-27.602-18.0582c15.613-6.0555,37.534.5842,52.357,6.5666.127,2.5369.018,4.943.059,7.6901.027,2.0063-1.638,14.2576-.839,15.3151c1.584,2.1019,7.337.9529,9.882.4471c5.469-9.3738.433-16.0726.194-25.9819c3.962-1.5416,18.131-5.0729,22.391-5.5831.92,3.9345,1.277,8.3798,1.232,12.4213.501,15.6725-2.775,27.1969-19.056,32.7209-.727.342-1.025.613-1.747.575-13.221.451-21.001,1.709-29.674-10.7455-14.272,7.2975-40.765,19.3625-53.373,3.4525-9.047,7.754-24.732,12.001-33.45,1.564-.307-.37-.605-.748-.894-1.134-12.978,7.501-26.213,5.803-39.989,8.719-2.032.43-3.888,14.433-4.502,16.43-.136,6.467-12.456,28.01-19.369,27.247-1.937-1.237-13.486-13.277-14.499-16.496-.09-.288-.213-1.197-.249-1.566l.023-1.289c1.03-1.291,6.732-5.366,8.524-6.786c8.232-7.694,8.955-14.091,13.686-23.506c5.711-11.4196,21.304-7.3145,31.489-10.6089c3.01-.7706,13.767-4.2481,11.786-8.7137-2.594-5.8457-11.276-.9068-14.263.5554-9.359-16.1638-4.991-11.603,3.767-25.0273c6.115-9.3782,11.922-21.2587,16.593-31.44Z" fill="#dc4649"/><path d="M405.896,66.5305l.74-.3266c.541,3.2501.302,7.6426,1.62,9.5953.501,15.6724-2.775,27.1968-19.056,32.7208-.727.342-1.025.613-1.747.575-13.221.451-21.001,1.709-29.674-10.7455-14.272,7.2975-40.765,19.3625-53.373,3.4525-9.047,7.754-24.732,12.001-33.45,1.564-.307-.37-.605-.748-.894-1.134-12.978,7.501-26.213,5.804-39.989,8.719-2.032.43-3.888,14.433-4.502,16.43-.136,6.467-12.456,28.01-19.369,27.247-1.937-1.237-13.486-13.277-14.499-16.496-.09-.288-.213-1.197-.249-1.566l2.026-.248c3.883,4.702,9.322,10.959,13.593,15.15c9.389-7.663,14.174-15.184,16.764-27.118.781-3.595,2.324-16.122,5.942-17.263c5.659-1.785,13.646-1.125,19.801-2.1c8.199-1.297,13.84-2.938,21.073-6.9361c9.63,12.5521,24.48,9.1561,34.128-1.4645c2.694,4.4926,5.207,7.0696,10.446,8.5826c12.608,3.636,32.711-5.077,43.428-11.1628c5.365,8.6828,11.782,12.5018,22.084,12.0628c25.712-1.094,26.014-20.2446,25.157-39.5385Z" fill="#1e3656"/><path d="M263.059,29.7505c3.113,1.4631,14.8,8.0113,16.759,9.9603c6.141,6.111-15.311,24.798-19.007,28.031l-.171,1.5047l1.151.6781c-3.872-.3131-6.516-.2319-10.406.4051c11.813-8.0117,20.798-15.8299,28.049-28.5066-4.941-3.5944-10.054-6.277-15.414-9.187-4.707,10.4791-8.948,18.9122-15.383,28.6478-2.766,4.1904-7.04,9.025-9.35,12.6375c1.345,2.7133,2.689,5.5123,4.142,8.1628c3.078-1.5127,8.01-4.1529,11.047-2.5355c9.783,5.2064,3.89,11.7997-2.987,14.7187-11.051,4.6903-20.388,2.3149-31.053,6.7316-5.304,2.39-8.316,13.903-11.405,19.252-2.438,4.302-5.679,8.098-9.548,11.179-.347-1.453-.084-1.373.518-2.939c8.232-7.694,8.955-14.091,13.686-23.506c5.711-11.4196,21.304-7.3145,31.489-10.6089c3.01-.7706,13.767-4.2481,11.786-8.7137-2.594-5.8457-11.276-.9068-14.264.5554-9.358-16.1638-4.99-11.603,3.768-25.0273c6.115-9.3782,11.922-21.2587,16.593-31.44Z" fill="#1e3656"/><path d="M322.979,64.9238c15.614-6.0554,37.535.5843,52.358,6.5667.127,2.5369.018,4.9429.059,7.69.027,2.0064-1.638,14.2576-.839,15.3151c1.584,2.102,7.337.9529,9.882.4472-2.685,3.2068-7.265,1.0543-10.929.7444.374.7778.325.8157.979,1.3543-3.863-1.3566-4.873-2.1727-7.775-5.0922c1.959-.1426,3.921-.3167,5.875-.5234-.013-5.5578.754-12.8197.984-18.6343-15.622-5.3679-31.158-10.7394-47.891-6.3898.515,6.5229,1.747,11.6959,3.191,18.0311c11.218-5.0647,18.099-5.122,29.976-5.0809-2.198,1.8443-4.504,3.681-6.733,5.4992l-1.484-1.4694-.05-.3998c-20.834-2.4651-23.523,21.044-27.603-18.0582Z" fill="#1e3656"/><path d="M260.811,67.7419c11.638,1.6269,17.45,8.7305,17.946,20.2247.176,4.0735,1.756,7.8786,6.413,8.3031c9.792.578,4.453-17.0854,6.254-20.7249.546-1.1018,11.209-1.7645,12.932-2.1146c3.281-.4503,6.521-1.9739,9.21-.1354c4.508,7.8534-11.249,33.5782,23.912,17.9973l1.836,1.3129c-5.767,2.6244-12.594,5.6205-19.024,5.5095-11.43-.1967-8.772-16.0428-8.362-23.5533-7.901.4449-11.159,1.1464-18.817,2.3546.682,6.3104,3.412,23.1662-10.671,21.049-7.053-1.0607-4.445-15.081-8.182-20.092-3.727-4.9921-6.019-6.3691-12.467-7.9481l-1.151-.6782.171-1.5046Z" fill="#292c47"/><path d="M384.633,68.9608c3.962-1.5416,18.131-5.0729,22.391-5.5831.92,3.9346,1.277,8.3799,1.231,12.4214-1.317-1.9527-1.078-6.3452-1.619-9.5953l-.741.3266c-.5-.4904-.586-.7954-1.033-.7349-5.492.7448-12.739,3.0038-18.122,4.5048c2.541,11.5177,7.188,31.2097-12.251,26.7412-.654-.5387-.605-.5766-.979-1.3544c3.664.31,8.244,2.4625,10.929-.7444c5.469-9.3737.433-16.0726.194-25.9819Z" fill="#292c47"/><path d="M337.478,91.2923c4.291-2.0758,9.205-5.289,13.154-7.9102l1.484,1.4694c-4.35,2.8689-8.09,5.4514-12.801,7.7537l-1.837-1.3129Z" fill="#292c47"/><path d="M191.454,136.567l.023-1.29c1.03-1.291,6.732-5.366,8.524-6.786-.602,1.566-.865,1.486-.518,2.939-.993.8-5.419,4.2-6.003,4.888l-2.026.249Z" fill="#292c47"/><path d="M147.308,62.8625c1.495.6231,1.791,1.0084,3.243-.1484l1.373.2923c4.476.1557,10.396,2.1923,13.753,5.1898c8.09,8.7525,8.741,21.5235-.702,29.6881-10.98,9.4927-28.743,11.9577-42.706,11.6257-6.527-.187-10.89-2.756-14.623-7.847-5.701,6.098-13.5488,8.414-21.613,8.684-14.7354.493-29.2966-3.674-40.0186-14.1148-2.5757-2.5085-6.3756-5.9562-6.4131-9.8931-.0126-1.3602.4738-2.6388,1.5527-3.4392c4.7155-3.4974,12.3506-8.3902,17.53-10.9122c3.4249,9.2592,7.5259,17.3038,16.9654,21.8172c5.0323,2.4061,14.7205,4.1359,18.09-2.0518c3.1461-5.778-5.6528-14.453,2.3397-16.5003c5.5269-1.5674,13.3589-4.1724,19.0089-5.2953.878,5.4987.695,10.5644.928,16.0812.12,2.8454.219,6.3185,2.66,8.0749c2.492,1.7942,8.043,3.043,10.563.9641-.355-1.2908-.584-1.5714-1.323-2.6993-6.299-8.5626-.65-21.8204,8.006-26.2616c4.166-2.1372,6.758-2.8166,11.386-3.2543Z" transform="translate(0 -1.364826)" fill="#dc4649"/><path d="M163.418,68.6522c.835-.5486,1.093-.374,2.259-.4562c8.09,8.7526,8.741,21.5236-.702,29.6882-10.98,9.4928-28.743,11.9578-42.706,11.6258-6.527-.187-10.89-2.756-14.623-7.847-5.701,6.098-13.5488,8.413-21.613,8.684-14.7354.493-29.2966-3.674-40.0186-14.1149-2.5757-2.5085-6.3756-5.9562-6.4131-9.8931-.0126-1.3602.4738-2.6388,1.5527-3.4392c4.7155-3.4974,12.3506-8.3902,17.53-10.9122c3.4249,9.2592,7.5259,17.3038,16.9654,21.8172c5.0323,2.4061,14.7205,4.1358,18.09-2.0518c3.1461-5.7781-5.6528-14.453,2.3397-16.5004c5.5269-1.5673,13.3589-4.1723,19.0089-5.2952.878,5.4987.695,10.5643.928,16.0811.12,2.8455.219,6.3186,2.66,8.0749c2.492,1.7943,8.043,3.0431,10.563.9641-.355-1.2907-.584-1.5713-1.323-2.6992c1.795.7435,1.963.7556,2.259,2.6907c2.17,1.644,2.743.6844,5.281,1.0395-24.993,7.7695-19.922-7.1347-22.419-23.5069-5.662,1.1884-12.783,3.5497-18.3622,5.3165c1.3975,4.5924,2.9656,9.7306.9346,14.3334-.9905,2.3014-2.888,4.0911-5.2431,4.9461-1.2991.4859-2.9236.7994-4.3071.8211-14.1248.2174-24.0581-10.7886-28.3449-23.0913-5.4948,3.2835-11.3696,6.9072-16.5824,10.5752c11.514,15.9964,27.4086,22.5594,47.1573,21.1784c8.3815-.586,14.1658-3.544,19.5028-9.9292c1.014,1.5583,2.877,4.3772,4.201,5.5572c5.965,5.318,20.279,3.717,27.429,2.455c12.241-2.361,30.663-8.0338,30.405-23.3877-.088-5.2015-2.737-9.354-6.409-12.7241Z" fill="#24314e"/><path d="M147.308,62.8625c1.495.6231,1.791,1.0084,3.243-.1484l1.373.2923c-1.543,1.0905-1.854,1.3878-3.733,1.7578-12.171,1.1712-24.47,9.1662-19.264,23.6119c1.277,3.5425,4.491,5.0327,7.506,7.0232l-.208.4612-.769.2481c-2.538-.3551-3.111.6045-5.281-1.0395-.296-1.935-.464-1.9472-2.259-2.6907-6.299-8.5626-.65-21.8204,8.006-26.2616c4.166-2.1372,6.758-2.8166,11.386-3.2543Z" fill="#292c47"/><path d="M151.924,63.0063c4.476.1557,10.397,2.1923,13.753,5.1898-1.166.0821-1.424-.0925-2.259.4561-6.147-3.0869-8.47-3.788-15.227-3.8881c1.879-.37,2.19-.6673,3.733-1.7578Z" fill="#292c47"/><path d="M143.73,77.5565c11.363-.6203,11.238,9.506,2.01,14.5586-9.233-2.3167-13.495-11.9648-2.01-14.5586Z" fill="#252f4f"/><path d="M142.495,81.1262c1.073-.0767,2.148-.0808,3.221-.0122c1.78.1231,2.712.5901,3.887,1.9129c1.371,3.1802-1.243,4.9055-3.483,6.6298-3.315.2797-6.904-2.0613-6.553-5.8019.681-1.4514,1.571-1.8389,2.928-2.7286Z" fill="#fef2e0"/><path d="M187.075,166.465c3.069-.546,13.854-3.01,16.139-1.615c1.29,2.499.819,9.916.694,12.968-.511,12.591-.446,25.939-4.107,38.088-2.038,6.761-6.48,12.917-12.777,16.129-8.402,4.354-18.971,2.843-27.792.524-1.383-.366-3.128-1.507-3.754-2.761-.514-1.029-.059-2.355-.238-3.799c1.788-3.732,6.194-14.141,9.162-15.939c15.732,13.008,21.393,8.305,21.539-10.603-2.978,4.608-6.686,9.029-12.023,10.531-20.601,5.787-21.868-23.794-21.181-37.04.13-2.5.221-6.466,3.159-6.923c1.473-.228,4.992.078,6.545.286c2.953.395,10.51-.061,12.876,1.512c1.213,5.512-7.633,21.904-2.963,27.162c7.759-.308,8.517-21.289,10.275-27.269c1.137-1.075,2.85-1.064,4.446-1.251Z" fill="#dc4649"/><path d="M185.941,199.457c-2.978,4.608-6.686,9.029-12.023,10.531-20.601,5.787-21.868-23.794-21.181-37.04.13-2.501.221-6.466,3.159-6.923c1.473-.229,4.992.078,6.545.286c2.953.395,10.51-.061,12.876,1.512c1.213,5.512-7.633,21.904-2.963,27.162c7.759-.308,8.517-21.289,10.275-27.269c1.137-1.075,2.85-1.064,4.446-1.251l-.134,1.742c-2.817.75-2.673,1.387-3.252,3.959-1.241,5.51-2.877,27.855-12.42,24.076-6.063-2.401,1.441-23.642,2.458-27.163-5.878-.839-12.437-.984-18.377-1.029-1.165,10.515-1.263,26.621,5.647,35.066c9.599,11.731,21.112-1.932,25.964-10.203c2.532,12.476,1.02,35.378-17.334,23.237-1.801-1.386-3.731-2.721-5.587-4.042l.362-2.048c15.732,13.008,21.393,8.305,21.539-10.603Z" fill="#292c47"/><path d="M187.075,166.465c3.069-.546,13.854-3.01,16.139-1.615c1.29,2.499.819,9.916.694,12.968-.511,12.591-.446,25.939-4.107,38.088-2.038,6.761-6.48,12.917-12.777,16.129-8.402,4.354-18.971,2.843-27.792.524-1.383-.366-3.128-1.507-3.754-2.761-.514-1.029-.058-2.355-.238-3.799.901.374,1.422.383,1.825,1.047c3.144,3.663,12.644,3.983,17.306,4.168c30.347,1.205,27.384-44.306,27.292-65.014-4.556.452-10.012,1.435-14.722,2.008l.134-1.743Z" fill="#23304d"/><path d="M155.24,225.999c1.788-3.733,6.194-14.142,9.161-15.939l-.361,2.047c-.65,2.021-1.356,3.406-2.284,5.318-1.672,3.254-3.229,6.264-4.691,9.62-.403-.663-.924-.672-1.825-1.046Z" fill="#292c47"/><path d="M164.04,212.107c1.856,1.321,3.786,2.657,5.587,4.042-2.554.465-5.304,1.03-7.871,1.276.928-1.912,1.634-3.297,2.284-5.318Z" fill="#b53f44"/><path d="M70.7734,192.951c8.1761-.815,16.6482-1.198,24.8536-2.047c1.3307-.137,1.2942.042,2.1258.904.6742,1.86,1.2811,18.058-.6827,18.24-8.2984.767-17.2547-.259-25.6876-.35-4.5472-.048-16.9081-.019-20.6891-1.915-.6647-2.373-.398-6.208-.1539-8.694c1.634-16.66.0943-33.106-1.5225-49.701-.1502-1.545-.4774-4.105.5465-5.312c4.4475-2.176,38.4537-3.459,45.0428-3.618.981-.023,1.2418.333,1.6895.967.5442,3.346,1.2242,16.158-.3818,18.88-2.5193,2.18-16.3982-1.742-22.4837-.578-.3245,3.444-.4305,6.246-.5009,9.708c5.1559-.43,16.276-3.043,15.0043,5.387-.4241,2.812-.2003,7.613-.8429,10.101-1.2134,1.204-12.7932.095-15.3211.082-.4549,2.345-.7215,5.514-.9963,7.946Z" fill="#dc4649"/><path d="M70.7734,192.951c8.1761-.815,16.6482-1.198,24.8536-2.047c1.3307-.137,1.2942.042,2.1258.904.6742,1.86,1.2811,18.058-.6827,18.24-8.2984.767-17.2547-.259-25.6876-.35-4.5472-.048-16.9081-.019-20.6891-1.915-.6647-2.373-.398-6.208-.1539-8.694c1.634-16.66.0943-33.106-1.5225-49.701-.1502-1.545-.4774-4.105.5465-5.312c4.4475-2.176,38.4537-3.459,45.0428-3.618.981-.023,1.2418.333,1.6895.967.5442,3.346,1.2242,16.158-.3818,18.88-2.5193,2.18-16.3982-1.742-22.4837-.578l-1.9192.654c.0411-1.512-.1037-3.137.6115-4.387c3.9434-.93,18.2009,1.134,22.6493,1.849-.1417-4.984-.403-10.49-.4043-15.423l-43.2004,2.748c2.1051,24.345,3.8586,35.086,1.5604,60.361c13.5897.577,29.7416,1.371,43.2243,1.321l-.1891-13.804c-7.848.853-19.1594,1.684-27.1288,1.882.3411-4.426.6322-9.461,1.7531-13.723c3.9001.149,11.426.232,15.0107.819l1.0089-.309.4219-2.395c.4192,2.305.3534,3.234.2622,5.603-1.2134,1.204-12.7932.095-15.3211.082-.4549,2.345-.7215,5.514-.9963,7.946Z" fill="#1e3656"/><path d="M71.511,160.381l1.9192-.654c-.3244,3.444-.4305,6.246-.5009,9.708c5.1559-.43,16.276-3.043,15.0044,5.387-.4242,2.811-.2004,7.613-.843,10.101.0912-2.369.1571-3.298-.2622-5.604l-.4219,2.396-1.0089.309c-.3515-2.249-.2008-8.724-.1972-11.304-4.6054.058-9.5276.507-14.3072.608.1354-3.606.2031-7.378.6177-10.947Z" fill="#292c47"/><path d="M117.646,170.557c5.338-3.422,25.596-7.914,29.715-3.437c1.902,6.323-.12,30.394-.423,37.725-.48,11.615-9.703,24.51-21.255,27.208-4.385,1.02-20.239,3.42-22.641-2.504-.318-3.762,3.972-17.2,6.947-18.91l.803.042.839-.225c-20.461-5.747-7.943-35.937,6.015-39.899Z" fill="#dc4649"/><path d="M117.646,170.557c5.338-3.422,25.596-7.914,29.715-3.437c1.902,6.323-.12,30.394-.423,37.725-.48,11.615-9.703,24.51-21.255,27.208-4.385,1.02-20.239,3.42-22.641-2.504-.318-3.762,3.972-17.2,6.947-18.91l.803.042c.856.428,3.431,1.571,3.841,2.217-2.222.344-1.61-1.371-4.059-.499-1.797,3.396-4.51,10.374-5.254,14.182-.64,3.271,8.752,3.217,10.973,3.248c11.984.528,24.691-8.51,27.375-20.448c2.717-12.083,2.488-29.086,2.012-41.648-8.414-.274-13.417-.782-21.628,1.831l-.729-.753c-2.078.583-3.962,1.739-5.677,1.746Z" fill="#243150"/><path d="M117.646,170.556c1.715-.006,3.599-1.162,5.677-1.745l.729.753c-32.6591,13.767-23.085,48.303.415,34.374l-.519,1.48.376.664c1.494-.354,2.351-.882,3.702-1.296-4.459,4.327-8.62,5.821-14.824,5.734-.524-.003-1.048-.024-1.571-.064-20.461-5.747-7.943-35.937,6.015-39.9Z" fill="#1e3656"/><path d="M128.026,204.786c1.391-1.458,2.004-2.227,3.187-3.862.547,13.208-3.183,18.831-16.58,11.974-.41-.646-2.985-1.789-3.841-2.217l.839-.225c.523.04,1.047.061,1.572.064c6.203.087,10.364-1.407,14.823-5.734Z" fill="#fef2e0"/><path d="M131.895,195.169c1.722,7.68,3.881,19.801-6.691,22.738-3.987,1.108-11.76-2.695-14.629-5.508c2.448-.872,1.837.843,4.058.499c13.397,6.857,17.127,1.234,16.58-11.974-1.183,1.636-1.796,2.404-3.187,3.862-1.351.414-2.207.943-3.702,1.296l-.376-.663.519-1.481c3.549-2.975,4.969-4.903,7.428-8.769Z" fill="#292c47"/><path d="M128.909,176.6l.656.404c3.562,7.461.094,16.532-9.135,15.868-7.976-5.833,3.072-13.925,8.479-16.272Z" fill="#1e3656"/><path d="M127.955,180.712c.613.553.997,3.018.88,3.881-.648,4.791-3.684,6.676-8.187,6.62-2.998-4.438,4.193-8.509,7.307-10.501Z" fill="#fbf7ef"/><path d="M242.13,142.115c5.234-.458,18.857.478,22.052,5.17c1.512,2.218-1.114,15.673-1.999,18.688-1.281-.365-2.567-.715-3.858-1.05-16.299-4.2-32.106,4.831-23.587,23.553c2.505,5.502,12.13,6.35,17.175,5.428c2.414-.442,7.567-2.539,9.769-2.015c1.738,2.398.749,9.865.321,12.851-4.31,2.408-9.034,3.98-13.93,4.633-9.855,1.316-20.753-.792-28.688-6.97-6.447-4.957-10.585-12.336-11.453-20.422-2.599-22.887,12.656-37.452,34.198-39.866Z" fill="#1e3656"/><path d="M241.818,144.375c7.906-.692,13.809.427,21.056,3.529-.786,4.622-1.458,9.261-2.022,13.914-6.074-1.744-11.362-2.562-17.626-.784-10.198,2.897-15.449,14.15-12.17,24.131c1.264,3.918,4.052,7.162,7.735,8.999c7.174,3.618,14.494,1.794,21.605-.465.045,2.407-.022,4.971-.04,7.391l-.348.739c-11.285,6.85-29.056,5.273-39.356-2.692-12.816-9.912-14.174-29.644-4.441-42.111c6.259-8.017,15.865-11.541,25.607-12.651Z" fill="#dc4649"/><path d="M313.873,186.592c6.845-14.246,23.821-19.106,38.324-20.381c2.405-.211,4.725-.853,7.049-.07c1.507,1.845-.56,17.522-.803,21.252-.231,3.503-.154,18.029-1.472,20.276-2.603,1.7-10.171,3.404-13.32,3.879-.871-2.037-1.58-3.521-1.719-5.757-.199-.902-.47-1.784-.718-2.675-4.269,3.686-7.103,6.745-13.032,7.441-9.828,1.154-14.801-3.835-16.069-13.045.086-4.537.154-6.54,1.76-10.92Z" fill="#dc4649"/><path d="M313.873,186.592c6.846-14.246,23.822-19.106,38.325-20.381c2.405-.211,4.724-.853,7.048-.07c1.507,1.845-.56,17.522-.803,21.252-.23,3.503-.154,18.029-1.471,20.276-2.604,1.7-10.171,3.404-13.321,3.879-.871-2.037-1.579-3.521-1.719-5.757.374-2.675.018-2.001,1.674-3.752l1.223,5.597c3.998-.87,7.251-1.615,11.164-2.789c0-5.625-.032-11.281.329-16.895.442-6.749,1.548-13.639,1.48-20.387-16.263,1.55-35.202,4.439-42.625,21.172l-1.304-2.145Z" fill="#292c47"/><path d="M342.69,195.573l.916,6.467c-1.656,1.75-1.3,1.076-1.674,3.751-.199-.902-.47-1.784-.718-2.675-4.269,3.686-7.103,6.745-13.032,7.441-9.828,1.155-14.801-3.835-16.069-13.045l2.69.019c2.603,16.336,19.963,9.726,26.939-.512.325-.476.641-.958.948-1.446Z" fill="#1e3656"/><path d="M313.873,186.592l1.304,2.145c-.537,3.581-.474,5.198-.374,8.793l-2.69-.019c.086-4.536.154-6.539,1.76-10.919Z" fill="#292c47"/><path d="M340.989,177.595c2.824,2.703,1.146,18.105-9.797,15.068-7.861-6.961,4.458-12.828,9.797-15.068Z" fill="#292c47"/><path d="M339.202,182.081l.338.339c1.661,5.585-2.617,9.173-7.978,8.782-2.247-4.591,4.282-7.238,7.64-9.121Z" fill="#fbf7ef"/><path d="M420.385,143.069c1.318-.144,1.796.079,2.554,1.019c1.065,4.084-1.886,16.504-2.906,21.321c2.599.023,6.182-.092,8.836.507c3.677.832,1.096,12.03.099,14.16-.876,1.865-6.706-.524-9.373-.072-.519.516-.695.413-.645,1.143.42,6.266,10.198,5.01,13.944,4.971.036,3.907.13,20.714-1.783,23.171-1.769.795-4.106.644-6.092.665-18.789-1.367-22.679-13.569-23.482-30.07-1.918.229-3.43.643-4.951-.399-1.579-3.477-2.878-7.644-.388-11.098c1.056-1.466,3.637-1.283,5.312-1.352.252-23.89-5.411-21.555,18.875-23.966Z" fill="#292c47"/><path d="M415.949,145.29c.822-.183,4.319-.287,5.361-.336-.939,7.36-2.73,14.737-3.646,22.346l11.132.537c-.185,2.954-.74,6.408-1.137,9.379-3.308-.516-7.5-.797-10.898-1.107-.085,11.425,3.647,12,14.043,11.714-.234,6.032-.46,12.644-.956,18.646-22.283.712-25.261-11.441-26.534-30.272l-5.753.261c-.198-2.357-.203-4.868-.253-7.244l6.399-.756c.181-7.287.199-14.576.054-21.863c4.061-.458,8.123-.892,12.188-1.305Z" fill="#dc4649"/><path d="M378.162,146.885c6.435-3.724,10.771-4.388,18.068-3.47.383,4.44.866,9.091.947,13.527.339,11.362-10.509-1.93-14.936,7.441.582,2.807,6.9.665,9.72,3.111c1.376,2.996-.176,10.479-1.078,13.648l-7.622-2.016c.952,4.841,5.478,26.843,4.449,30.036-2.066,1.211-21.001,1.006-21.42-.329-2.55-8.107.343-21.425-.758-29.796-.091-.692-5.226-5.227-3.746-9.73c1.544-4.689.465-2.049,4.847-3.859c3.953-8.669,3.51-11.886,11.529-18.563Z" fill="#dc4649"/><path d="M383.261,179.126c.952,4.841,5.478,26.843,4.449,30.036-2.066,1.211-21.001,1.005-21.42-.329-2.55-8.107.343-21.425-.758-29.796-.091-.692-5.226-5.227-3.746-9.73c1.544-4.689.465-2.05,4.847-3.86c3.953-8.669,3.51-11.885,11.529-18.563l.686,1.91c-6.543,5.894-7.951,10.629-10.067,18.79l-4.702.714c.113,3.746-.343,5.138,3.348,6.81c1.196,7.303.095,22.593.325,30.95c6.024.422,12.328.356,18.388.391-1.692-8.935-4.801-22.761-5.095-31.319l8.691,1.927c.303-2.89.596-5.587.731-8.497-2.378-.279-8.997-.666-10.518-1.814-1.182-2.873,1.412-7.234,3.921-8.791c3.082-1.911,9.702,1.616,11.376-1.025l.023-1.827l1.908,1.839c.339,11.362-10.509-1.93-14.936,7.441.582,2.807,6.9.665,9.72,3.111c1.376,2.995-.176,10.479-1.078,13.647l-7.622-2.015Z" fill="#1e3656"/><path d="M378.162,146.885c6.435-3.724,10.771-4.388,18.068-3.47.384,4.44.866,9.091.948,13.527l-1.909-1.839c-.361-3.294-.505-7.047-.7-10.391-6.294.02-10.315.727-15.721,4.083l-.686-1.91Z" fill="#292c47"/><path d="M434.468,34.287c1.476-.263,2.442-.3957,3.669.2504c1.106,2.7426.6,9.7816.582,12.9763-.117,20.7823-2.197,40.7583-6.277,61.1593-3.285,1.067-9.097,3.052-12.423,3.051-1.06-3.891-.022-18.0051-.351-23.1439-.389-9.1337-1.314-18.2462-2.252-27.306-.533-5.1229-3.195-18.3997-1.882-22.4119c2.338-2.8256,14.814-3.9756,18.934-4.5752Z" fill="#1e3656"/><path d="M434.775,36.4773c.361-.06,1.124-.0203,1.521-.014.591,1.4166-.47,29.3359-.506,33.0232-.099,10.6388-3.542,25.3047-5.153,36.1255-2.816.844-5.243,1.518-8.109,2.204l-.69-.582c.203-11.4678.397-21.5558-.569-33.0419-.898-10.6799-3.741-24.4872-4.034-34.7908c6.507-.869,11.065-1.5209,17.54-2.924Z" fill="#dc4649"/><path d="M197.876,36.5348c1.001-.1998.995-.2621,1.993.1038.845,2.5098.155,8.8635.099,11.6918-.397,19.8516-2.204,37.7676-6.025,57.2626-2.05.737-6.176,2.255-8.247,2.278l-.39-.635c.17-6.639.175-13.3126.081-19.9537-.224-16.0054-3.223-31.644-4.982-47.4919c5.81-1.1559,11.634-2.2414,17.471-3.2556Z" fill="#dc4649"/><path d="M299.659,165.062c16.042-1.132,9.914,6.437,9.891,18.056-.009,2.35-.51,5.225-2.129,7.015-3.128,1.861-6.688-1.515-10.307-1.575-8.398-.139-6.823,18.872-9.837,21.943-2.847.503-10.677-.827-13.777-1.255-3.104-.3-5.609-.198-5.008-4.156c1.976-13.052,2.662-22.818.758-35.975c4.056-.873,13.248-4.094,16.005-3.036c2.518,2.15,2.378,5.656,2.785,9.035c4.016-5.423,5.315-7.271,11.619-10.052Z" fill="#1e3656"/><path d="M301.73,166.825c9.671-.264,6.462,6.741,5.772,13.27-.257,2.459-.664,4.96-.979,7.418-10.984-4.037-16.015-3.637-18.56,9.373-.695,3.546-1.164,7.076-1.647,10.672-3.448-.594-13.835-1.051-15.537-2.909l.086-1.903c1.142-14.642,3.321-16.313,1.173-32.069l12.942-3.394c.93,5.727.745,11.09,1.62,16.66c3.615-7.954,5.438-14.964,15.13-17.118Z" fill="#dc4649"/><path d="M357.921,-27.8896l.857.3058c1.796,1.6247,12.03,23.33092,13.587,26.855391-5.798.579291-11.638.733142-17.463.459739-3.217-.401985-12.188-.376717-14.309-1.44642l-.235-.87119c3.967-6.24677,12.865-19.66562,17.563-25.30332Z" fill="#1e3656"/><path d="M130.162,-27.9011c.494.1146,1.236.2711,1.473.776c1.799,3.8312,12.555,23.27536,12.23,25.90788-2.72,1.546583-12.833,1.012864-16.278.914511-3.194-.353259-11.72-.202122-14.321-1.287611l-.204-.85269c1.511-3.68508,14.171-21.95399,17.1-25.45809Z" fill="#1e3656"/><path d="M80.5184,68.6191c-1.1498,1.4076-3.7661,5.2673-5.8364,4.3817-2.9529-1.2638-7.141-4.9245-8.5118-7.8137-.0569-3.6576,4.9217-11.524,8.4279-11.889c2.3388.8789,4.0124,3.2208,5.5277,5.1631c1.2865-1.3923,3.8126-4.3943,5.35-5.1541c2.4674.0731,9.2442,7.0124,9.7076,9.2245l.0889.4141c.0781.3763.134.7092.1922,1.0864-.588,2.1719-6.5724,8.8789-9.0357,9.1437-1.9304-.7575-4.2796-3.1076-5.9104-4.5567Z" fill="#dc4649"/><path d="M80.5184,68.6191c-1.1498,1.4076-3.7661,5.2673-5.8364,4.3817-2.9529-1.2638-7.141-4.9245-8.5118-7.8137-.0569-3.6576,4.9217-11.524,8.4279-11.889c2.3388.8789,4.0124,3.2208,5.5277,5.1631l.9544.7539-1.8136.5066-4.7218-4.4638c-2.9028,2.9858-4.1559,4.3402-6.5904,7.649c2.6831,3.1428,4.2263,4.3118,7.4934,6.8726l4.9416-5.0061l6.4645,5.284l6.7515-7.4297c1.3709.42.8822.147,1.8591,1.4044-.588,2.1719-6.5724,8.8789-9.0357,9.1437-1.9304-.7575-4.2796-3.1076-5.9104-4.5567Z" fill="#1e3656"/><path d="M80.1258,58.4612c1.2865-1.3923,3.8125-4.3943,5.3499-5.1541c2.4674.0731,9.2442,7.0124,9.7077,9.2245l.0889.4141c.078.3763.134.7092.1922,1.0864-.977-1.2574-.4883-.9844-1.8591-1.4044-.4373-.9285-6.1329-6.093-7.5412-7.5525-1.3244,1.4257-4.0716,4.7823-5.7949,5.2633l-1.0027-.6168l1.8135-.5066-.9543-.7539Z" fill="#292c47"/><path d="M400.408,107.853c2.78,2.282,5.411,4.738,7.875,7.355c1.268,1.602,1.069,2.748,1.389,4.974-2.156,2.683-5.455,6.352-8.018,8.583-2.41-1.181-4.788-3.346-6.891-5.085-3.862,5.086-5.672,6.349-11.096.74-3.754-3.884-4.25-7.046-.108-11.006c1.327-1.73,2.351-2.763,3.894-4.319.722.038,1.02-.233,1.746-.574c2.55,1.801,3.376,2.596,5.555,4.78c2.035-2.28,3.136-3.63,5.654-5.448Z" fill="#dc4649"/><path d="M383.559,113.414c1.471-.59,2.685-2.003,3.831-3.144l.79.076c-1.792,2.607-4.508,5.385-5.943,7.802c2.288,2.515,4.837,4.782,7.603,6.76c1.512-1.503,3.511-3.618,5.068-4.982c1.66,1.387,4.512,3.921,6.186,5.086c1.512-1.45,7.658-6.34,6.056-8.349l1.133-1.455c1.268,1.602,1.069,2.748,1.389,4.974-2.156,2.683-5.455,6.351-8.018,8.583-2.41-1.181-4.788-3.346-6.891-5.085-3.862,5.086-5.672,6.349-11.096.74-3.754-3.884-4.25-7.046-.108-11.006Z" fill="#1e3656"/><path d="M400.409,107.853c2.779,2.282,5.41,4.738,7.874,7.355l-1.133,1.455-6.633-6.394c-1.746,1.459-4.07,3.959-5.731,5.639-1.737-1.632-4.589-4.778-6.606-5.562l-.79-.076c-1.146,1.142-2.36,2.554-3.831,3.144c1.327-1.73,2.351-2.763,3.894-4.319.722.038,1.02-.233,1.747-.574c2.549,1.801,3.375,2.596,5.554,4.78c2.036-2.28,3.137-3.63,5.655-5.448Z" fill="#292c47"/><path d="M-25.2394,-22.6486c7.3092-.3532,19.3674.4697,26.82918,1.0711-3.58785,4.9862-8.53528,10.0126-12.85148,14.43851-2.064,2.12812-9.4003,10.16014-11.569,10.82515-2.452-1.7866-3.5089-23.50776-2.4087-26.33476Z" fill="#1e3656"/><path d="M301.442,113.397c1.881-2.13,3.722-5.225,6.646-4.376c2.915,2.252,5.063,4.865,8.06,6.92.871,5.776-3.98,9.113-7.839,12.868-2.919-1.667-4.183-2.927-6.628-5.151-1.273,1.588-2.839,3.923-4.644,4.639-2.77-.263-9.065-5.578-9.774-8.259.488-3.81,2.424-6.126,4.811-8.986c3.993-4.778,6.15-.999,9.368,2.345Z" fill="#dc4649"/><path d="M301.442,113.397c1.881-2.13,3.722-5.225,6.646-4.376l-.311,1.141-.663.339c-2.049,1.84-3.75,3.557-5.668,5.513-1.859-1.721-4.093-3.913-6.002-5.504-2.545,2.802-3.952,4.452-6.132,7.536c2.455,2.935,4.161,4.485,7.197,6.856l4.964-4.898l6.259,5.01c1.764-1.77,6.128-5.721,6.665-7.992.564-.429,1.137-.726,1.751-1.081.871,5.776-3.98,9.113-7.839,12.868-2.919-1.667-4.183-2.927-6.628-5.151-1.273,1.588-2.839,3.923-4.644,4.639-2.77-.263-9.065-5.578-9.774-8.259.488-3.81,2.424-6.126,4.811-8.986c3.993-4.778,6.15-.999,9.368,2.345Z" fill="#222c47"/><path d="M308.088,109.021c2.916,2.252,5.063,4.866,8.06,6.921-.614.354-1.187.651-1.751,1.081-1.697-1.06-5.699-5.008-7.283-6.522l.663-.339.311-1.141Z" fill="#292c47"/><path d="M87.1318,-26.0818c3.1262.4652,11.3037,10.7241,12.9272,13.7149-2.2413,3.46352-8.6824,10.85941-12.0983,13.105287-3.9822-.474621-10.4016-9.479797-12.8302-12.795787c3.1285-5.3346,7.5231-9.8308,12.0013-14.0244Z" fill="#1e3656"/><path d="M407.359,-9.70577c-.546-.85993-1.336-1.70993-1.042-2.58833c1.52-4.5757,8.33-11.0214,11.732-14.0843c4.914,4.3298,9.187,8.2075,12.536,13.8786-1.638,2.56078-4.17,5.85787-6.304,7.99953-3.114,3.13512-5.758,7.32911-9.418,2.81118-2.405-2.09068-5.315-5.54973-7.504-8.01668Z" fill="#1e3656"/><path d="M197.649,34.2731c1.426-.2513,1.696-.2504,3.14-.1174.801.6578.896.7503,1.124,1.7519c1.804,7.9197-2.882,67.4734-6.586,72.4004-1.637,2.177-8.892,3.321-11.564,3.605-1.303-2.678-.613-20.9601-.799-25.04-.517-10.1362-1.473-20.2449-2.867-30.2977-.508-3.7406-2.517-14.734-.944-17.7938c2.771-2.4453,14.209-3.8091,18.496-4.5084Z" fill="#1e3656"/><path d="M197.967,37.402c1.001-.1998.995-.2621,1.993.1038.845,2.5098.155,8.8635.099,11.6918-.397,19.8516-2.203,37.7676-6.025,57.2624-2.05.738-6.176,2.256-8.247,2.279l-.39-.636c.17-6.638.175-13.3124.081-19.9535-.224-16.0054-3.223-31.644-4.982-47.4919c5.811-1.1559,11.635-2.2414,17.471-3.2556Z" fill="#dc4649"/><path d="M122.791,28.6172c10.635.3248,13.736,13.357,2.23,18.8769-14.595,1.6108-10.352-13.3805-2.23-18.8769Zm-1.335,5.833c-4.471,5.8143-.56,7.4924,5.126,6.7236l1.144-1.1084c.037-3.2055-3.494-5.0165-6.27-5.6152Z" fill="#1e3656"/><path d="M147.589,41.8809c2.547,1.8195,9.296,7.2997,9.962,10.2634l.089.3858c.076.3437.132.6483.191.9934-1.091,3.7699-5.482,6.4561-7.28,9.1906-1.453,1.1568-1.748.7715-3.243.1484-2.976-2.4741-11.172-8.2621-6.92-12.5729c1.573-2.1552,5.263-6.5558,7.201-8.4087Z" fill="#c33e3f"/><path d="M140.388,50.2896c.964-.5558,1.574-1.1609,2.466-1.0111-2.735,5.3503,1.798,7.3463,5.832,10.4403c3.148-2.5111,4.243-4.1723,6.837-6.5359l2.308.3406c-1.091,3.7699-5.482,6.4561-7.28,9.1906-1.453,1.1568-1.748.7715-3.243.1484-2.976-2.4741-11.172-8.2621-6.92-12.5729Z" fill="#1e3656"/><path d="M147.589,41.8809c2.547,1.8195,9.296,7.2997,9.962,10.2634l.089.3858c.076.3437.132.6483.191.9934l-2.308-.3406.161-.5689c-.274-1.515-1.458-2.3961-2.601-3.552-3.917-.0591-4.728.5323-9.446.0455l-.783.171c-.892-.1498-1.502.4553-2.466,1.0111c1.573-2.1552,5.263-6.5558,7.201-8.4087Z" fill="#292c47"/><path d="M143.637,49.1073l4.307-4.7281l5.14,4.6826c-3.918-.0591-4.729.5323-9.447.0455Z" fill="#b53f44"/><path d="M309.686,40.0754c4.805-2.4783,6.791,2.6902,5.216,6.2354-1.115,2.5036-4.557-1.8608-6.547,1.6523-2.04,3.6021-1.738,14.0745-5.393,16.1084-2.734-1.108-1.972-9.384-5.988-10.9355-4.463-1.7252-9.584-2.2581-6.493-8.3721c2.779-5.4982,8.009.9651,10.135,3.7285.072-.0526.147-.1035.223-.1523v.001c-.076.0486-.151.0997-.223.1523l2.779,5.627c.537-1.9946.979-4.3907,1.417-6.4385-.174-.0478-.352-.084-.532-.1094.18.0254.358.0606.532.1084c1.074-3.324,1.539-5.8861,4.874-7.6055Zm-7.059,7.5518v.001c-.091.0181-.181.0386-.271.0615-.181.0458-.358.101-.532.165.26-.096.53-.1729.803-.2275Z" fill="#1e3656"/><path d="M346.467,105.174c1.886.471,5.27,3.868,6.795,5.229c6.945,6.185.005,11.428-4.652,15.948-2.432-.553-3.574-1.963-5.41-3.324-9.445-7.003-2.437-12.015,3.267-17.853Z" fill="#292c47"/><path d="M346.823,107.589c3.078,1.878,5.645,4.846,8.041,7.512-2.265,2.983-4.269,4.97-6.958,7.534-3.037-2.201-5.523-4.373-7.793-7.362c2.035-2.732,4.278-5.301,6.71-7.684Z" fill="#dc4649"/><path d="M73.9346,25.2c17.117-1.7546,7.8226,19.7033-11.168,22.7919-1.4741.1602-2.5361.427-3.8975-.0986l-.0908-.5898c1.814-1.598,9.9289-5.1353,14.0713-8.1328-5.2294-5.3187-5.6433-9.7448,1.085-13.9707Zm-.3457,4.7207c-.5945,2.8573,1.1533,3.8499,3.6865,4.8154.5812-1.408.7964-1.7177.4111-3.1611-1.1271-1.552-2.2473-1.6327-4.0976-1.6543Z" fill="#1e3656"/><path d="M381.862,35.9992c4.662-.153,21.678-.3826,14.386,9.2813-4.12,5.4613-11.096,6.8382-17.603,7.4301l-.839-.7268c.379-3.035,8.997-4.0289,12.197-6.5833l.063-.7824c-3.47-2.6343-10.14-1.2249-14.291-.7543c1.557-3.3846,2.775-6.1254,6.087-7.8646Z" fill="#1e3656"/><path id="eHWwLjxZABP77" d="M242.644,39.5444c.609.1421.429.1372.97.6375.023.831-.054,1.538-.419,2.3-2.256,4.7377-25.334,12.0812-31.074,14.2779-.949-.1525-.552.0614-1.195-.7232.561-7.3404,24.692-13.9111,31.718-16.4922Z" transform="translate(-1.001745 -19.0044)" opacity="0" fill="#1e3656"/><path d="M368.239,129.285l.84.089.442.805c-.194,1.525-1.169,2.807-2.004,4.119-5.469,3.153-22.255,9.137-28.997,11.686l-.916-.048-.487-.578c.893-7.757,23.794-13.379,31.122-16.073Z" fill="#1e3656"/><path d="M429.369,112.191c2.423.152,3.299.08,4.391,2.246.031,1.471.018,1.649-.826,2.845-3.131,1.429-3.213-1.922-6.552,1.033l-.045.873c2.906,3.52,6.719.506,9.778,2.239.56,2.824-1.272,3.804-3.551,4.482-3.204.596-10.834,3.53-13.1,1.432-.148-1.225-.054-1.29.537-2.435c3.529-2.407,2.568-2.461,2.451-6.511-.1-3.577,4.034-5.36,6.917-6.204Z" fill="#1e3656"/><path d="M383.678,-22.4446l.88.919c0,1.9558-.095,3.5195-.248,5.4717c6.475-.0338,7.134.7341,9.178,6.77645c2.319.87976,5.482,2.05323,6.213,4.59688l-.767.86263c-1.782.0812-3.276-1.29529-5.329-1.85203-.018,2.40379.451,5.21723-2.279,5.777571-2.603-1.933221-1.209-7.554231-2.689-10.401101-1.155-2.2282-4.531-2.2039-7.058-2.9501-2.021-3.0138-.505-7.0246,2.099-9.201Z" fill="#1e3656"/><path d="M437.194,127.079l.528.472c.325,5.268-13.939,8.682-18.018,10.025-1.295-.473-1.106-.905-1.061-1.972c2.148-3.835,13.975-6.972,18.551-8.525Z" fill="#1e3656"/></g><clipPath id="eHWwLjxZABP82"><rect width="480" height="235" rx="0" ry="0" fill="#fff"/></clipPath></g><g id="eHWwLjxZABP84" transform="matrix(0.335714 0 0 0.335714 415.670429 207.807143)"><rect id="eHWwLjxZABP85" width="175" height="61.25" rx="28" ry="28" transform="matrix(1 0 0 1 -8.375042 -5.249997)" opacity="0.2" fill="#112346" stroke-width="0"/><path id="eHWwLjxZABP86" d="M100.296,8.840967h1.86105v8.05706h-1.86105v-8.05706Zm.93793-1.32776c-.33752,0-.62035-.10561-.84864-.31684-.22829-.22129-.34251-.49288-.34251-.81477s.11422-.58843.34251-.79967c.22829-.22129.51112-.33193.84864-.33193s.62035.10562.84864.31685c.22829.20117.34251.45766.34251.76949c0,.33195-.11422.61358-.34251.84494-.21832.22129-.5013.33193-.84864.33193Zm17.50762,4.76743v4.61696h-1.86105v-4.37556c0-.70411-.16378-1.23218-.49133-1.58425-.32755-.3621-.7941-.54316-1.39949-.54316-.68501,0-1.2259.21123-1.62294.63369-.39705.41241-.59557,1.0109-.59557,1.7955v4.07379h-1.86105v-11.19538h1.86105v4.07379c.30776-.33195.68486-.58341,1.13162-.75441.45658-.18106.96271-.27159,1.51855-.27159c1.00259,0,1.80651.29673,2.41206.8902.60539.59346.90817,1.4736.90817,2.64042h-.00002Zm-11.14925,4.72426c-.87342,0-1.54846-.23136-2.02483-.69407-.47652-.46269-.71478-1.13663-.71478-2.02181v-3.87763h-1.3102v-1.50882h1.3102v-1.84075h1.8612v1.84075h2.12908v1.50882h-2.12908v3.83237c0,.39231.09428.69407.28283.9053.18855.20117.46156.30176.81888.30176.41684,0,.76433-.11065,1.04218-.33195l.52109,1.34285c-.21832.18106-.48634.31685-.80392.40738-.30776.09053-.63531.13579-.98265.13579v.00001Zm-13.2957-.10591l-2.05474-5.55243-2.08436,5.55243h-1.78672l-2.91819-8.05706h1.75696l2.09931,5.94472l2.18861-5.94472h1.56327l2.14403,5.97489l2.15884-5.97489h1.65271l-2.93315,8.05706h-1.78657Zm-13.58488-3.98495c0,.13076-.00982.31685-.02976.55826h-6.23841c.10923.59347.39221,1.06623.84879,1.41829.4664.34199,1.04218.51299,1.72704.51299.87342,0,1.59303-.2917,2.15884-.87511l.99761,1.16179c-.35731.43252-.80906.75943-1.35492.98072s-1.16138.33195-1.84625.33195c-.87342,0-1.64274-.17603-2.30766-.52808-.66507-.35206-1.18118-.83991-1.54846-1.46355-.35731-.63369-.53605-1.34787-.53605-2.14251c0-.78458.17375-1.48869.52109-2.11234.35731-.63371.84864-1.12657,1.47398-1.47863s1.33015-.52808,2.11427-.52808c.77415,0,1.464.17603,2.06955.52808.61537.34199,1.09189.82985,1.42926,1.46354.34749.62364.52109,1.34788.52109,2.1727l-.00001-.00002Zm-4.01989-2.65551c-.59557,0-1.1017.18106-1.5187.54318-.40687.35206-.6551.82481-.74439,1.41829h4.51122c-.07932-.58341-.32256-1.05617-.72943-1.41829-.40702-.36212-.9133-.54318-1.5187-.54318Zm-7.67538,6.63907v-1.04108c-.30776.38223-.68985.66889-1.14643.86002-.44676.19112-.94291.28668-1.48893.28668-.76433,0-1.45403-.17101-2.06955-.51301-.60539-.34199-1.08191-.82481-1.42925-1.44846-.34749-.63369-.52109-1.35793-.52109-2.17268s.17359-1.53397.52109-2.1576c.34734-.62364.82386-1.10646,1.42925-1.44846.61552-.34201,1.30522-.51301,2.06955-.51301.52607,0,1.00743.09053,1.44421.27159s.8089.45265,1.11666.81477v-4.13414h1.86105v11.19538h-1.78656Zm-.35731-2.70078c.20834-.38223.31259-.82481.31259-1.32774s-.10425-.94553-.31259-1.32776c-.2085-.38223-.49133-.67394-.84864-.87511-.35746-.21125-.75935-.31685-1.2061-.31685-.4466,0-.84864.10561-1.20595.31685-.35731.20117-.64014.49288-.84864.87511s-.31259.82481-.31259,1.32776.1041.94551.31259,1.32774.49132.67897.84864.8902c.35731.20118.75935.30176,1.20595.30176.44676,0,.84864-.10058,1.2061-.30176.35731-.21123.64014-.50796.84864-.8902ZM56.93698,8.749727c1.1712,0,2.06456.28667,2.67993.86002.62534.56329.93793,1.41829.93793,2.56499v4.72257h-1.75681v-.98072c-.22829.35206-.55584.62363-.98265.81475-.41699.18106-.92312.27159-1.5187.27159s-1.11666-.10059-1.56327-.30176c-.44671-.21125-.79411-.49791-1.04225-.86003-.23823-.37217-.35733-.78961-.35733-1.25231c0-.72424.26304-1.30262.7891-1.73514.536-.44259,1.37467-.66388,2.51626-.66388h2.05459v-.1207c0-.56329-.16876-.99581-.50628-1.29757-.32755-.30178-.81888-.45265-1.47398-.45265-.4466,0-.88837.0704-1.32501.21123-.42681.14083-.78911.33696-1.08691.58844l-.72956-1.37302c.41689-.32189.91812-.56832,1.50373-.73932s1.20595-.2565,1.8612-.2565l.00001.00001Zm-.25322,6.88017c.46655,0,.8784-.10562,1.23587-.31685.36714-.22129.62519-.53312.77415-.93545v-.93547h-1.92073c-1.07194,0-1.60784.35709-1.60784,1.07126c0,.34199.13386.61357.40188.81475s.6403.30176,1.11666.30176h.00001Zm-10.69116.06065h-.86354l-3.42441-5.7033v6.91036h-1.8462v-10.56169h1.59309l4.13907,7.00089l4.06463-7.00089h1.59309l.01488,10.56169h-1.8313l-.0149-7.00089-3.42441,5.79383ZM109.33381,29.33985v15.15h-3.372v-1.962c-.57764.71189-1.32435,1.2678-2.172,1.617-.90563.36793-1.87555.55151-2.853.54-1.37977.02378-2.74245-.30785-3.957-.963-1.13745-.62625-2.07375-1.56255-2.7-2.7-1.30391-2.56373-1.30391-5.59627,0-8.16.6281-1.13606,1.56394-2.0719,2.7-2.7c1.21546-.65275,2.57751-.98423,3.957-.963.92501-.00857,1.84259.16578,2.7.513.8172.33509,1.54983.84741,2.145,1.5v-.762c0-.28643.11378-.56114.31633-.76367s.47724-.31633.76367-.31633l2.472-.03Zm-4.767,11.01c1.70241-1.9736,1.70241-4.8964,0-6.87-1.79985-1.74394-4.65915-1.74394-6.459,0-1.68467,1.98016-1.68467,4.88984,0,6.87.84101.87157,2.01145,1.34672,3.222,1.308c1.21374.03854,2.38799-.43377,3.237-1.302v-.006Zm17.94,3.324c-.4506.35546-.96927.61479-1.524.762-.61408.17233-1.2492.25816-1.887.255-1.41013.09088-2.79902-.37927-3.864-1.308-.9622-1.0234-1.45181-2.403-1.35-3.804v-13.59h2.469c.28643,0,.56114.11378.76367.31633s.31633.47724.31633.76367v2.379h4.047v2.853h-4.047v7.2c-.04376.61441.15433,1.2216.552,1.692.40613.41048.96838.62774,1.545.597.22613.00135.45196-.01672.675-.054.80958-.16952,1.6251.26156,1.941,1.026l.363.912Zm5.079.027c-1.20043-.63362-2.19844-1.59212-2.88-2.766-1.3796-2.49392-1.3796-5.52208,0-8.016.68541-1.16705,1.68279-2.11975,2.88-2.751c2.61457-1.32565,5.70443-1.32565,8.319,0c1.19702.63151,2.19433,1.58416,2.88,2.751c1.3796,2.49392,1.3796,5.52208,0,8.016-.68182,1.17368-1.67976,2.13211-2.88,2.766-2.61457,1.32565-5.70443,1.32565-8.319,0Zm7.392-3.369c1.70241-1.9736,1.70241-4.8964,0-6.87-1.79985-1.74394-4.65915-1.74394-6.459,0-1.68467,1.98016-1.68467,4.88984,0,6.87.84101.87157,2.01145,1.34672,3.222,1.308c1.21059.04404,2.38438-.42048,3.237-1.281v-.027Zm17.022-11.16v3.372c-.27077-.05406-.54592-.08318-.822-.087-1.19439-.06706-2.36247.36798-3.222,1.2-.83467.95959-1.25439,2.2112-1.167,3.48v7.353h-3.552v-15.15h2.298c.28643,0,.56113.11379.76367.31633s.31633.47724.31633.76367v1.134c1.014-1.588,2.809-2.382,5.385-2.382Zm-107.022,15.042c-.99952-.24447-1.95011-.65737-2.811-1.221l.621-1.233c.3744-.7399,1.2508-1.07278,2.022-.768.37389.15524.75654.28847,1.146.399.91807.26884,1.86939.4072,2.826.411c2.118,0,3.179-.557,3.183-1.671.01432-.51063-.31898-.96614-.81-1.107-.84397-.28199-1.7129-.4829-2.595-.6-1.03337-.14877-2.05419-.3744-3.054-.675-.77526-.24876-1.47221-.69547-2.022-1.296-.61143-.71083-.9214-1.63215-.864-2.568-.02956-1.38298.6493-2.68527,1.8-3.453c1.44674-.93234,3.1502-1.38576,4.869-1.296c1.05397.00022,2.10457.11896,3.132.354.90209.18897,1.76874.51902,2.568.978l-.675,1.296c-.363.73034-1.21602,1.07232-1.983.795-.9848-.3605-2.02631-.54137-3.075-.534-.81824-.04818-1.63519.11397-2.373.471-.48302.22293-.79719.70118-.81,1.233-.01041.54748.34149,1.03623.864,1.2.87464.31646,1.77934.54264,2.7.675c1.00825.15143,2.00395.37704,2.979.675.77042.2345,1.46702.66444,2.022,1.248.59601.69214.89656,1.59055.837,2.502.02092,1.37985-.67962,2.67062-1.848,3.405-1.50499.92728-3.25673,1.37412-5.022,1.281-1.22607-.00259-2.44614-.17112-3.627-.501Zm44.883-14.874v12.858c0,5.336-2.724,8.004-8.172,8.004-1.40084.00811-2.79608-.17765-4.146-.552-1.17835-.30549-2.28055-.85199-3.237-1.605l1.026-1.713c.30567-.49262.95204-.6455,1.446-.342.51805.29338,1.06493.53264,1.632.714.99571.32459,2.03673.48864,3.084.486c1.664,0,2.884-.378,3.66-1.134.84612-.94702,1.26781-2.19906,1.167-3.465v-.795c-.61114.66419-1.36796,1.17763-2.211,1.5-.91436.34924-1.88627.52327-2.865.513-1.35633.0185-2.69615-.29893-3.9-.924-1.14224-.59206-2.09694-1.49066-2.757-2.595-.68212-1.15978-1.02996-2.48573-1.005-3.831-.02691-1.34077.32116-2.66242,1.005-3.816.65985-1.09557,1.61266-1.98501,2.751-2.568c1.20751-.61258,2.54617-.9215,3.9-.9c1.02537-.01399,2.04386.16934,3,.54.88145.34534,1.65934.91145,2.259,1.644v-.936c0-.28643.11379-.56114.31633-.76367s.47724-.31633.76367-.31633l2.283-.003Zm-4.782,10.263c.86632-.80774,1.34014-1.95125,1.299-3.135.03647-1.17094-.43625-2.30022-1.296-3.096-1.9293-1.58787-4.7127-1.58787-6.642,0-.85642.7974-1.32577,1.92647-1.287,3.096-.04421,1.18189.4251,2.3251,1.287,3.135c1.92186,1.60535,4.71714,1.60535,6.639,0Zm-12.057-10.278l-5.892,13.743c-.36888.86087-1.21443,1.41985-2.151,1.422h-1.902l5.763-13.404.3-.675c.28294-.65223.92704-1.07338,1.638-1.071l2.244-.015Zm-10.785,13.263l-5.889-13.236h2.511c.71819-.00121,1.36666.42953,1.644,1.092l3.492,8.046-1.758,4.098Z" opacity="0.8" clip-rule="evenodd" fill="#fff" fill-rule="evenodd"/><g id="eHWwLjxZABP87" transform="matrix(0.3 0 0 0.3 -18.12243 -25.905895)" opacity="0.8" mask="url(#eHWwLjxZABP89)"><path id="eHWwLjxZABP88" d="M129.5,243.58426c-8.76,2.18-20.08,1.79-37.33-19.63-2.35828-2.9281-4.38181-6.36293-5.93416-10.02849c3.00814.97918,6.21933,1.50849,9.55416,1.50849c17.03246,0,30.84-13.80754,30.84-30.84c0-5.42003-1.39819-10.5135-3.85355-14.93939c22.54068-3.14789,48.24701-1.18662,56.01355,6.19939c12.32,11.73-14.11,59.03-49.29,67.73Z" fill="#fff"/><mask id="eHWwLjxZABP89" mask-type="alpha" x="-150%" y="-150%" height="400%" width="400%"><path id="eHWwLjxZABP90" d="M78.37454,207.03926c0-31.45994,25.50332-56.96327,56.96327-56.96327s56.96327,25.50332,56.96327,56.96327-25.50332,56.96327-56.96327,56.96327-56.96327-25.50332-56.96327-56.96327Zm89.23546-4.715c-.16775-.93858-1.05962-1.56734-2-1.41h-.06c-4.15414.71597-8.30501-1.28258-10.33588-4.97651s-1.49439-8.26953,1.33588-11.39349c.33036-.3301.51598-.77798.51598-1.245s-.18561-.9149-.51598-1.245l-.11-.1c-2.70671-2.31865-5.78705-4.16144-9.11-5.45-.43613-.17299-.92328-.16468-1.35326.02308s-.76719.53944-.93674.97692v.06c-1.40364,3.98681-5.18789,6.63916-9.41438,6.59848s-7.95898-2.76539-9.28562-6.77848c-.13404-.44903-.44162-.82607-.85458-1.04757s-.8972-.26916-1.34542-.13243h-.11c-3.26392,1.21388-6.31249,2.94242-9.03,5.12-.37331.28196-.619.70095-.6828,1.16441s.05956.93325.3428,1.30559l.1.12c2.68294,3.2243,3.03751,7.79124.8844,11.39101s-6.34454,5.44763-10.4544,4.60899c-.45624-.10445-.9353-.02286-1.33126.22672s-.67619.6466-.77874,1.10328v.09c-.55386,3.43784-.55386,6.94217,0,10.38.06433.46505.31181.88512.68739,1.16681s.84815.40164,1.31261.33319h.11c4.15414-.71597,8.30501,1.28258,10.33588,4.97651s1.49439,8.26953-1.33588,11.39349c-.33036.3301-.51598.77798-.51598,1.245s.18561.9149.51598,1.245l.11.1c2.70914,2.30768,5.7893,4.14023,9.11,5.42.43613.17299.92328.16468,1.35326-.02308s.76719-.53944.93674-.97692v-.06c1.40815-3.97311,5.18194-6.61524,9.39704-6.57914s7.94308,2.7425,9.28296,6.73914c.13404.44903.44162.82607.85458,1.04757s.8972.26916,1.34542.13243h.11c3.30375-1.22537,6.38706-2.97809,9.13-5.19.37164-.28659.61343-.70974.67164-1.17542s-.07198-.93533-.36164-1.30458l-.1-.12c-2.83001-3.19588-3.28744-7.84789-1.13412-11.53378s6.43037-5.57199,10.60412-4.67622c.93041.23341,1.87421-.33019,2.11-1.26v-.09c.5347-3.37898.5347-6.82102,0-10.2Zm-41.67,4.69c0-5.197,4.213-9.41,9.41-9.41s9.41,4.213,9.41,9.41-4.213,9.41-9.41,9.41-9.41-4.213-9.41-9.41Z" fill="#fff" stroke-width="0"/></mask></g><path id="eHWwLjxZABP91" d="M116.33,114.77l-3.64-2.18c-1.023263-.593162-1.652267-1.687247-1.65-2.87v-2c-.002267-1.182753.626737-2.276838,1.65-2.87l3.64-2.18c.762973-.435835,1.321342-1.157154,1.552062-2.005003s.114855-1.752643-.322062-2.514997v0l-1.74-3c-.935215-1.566004-2.961067-2.080293-4.53-1.15v0l-3.68,2.18c-1.024118.591275-2.285882.591275-3.31,0l-1.7-1c-1.023263-.593162-1.652267-1.687247-1.65-2.87v-4.38c0-.877867-.348731-1.719778-.969477-2.340523s-1.462656-.969477-2.340523-.969477h-3.47c-.877867,0-1.719778.348731-2.340523.969477s-.969477,1.462656-.969477,2.340523s0,.06,0,.09v4.35c.002267,1.182753-.626737,2.276838-1.65,2.87l-1.68,1c-1.024118.591275-2.285882.591275-3.31,0L80.56,94c-.767143-.448916-1.682599-.570435-2.540292-.337203s-1.585543.801616-2.019708,1.577203v0l-1.74,3c-.443418.7584-.567152,1.661967-.343945,2.511654s.775044,1.575787,1.533945,2.018346v0L79.1,105c1.023263.593162,1.652267,1.687247,1.65,2.87v2c.002267,1.182753-.626737,2.276838-1.65,2.87l-3.61,2.18c-1.578036.917936-2.114924,2.940216-1.2,4.52v0l1.74,3c.917936,1.578036,2.940216,2.114924,4.52,1.2v0l3.66-2.18c1.024118-.591275,2.285882-.591275,3.31,0l1.68,1c1.023263.593162,1.652267,1.687247,1.65,2.87v3.67c0,.877867.348731,1.719778.969477,2.340523s1.462656.969477,2.340523.969477h3.46c.877867,0,1.719778-.348731,2.340523-.969477s.969477-1.462656.969477-2.340523v0-3.77c-.002267-1.182753.626737-2.276838,1.65-2.87l1.7-1c1.024118-.591275,2.285882-.591275,3.31,0l3.66,2.18c1.5824.913239,3.605483.371662,4.52-1.21v0l1.74-3c.938839-1.568495.428452-3.601089-1.14-4.54Zm-20.49.91c-3.865993,0-7-3.134007-7-7s3.134007-7,7-7s7,3.134007,7,7v0c0,3.865993-3.134007,7-7,7v0Z" transform="matrix(0.3 0 0 0.3 -17.650844 -2.6395)" opacity="0.8" fill="#fff"/></g>
<script><![CDATA[
!function(t,e){"object"==typeof exports&&"undefined"!=typeof module?module.exports=e():"function"==typeof __SVGATOR_DEFINE__&&__SVGATOR_DEFINE__.amd?__SVGATOR_DEFINE__(e):((t="undefined"!=typeof globalThis?globalThis:t||self).__SVGATOR_PLAYER__=t.__SVGATOR_PLAYER__||{},t.__SVGATOR_PLAYER__["5c7f360c"]=e())}(this,function(){"use strict";const t=n(Math.pow(10,-6)),e=n(Math.pow(10,-2));function n(t,e=6){return function(t,e,n){if(Number.isInteger(t))return t;const r=Math.pow(10,e);return Math[n]((+t+Number.EPSILON)*r)/r}(t,e,"round")}function r(e,n,r=t){return Math.abs(e-n)<r}const i=Math.PI/180;function s(t){return t*i}function o(t){return t/i}function u(t){return"number"!=typeof t&&(t=Number(t)),isNaN(t)||!isFinite(t)?0:t}let l={iD:!1};function a(t){return`${t}`.replace(/['"]/g,"")}function c(t,e="px"){return t.endsWith(e)?t:`${t}${e}`}function f(t=""){return l.iD?t:void 0}function h(t){const e=["^","\\s*","(matrix\\()","(?<a>-?[0-9]*\\.?[0-9]+)","\\s*",",?","\\s*","(?<b>-?[0-9]*\\.?[0-9]+)","\\s*",",?","\\s*","(?<c>-?[0-9]*\\.?[0-9]+)","\\s*",",?","\\s*","(?<d>-?[0-9]*\\.?[0-9]+)","\\s*",",?","\\s*","(?<e>-?[0-9]*\\.?[0-9]+)","\\s*",",?","\\s*","(?<f>-?[0-9]*\\.?[0-9]+)","\\)"].join(""),n=t.match(new RegExp(e,"i"));if(n)return[u(n.groups.a),u(n.groups.b),u(n.groups.c),u(n.groups.d),u(n.groups.e),u(n.groups.f)]}function d(t,e="inline"){return t&&t!==e?(t=a(t))===e?f(e):t:f(e)}function g(t,e="1px"){if(!t||t===e)return f(e);if(t.endsWith("px")||t.endsWith("%"))return t;const r=c(t=`${n(u(t),2)}`);return r===e?f(e):r}function p(t,e="none"){if(!t||t===e)return f(e);if((t=a(t))===e)return f(e);const n=t.match(/url\(#.+?\)/);return n?n[0]:function(t){const e=["^","\\s*","url\\(","#","(?<maskId>[a-zA-Z0-9\\-_]+)","\\)"].join(""),n=t.match(new RegExp(e,"i"));if(n)return`url(#${n.groups.maskId})`}(t)}function y(t,e="rgb(0, 0, 0)"){if(!t||t===e)return f(e);if((t=a(t))===e)return f(e);if(t.startsWith("rgb"))return t;const n=function(t){if("string"!=typeof t||"#"!==t[0])return t;const e=t.slice(1),n=e.length;if(3!==n&&6!==n)return t;for(let r=0;r<n;r++){const n=e.charCodeAt(r);if(!(n>=48&&n<=57||n>=65&&n<=70||n>=97&&n<=102))return t}if(3===n)return`rgb(${parseInt(e[0]+e[0],16)}, ${parseInt(e[1]+e[1],16)}, ${parseInt(e[2]+e[2],16)})`;return`rgb(${parseInt(e.slice(0,2),16)}, ${parseInt(e.slice(2,4),16)}, ${parseInt(e.slice(4,6),16)})`}(t);return n===e?f(e):n}function m(t,e="1"){return t&&t!==e?(t=`${n(u(t),3)}`)===e?f(e):t:f(e)}let v={};const b={fill:"none",stroke:"none",opacity:"0.01",transform:"matrix(0.001 0 0 0.001 -10000 -10000)"};function w({element:t,tagType:e="path",property:n="d",attributeValue:r}){return v[r]||(v[r]=function({element:t,tagType:e="path",property:n="d",attributeValue:r}){const i=t.ownerSVGElement,s=document.createElementNS(i.namespaceURI,e);s.setAttributeNS(null,n,r);for(const t in b)s.setAttributeNS(null,t,b[t]);i.appendChild(s);const o=getComputedStyle(s)[n];return s.remove(),o}({element:t,tagType:e,property:n,attributeValue:r})),v[r]}const x=()=>{v={}};"object"==typeof window&&(window.removeEventListener("resize",x),window.addEventListener("resize",x));const A={include:(t,e)=>["path"].includes(e),formatter:t=>function(t,e=""){return t&&t!==e?(t=a(t))===e?f(e):t.startsWith("path(")?t:`path('${t}')`:f(e)}(t)},_={include:(t,e)=>["rect","mask"].includes(e),formatter:(t,e,n)=>g(t,function(t,e){var n;return(null===(n={mask:{x:"-150%",y:"-150%",width:"400%",height:"400%"}}[e])||void 0===n?void 0:n[t])||(["x","y"].includes(t)?"0px":"100%")}(e,n))},S=Object.freeze({d:A,display:t=>d(t),height:_,fill:t=>y(t),"fill-opacity":t=>m(t),filter:t=>d(t,"none"),mask:t=>p(t),opacity:t=>m(t),stroke:t=>y(t,"none"),"stroke-opacity":t=>m(t),"stroke-width":t=>g(t),transform:t=>function(t,e="none"){if(!t||t===e)return f(e);const n=h(t);return n?`matrix(${n.join(", ")})`:t}(t),"transform-origin":t=>function(t,e="0px 0px"){if(!t||t===e)return f(e);const n=["^","\\s*","(?<x>[0-9]+)","(px)?","\\s*",",","\\s*","(?<y>[0-9]+)","(px)?"].join(""),r=t.match(new RegExp(n,"i"));if(!r)return t;let i=`${u(r.groups.x)}`;i=c(i);let s=`${u(r.groups.y)}`;s=c(s);const o=`${i} ${s}`;return o===e?f(e):o}(t),visibility:t=>d(t,"visible"),width:_,x:_,y:_}),k=Object.keys(S),E=e;function I(t,e){return r((e-t)/(e||1)*100,0,E)}function M(t,e,n,r,i=window){var s,o;const u=t.getAttribute(e),l="transform"===e?"none":"",a=(i.safari||function(t){var e,n;const r=null==t?void 0:t.userAgent;return(null==t||null===(e=t.vendor)||void 0===e||null===(n=e.indexOf)||void 0===n?void 0:n.call(e,"Apple"))>-1&&r&&-1===r.indexOf("CriOS")&&-1===r.indexOf("FxiOS")}(null==i?void 0:i.navigator)||i.webkit)&&!i.chrome&&(null===(s=r.getPropertyValue)||void 0===s?void 0:s.call(r,e))===l||"mask"===n?u:null===(o=r.getPropertyValue)||void 0===o?void 0:o.call(r,e);if(u&&a){if(u===a)return u;switch(e){case"transform":return function(t,e){const n=h(t),r=h(e);if((null==n?void 0:n.length)===(null==r?void 0:r.length)){for(let t=0,e=n.length;t<e;t++)if(n[t]!==r[t]&&!I(r[t],n[t]))return;return t}}(u,a);case"d":return function(t,e,n){return w({element:t,attributeValue:e})===n?e:void 0}(t,u,a);default:return a}}}function N(t,e,n,r){var i,s,o;const u="transform"===e||["mask","path"].includes(n)&&["x","y","width","height","d"].includes(e);return r&&u?M(t,e,n,r):(null===(i=r.getPropertyValue)||void 0===i?void 0:i.call(r,e))??(null===(s=t.attrs)||void 0===s||null===(s=s.style)||void 0===s?void 0:s[e])??(null===(o=t.attrs)||void 0===o?void 0:o[e])}function O(t,e,n=!1){l.iD=n;const r="undefined"!=typeof window&&getComputedStyle(t),i={};for(let l=0,a=k.length;l<a;l++){var s,o,u;const a=k[l],c=t.type||t.nodeName;if(!1===(null===(s=(o=S[a]).include)||void 0===s?void 0:s.call(o,a,c)))continue;const f=S[a].formatter||S[a];if(null!=e&&null!==(u=e[t.id])&&void 0!==u&&u[a])continue;const h=N(t,a,c,r);if(null==h&&!n)continue;const d=f.call(this,h,a,c);d&&(i[a]=d)}return i}function B(t){var e,n;if(null==t||null===(e=t.wD)||void 0===e||!e.length)return;this.h=t.wD.shift();const r=null===(n=t.rootId)||void 0===n?void 0:n.slice(0,-1);this.wIs=t.wD.map(t=>`${r}${t}`)}function j(t){const e=new B(t),n=t.svg,r=e.wIs,i=t.originalAnimations[0].elements,s=e.h;function o(t,e,s){var u;if(e[t])return;const l=n.querySelector("#"+t),a=null==l||null===(u=l.parentElement)||void 0===u?void 0:u.id;if(l&&a){if(r.includes(a))return e[a]||o(a,e,s),e[a].children??=[],e[t]=O(l,i),void e[a].children.push(e[t]);e[t]=O(l,i),s.push(e[t])}}async function u(){const t=function(){let t=[],e={};for(let n=0,i=r.length;n<i;n++)o(r[n],e,t);return t}();return await async function(t){var e;const n=JSON.stringify(t),r=(new TextEncoder).encode(n),i=await(null===(e=window.crypto)||void 0===e||null===(e=e.subtle)||void 0===e?void 0:e.digest("SHA-256",r));return i&&Array.from(new Uint8Array(i)).map(t=>t.toString(16).padStart(2,"0")).join("")||s}(t)}this.vH=async function(){await u()!==s&&requestAnimationFrame(()=>t.stop())}}function T(t){let e=0,n=0;const r=new j(t);this.cF=function(i,s){return t.wD?(e++,function(t){return!(t-n<300)&&(t-n>=500||e>=3)}(i)?(e=0,n=i,window.requestAnimationFrame(()=>r.vH()),s()):s()):s()}}function F(t){return t}function C(t,e,n){const r=1-n;return 3*n*r*(t*r+e*n)+n*n*n}function V(t=0,e=0,n=1,i=1){return t<0||t>1||n<0||n>1?null:r(t,e)&&r(n,i)?F:s=>{if(s<=0)return t>0?s*e/t:0===e&&n>0?s*i/n:0;if(s>=1)return n<1?1+(s-1)*(i-1)/(n-1):1===n&&t<1?1+(s-1)*(e-1)/(t-1):1;let o,u=0,l=1;for(;u<l;){o=(u+l)/2;const e=C(t,n,o);if(r(s,e))break;e<s?u=o:l=o}return C(e,i,o)}}function R(){return 1}function $(t){return 1===t?1:0}function D(t=1,e=0){if(1===t){if(0===e)return $;if(1===e)return R}const n=1/t;return t=>t>=1?1:(t+=e*n)-t%n}Number.isInteger||(Number.isInteger=function(t){return"number"==typeof t&&isFinite(t)&&Math.floor(t)===t}),Number.EPSILON||(Number.EPSILON=2220446049250313e-31);const P=Math.sin,q=Math.cos,L=Math.acos,z=Math.asin,G=Math.tan,W=Math.atan2,Y=Math.sqrt;function U(t,e){return{a:t[0]*e[0]+t[2]*e[1],b:t[1]*e[0]+t[3]*e[1],c:t[0]*e[2]+t[2]*e[3],d:t[1]*e[2]+t[3]*e[3],tx:t[0]*e[4]+t[2]*e[5]+t[4],ty:t[1]*e[4]+t[3]*e[5]+t[5]}}function H(t,e,n){return t>=.5?n:e}function J(t,e,n){return 0===t||e===n?e:t*(n-e)+e}function X(t,e,n){const r=J(t,e,n);return r<=0?0:r}function Q(t,e,n){const r=J(t,e,n);return r<=0?0:r>=1?1:r}function Z(t,e,n){return 0===t?e:1===t?n:{x:J(t,e.x,n.x),y:J(t,e.y,n.y)}}function K(t,e,n){return 0===t?e:1===t?n:{x:X(t,e.x,n.x),y:X(t,e.y,n.y)}}function tt(t,e,n){const r=function(t,e,n){return Math.round(J(t,e,n))}(t,e,n);return r<=0?0:r>=255?255:r}function et(t,e,n){return 0===t?e:1===t?n:{r:tt(t,e.r,n.r),g:tt(t,e.g,n.g),b:tt(t,e.b,n.b),a:J(t,null==e.a?1:e.a,null==n.a?1:n.a)}}function nt(t,e,n){let r=e.length;if(r!==n.length)return H(t,e,n);let i=new Array(r);for(let s=0;s<r;s++)i[s]=J(t,e[s],n[s]);return i}function rt(t,e){const n=[];for(let r=0;r<t;r++)n.push(e);return n}function it(t,e){if(--e<=0)return t;const n=(t=Object.assign([],t)).length;do{for(let e=0;e<n;e++)t.push(t[e])}while(--e>0);return t}class st{constructor(t){this.list=t,this.length=t.length}setAttribute(t,e){const n=this.list;for(let r=0;r<this.length;r++)n[r].setAttribute(t,e)}removeAttribute(t){const e=this.list;for(let n=0;n<this.length;n++)e[n].removeAttribute(t)}style(t,e){const n=this.list;for(let r=0;r<this.length;r++)n[r].style[t]=e}}const ot=/-./g,ut=(t,e)=>e.toUpperCase();let lt;function at(t){return"function"==typeof t?t:H}function ct(t){return t?"function"==typeof t?t:Array.isArray(t)?function(t,e=F){if(!Array.isArray(t))return e;switch(t.length){case 1:return D(t[0])||e;case 2:return D(t[0],t[1])||e;case 4:return V(t[0],t[1],t[2],t[3])||e}return e}(t,null):function(t,e,n=F){switch(t){case"linear":return F;case"steps":return D(e.steps||1,e.jump||0)||n;case"bezier":case"cubic-bezier":return V(e.x1||0,e.y1||0,e.x2||0,e.y2||0)||n}return n}(t.type,t.value,null):null}function ft(t,e,n,r=!1){const i=e.length-1;if(t<=e[0].t)return r?[0,0,e[0].v]:e[0].v;if(t>=e[i].t)return r?[i,1,e[i].v]:e[i].v;let s,o=e[0],u=null;for(s=1;s<=i;s++){if(!(t>e[s].t)){u=e[s];break}o=e[s]}return null==u?r?[i,1,e[i].v]:e[i].v:o.t===u.t?r?[s,1,u.v]:u.v:(t=(t-o.t)/(u.t-o.t),o.e&&(t=o.e(t)),r?[s,t,n(t,o.v,u.v)]:n(t,o.v,u.v))}function ht(t,e,n=null){return t&&t.length?"function"!=typeof e?null:("function"!=typeof n&&(n=null),r=>{let i=ft(r,t,e);return null!=i&&n&&(i=n(i)),i}):null}function dt(t,e){return t.t-e.t}function gt(t,e,n,r,i){const s="@"===n[0],o="#"===n[0];let u=lt[n],l=H;var a;switch(s?(a=n.substr(1),n=a.replace(ot,ut)):o&&(n=n.substr(1)),typeof u){case"function":if(l=u(r,i,ft,ct,n,s,e,t),o)return l;break;case"string":l=ht(r,at(u));break;case"object":if(l=ht(r,at(u.i),u.f),l&&"function"==typeof u.u)return u.u(e,l,n,s,t)}return l?function(t,e,n,r=!1){if(r)return t instanceof st?r=>t.style(e,n(r)):r=>t.style[e]=n(r);if(Array.isArray(e)){const r=e.length;return i=>{const s=n(i);if(null==s)for(let n=0;n<r;n++)t[n].removeAttribute(e);else for(let n=0;n<r;n++)t[n].setAttribute(e,s)}}return r=>{const i=n(r);null==i?t.removeAttribute(e):t.setAttribute(e,i)}}(e,n,l,s):null}function pt(t,e,n,r){if(!r||"object"!=typeof r)return null;let i=null,s=null;return Array.isArray(r)?s=function(t){if(!t||!t.length)return null;for(let e=0;e<t.length;e++)t[e].e&&(t[e].e=ct(t[e].e));return t.sort(dt)}(r):(s=r.keys,i=r.data||null),s?gt(t,e,n,s,i):null}function yt(t,e,n){if(!n)return null;const r=[];for(const i in n)if(n.hasOwnProperty(i)){const s=pt(t,e,i,n[i]);s&&r.push(s)}return r.length?r:null}function mt(t,e){if(!e.settings.duration||e.settings.duration<0)return null;const n=function(t,e){if(!e)return null;let n=[];if(Array.isArray(e)){const r=e.length;for(let i=0;i<r;i++){const r=e[i];if(2!==r.length)continue;let s=null;if("string"==typeof r[0])s=t.getElementById(r[0]);else if(Array.isArray(r[0])){s=[];for(let e=0;e<r[0].length;e++)if("string"==typeof r[0][e]){const n=t.getElementById(r[0][e]);n&&s.push(n)}s=s.length?1===s.length?s[0]:new st(s):null}if(!s)continue;const o=yt(t,s,r[1]);o&&(n=n.concat(o))}}else for(const r in e){if(!e.hasOwnProperty(r))continue;const i=t.getElementById(r);if(!i)continue;const s=yt(t,i,e[r]);s&&(n=n.concat(s))}return n.length?n:null}(t,e.elements);return n?function(t,e){const n=e.duration,r=t.length;let i=null;return(s,o)=>{const u=e.iterations||1/0,l=(e.alternate&&u%2==0)^e.direction>0?n:0;let a=s%n,c=1+(s-a)/n;o*=e.direction,e.alternate&&c%2==0&&(o=-o);let f=!1;if(c>u)a=l,f=!0,-1===e.fill&&(a=e.direction>0?0:n);else if(o<0&&(a=n-a),a===i)return!1;i=a;for(let e=0;e<r;e++)t[e](a);return f}}(n,e.settings):null}function vt(t,e=document,n=0){const r=function(t,e){const n=e.querySelectorAll("svg");for(let e=0;e<n.length;e++)if(n[e].id===t.root&&!n[e].svgatorAnimation)return n[e].svgatorAnimation=!0,n[e];return null}(t,e);if(r)return r;if(n>=20)return null;const i=function(t){const e=t=>t.shadowRoot;return document?Array.from(t.querySelectorAll(":not("+["a","area","audio","br","canvas","circle","datalist","embed","g","head","hr","iframe","img","input","link","object","path","polygon","rect","script","source","style","svg","title","track","video"].join()+")")).filter(e).map(e):[]}(e);for(let e=0;e<i.length;e++){const r=vt(t,i[e],n+1);if(r)return r}return null}function bt(t,e=null,n=Number,r="undefined"!=typeof BigInt&&BigInt){const i="0x"+(t.replace(/[^0-9a-fA-F]+/g,"")||27);return e&&r&&n.isSafeInteger&&!n.isSafeInteger(+i)?n(r(i))%e+e:+i}function wt(t,e=27){return!t||t%e?t%e:[0,1].includes(e)?e:wt(t/e,e)}function xt(t,e,n){if(!t||!t.length)return;const r=bt(n),i=wt(r)+5;let s=function(t,e,n){let r="";for(;t&&n&&e<=t.length;)r+=t.substring(0,e),t=t.substring(e+1),e=n;return r+t}(t,wt(r,5),i);return s=s.replace(/\x7c$/g,"==").replace(/\x2f$/g,"="),s=atob(s),s=s.replace(/[\x41-\x5A]/g,""),s=function(t,e,n){const r=+("0x"+t.substring(0,4));t=t.substring(4);const i=bt(e,r)%r+n%27,s=[];for(let e=0;e<t.length;e+=2){if("|"===t[e]){const n=+("0x"+t.substring(e+1,e+1+4))-i;e+=3,s.push(n);continue}const n=+("0x"+t[e]+t[e+1])-i;s.push(n)}return String.fromCharCode(...s)}(s,e,r),s=JSON.parse(s),s}const At=[{key:"alternate",def:!1},{key:"fill",def:1},{key:"iterations",def:0},{key:"direction",def:1},{key:"speed",def:1},{key:"fps",def:100}],_t="5c7f360c";let St=class{_svg;_rootId;constructor(t){this._id=0,this._running=!1,this._rollingBack=!1,this._animations=t.animations,this._settings=t.animationSettings,t.version<"2022-05-02"&&delete this._settings.speed,At.forEach(t=>{this._settings[t.key]=this._settings[t.key]||t.def}),this.duration=t.animationSettings.duration,this.offset=t.animationSettings.offset||0,this.rollbackStartOffset=0,this._rootId=t.root,this._svg=t.svg,this._originalAnimations=t.originalAnimations,this._fTC=new T(this)}get svg(){return this._svg}get rootId(){return this._rootId}get alternate(){return this._settings.alternate}get fill(){return this._settings.fill}get iterations(){return this._settings.iterations}get direction(){return this._settings.direction}get speed(){return this._settings.speed}get fps(){return this._settings.fps}get wD(){return this._settings.w}get originalAnimations(){return this._originalAnimations}get maxFiniteDuration(){return this.iterations>0?this.iterations*this.duration:this.duration}static build(t,e){if(delete t.animationSettings,t.options=xt(t.options,t.root,_t),t.animations.map(e=>{e.settings=xt(e.s,t.root,_t),delete e.s,t.animationSettings||(t.animationSettings=e.settings)}),Object.assign(t,{originalAnimations:t.animations},function(t,e){if(lt=e,!t||!t.root||!Array.isArray(t.animations))return null;const n=t.svg||vt(t);if(!n)return null;const r=t.animations.map(t=>mt(n,t)).filter(t=>!!t);return r.length?{svg:n,animations:r}:null}(t,e)),null==t||!t.svg)return null;const n=t.options||{},r=new this(t);return{el:t.svg,options:n,player:r}}static push(t){return this.build(t)}static init(){const t=window.__SVGATOR_PLAYER__&&window.__SVGATOR_PLAYER__[_t];Array.isArray(t)&&t.splice(0).forEach(t=>this.build(t))}_apply(t,e={}){const n=this._animations,r=n.length;let i=0;for(let s=0;s<r;s++)e[s]?i++:(e[s]=n[s](t,1),e[s]&&i++);return i}_rollback(t){let e=1/0,n=null;this.rollbackStartOffset=t,this._rollingBack=!0,this._running=!0;const r=i=>{if(!this._rollingBack)return;null==n&&(n=i);let s=Math.round(t-(i-n)*this.speed);if(s>this.duration&&e!==1/0){const t=!!this.alternate&&s/this.duration%2>1;let e=s%this.duration;e+=t?this.duration:0,s=e||this.duration}const o=(this.fps?1e3/this.fps:0)*this.speed,u=Math.max(0,s);u<=e-o&&(this.offset=u,e=u,this._apply(u));const l=this.iterations>0&&-1===this.fill&&s>=this.maxFiniteDuration;(s<=0||this.offset<s||l)&&this.stop(),this._id=window.requestAnimationFrame(r)};this._id=window.requestAnimationFrame(r)}_start(t=0){let e,n=-1/0;const r={};this._running=!0;const i=s=>{e??=s;const o=Math.round((s-e)*this.speed+t),u=(this.fps?1e3/this.fps:0)*this.speed;o>=n+u&&!this._rollingBack&&this._fTC.cF(s,()=>{this.offset=o,n=o;if(this._apply(o,r)===this._animations.length)return this.pause(!0),!0})||(this._id=window.requestAnimationFrame(i))};this._id=window.requestAnimationFrame(i)}_pause(){this._id&&window.cancelAnimationFrame(this._id),this._running=!1}play(){if(!this._running)return this._rollingBack?this._rollback(this.offset):this._start(this.offset)}stop(){this._pause(),this.offset=0,this.rollbackStartOffset=0,this._rollingBack=!1,this._apply(0)}reachedToEnd(){return this.iterations>0&&this.offset>=this.iterations*this.duration}restart(t=!1){this.stop(t),this.play(t)}pause(){this._pause()}toggle(){return this._running?this.pause():this.reachedToEnd()?this.restart():this.play()}trigger(t,e){}_adjustOffset(t=!1){const e=this.alternate?2*this.duration:this.duration;if(t){if(!this._rollingBack&&0===this.offset)return void(this.offset=e);this._rollingBack&&(this.offset,this.maxFiniteDuration)}!this._rollingBack||this.rollbackStartOffset<=this.duration?0!==this.iterations&&(this.offset=Math.min(this.offset,this.maxFiniteDuration)):(this.offset=this.rollbackStartOffset-(this.rollbackStartOffset-this.offset)%e,this.rollbackStartOffset=0)}reverse(t=!1){if(!this._running)return this._adjustOffset(t),this._rollingBack=!this._rollingBack,t&&this.play(!1),void this.trigger("reverse",this.offset);this.pause(!1,!1),this._adjustOffset(),this._rollingBack=!this._rollingBack,this.play(!1),this.trigger("reverse",this.offset)}};function kt(t){return n(t)+""}function Et(t,e=" "){return t&&t.length?t.map(kt).join(e):""}function It(t){return kt(t.x)+","+kt(t.y)}function Mt(t){return t?null==t.a||t.a>=1?function(t){if(!t)return"transparent";const e=t=>parseInt(t).toString(16).padStart(2,"0");return function(t){const e=[];let n="#"===t[0]?e.push("#"):0;for(;n<t.length;n+=2){if(t[n]!==t[n+1])return t;e.push(t[n])}return e.join("")}("#"+e(t.r)+e(t.g)+e(t.b)+(null==t.a||t.a>=1?"":e(255*t.a)))}(t):"rgba("+t.r+","+t.g+","+t.b+","+t.a+")":"transparent"}function Nt(t){return t?"url(#"+t+")":"none"}!function(){for(var t=0,e=["ms","moz","webkit","o"],n=0;n<e.length&&!window.requestAnimationFrame;++n)window.requestAnimationFrame=window[e[n]+"RequestAnimationFrame"],window.cancelAnimationFrame=window[e[n]+"CancelAnimationFrame"]||window[e[n]+"CancelRequestAnimationFrame"];window.requestAnimationFrame||(window.requestAnimationFrame=function(e){var n=Date.now(),r=Math.max(0,16-(n-t)),i=window.setTimeout(function(){e(n+r)},r);return t=n+r,i},window.cancelAnimationFrame=window.clearTimeout)}();var Ot={f:null,i:K,u:(t,e)=>n=>{const r=e(n);t.setAttribute("rx",kt(r.x)),t.setAttribute("ry",kt(r.y))}},Bt={f:null,i:function(t,e,n){return 0===t?e:1===t?n:{width:X(t,e.width,n.width),height:X(t,e.height,n.height)}},u:(t,e)=>n=>{const r=e(n);t.setAttribute("width",kt(r.width)),t.setAttribute("height",kt(r.height))}};let jt={},Tt=null;function Ft(t){let e=function(){if(Tt)return Tt;if("object"!=typeof document||!document.createElementNS)return{};let t=document.createElementNS("http://www.w3.org/2000/svg","svg");return t&&t.style?(t.style.position="absolute",t.style.opacity="0.01",t.style.zIndex="-9999",t.style.left="-9999px",t.style.width="1px",t.style.height="1px",Tt={svg:t},Tt):{}}().svg;if(!e)return function(t){return null};let n=document.createElementNS(e.namespaceURI,"path");n.setAttributeNS(null,"d",t),n.setAttributeNS(null,"fill","none"),n.setAttributeNS(null,"stroke","none"),e.appendChild(n);let r=n.getTotalLength();return function(t){let e=n.getPointAtLength(r*t);return{x:e.x,y:e.y}}}function Ct(t,e,n,r,i=1){let s=function(t){return jt[t]?jt[t]:jt[t]=Ft(t)}(function(t,e,n,r){if(!t||!r)return!1;let i=["M",t.x,t.y];if(e&&n&&(i.push("C"),i.push(e.x),i.push(e.y),i.push(n.x),i.push(n.y)),e?!n:n){let t=e||n;i.push("Q"),i.push(t.x),i.push(t.y)}return e||n||i.push("L"),i.push(r.x),i.push(r.y),i.join(" ")}(t,e,n,r));try{return s(i)}catch(t){return null}}function Vt(t,e,n){return t+(e-t)*n}function Rt(t,e,n,r=!1){const i={x:Vt(t.x,e.x,n),y:Vt(t.y,e.y,n)};return r&&(i.a=function(t,e){return Math.atan2(e.y-t.y,e.x-t.x)}(t,e)),i}function $t(t,e,n,r){const i=1-r;return i*i*t+2*i*r*e+r*r*n}function Dt(t,e,n,r){return 2*(1-r)*(e-t)+2*r*(n-e)}function Pt(t,e,n,r,i=!1){let s=Ct(t,e,null,n,r);return s||(s={x:$t(t.x,e.x,n.x,r),y:$t(t.y,e.y,n.y,r)}),i&&(s.a=function(t,e,n,r){return Math.atan2(Dt(t.y,e.y,n.y,r),Dt(t.x,e.x,n.x,r))}(t,e,n,r)),s}function qt(t,e,n,r,i){const s=i*i;return i*s*(r-t+3*(e-n))+3*s*(t+n-2*e)+3*i*(e-t)+t}function Lt(t,e,n,r,i){const s=1-i;return 3*(s*s*(e-t)+2*s*i*(n-e)+i*i*(r-n))}function zt(t,e,n,r,i,s=!1){let o=Ct(t,e,n,r,i);return o||(o={x:qt(t.x,e.x,n.x,r.x,i),y:qt(t.y,e.y,n.y,r.y,i)}),s&&(o.a=function(t,e,n,r,i){return Math.atan2(Lt(t.y,e.y,n.y,r.y,i),Lt(t.x,e.x,n.x,r.x,i))}(t,e,n,r,i)),o}function Gt(t,e,n,r=!1){if(Yt(e)){if(Ut(n))return Pt(e,n.start,n,t,r)}else if(Yt(n)){if(Ht(e))return Pt(e,e.end,n,t,r)}else{if(Ht(e))return Ut(n)?zt(e,e.end,n.start,n,t,r):Pt(e,e.end,n,t,r);if(Ut(n))return Pt(e,n.start,n,t,r)}return Rt(e,n,t,r)}function Wt(t,e,n){const r=Gt(t,e,n,!0);return r.a=o(function(t,e=!1){return e?t+Math.PI:t}(r.a)),r}function Yt(t){return!t.type||"corner"===t.type}function Ut(t){return null!=t.start&&!Yt(t)}function Ht(t){return null!=t.end&&!Yt(t)}const Jt=new class{constructor(t=1,e=0,n=0,r=1,i=0,s=0){this.m=[t,e,n,r,i,s],this.i=null,this.w=null,this.s=null}get determinant(){const t=this.m;return t[0]*t[3]-t[1]*t[2]}get isIdentity(){if(null===this.i){const t=this.m;this.i=1===t[0]&&0===t[1]&&0===t[2]&&1===t[3]&&0===t[4]&&0===t[5]}return this.i}point(t,e){const n=this.m;return{x:n[0]*t+n[2]*e+n[4],y:n[1]*t+n[3]*e+n[5]}}translateSelf(t=0,e=0){if(!t&&!e)return this;const n=this.m;return n[4]+=n[0]*t+n[2]*e,n[5]+=n[1]*t+n[3]*e,this.w=this.s=this.i=null,this}rotateSelf(t=0){if(t%=360){t=s(t);const e=P(t),n=q(t),r=this.m,i=r[0],o=r[1];r[0]=i*n+r[2]*e,r[1]=o*n+r[3]*e,r[2]=r[2]*n-i*e,r[3]=r[3]*n-o*e,this.w=this.s=this.i=null}return this}scaleSelf(t=1,e=1){if(1!==t||1!==e){const n=this.m;n[0]*=t,n[1]*=t,n[2]*=e,n[3]*=e,this.w=this.s=this.i=null}return this}skewSelf(t,e){if(e%=360,(t%=360)||e){const n=this.m,r=n[0],i=n[1],o=n[2],u=n[3];t&&(t=G(s(t)),n[2]+=r*t,n[3]+=i*t),e&&(e=G(s(e)),n[0]+=o*e,n[1]+=u*e),this.w=this.s=this.i=null}return this}resetSelf(t=1,e=0,n=0,r=1,i=0,s=0){const o=this.m;return o[0]=t,o[1]=e,o[2]=n,o[3]=r,o[4]=i,o[5]=s,this.w=this.s=this.i=null,this}recomposeSelf(t=null,e=null,n=null,r=null,i=null){return this.isIdentity||this.resetSelf(),t&&(t.x||t.y)&&this.translateSelf(t.x,t.y),e&&this.rotateSelf(e),n&&(n.x&&this.skewSelf(n.x,0),n.y&&this.skewSelf(0,n.y)),!r||1===r.x&&1===r.y||this.scaleSelf(r.x,r.y),i&&(i.x||i.y)&&this.translateSelf(i.x,i.y),this}decompose(t=0,e=0){const r=this.m,i=r[0]*r[0]+r[1]*r[1],s=[[r[0],r[1]],[r[2],r[3]]];let u=Y(i);if(0===u)return{origin:{x:n(r[4]),y:n(r[5])},translate:{x:n(t),y:n(e)},scale:{x:0,y:0},skew:{x:0,y:0},rotate:0};s[0][0]/=u,s[0][1]/=u;const l=r[0]*r[3]-r[1]*r[2]<0;l&&(u=-u);let a=s[0][0]*s[1][0]+s[0][1]*s[1][1];s[1][0]-=s[0][0]*a,s[1][1]-=s[0][1]*a;let c,f=Y(s[1][0]*s[1][0]+s[1][1]*s[1][1]);return 0===f?{origin:{x:n(r[4]),y:n(r[5])},translate:{x:n(t),y:n(e)},scale:{x:n(u),y:0},skew:{x:0,y:0},rotate:0}:(s[1][0]/=f,s[1][1]/=f,a/=f,s[1][1]<0?(c=o(L(s[1][1])),s[0][1]<0&&(c=360-c)):c=o(z(s[0][1])),l&&(c=-c),a=o(W(a,Y(s[0][0]*s[0][0]+s[0][1]*s[0][1]))),l&&(a=-a),{origin:{x:n(r[4]),y:n(r[5])},translate:{x:n(t),y:n(e)},scale:{x:n(u),y:n(f)},skew:{x:n(a),y:0},rotate:n(c)})}multiply(t){return this.clone().multiplySelf(t)}preMultiply(t){return t.multiply(this)}multiplySelf(t){const{a:e,b:n,c:r,d:i,tx:s,ty:o}=U(this.m,t.m);return this.resetSelf(e,n,r,i,s,o),this}preMultiplySelf(t){const{a:e,b:n,c:r,d:i,tx:s,ty:o}=U(t.m,this.m);return this.resetSelf(e,n,r,i,s,o),this}clone(){const t=this.m;return new this.constructor(t[0],t[1],t[2],t[3],t[4],t[5])}static create(t){return t?Array.isArray(t)?new this(...t):t instanceof this?t.clone():(new this).recomposeSelf(t.origin,t.rotate,t.skew,t.scale,t.translate):new this}toString(t=" ",e=!1){if(null===this.s){let r=this.m.map(t=>n(t));e||1!==r[0]||0!==r[1]||0!==r[2]||1!==r[3]?this.s="matrix("+r.join(t)+")":this.s="translate("+r[4]+t+r[5]+")"}return this.s}};var Xt={f:function(t){return t?t.join(" "):""},i:function(t,e,n){if(0===t)return e;if(1===t)return n;let r=e.length;if(r!==n.length)return H(t,e,n);let i,s=new Array(r);for(let o=0;o<r;o++){if(i=typeof e[o],i!==typeof n[o])return H(t,e,n);if("number"===i)s[o]=J(t,e[o],n[o]);else{if(e[o]!==n[o])return H(t,e,n);s[o]=e[o]}}return s}},Qt={f:Et,i:nt},Zt={f:null,i:nt,u:(t,e)=>n=>{const r=e(n);t.setAttribute("x1",kt(r[0])),t.setAttribute("y1",kt(r[1])),t.setAttribute("x2",kt(r[2])),t.setAttribute("y2",kt(r[3]))}},Kt={f:kt,i:J},te={f:kt,i:Q},ee={f:function(t,e=" "){return t&&t.length>0&&(t=t.map(t=>n(t,4))),Et(t,e)},i:function(t,e,r){let i=e.length,s=r.length;if(i!==s)if(0===i)i=s,e=rt(i,0);else if(0===s)s=i,r=rt(i,0);else{const t=function(t,e){const n=t*e/function(t,e){let n;for(;e;)n=e,e=t%e,t=n;return t||1}(t,e);return n<0?-n:n}(i,s);e=it(e,Math.floor(t/i)),r=it(r,Math.floor(t/s)),i=s=t}let o=[];for(let s=0;s<i;s++)o.push(n(X(t,e[s],r[s])));return o}},ne={f:kt,i:J};function re(t,e,r){return t.map(t=>function(t,e,r){let i=t.v;if(!i||"g"!==i.t||i.s||!i.v||!i.r)return t;const s=r.getElementById(i.r),o=s&&s.querySelectorAll("stop")||[];return i.s=i.v.map((t,e)=>{let r=o[e]&&o[e].getAttribute("offset");return r=n(parseInt(r)/100),{c:t,o:r}}),delete i.v,t}(t,0,r))}const ie={gt:"gradientTransform",c:{x:"cx",y:"cy"},rd:"r",f:{x:"x1",y:"y1"},to:{x:"x2",y:"y2"}};function se(t,e,n,r,i,s,o,u){return re(t,0,u),e=function(t,e,n){let r,i,s;const o=t.length-1,u={};for(let l=0;l<=o;l++)r=t[l],r.e&&(r.e=e(r.e)),r.v&&(i=r.v,"g"===i.t&&i.r&&(s=n.getElementById(i.r),s&&(u[i.r]={e:s,s:s.querySelectorAll("stop")})));return u}(t,r,u),r=>{const i=n(r,t,oe);if(!i)return"none";if("c"===i.t)return Mt(i.v);if("g"===i.t){if(!e[i.r])return Nt(i.r);const t=e[i.r];return function(t,e){let n=t.s;for(let r=n.length;r<e.length;r++){const e=n[n.length-1].cloneNode();e.id=ae(e.id),t.e.appendChild(e),n=t.s=t.e.querySelectorAll("stop")}for(let t=0,r=n.length,i=e.length-1;t<r;t++)n[t].setAttribute("stop-color",Mt(e[Math.min(t,i)].c)),n[t].setAttribute("offset",e[Math.min(t,i)].o)}(t,i.s),Object.keys(ie).forEach(e=>{if(void 0===i[e])return;if("object"==typeof ie[e])return void Object.keys(ie[e]).forEach(n=>{if(void 0===i[e][n])return;const r=i[e][n],s=ie[e][n];t.e.setAttribute(s,r)});const n="gt"===e?(r=i[e],Array.isArray(r)?"matrix("+r.join(" ")+")":""):i[e];var r;const s=ie[e];t.e.setAttribute(s,n)}),Nt(i.r)}return"none"}}function oe(t,e,n){if(0===t)return e;if(1===t)return n;if(e&&n){const r=e.t;if(r===n.t)switch(e.t){case"c":return{t:r,v:et(t,e.v,n.v)};case"g":if(e.r===n.r){const i={t:r,s:ue(t,e.s,n.s),r:e.r};return e.gt&&n.gt&&(i.gt=nt(t,e.gt,n.gt)),e.c?(i.c=Z(t,e.c,n.c),i.rd=X(t,e.rd,n.rd)):e.f&&(i.f=Z(t,e.f,n.f),i.to=Z(t,e.to,n.to)),i}}if("c"===e.t&&"g"===n.t||"c"===n.t&&"g"===e.t){const r="c"===e.t?e:n,i="g"===e.t?{...e}:{...n},s=i.s.map(t=>({c:r.v,o:t.o}));return i.s="c"===e.t?ue(t,s,i.s):ue(t,i.s,s),i}}return H(t,e,n)}function ue(t,e,n){if(e.length===n.length)return e.map((e,r)=>le(t,e,n[r]));const r=Math.max(e.length,n.length),i=[];for(let s=0;s<r;s++){const r=le(t,e[Math.min(s,e.length-1)],n[Math.min(s,n.length-1)]);i.push(r)}return i}function le(t,e,n){return{o:Q(t,e.o,n.o||0),c:et(t,e.c,n.c||{})}}function ae(t){return t.replace(/-fill-([0-9]+)$/,(t,e)=>"-fill-"+(+e+1))}function ce(t,e,n){return 0===t?e:1===t?n:{blur:K(t,e.blur,n.blur),offset:Z(t,e.offset,n.offset),color:et(t,e.color,n.color)}}const fe={blur:K,brightness:X,contrast:X,"drop-shadow":ce,"inner-shadow":ce,grayscale:X,"hue-rotate":J,invert:X,opacity:X,saturate:X,sepia:X};function he(t,e,n){if(0===t)return e;if(1===t)return n;const r=e.length;if(r!==n.length)return H(t,e,n);const i=[];let s;for(let o=0;o<r;o++){if(e[o].type!==n[o].type)return e;if(s=fe[e[o].type],!s)return H(t,e,n);i.push({type:e.type,value:s(t,e[o].value,n[o].value)})}return i}const de={blur:t=>t?e=>{t.setAttribute("stdDeviation",It(e))}:null,brightness:(t,e,n)=>(t=pe(n,e))?e=>{e=kt(e),t.map(t=>t.setAttribute("slope",e))}:null,contrast:(t,e,n)=>(t=pe(n,e))?e=>{const n=kt((1-e)/2);e=kt(e),t.map(t=>{t.setAttribute("slope",e),t.setAttribute("intercept",n)})}:null,"drop-shadow"(t,e,n){const r=n.getElementById(e+"-blur");if(!r)return null;const i=n.getElementById(e+"-offset");if(!i)return null;const s=n.getElementById(e+"-flood");return s?t=>{r.setAttribute("stdDeviation",It(t.blur)),i.setAttribute("dx",kt(t.offset.x)),i.setAttribute("dy",kt(t.offset.y)),s.setAttribute("flood-color",Mt(t.color))}:null},"inner-shadow"(t,e,n){const r=n.getElementById(e+"-blur");if(!r)return null;const i=n.getElementById(e+"-offset");if(!i)return null;const s=n.getElementById(e+"-color-matrix");return s?t=>{r.setAttribute("stdDeviation",It(t.blur)),i.setAttribute("dx",kt(t.offset.x)),i.setAttribute("dy",kt(t.offset.y));const e=[0,0,0,0,t.color.r/255,0,0,0,0,t.color.g/255,0,0,0,0,t.color.b/255,0,0,0,t.color.a,0];s.setAttribute("values",Et(e))}:null},grayscale:t=>t?e=>{t.setAttribute("values",Et(function(t){return[.2126+.7874*(t=1-t),.7152-.7152*t,.0722-.0722*t,0,0,.2126-.2126*t,.7152+.2848*t,.0722-.0722*t,0,0,.2126-.2126*t,.7152-.7152*t,.0722+.9278*t,0,0,0,0,0,1,0]}(e)))}:null,"hue-rotate":t=>t?e=>t.setAttribute("values",kt(e)):null,invert:(t,e,n)=>(t=pe(n,e))?e=>{e=kt(e)+" "+kt(1-e),t.map(t=>t.setAttribute("tableValues",e))}:null,opacity:(t,e,n)=>(t=n.getElementById(e+"-A"))?e=>t.setAttribute("tableValues","0 "+kt(e)):null,saturate:t=>t?e=>t.setAttribute("values",kt(e)):null,sepia:t=>t?e=>t.setAttribute("values",Et(function(t){return[.393+.607*(t=1-t),.769-.769*t,.189-.189*t,0,0,.349-.349*t,.686+.314*t,.168-.168*t,0,0,.272-.272*t,.534-.534*t,.131+.869*t,0,0,0,0,0,1,0]}(e))):null};const ge=["R","G","B"];function pe(t,e){const n=ge.map(n=>t.getElementById(e+"-"+n)||null);return-1!==n.indexOf(null)?null:n}var ye={fill:se,"fill-opacity":te,stroke:se,"stroke-opacity":te,"stroke-width":Kt,"stroke-dashoffset":ne,"stroke-dasharray":ee,opacity:te,transform:function(t,e,n,r){if(!(t=function(t,e){if(!t||"object"!=typeof t)return null;let n=!1;for(const r in t)t.hasOwnProperty(r)&&(t[r]&&t[r].length?(t[r].forEach(t=>{t.e&&(t.e=e(t.e))}),n=!0):delete t[r]);return n?t:null}(t,r)))return null;const i=(r,i,s,o=null)=>t[r]?n(i,t[r],s):e&&e[r]?e[r]:o;return e&&e.a&&t.o?e=>{const r=n(e,t.o,Wt);return Jt.recomposeSelf(r,i("r",e,J,0)+r.a,i("k",e,Z),i("s",e,Z),i("t",e,Z)).toString()}:t=>Jt.recomposeSelf(i("o",t,Gt,null),i("r",t,J,0),i("k",t,Z),i("s",t,Z),i("t",t,Z)).toString()},"#filter":function(t,e,n,r,i,s,o,u){if(!e.items||!t||!t.length)return null;const l=function(t,e){t=t.map(t=>t&&de[t[0]]?(e.getElementById(t[1]),de[t[0]](e.getElementById(t[1]),t[1],e)):null);const n=t.length;return e=>{for(let r=0;r<n;r++)t[r]&&t[r](e[r].value)}}(e.items,u);return l?(t=function(t,e){return t.map(t=>(t.e=e(t.e),t))}(t,r),e=>{l(n(e,t,he))}):null},"#line":Zt,points:Qt,d:Xt,r:Kt,"#size":Bt,"#radius":Ot,_(t,e){if(Array.isArray(t))for(let n=0;n<t.length;n++)this[t[n]]=e;else this[t]=e}};let me=function(t,e,n=n){let r=!1,i=null;return function(s){r&&clearTimeout(r),r=setTimeout(()=>function(){let s=0,o=n.innerHeight,u=0,l=n.innerWidth,a=t.parentNode;for(;a instanceof Element;){let t=n.getComputedStyle(a);if("visible"!==t.overflowY||"visible"!==t.overflowX){let e=a.getBoundingClientRect();"visible"!==t.overflowY&&(s=Math.max(s,e.top),o=Math.min(o,e.bottom)),"visible"!==t.overflowX&&(u=Math.max(u,e.left),l=Math.min(l,e.right))}if(a===a.parentNode)break;a=a.parentNode}r=!1;let c=t.getBoundingClientRect(),f=Math.min(c.height,Math.max(0,s-c.top)),h=Math.min(c.height,Math.max(0,c.bottom-o)),d=Math.min(c.width,Math.max(0,u-c.left)),g=Math.min(c.width,Math.max(0,c.right-l)),p=(c.height-f-h)/c.height,y=(c.width-d-g)/c.width,m=Math.round(p*y*100);null!==i&&i===m||(i=m,e(m))}(),100)}};class ve{constructor(t,e,n){const r=function(t){var e;const n=t&&1===(null===(e=t.ownerDocument)||void 0===e||null===(e=e.childNodes)||void 0===e?void 0:e.length)&&window.parent!==window,r={el:t,window:window};if(!n)return r;let i;try{i=window.parent.document}catch(t){return r}return r.window=window.parent,r.el=Array.from(i.querySelectorAll("iframe,object")).filter(t=>t.contentWindow===window)[0]||r.el,r}(t);e=Math.max(1,e||1),e=Math.min(e,100),this.el=r.el,this._handlers=[],this.onThresholdChange=n&&n.call?n:()=>{},this.thresholdPercent=e||1,this.currentVisibility=null,this.visibilityCalculator=me(this.el,this.onVisibilityUpdate.bind(this),r.window),this.bindScrollWatchers(),this.visibilityCalculator()}bindScrollWatchers(){let t=this.el.parentNode;for(;t&&(this._handlers.push({element:t,event:"scroll",handler:this.visibilityCalculator}),t.addEventListener("scroll",this.visibilityCalculator),t!==t.parentNode&&t!==document);)t=t.parentNode}onVisibilityUpdate(t){let e=this.currentVisibility>=this.thresholdPercent,n=t>=this.thresholdPercent;if(null===this.currentVisibility||e!==n)return this.currentVisibility=t,void this.onThresholdChange(n);this.currentVisibility=t}destruct(){this._handlers.forEach(t=>{t.element.removeEventListener(t.event,t.handler)})}}class be{static adjustLink(t){var e;const n=t&&1===(null===(e=t.ownerDocument)||void 0===e||null===(e=e.childNodes)||void 0===e?void 0:e.length)&&window.parent!==window,r=null==t?void 0:t.firstElementChild;n&&r&&"a"===r.tagName&&!r.getAttribute("target")&&r.setAttributeNS(null,"target","_parent")}static autoPlay(t,e,n,r=[]){if("click"===n.start){const i=()=>{switch(n.click){case"freeze":return!t._running&&t.reachedToEnd()?t.restart():t.toggle();case"restart":return t.offset>0?t.restart():t.play();case"reverse":return t._running?t.reverse():t.reachedToEnd()?1===t.fill?t.reverse(!0):t.restart():t.play();default:if(t._running)return;return t.reachedToEnd()?t.restart():t.play()}};return r.push({element:e,event:"click",handler:i}),void e.addEventListener("click",i)}if("hover"===n.start){const i=()=>t.reachedToEnd()?t.restart():t._rollingBack?t.reverse():t.play();r.push({element:e,event:"mouseenter",handler:i}),e.addEventListener("mouseenter",i);const s=()=>{switch(n.hover){case"freeze":return t.pause();case"reset":return t.stop();case"reverse":if(t.reverse(),t._running)return;return t.play();default:return}};return r.push({element:e,event:"mouseleave",handler:s}),void e.addEventListener("mouseleave",s)}if("scroll"===n.start){const i=new ve(e,n.scroll||25,function(e){e?t.reachedToEnd()?t.restart():t.play():t.pause()});return void r.push({callback:()=>i.destruct()})}"programmatic"!==n.start&&t.play()}}class we extends St{static build(t){let e=super.build(t,ye);if(!e)return null;let{el:n,options:r,player:i}=e;be.adjustLink(n),i.play()}}return we.init(),we});
(function(s,i,o,w,d,a,b){w[o]=w[o]||{};w[o][s]=w[o][s]||[];w[o][s].push(i);})('5c7f360c',{"root":"eHWwLjxZABP1","version":"2025-04-07","animations":[{"elements":{"eHWwLjxZABP2":{"transform":{"data":{"o":{"x":229.967559,"y":105.174,"type":"corner"},"t":{"x":-227.945746,"y":-105.174}},"keys":{"s":[{"t":0,"v":{"x":0,"y":0},"e":[0.42,0,0.58,1]},{"t":2600,"v":{"x":1,"y":1}}]}}},"eHWwLjxZABP77":{"transform":{"data":{"t":{"x":-227.271858,"y":-48.1521}},"keys":{"o":[{"t":1200,"v":{"x":226.270113,"y":29.1477,"type":"corner"},"e":[0.42,0,1,1]},{"t":1400,"v":{"x":227.271858,"y":48.1521,"type":"corner"}}]}},"opacity":[{"t":1200,"v":0,"e":[0.42,0,1,1]},{"t":1400,"v":1}]},"eHWwLjxZABP90":{"transform":{"data":{"o":{"x":135.33781,"y":207.03926,"type":"corner"},"t":{"x":-135.33781,"y":-207.03926}},"keys":{"r":[{"t":0,"v":720,"e":[0.415,0.08,0.115,0.955]},{"t":7700,"v":0,"e":[1,0]}]}},"fill":[{"t":0,"v":{"t":"c","v":{"r":255,"g":255,"b":255,"a":1}}},{"t":7700,"v":{"t":"c","v":{"r":210,"g":219,"b":236,"a":1}}}]},"eHWwLjxZABP91":{"transform":{"data":{"o":{"x":11.12,"y":29.9,"type":"corner"},"s":{"x":0.3,"y":0.3},"t":{"x":-95.902813,"y":-108.465}},"keys":{"r":[{"t":0,"v":-720,"e":[0.415,0.08,0.115,0.955]},{"t":7700,"v":0,"e":[1,0]}]}}}},"s":"MODBjZXwwMTBlYjVmN3TwwMTA4fDAxMDVIZjRK8MDEwN2ZjfDAxMDJ8VMDEwMWI1V2NkYzZjMG1VjM2MzYmZiNU9mN1BVmY3wwMTA1QmY4ZjZV8MDEwN2ZjfDAxMDJ8RMDEwMWI1Y2RjNGJmUXGI1RWZjfDAxMDdmOHQwwMTA1ZjR8MDEwN2ZIjfDAxMDJ8MDEwMUJ8LMDEwNmI1SWNkYzRiZFmI1ZjlmY2ZmZmZiNWGNkYzRiZmI1ZjRBZmZR8MDEwN2Y4fDAxMDV8KMDEwMWY0Q3wwMTA3ZBjhiNWNkZjlmNGZmfDEAxMDZmOGJmYjV8MDEOwNnwwMTAzZjhmOGY3AYjVjZGM0YmZJYjVUZYjl8MDEwM3wwMTA2YjFVjZGM0YzNjM2JmYjVX8MDEwYWI1Y2RLZWViSNWM3Y2JjYmNiYzdjMH2Y3YzNmNWM4YzhmN2GY0YzdjNERjNGM1ZjVMmOGM0ZjVjYWM3R2Y0GZjRjY2M2Y2FmN0pjYVmM1ZjRmN2Y5ZjRjYmJNiSWM4YzZmNmNjYzhCHZjlmNGNhYzdjNWY1LYzRjM2NjYzRjM2MzZPjVmOWY5Y2NmNEpjYmEMzYzljNmY5YjViZmIP1Y2JjN2I1YmZiNWNiJYzhiNWJmYjVjYmM5YBjVHYmZiNVdjYmNhYjJViZmI1Y2JjYmI1YmZLiNWNiVmNjYjViZk1iANWNjYzNiNWJmYjVQYQ2NjNENiNWYwfDAxMTMA/"}],"options":"MMDAxMDg4MmY4MDgxNmJU3ZjgxMmY0N04yZjcA5N2M2ZTcxMmY4YQ|"},'__SVGATOR_PLAYER__',window,document)
]]></script>
</svg>
