<svg width="480" height="235" viewBox="0 0 480 235" fill="none" xmlns="http://www.w3.org/2000/svg">
<g clip-path="url(#clip0_155_107)">
<path d="M263.059 29.7505C266.172 31.2136 277.86 37.7618 279.818 39.7108C285.959 45.8218 264.507 64.5088 260.812 67.7419C272.449 69.3687 278.261 76.4723 278.758 87.9665C278.934 92.04 280.513 95.8451 285.17 96.2697C294.962 96.8476 289.623 79.1842 291.424 75.5447C291.97 74.4429 302.633 73.7802 304.357 73.4301C307.637 72.9798 310.877 71.4563 313.567 73.2947C318.074 81.1481 302.317 106.873 337.478 91.292C341.769 89.2162 346.683 86.003 350.632 83.3818L350.582 82.9821C329.748 80.5169 327.059 104.026 322.98 64.9239C338.593 58.8684 360.514 65.5081 375.337 71.4905C375.464 74.0274 375.355 76.4335 375.396 79.1806C375.423 81.1869 373.758 93.4382 374.557 94.4957C376.141 96.5976 381.894 95.4486 384.439 94.9428C389.908 85.569 384.872 78.8702 384.633 68.9609C388.595 67.4193 402.764 63.888 407.024 63.3778C407.944 67.3123 408.301 71.7576 408.256 75.7991C408.757 91.4716 405.481 102.996 389.2 108.52C388.473 108.862 388.175 109.133 387.453 109.095C374.232 109.546 366.452 110.804 357.779 98.3495C343.507 105.647 317.014 117.712 304.406 101.802C295.359 109.556 279.674 113.803 270.956 103.366C270.649 102.996 270.351 102.618 270.062 102.232C257.084 109.733 243.849 108.035 230.073 110.951C228.041 111.381 226.185 125.384 225.571 127.381C225.435 133.848 213.115 155.391 206.202 154.628C204.265 153.391 192.716 141.351 191.703 138.132C191.613 137.844 191.49 136.935 191.454 136.566L191.477 135.277C192.507 133.986 198.209 129.911 200.001 128.491C208.233 120.797 208.956 114.4 213.687 104.985C219.398 93.5654 234.991 97.6705 245.176 94.3761C248.186 93.6055 258.943 90.128 256.962 85.6624C254.368 79.8167 245.686 84.7556 242.699 86.2178C233.34 70.054 237.708 74.6148 246.466 61.1905C252.581 51.8123 258.388 39.9318 263.059 29.7505Z" fill="#DC4649"/>
<path d="M405.896 66.5305L406.636 66.2039C407.177 69.454 406.938 73.8465 408.256 75.7992C408.757 91.4716 405.481 102.996 389.2 108.52C388.473 108.862 388.175 109.133 387.453 109.095C374.232 109.546 366.452 110.804 357.779 98.3495C343.507 105.647 317.014 117.712 304.406 101.802C295.359 109.556 279.674 113.803 270.956 103.366C270.649 102.996 270.351 102.618 270.062 102.232C257.084 109.733 243.849 108.036 230.073 110.951C228.041 111.381 226.185 125.384 225.571 127.381C225.435 133.848 213.115 155.391 206.202 154.628C204.265 153.391 192.716 141.351 191.703 138.132C191.613 137.844 191.49 136.935 191.454 136.566L193.48 136.318C197.363 141.02 202.802 147.277 207.073 151.468C216.462 143.805 221.247 136.284 223.837 124.35C224.618 120.755 226.161 108.228 229.779 107.087C235.438 105.302 243.425 105.962 249.58 104.987C257.779 103.69 263.42 102.049 270.653 98.0509C280.283 110.603 295.133 107.207 304.781 96.5864C307.475 101.079 309.988 103.656 315.227 105.169C327.835 108.805 347.938 100.092 358.655 94.0062C364.02 102.689 370.437 106.508 380.739 106.069C406.451 104.975 406.753 85.8244 405.896 66.5305Z" fill="#1E3656"/>
<path d="M263.059 29.7505C266.172 31.2136 277.859 37.7618 279.818 39.7108C285.959 45.8218 264.507 64.5088 260.811 67.7418L260.64 69.2465L261.791 69.9246C257.919 69.6115 255.275 69.6927 251.385 70.3297C263.198 62.318 272.183 54.4998 279.434 41.8231C274.493 38.2287 269.38 35.5461 264.02 32.6361C259.313 43.1152 255.072 51.5483 248.637 61.2839C245.871 65.4743 241.597 70.3089 239.287 73.9214C240.632 76.6347 241.976 79.4337 243.429 82.0842C246.507 80.5715 251.439 77.9313 254.476 79.5487C264.259 84.7551 258.366 91.3484 251.489 94.2674C240.438 98.9577 231.101 96.5823 220.436 100.999C215.132 103.389 212.12 114.902 209.031 120.251C206.593 124.553 203.352 128.349 199.483 131.43C199.136 129.977 199.399 130.057 200.001 128.491C208.233 120.797 208.956 114.4 213.687 104.985C219.398 93.5654 234.991 97.6705 245.176 94.3761C248.186 93.6055 258.943 90.128 256.962 85.6624C254.368 79.8167 245.686 84.7556 242.698 86.2178C233.34 70.054 237.708 74.6148 246.466 61.1905C252.581 51.8123 258.388 39.9318 263.059 29.7505Z" fill="#1E3656"/>
<path d="M322.979 64.9238C338.593 58.8684 360.514 65.5081 375.337 71.4905C375.464 74.0274 375.355 76.4334 375.396 79.1805C375.423 81.1869 373.758 93.4381 374.557 94.4956C376.141 96.5976 381.894 95.4485 384.439 94.9428C381.754 98.1496 377.174 95.9971 373.51 95.6872C373.884 96.465 373.835 96.5029 374.489 97.0415C370.626 95.6849 369.616 94.8688 366.714 91.9493C368.673 91.8067 370.635 91.6326 372.589 91.4259C372.576 85.8681 373.343 78.6062 373.573 72.7916C357.951 67.4237 342.415 62.0522 325.682 66.4018C326.197 72.9247 327.429 78.0977 328.873 84.4329C340.091 79.3682 346.972 79.3109 358.849 79.352C356.651 81.1963 354.345 83.033 352.116 84.8512L350.632 83.3818L350.582 82.982C329.748 80.5169 327.059 104.026 322.979 64.9238Z" fill="#1E3656"/>
<path d="M260.811 67.7419C272.449 69.3688 278.261 76.4724 278.757 87.9666C278.933 92.0401 280.513 95.8452 285.17 96.2697C294.962 96.8477 289.623 79.1843 291.424 75.5448C291.97 74.443 302.633 73.7803 304.356 73.4302C307.637 72.9799 310.877 71.4563 313.566 73.2948C318.074 81.1482 302.317 106.873 337.478 91.2921L339.314 92.605C333.547 95.2294 326.72 98.2255 320.29 98.1145C308.86 97.9178 311.518 82.0717 311.928 74.5612C304.027 75.0061 300.769 75.7076 293.111 76.9158C293.793 83.2262 296.523 100.082 282.44 97.9648C275.387 96.9041 277.995 82.8838 274.258 77.8728C270.531 72.8807 268.239 71.5037 261.791 69.9247L260.64 69.2465L260.811 67.7419Z" fill="#292C47"/>
<path d="M384.633 68.9608C388.595 67.4192 402.764 63.8879 407.024 63.3777C407.944 67.3123 408.301 71.7576 408.255 75.7991C406.938 73.8464 407.177 69.4539 406.636 66.2038L405.895 66.5304C405.395 66.04 405.309 65.735 404.862 65.7955C399.37 66.5403 392.123 68.7993 386.74 70.3003C389.281 81.818 393.928 101.51 374.489 97.0415C373.835 96.5028 373.884 96.4649 373.51 95.6871C377.174 95.9971 381.754 98.1496 384.439 94.9427C389.908 85.569 384.872 78.8701 384.633 68.9608Z" fill="#292C47"/>
<path d="M337.478 91.2923C341.769 89.2165 346.683 86.0033 350.632 83.3821L352.116 84.8515C347.766 87.7204 344.026 90.3029 339.315 92.6052L337.478 91.2923Z" fill="#292C47"/>
<path d="M191.454 136.567L191.477 135.277C192.507 133.986 198.209 129.911 200.001 128.491C199.399 130.057 199.136 129.977 199.483 131.43C198.49 132.23 194.064 135.63 193.48 136.318L191.454 136.567Z" fill="#292C47"/>
<path d="M147.308 62.8625C148.803 63.4856 149.099 63.8709 150.551 62.7141L151.924 63.0064C156.4 63.1621 162.32 65.1987 165.677 68.1962C173.767 76.9487 174.418 89.7197 164.975 97.8843C153.995 107.377 136.232 109.842 122.269 109.51C115.742 109.323 111.379 106.754 107.646 101.663C101.945 107.761 94.0972 110.077 86.033 110.347C71.2976 110.84 56.7364 106.673 46.0144 96.2322C43.4387 93.7237 39.6388 90.276 39.6013 86.3391C39.5887 84.9789 40.0751 83.7003 41.154 82.8999C45.8695 79.4025 53.5046 74.5097 58.684 71.9877C62.1089 81.2469 66.2099 89.2915 75.6494 93.8049C80.6817 96.211 90.3699 97.9408 93.7394 91.7531C96.8855 85.9751 88.0866 77.3001 96.0791 75.2528C101.606 73.6854 109.438 71.0804 115.088 69.9575C115.966 75.4562 115.783 80.5219 116.016 86.0387C116.136 88.8841 116.235 92.3572 118.676 94.1136C121.168 95.9078 126.719 97.1566 129.239 95.0777C128.884 93.7869 128.655 93.5063 127.916 92.3784C121.617 83.8158 127.266 70.558 135.922 66.1168C140.088 63.9796 142.68 63.3002 147.308 62.8625Z" fill="#DC4649"/>
<path d="M163.418 68.6522C164.253 68.1036 164.511 68.2782 165.677 68.196C173.767 76.9486 174.418 89.7196 164.975 97.8842C153.995 107.377 136.232 109.842 122.269 109.51C115.742 109.323 111.379 106.754 107.646 101.663C101.945 107.761 94.0972 110.076 86.033 110.347C71.2976 110.84 56.7364 106.673 46.0144 96.2321C43.4387 93.7236 39.6388 90.2759 39.6013 86.339C39.5887 84.9788 40.0751 83.7002 41.154 82.8998C45.8695 79.4024 53.5046 74.5096 58.684 71.9876C62.1089 81.2468 66.2099 89.2914 75.6494 93.8048C80.6817 96.2109 90.3699 97.9406 93.7394 91.753C96.8855 85.9749 88.0866 77.3 96.0791 75.2526C101.606 73.6853 109.438 71.0803 115.088 69.9574C115.966 75.4561 115.783 80.5217 116.016 86.0385C116.136 88.884 116.235 92.3571 118.676 94.1134C121.168 95.9077 126.719 97.1565 129.239 95.0775C128.884 93.7868 128.655 93.5062 127.916 92.3783C129.711 93.1218 129.879 93.1339 130.175 95.069C132.345 96.713 132.918 95.7534 135.456 96.1085C110.463 103.878 115.534 88.9738 113.037 72.6016C107.375 73.79 100.254 76.1513 94.6748 77.9181C96.0723 82.5105 97.6404 87.6487 95.6094 92.2515C94.6189 94.5529 92.7214 96.3426 90.3663 97.1976C89.0672 97.6835 87.4427 97.997 86.0592 98.0187C71.9344 98.2361 62.0011 87.2301 57.7143 74.9274C52.2195 78.2109 46.3447 81.8346 41.1319 85.5026C52.6459 101.499 68.5405 108.062 88.2892 106.681C96.6707 106.095 102.455 103.137 107.792 96.7518C108.806 98.3101 110.669 101.129 111.993 102.309C117.958 107.627 132.272 106.026 139.422 104.764C151.663 102.403 170.085 96.7302 169.827 81.3763C169.739 76.1748 167.09 72.0223 163.418 68.6522Z" fill="#24314E"/>
<path d="M147.308 62.8625C148.803 63.4856 149.099 63.8709 150.551 62.7141L151.924 63.0064C150.381 64.0969 150.07 64.3942 148.191 64.7642C136.02 65.9354 123.721 73.9304 128.927 88.3761C130.204 91.9186 133.418 93.4088 136.433 95.3993L136.225 95.8605L135.456 96.1086C132.918 95.7535 132.345 96.7131 130.175 95.0691C129.879 93.1341 129.711 93.1219 127.916 92.3784C121.617 83.8158 127.266 70.558 135.922 66.1168C140.088 63.9796 142.68 63.3002 147.308 62.8625Z" fill="#292C47"/>
<path d="M151.924 63.0063C156.4 63.162 162.321 65.1986 165.677 68.1961C164.511 68.2782 164.253 68.1036 163.418 68.6522C157.271 65.5653 154.948 64.8642 148.191 64.7641C150.07 64.3941 150.381 64.0968 151.924 63.0063Z" fill="#292C47"/>
<path d="M143.73 77.5565C155.093 76.9362 154.968 87.0625 145.74 92.1151C136.507 89.7984 132.245 80.1503 143.73 77.5565Z" fill="#252F4F"/>
<path d="M142.495 81.1262C143.568 81.0495 144.643 81.0454 145.716 81.114C147.496 81.2371 148.428 81.7041 149.603 83.0269C150.974 86.2071 148.36 87.9324 146.12 89.6567C142.805 89.9364 139.216 87.5954 139.567 83.8548C140.248 82.4034 141.138 82.0159 142.495 81.1262Z" fill="#FEF2E0"/>
<path d="M187.075 166.465C190.144 165.919 200.929 163.455 203.214 164.85C204.504 167.349 204.033 174.766 203.908 177.818C203.397 190.409 203.462 203.757 199.801 215.906C197.763 222.667 193.321 228.823 187.024 232.035C178.622 236.389 168.053 234.878 159.232 232.559C157.849 232.193 156.104 231.052 155.478 229.798C154.964 228.769 155.419 227.443 155.24 225.999C157.028 222.267 161.434 211.858 164.402 210.06C180.134 223.068 185.795 218.365 185.941 199.457C182.963 204.065 179.255 208.486 173.918 209.988C153.317 215.775 152.05 186.194 152.737 172.948C152.867 170.448 152.958 166.482 155.896 166.025C157.369 165.797 160.888 166.103 162.441 166.311C165.394 166.706 172.951 166.25 175.317 167.823C176.53 173.335 167.684 189.727 172.354 194.985C180.113 194.677 180.871 173.696 182.629 167.716C183.766 166.641 185.479 166.652 187.075 166.465Z" fill="#DC4649"/>
<path d="M185.941 199.457C182.963 204.065 179.255 208.486 173.918 209.988C153.317 215.775 152.05 186.194 152.737 172.948C152.867 170.447 152.958 166.482 155.896 166.025C157.369 165.796 160.888 166.103 162.441 166.311C165.394 166.706 172.951 166.25 175.317 167.823C176.53 173.335 167.684 189.727 172.354 194.985C180.113 194.677 180.871 173.696 182.629 167.716C183.766 166.641 185.479 166.652 187.075 166.465L186.941 168.207C184.124 168.957 184.268 169.594 183.689 172.166C182.448 177.676 180.812 200.021 171.269 196.242C165.206 193.841 172.71 172.6 173.727 169.079C167.849 168.24 161.29 168.095 155.35 168.05C154.185 178.565 154.087 194.671 160.997 203.116C170.596 214.847 182.109 201.184 186.961 192.913C189.493 205.389 187.981 228.291 169.627 216.15C167.826 214.764 165.896 213.429 164.04 212.108L164.402 210.06C180.134 223.068 185.795 218.365 185.941 199.457Z" fill="#292C47"/>
<path d="M187.075 166.465C190.144 165.919 200.929 163.455 203.214 164.85C204.504 167.349 204.033 174.766 203.908 177.818C203.397 190.409 203.462 203.757 199.801 215.906C197.763 222.667 193.321 228.823 187.024 232.035C178.622 236.389 168.053 234.878 159.232 232.559C157.849 232.193 156.104 231.052 155.478 229.798C154.964 228.769 155.42 227.443 155.24 225.999C156.141 226.373 156.662 226.382 157.065 227.046C160.209 230.709 169.709 231.029 174.371 231.214C204.718 232.419 201.755 186.908 201.663 166.2C197.107 166.652 191.651 167.635 186.941 168.208L187.075 166.465Z" fill="#23304D"/>
<path d="M155.24 225.999C157.028 222.266 161.434 211.857 164.401 210.06L164.04 212.107C163.39 214.128 162.684 215.513 161.756 217.425C160.084 220.679 158.527 223.689 157.065 227.045C156.662 226.382 156.141 226.373 155.24 225.999Z" fill="#292C47"/>
<path d="M164.04 212.107C165.896 213.428 167.826 214.764 169.627 216.149C167.073 216.614 164.323 217.179 161.756 217.425C162.684 215.513 163.39 214.128 164.04 212.107Z" fill="#B53F44"/>
<path d="M70.7734 192.951C78.9495 192.136 87.4216 191.753 95.627 190.904C96.9577 190.767 96.9212 190.946 97.7528 191.808C98.427 193.668 99.0339 209.866 97.0701 210.048C88.7717 210.815 79.8154 209.789 71.3825 209.698C66.8353 209.65 54.4744 209.679 50.6934 207.783C50.0287 205.41 50.2954 201.575 50.5395 199.089C52.1735 182.429 50.6338 165.983 49.017 149.388C48.8668 147.843 48.5396 145.283 49.5635 144.076C54.011 141.9 88.0172 140.617 94.6063 140.458C95.5873 140.435 95.8481 140.791 96.2958 141.425C96.84 144.771 97.52 157.583 95.914 160.305C93.3947 162.485 79.5158 158.563 73.4303 159.727C73.1058 163.171 72.9998 165.973 72.9294 169.435C78.0853 169.005 89.2054 166.392 87.9337 174.822C87.5096 177.634 87.7334 182.435 87.0908 184.923C85.8774 186.127 74.2976 185.018 71.7697 185.005C71.3148 187.35 71.0482 190.519 70.7734 192.951Z" fill="#DC4649"/>
<path d="M70.7734 192.951C78.9495 192.136 87.4216 191.753 95.627 190.904C96.9577 190.767 96.9212 190.946 97.7528 191.808C98.427 193.668 99.0339 209.866 97.0701 210.048C88.7717 210.815 79.8154 209.789 71.3825 209.698C66.8353 209.65 54.4744 209.679 50.6934 207.783C50.0287 205.41 50.2954 201.575 50.5395 199.089C52.1735 182.429 50.6338 165.983 49.017 149.388C48.8668 147.843 48.5396 145.283 49.5635 144.076C54.011 141.9 88.0172 140.617 94.6063 140.458C95.5873 140.435 95.8481 140.791 96.2958 141.425C96.84 144.771 97.52 157.583 95.914 160.305C93.3947 162.485 79.5158 158.563 73.4303 159.727L71.5111 160.381C71.5522 158.869 71.4074 157.244 72.1226 155.994C76.066 155.064 90.3235 157.128 94.7719 157.843C94.6302 152.859 94.3689 147.353 94.3676 142.42L51.1672 145.168C53.2723 169.513 55.0258 180.254 52.7276 205.529C66.3173 206.106 82.4692 206.9 95.9519 206.85L95.7628 193.046C87.9148 193.899 76.6034 194.73 68.634 194.928C68.9751 190.502 69.2662 185.467 70.3871 181.205C74.2872 181.354 81.8131 181.437 85.3978 182.024L86.4067 181.715L86.8286 179.32C87.2478 181.625 87.182 182.554 87.0908 184.923C85.8774 186.127 74.2976 185.018 71.7697 185.005C71.3148 187.35 71.0482 190.519 70.7734 192.951Z" fill="#1E3656"/>
<path d="M71.511 160.381L73.4302 159.727C73.1058 163.171 72.9997 165.973 72.9293 169.435C78.0852 169.005 89.2053 166.392 87.9337 174.822C87.5095 177.633 87.7333 182.435 87.0907 184.923C87.1819 182.554 87.2478 181.625 86.8285 179.319L86.4066 181.715L85.3977 182.024C85.0462 179.775 85.1969 173.3 85.2005 170.72C80.5951 170.778 75.6729 171.227 70.8933 171.328C71.0287 167.722 71.0964 163.95 71.511 160.381Z" fill="#292C47"/>
<path d="M117.646 170.557C122.984 167.135 143.242 162.643 147.361 167.12C149.263 173.443 147.241 197.514 146.938 204.845C146.458 216.46 137.235 229.355 125.683 232.053C121.298 233.073 105.444 235.473 103.042 229.549C102.724 225.787 107.014 212.349 109.989 210.639L110.792 210.681L111.631 210.456C91.17 204.709 103.688 174.519 117.646 170.557Z" fill="#DC4649"/>
<path d="M117.646 170.557C122.984 167.135 143.242 162.643 147.361 167.12C149.263 173.443 147.241 197.514 146.938 204.845C146.458 216.46 137.235 229.355 125.683 232.053C121.298 233.073 105.444 235.473 103.042 229.549C102.724 225.787 107.014 212.349 109.989 210.639L110.792 210.681C111.648 211.109 114.223 212.252 114.633 212.898C112.411 213.242 113.023 211.527 110.574 212.399C108.777 215.795 106.064 222.773 105.32 226.581C104.68 229.852 114.072 229.798 116.293 229.829C128.277 230.357 140.984 221.319 143.668 209.381C146.385 197.298 146.156 180.295 145.68 167.733C137.266 167.459 132.263 166.951 124.052 169.564L123.323 168.811C121.245 169.394 119.361 170.55 117.646 170.557Z" fill="#243150"/>
<path d="M117.646 170.556C119.361 170.55 121.245 169.394 123.323 168.811L124.052 169.564C91.3929 183.331 100.967 217.867 124.467 203.938L123.948 205.418L124.324 206.082C125.818 205.728 126.675 205.2 128.026 204.786C123.567 209.113 119.406 210.607 113.202 210.52C112.678 210.517 112.154 210.496 111.631 210.456C91.17 204.709 103.688 174.519 117.646 170.556Z" fill="#1E3656"/>
<path d="M128.026 204.786C129.417 203.328 130.03 202.559 131.213 200.924C131.76 214.132 128.03 219.755 114.633 212.898C114.223 212.252 111.648 211.109 110.792 210.681L111.631 210.456C112.154 210.496 112.678 210.517 113.203 210.52C119.406 210.607 123.567 209.113 128.026 204.786Z" fill="#FEF2E0"/>
<path d="M131.895 195.169C133.617 202.849 135.776 214.97 125.204 217.907C121.217 219.015 113.444 215.212 110.575 212.399C113.023 211.527 112.412 213.242 114.633 212.898C128.03 219.755 131.76 214.132 131.213 200.924C130.03 202.56 129.417 203.328 128.026 204.786C126.675 205.2 125.819 205.729 124.324 206.082L123.948 205.419L124.467 203.938C128.016 200.963 129.436 199.035 131.895 195.169Z" fill="#292C47"/>
<path d="M128.909 176.6L129.565 177.004C133.127 184.465 129.659 193.536 120.43 192.872C112.454 187.039 123.502 178.947 128.909 176.6Z" fill="#1E3656"/>
<path d="M127.955 180.712C128.568 181.265 128.952 183.73 128.835 184.593C128.187 189.384 125.151 191.269 120.648 191.213C117.65 186.775 124.841 182.704 127.955 180.712Z" fill="#FBF7EF"/>
<path d="M242.13 142.115C247.364 141.657 260.987 142.593 264.182 147.285C265.694 149.503 263.068 162.958 262.183 165.973C260.902 165.608 259.616 165.258 258.325 164.923C242.026 160.723 226.219 169.754 234.738 188.476C237.243 193.978 246.868 194.826 251.913 193.904C254.327 193.462 259.48 191.365 261.682 191.889C263.42 194.287 262.431 201.754 262.003 204.74C257.693 207.148 252.969 208.72 248.073 209.373C238.218 210.689 227.32 208.581 219.385 202.403C212.938 197.446 208.8 190.067 207.932 181.981C205.333 159.094 220.588 144.529 242.13 142.115Z" fill="#1E3656"/>
<path d="M241.818 144.375C249.724 143.683 255.627 144.802 262.874 147.904C262.088 152.526 261.416 157.165 260.852 161.818C254.778 160.074 249.49 159.256 243.226 161.034C233.028 163.931 227.777 175.184 231.056 185.165C232.32 189.083 235.108 192.327 238.791 194.164C245.965 197.782 253.285 195.958 260.396 193.699C260.441 196.106 260.374 198.67 260.356 201.09L260.008 201.829C248.723 208.679 230.952 207.102 220.652 199.137C207.836 189.225 206.478 169.493 216.211 157.026C222.47 149.009 232.076 145.485 241.818 144.375Z" fill="#DC4649"/>
<path d="M313.873 186.592C320.718 172.346 337.694 167.486 352.197 166.211C354.602 166 356.922 165.358 359.246 166.141C360.753 167.986 358.686 183.663 358.443 187.393C358.212 190.896 358.289 205.422 356.971 207.669C354.368 209.369 346.8 211.073 343.651 211.548C342.78 209.511 342.071 208.027 341.932 205.791C341.733 204.889 341.462 204.007 341.214 203.116C336.945 206.802 334.111 209.861 328.182 210.557C318.354 211.711 313.381 206.722 312.113 197.512C312.199 192.975 312.267 190.972 313.873 186.592Z" fill="#DC4649"/>
<path d="M313.873 186.592C320.719 172.346 337.695 167.486 352.198 166.211C354.603 166 356.922 165.358 359.246 166.141C360.753 167.986 358.686 183.663 358.443 187.393C358.213 190.896 358.289 205.422 356.972 207.669C354.368 209.369 346.801 211.073 343.651 211.548C342.78 209.511 342.072 208.027 341.932 205.791C342.306 203.116 341.95 203.79 343.606 202.039L344.829 207.636C348.827 206.766 352.08 206.021 355.993 204.847C355.993 199.222 355.961 193.566 356.322 187.952C356.764 181.203 357.87 174.313 357.802 167.565C341.539 169.115 322.6 172.004 315.177 188.737L313.873 186.592Z" fill="#292C47"/>
<path d="M342.69 195.573L343.606 202.04C341.95 203.79 342.306 203.116 341.932 205.791C341.733 204.889 341.462 204.007 341.214 203.116C336.945 206.802 334.111 209.861 328.182 210.557C318.354 211.712 313.381 206.722 312.113 197.512L314.803 197.531C317.406 213.867 334.766 207.257 341.742 197.019C342.067 196.543 342.383 196.061 342.69 195.573Z" fill="#1E3656"/>
<path d="M313.873 186.592L315.177 188.737C314.64 192.318 314.703 193.935 314.803 197.53L312.113 197.511C312.199 192.975 312.267 190.972 313.873 186.592Z" fill="#292C47"/>
<path d="M340.989 177.595C343.813 180.298 342.135 195.7 331.192 192.663C323.331 185.702 335.65 179.835 340.989 177.595Z" fill="#292C47"/>
<path d="M339.202 182.081L339.54 182.42C341.201 188.005 336.923 191.593 331.562 191.202C329.315 186.611 335.844 183.964 339.202 182.081Z" fill="#FBF7EF"/>
<path d="M420.385 143.069C421.703 142.925 422.181 143.148 422.939 144.088C424.004 148.172 421.053 160.592 420.033 165.409C422.632 165.432 426.215 165.317 428.869 165.916C432.546 166.748 429.965 177.946 428.968 180.076C428.092 181.941 422.262 179.552 419.595 180.004C419.076 180.52 418.9 180.417 418.95 181.147C419.37 187.413 429.148 186.157 432.894 186.118C432.93 190.025 433.024 206.832 431.111 209.289C429.342 210.084 427.005 209.933 425.019 209.954C406.23 208.587 402.34 196.385 401.537 179.884C399.619 180.113 398.107 180.527 396.586 179.485C395.007 176.008 393.708 171.841 396.198 168.387C397.254 166.921 399.835 167.104 401.51 167.035C401.762 143.145 396.099 145.48 420.385 143.069Z" fill="#292C47"/>
<path d="M415.949 145.29C416.771 145.107 420.268 145.003 421.31 144.954C420.371 152.314 418.58 159.691 417.664 167.3L428.796 167.837C428.611 170.791 428.056 174.245 427.659 177.216C424.351 176.7 420.159 176.419 416.761 176.109C416.676 187.534 420.408 188.109 430.804 187.823C430.57 193.855 430.344 200.467 429.848 206.469C407.565 207.181 404.587 195.028 403.314 176.197L397.561 176.458C397.363 174.101 397.358 171.59 397.308 169.214L403.707 168.458C403.888 161.171 403.906 153.882 403.761 146.595C407.822 146.137 411.884 145.703 415.949 145.29Z" fill="#DC4649"/>
<path d="M378.162 146.885C384.597 143.161 388.933 142.497 396.23 143.415C396.613 147.855 397.096 152.506 397.177 156.942C397.516 168.304 386.668 155.012 382.241 164.383C382.823 167.19 389.141 165.048 391.961 167.494C393.337 170.49 391.785 177.973 390.883 181.142L383.261 179.126C384.213 183.967 388.739 205.969 387.71 209.162C385.644 210.373 366.709 210.168 366.29 208.833C363.74 200.726 366.633 187.408 365.532 179.037C365.441 178.345 360.306 173.81 361.786 169.307C363.33 164.618 362.251 167.258 366.633 165.448C370.586 156.779 370.143 153.562 378.162 146.885Z" fill="#DC4649"/>
<path d="M383.261 179.126C384.213 183.967 388.739 205.969 387.71 209.162C385.644 210.373 366.709 210.167 366.29 208.833C363.74 200.726 366.633 187.408 365.532 179.037C365.441 178.345 360.306 173.81 361.786 169.307C363.33 164.618 362.251 167.257 366.633 165.447C370.586 156.778 370.143 153.562 378.162 146.884L378.848 148.794C372.305 154.688 370.897 159.423 368.781 167.584L364.079 168.298C364.192 172.044 363.736 173.436 367.427 175.108C368.623 182.411 367.522 197.701 367.752 206.058C373.776 206.48 380.08 206.414 386.14 206.449C384.448 197.514 381.339 183.688 381.045 175.13L389.736 177.057C390.039 174.167 390.332 171.47 390.467 168.56C388.089 168.281 381.47 167.894 379.949 166.746C378.767 163.873 381.361 159.512 383.87 157.955C386.952 156.044 393.572 159.571 395.246 156.93L395.269 155.103L397.177 156.942C397.516 168.304 386.668 155.012 382.241 164.383C382.823 167.19 389.141 165.048 391.961 167.494C393.337 170.489 391.785 177.973 390.883 181.141L383.261 179.126Z" fill="#1E3656"/>
<path d="M378.162 146.885C384.597 143.161 388.933 142.497 396.23 143.415C396.614 147.855 397.096 152.506 397.178 156.942L395.269 155.103C394.908 151.809 394.764 148.056 394.569 144.712C388.275 144.732 384.254 145.439 378.848 148.795L378.162 146.885Z" fill="#292C47"/>
<path d="M434.468 34.287C435.944 34.024 436.91 33.8913 438.137 34.5374C439.243 37.28 438.737 44.319 438.719 47.5137C438.602 68.296 436.522 88.272 432.442 108.673C429.157 109.74 423.345 111.725 420.019 111.724C418.959 107.833 419.997 93.7189 419.668 88.5801C419.279 79.4464 418.354 70.3339 417.416 61.2741C416.883 56.1512 414.221 42.8744 415.534 38.8622C417.872 36.0366 430.348 34.8866 434.468 34.287Z" fill="#1E3656"/>
<path d="M434.775 36.4773C435.136 36.4173 435.899 36.457 436.296 36.4633C436.887 37.8799 435.826 65.7992 435.79 69.4865C435.691 80.1253 432.248 94.7912 430.637 105.612C427.821 106.456 425.394 107.13 422.528 107.816L421.838 107.234C422.041 95.7662 422.235 85.6782 421.269 74.1921C420.371 63.5122 417.528 49.7049 417.235 39.4013C423.742 38.5323 428.3 37.8804 434.775 36.4773Z" fill="#DC4649"/>
<path d="M197.876 36.5348C198.877 36.335 198.871 36.2727 199.869 36.6386C200.714 39.1484 200.024 45.5021 199.968 48.3304C199.571 68.182 197.764 86.098 193.943 105.593C191.893 106.33 187.767 107.848 185.696 107.871L185.306 107.236C185.476 100.597 185.481 93.9234 185.387 87.2823C185.163 71.2769 182.164 55.6383 180.405 39.7904C186.215 38.6345 192.039 37.549 197.876 36.5348Z" fill="#DC4649"/>
<path d="M299.659 165.062C315.701 163.93 309.573 171.499 309.55 183.118C309.541 185.468 309.04 188.343 307.421 190.133C304.293 191.994 300.733 188.618 297.114 188.558C288.716 188.419 290.291 207.43 287.277 210.501C284.43 211.004 276.6 209.674 273.5 209.246C270.396 208.946 267.891 209.048 268.492 205.09C270.468 192.038 271.154 182.272 269.25 169.115C273.306 168.242 282.498 165.021 285.255 166.079C287.773 168.229 287.633 171.735 288.04 175.114C292.056 169.691 293.355 167.843 299.659 165.062Z" fill="#1E3656"/>
<path d="M301.73 166.825C311.401 166.561 308.192 173.566 307.502 180.095C307.245 182.554 306.838 185.055 306.523 187.513C295.539 183.476 290.508 183.876 287.963 196.886C287.268 200.432 286.799 203.962 286.316 207.558C282.868 206.964 272.481 206.507 270.779 204.649L270.865 202.746C272.007 188.104 274.186 186.433 272.038 170.677L284.98 167.283C285.91 173.01 285.725 178.373 286.6 183.943C290.215 175.989 292.038 168.979 301.73 166.825Z" fill="#DC4649"/>
<path d="M357.921 -27.8896L358.778 -27.5838C360.574 -25.9591 370.808 -4.25288 372.365 -0.728409C366.567 -0.149118 360.727 0.00473327 354.902 -0.26867C351.685 -0.670655 342.714 -0.645387 340.593 -1.71509L340.358 -2.58628C344.325 -8.83305 353.223 -22.2519 357.921 -27.8896Z" fill="#1E3656"/>
<path d="M130.162 -27.9011C130.656 -27.7865 131.398 -27.63 131.635 -27.1251C133.434 -23.2939 144.19 -3.84974 143.865 -1.21722C141.145 0.329363 131.032 -0.204356 127.587 -0.302709C124.393 -0.655968 115.867 -0.504831 113.266 -1.59032L113.062 -2.44301C114.573 -6.12809 127.233 -24.397 130.162 -27.9011Z" fill="#1E3656"/>
<path d="M80.5184 68.6191C79.3686 70.0267 76.7523 73.8864 74.682 73.0008C71.7291 71.737 67.541 68.0763 66.1702 65.1871C66.1133 61.5295 71.0919 53.6631 74.5981 53.2981C76.9369 54.177 78.6105 56.5189 80.1258 58.4612C81.4123 57.0689 83.9384 54.0669 85.4758 53.3071C87.9432 53.3802 94.72 60.3195 95.1834 62.5316L95.2723 62.9457C95.3504 63.322 95.4063 63.6549 95.4645 64.0321C94.8765 66.204 88.8921 72.911 86.4288 73.1758C84.4984 72.4183 82.1492 70.0682 80.5184 68.6191Z" fill="#DC4649"/>
<path d="M80.5184 68.6191C79.3686 70.0267 76.7523 73.8864 74.682 73.0008C71.7291 71.737 67.541 68.0763 66.1702 65.1871C66.1133 61.5295 71.0919 53.6631 74.5981 53.2981C76.9369 54.177 78.6105 56.5189 80.1258 58.4612L81.0802 59.2151L79.2666 59.7217L74.5448 55.2579C71.642 58.2437 70.3889 59.5981 67.9544 62.9069C70.6375 66.0497 72.1807 67.2187 75.4478 69.7795L80.3894 64.7734L86.8539 70.0574L93.6054 62.6277C94.9763 63.0477 94.4876 62.7747 95.4645 64.0321C94.8765 66.204 88.8921 72.911 86.4288 73.1758C84.4984 72.4183 82.1492 70.0682 80.5184 68.6191Z" fill="#1E3656"/>
<path d="M80.1258 58.4612C81.4123 57.0689 83.9383 54.0669 85.4757 53.3071C87.9431 53.3802 94.7199 60.3195 95.1834 62.5316L95.2723 62.9457C95.3503 63.322 95.4063 63.6549 95.4645 64.0321C94.4875 62.7747 94.9762 63.0477 93.6054 62.6277C93.1681 61.6992 87.4725 56.5347 86.0642 55.0752C84.7398 56.5009 81.9926 59.8575 80.2693 60.3385L79.2666 59.7217L81.0801 59.2151L80.1258 58.4612Z" fill="#292C47"/>
<path d="M400.408 107.853C403.188 110.135 405.819 112.591 408.283 115.208C409.551 116.81 409.352 117.956 409.672 120.182C407.516 122.865 404.217 126.534 401.654 128.765C399.244 127.584 396.866 125.419 394.763 123.68C390.901 128.766 389.091 130.029 383.667 124.42C379.913 120.536 379.417 117.374 383.559 113.414C384.886 111.684 385.91 110.651 387.453 109.095C388.175 109.133 388.473 108.862 389.199 108.521C391.749 110.322 392.575 111.117 394.754 113.301C396.789 111.021 397.89 109.671 400.408 107.853Z" fill="#DC4649"/>
<path d="M383.559 113.414C385.03 112.824 386.244 111.411 387.39 110.27L388.18 110.346C386.388 112.953 383.672 115.731 382.237 118.148C384.525 120.663 387.074 122.93 389.84 124.908C391.352 123.405 393.351 121.29 394.908 119.926C396.568 121.313 399.42 123.847 401.094 125.012C402.606 123.562 408.752 118.672 407.15 116.663L408.283 115.208C409.551 116.81 409.352 117.956 409.672 120.182C407.516 122.865 404.217 126.533 401.654 128.765C399.244 127.584 396.866 125.419 394.763 123.68C390.901 128.766 389.091 130.029 383.667 124.42C379.913 120.536 379.417 117.374 383.559 113.414Z" fill="#1E3656"/>
<path d="M400.409 107.853C403.188 110.135 405.819 112.591 408.283 115.208L407.15 116.663L400.517 110.269C398.771 111.728 396.447 114.228 394.786 115.908C393.049 114.276 390.197 111.13 388.18 110.346L387.39 110.27C386.244 111.412 385.03 112.824 383.559 113.414C384.886 111.684 385.91 110.651 387.453 109.095C388.175 109.133 388.473 108.862 389.2 108.521C391.749 110.322 392.575 111.117 394.754 113.301C396.79 111.021 397.891 109.671 400.409 107.853Z" fill="#292C47"/>
<path d="M-25.2394 -22.6486C-17.9302 -23.0018 -5.872 -22.1789 1.58978 -21.5775C-1.99807 -16.5913 -6.9455 -11.5649 -11.2617 -7.13899C-13.3257 -5.01087 -20.662 3.02115 -22.8307 3.68616C-25.2827 1.89956 -26.3396 -19.8216 -25.2394 -22.6486Z" fill="#1E3656"/>
<path d="M301.442 113.397C303.323 111.267 305.164 108.172 308.088 109.021C311.003 111.273 313.151 113.886 316.148 115.941C317.019 121.717 312.168 125.054 308.309 128.809C305.39 127.142 304.126 125.882 301.681 123.658C300.408 125.246 298.842 127.581 297.037 128.297C294.267 128.034 287.972 122.719 287.263 120.038C287.751 116.228 289.687 113.912 292.074 111.052C296.067 106.274 298.224 110.053 301.442 113.397Z" fill="#DC4649"/>
<path d="M301.442 113.397C303.323 111.267 305.164 108.172 308.088 109.021L307.777 110.162L307.114 110.501C305.065 112.341 303.364 114.058 301.446 116.014C299.587 114.293 297.353 112.101 295.444 110.51C292.899 113.312 291.492 114.962 289.312 118.046C291.767 120.981 293.473 122.531 296.509 124.902L301.473 120.004L307.732 125.014C309.496 123.244 313.86 119.293 314.397 117.022C314.961 116.593 315.534 116.296 316.148 115.941C317.019 121.717 312.168 125.054 308.309 128.809C305.39 127.142 304.126 125.882 301.681 123.658C300.408 125.246 298.842 127.581 297.037 128.297C294.267 128.034 287.972 122.719 287.263 120.038C287.751 116.228 289.687 113.912 292.074 111.052C296.067 106.274 298.224 110.053 301.442 113.397Z" fill="#222C47"/>
<path d="M308.088 109.021C311.004 111.273 313.151 113.887 316.148 115.942C315.534 116.296 314.961 116.593 314.397 117.023C312.7 115.963 308.698 112.015 307.114 110.501L307.777 110.162L308.088 109.021Z" fill="#292C47"/>
<path d="M87.1318 -26.0818C90.258 -25.6166 98.4355 -15.3577 100.059 -12.3669C97.8177 -8.90338 91.3766 -1.50749 87.9607 0.738387C83.9785 0.263766 77.5591 -8.74141 75.1305 -12.0574C78.259 -17.392 82.6536 -21.8882 87.1318 -26.0818Z" fill="#1E3656"/>
<path d="M407.359 -9.70577C406.813 -10.5657 406.023 -11.4157 406.317 -12.2941C407.837 -16.8698 414.647 -23.3155 418.049 -26.3784C422.963 -22.0486 427.236 -18.1709 430.585 -12.4998C428.947 -9.93902 426.415 -6.64193 424.281 -4.50027C421.167 -1.36515 418.523 2.82884 414.863 -1.68909C412.458 -3.77977 409.548 -7.23882 407.359 -9.70577Z" fill="#1E3656"/>
<path d="M197.649 34.2731C199.075 34.0218 199.345 34.0227 200.789 34.1557C201.59 34.8135 201.685 34.906 201.913 35.9076C203.717 43.8273 199.031 103.381 195.327 108.308C193.69 110.485 186.435 111.629 183.763 111.913C182.46 109.235 183.15 90.9529 182.964 86.873C182.447 76.7368 181.491 66.6281 180.097 56.5753C179.589 52.8347 177.58 41.8413 179.153 38.7815C181.924 36.3362 193.362 34.9724 197.649 34.2731Z" fill="#1E3656"/>
<path d="M197.967 37.402C198.968 37.2022 198.962 37.1399 199.96 37.5058C200.805 40.0156 200.115 46.3693 200.059 49.1976C199.662 69.0492 197.856 86.9652 194.034 106.46C191.984 107.198 187.858 108.716 185.787 108.739L185.397 108.103C185.567 101.465 185.572 94.7906 185.478 88.1495C185.254 72.1441 182.255 56.5055 180.496 40.6576C186.307 39.5017 192.131 38.4162 197.967 37.402Z" fill="#DC4649"/>
<path d="M122.791 28.6172C133.426 28.942 136.527 41.9742 125.021 47.4941C110.426 49.1049 114.669 34.1136 122.791 28.6172ZM121.456 34.4502C116.985 40.2645 120.896 41.9426 126.582 41.1738L127.726 40.0654C127.763 36.8599 124.232 35.0489 121.456 34.4502Z" fill="#1E3656"/>
<path d="M147.589 41.8809C150.136 43.7004 156.885 49.1806 157.551 52.1443L157.64 52.5301C157.716 52.8738 157.772 53.1784 157.831 53.5235C156.74 57.2934 152.349 59.9796 150.551 62.7141C149.098 63.8709 148.803 63.4856 147.308 62.8625C144.332 60.3884 136.136 54.6004 140.388 50.2896C141.961 48.1344 145.651 43.7338 147.589 41.8809Z" fill="#C33E3F"/>
<path d="M140.388 50.2896C141.352 49.7338 141.962 49.1287 142.854 49.2785C140.119 54.6288 144.652 56.6248 148.686 59.7188C151.834 57.2077 152.929 55.5465 155.523 53.1829L157.831 53.5235C156.74 57.2934 152.349 59.9796 150.551 62.7141C149.098 63.8709 148.803 63.4856 147.308 62.8625C144.332 60.3884 136.136 54.6004 140.388 50.2896Z" fill="#1E3656"/>
<path d="M147.589 41.8809C150.136 43.7004 156.885 49.1806 157.551 52.1443L157.64 52.5301C157.716 52.8738 157.772 53.1784 157.831 53.5235L155.523 53.1829L155.684 52.614C155.41 51.099 154.226 50.2179 153.083 49.062C149.166 49.0029 148.355 49.5943 143.637 49.1075L142.854 49.2785C141.962 49.1287 141.352 49.7338 140.388 50.2896C141.961 48.1344 145.651 43.7338 147.589 41.8809Z" fill="#292C47"/>
<path d="M143.637 49.1073L147.944 44.3792L153.084 49.0618C149.166 49.0027 148.355 49.5941 143.637 49.1073Z" fill="#B53F44"/>
<path d="M309.686 40.0754C314.491 37.5971 316.477 42.7656 314.902 46.3108C313.787 48.8144 310.345 44.45 308.355 47.9631C306.315 51.5652 306.617 62.0376 302.962 64.0715C300.228 62.9635 300.99 54.6875 296.974 53.136C292.511 51.4108 287.39 50.8779 290.481 44.7639C293.26 39.2657 298.49 45.729 300.616 48.4924C300.688 48.4398 300.763 48.3889 300.839 48.3401V48.3411C300.763 48.3897 300.688 48.4408 300.616 48.4934L303.395 54.1204C303.932 52.1258 304.374 49.7297 304.812 47.6819C304.638 47.6341 304.46 47.5979 304.28 47.5725C304.46 47.5979 304.638 47.6331 304.812 47.6809C305.886 44.3569 306.351 41.7948 309.686 40.0754ZM302.627 47.6272V47.6282C302.536 47.6463 302.446 47.6668 302.356 47.6897C302.175 47.7355 301.998 47.7907 301.824 47.8547C302.084 47.7587 302.354 47.6818 302.627 47.6272Z" fill="#1E3656"/>
<path d="M346.467 105.174C348.353 105.645 351.737 109.042 353.262 110.403C360.207 116.588 353.267 121.831 348.61 126.351C346.178 125.798 345.036 124.388 343.2 123.027C333.755 116.024 340.763 111.012 346.467 105.174Z" fill="#292C47"/>
<path d="M346.823 107.589C349.901 109.467 352.468 112.435 354.864 115.101C352.599 118.084 350.595 120.071 347.906 122.635C344.869 120.434 342.383 118.262 340.113 115.273C342.148 112.541 344.391 109.972 346.823 107.589Z" fill="#DC4649"/>
<path d="M73.9346 25.2C91.0516 23.4454 81.7572 44.9033 62.7666 47.9919C61.2925 48.1521 60.2305 48.4189 58.8691 47.8933L58.7783 47.3035C60.5923 45.7055 68.7072 42.1682 72.8496 39.1707C67.6202 33.852 67.2063 29.4259 73.9346 25.2ZM73.5889 29.9207C72.9944 32.778 74.7422 33.7706 77.2754 34.7361C77.8566 33.3281 78.0718 33.0184 77.6865 31.575C76.5594 30.023 75.4392 29.9423 73.5889 29.9207Z" fill="#1E3656"/>
<path d="M381.862 35.9992C386.524 35.8462 403.54 35.6166 396.248 45.2805C392.128 50.7418 385.152 52.1187 378.645 52.7106L377.806 51.9838C378.185 48.9488 386.803 47.9549 390.003 45.4005L390.066 44.6181C386.596 41.9838 379.926 43.3932 375.775 43.8638C377.332 40.4792 378.55 37.7384 381.862 35.9992Z" fill="#1E3656"/>
<path d="M242.644 39.5444C243.253 39.6865 243.073 39.6816 243.614 40.1819C243.637 41.0129 243.56 41.7199 243.195 42.4819C240.939 47.2196 217.861 54.5631 212.121 56.7598C211.172 56.6073 211.569 56.8212 210.926 56.0366C211.487 48.6962 235.618 42.1255 242.644 39.5444Z" fill="#1E3656"/>
<path d="M368.239 129.285L369.079 129.374L369.521 130.179C369.327 131.704 368.352 132.986 367.517 134.298C362.048 137.451 345.262 143.435 338.52 145.984L337.604 145.936L337.117 145.358C338.01 137.601 360.911 131.979 368.239 129.285Z" fill="#1E3656"/>
<path d="M429.369 112.191C431.792 112.343 432.668 112.271 433.76 114.437C433.791 115.908 433.778 116.086 432.934 117.282C429.803 118.711 429.721 115.36 426.382 118.315L426.337 119.188C429.243 122.708 433.056 119.694 436.115 121.427C436.675 124.251 434.843 125.231 432.564 125.909C429.36 126.505 421.73 129.439 419.464 127.341C419.316 126.116 419.41 126.051 420.001 124.906C423.53 122.499 422.569 122.445 422.452 118.395C422.352 114.818 426.486 113.035 429.369 112.191Z" fill="#1E3656"/>
<path d="M383.678 -22.4446L384.558 -21.5256C384.558 -19.5698 384.463 -18.0061 384.31 -16.0539C390.785 -16.0877 391.444 -15.3198 393.488 -9.27745C395.807 -8.39769 398.97 -7.22422 399.701 -4.68057L398.934 -3.81794C397.152 -3.73674 395.658 -5.11323 393.605 -5.66997C393.587 -3.26618 394.056 -0.45274 391.326 0.107601C388.723 -1.82562 390.117 -7.44663 388.637 -10.2935C387.482 -12.5217 384.106 -12.4974 381.579 -13.2436C379.558 -16.2574 381.074 -20.2682 383.678 -22.4446Z" fill="#1E3656"/>
<path d="M437.194 127.079L437.722 127.551C438.047 132.819 423.783 136.233 419.704 137.576C418.409 137.103 418.598 136.671 418.643 135.604C420.791 131.769 432.618 128.632 437.194 127.079Z" fill="#1E3656"/>
</g>
<defs>
<clipPath id="clip0_155_107">
<rect width="480" height="235" fill="white"/>
</clipPath>
</defs>
</svg>
