<svg width="61" height="84" viewBox="0 0 61 84" fill="none" xmlns="http://www.w3.org/2000/svg">
<path d="M46.4849 11.5819C47.8462 12.0774 49.1568 12.6513 50.4128 13.2963C39.0831 15.7008 30.0023 21.6823 26.657 30.873C21.4487 45.1848 31.4632 62.4813 49.92 73.7543C41.9174 77.7124 32.3726 78.5196 23.3207 75.225C5.74647 68.8282 -3.31466 49.3954 3.08189 31.8211C9.47856 14.2469 28.9106 5.18565 46.4849 11.5819Z" fill="#FFF4E2"/>
<path d="M23.1592 15.4062L20.2782 21.5406L25.4686 21.8852L23.1592 15.4062Z" fill="#DC4649" stroke="#DC4649" stroke-width="1.11397" stroke-miterlimit="10" stroke-linecap="round" stroke-linejoin="round"/>
<path d="M22.3716 28.3533L20.4002 21.8691L25.5864 22.2726L22.3716 28.3533Z" fill="#DC4649" stroke="#DC4649" stroke-width="1.11397" stroke-miterlimit="10" stroke-linecap="round" stroke-linejoin="round"/>
<path d="M16.8669 26.7271L20.0971 20.7691L23.453 24.7437L16.8669 26.7271Z" fill="#DC4649" stroke="#DC4649" stroke-width="1.11397" stroke-miterlimit="10" stroke-linecap="round" stroke-linejoin="round"/>
<path d="M16.4499 17.7793L19.6802 23.7373L23.036 19.7627L16.4499 17.7793Z" fill="#DC4649" stroke="#DC4649" stroke-width="1.11397" stroke-miterlimit="10" stroke-linecap="round" stroke-linejoin="round"/>
<path d="M29.3748 22.5509L22.8906 24.5223L23.2941 19.3361L29.3748 22.5509Z" fill="#DC4649" stroke="#DC4649" stroke-width="1.11397" stroke-miterlimit="10" stroke-linecap="round" stroke-linejoin="round"/>
</svg>
