<svg width="61" height="84" viewBox="0 0 61 84" fill="none" xmlns="http://www.w3.org/2000/svg">
<path d="M46.4849 11.5819C47.8462 12.0774 49.1568 12.6513 50.4128 13.2963C39.0831 15.7008 30.0023 21.6823 26.657 30.873C21.4487 45.1848 31.4632 62.4813 49.92 73.7543C41.9174 77.7124 32.3726 78.5196 23.3207 75.225C5.74647 68.8282 -3.31466 49.3954 3.08189 31.8211C9.47856 14.2469 28.9106 5.18565 46.4849 11.5819Z" fill="#FFF4E2"/>
<path d="M24.4467 57.895L21.5656 64.0294L26.7561 64.3739L24.4467 57.895Z" fill="#DC4649" stroke="#DC4649" stroke-width="1.11397" stroke-miterlimit="10" stroke-linecap="round" stroke-linejoin="round"/>
<path d="M23.6598 70.8416L21.6884 64.3574L26.8746 64.7609L23.6598 70.8416Z" fill="#DC4649" stroke="#DC4649" stroke-width="1.11397" stroke-miterlimit="10" stroke-linecap="round" stroke-linejoin="round"/>
<path d="M18.1544 69.2158L21.3846 63.2579L24.7405 67.2325L18.1544 69.2158Z" fill="#DC4649" stroke="#DC4649" stroke-width="1.11397" stroke-miterlimit="10" stroke-linecap="round" stroke-linejoin="round"/>
<path d="M17.7384 60.2681L20.9686 66.226L24.3245 62.2514L17.7384 60.2681Z" fill="#DC4649" stroke="#DC4649" stroke-width="1.11397" stroke-miterlimit="10" stroke-linecap="round" stroke-linejoin="round"/>
<path d="M30.6624 65.0397L24.1782 67.0111L24.5817 61.8249L30.6624 65.0397Z" fill="#DC4649" stroke="#DC4649" stroke-width="1.11397" stroke-miterlimit="10" stroke-linecap="round" stroke-linejoin="round"/>
<path d="M13.9367 36.007L10.3617 43.6189L16.8023 44.0464L13.9367 36.007Z" fill="#DC4649" stroke="#DC4649" stroke-width="1.38227" stroke-miterlimit="10" stroke-linecap="round" stroke-linejoin="round"/>
<path d="M12.9596 52.072L10.5134 44.026L16.9487 44.5267L12.9596 52.072Z" fill="#DC4649" stroke="#DC4649" stroke-width="1.38227" stroke-miterlimit="10" stroke-linecap="round" stroke-linejoin="round"/>
<path d="M6.1288 50.0544L10.137 42.6615L14.3011 47.5933L6.1288 50.0544Z" fill="#DC4649" stroke="#DC4649" stroke-width="1.38227" stroke-miterlimit="10" stroke-linecap="round" stroke-linejoin="round"/>
<path d="M5.61208 38.9515L9.62029 46.3444L13.7844 41.4125L5.61208 38.9515Z" fill="#DC4649" stroke="#DC4649" stroke-width="1.38227" stroke-miterlimit="10" stroke-linecap="round" stroke-linejoin="round"/>
<path d="M21.6496 44.8725L13.6037 47.3187L14.1043 40.8835L21.6496 44.8725Z" fill="#DC4649" stroke="#DC4649" stroke-width="1.38227" stroke-miterlimit="10" stroke-linecap="round" stroke-linejoin="round"/>
<path d="M23.1592 15.4062L20.2782 21.5406L25.4686 21.8852L23.1592 15.4062Z" fill="#DC4649" stroke="#DC4649" stroke-width="1.11397" stroke-miterlimit="10" stroke-linecap="round" stroke-linejoin="round"/>
<path d="M22.3716 28.3533L20.4002 21.8691L25.5864 22.2726L22.3716 28.3533Z" fill="#DC4649" stroke="#DC4649" stroke-width="1.11397" stroke-miterlimit="10" stroke-linecap="round" stroke-linejoin="round"/>
<path d="M16.8669 26.7271L20.0971 20.7691L23.453 24.7437L16.8669 26.7271Z" fill="#DC4649" stroke="#DC4649" stroke-width="1.11397" stroke-miterlimit="10" stroke-linecap="round" stroke-linejoin="round"/>
<path d="M16.4499 17.7793L19.6802 23.7373L23.036 19.7627L16.4499 17.7793Z" fill="#DC4649" stroke="#DC4649" stroke-width="1.11397" stroke-miterlimit="10" stroke-linecap="round" stroke-linejoin="round"/>
<path d="M29.3748 22.5509L22.8906 24.5223L23.2941 19.3361L29.3748 22.5509Z" fill="#DC4649" stroke="#DC4649" stroke-width="1.11397" stroke-miterlimit="10" stroke-linecap="round" stroke-linejoin="round"/>
</svg>
