<svg width="264" height="214" viewBox="0 0 264 214" fill="none" xmlns="http://www.w3.org/2000/svg">
<g clip-path="url(#clip0_278_6320)">
<path d="M31.5701 10.3667C31.8953 8.64295 32.4046 3.22396 34.3862 3.17813C35.8815 3.92546 36.7734 6.65626 37.2936 8.15604L37.4133 8.07006C41.086 5.47767 50.5858 2.23352 55.0558 3.04643C55.601 3.17604 56.1419 3.33943 56.6969 3.33799L57.5657 3.2993L58.7632 4.05729C59.5838 4.34176 61.9071 5.409 62.4227 6.03405L63.5148 6.29764C64.4202 6.03823 64.9451 6.92861 65.5248 7.58954L66.4684 8.55357C66.9117 8.88635 67.5514 9.30748 67.8615 9.73786L69.1664 10.9017C69.6291 11.4204 71.2851 13.199 71.6063 13.6623L72.4023 14.2077C72.8694 14.6576 73.8633 15.8372 74.1327 16.4129L74.8384 16.9559C75.7337 17.4982 76.8081 19.3213 77.3866 20.2507L77.9653 21.1047C78.4792 21.7778 79.7153 25.0332 79.9644 25.9068L80.4135 26.7694C80.8831 27.6288 81.2342 28.3253 81.6375 29.2175L81.9427 29.5594C82.2085 29.8363 82.5477 30.2214 82.8543 30.4334C83.486 31.5625 83.7383 32.2822 84.1805 33.4831L84.6768 34.9397L85.0998 36.259L85.4989 37.2329C85.6839 37.7597 86.1422 38.9591 86.1997 39.4479L86.8684 40.5045C87.1593 41.4186 88.0231 45.7722 87.9775 46.568L88.0511 46.8322C88.4389 48.3722 88.4525 50.1446 88.4736 51.7349C88.5309 52.164 88.626 52.7341 88.6454 53.1529C88.6084 54.9591 88.3737 58.641 88.9942 60.18L89.0174 61.7463C88.7725 63.0759 88.8707 63.8694 88.7138 64.9452L88.6669 66.0535C87.3963 71.267 85.7938 76.1811 83.9792 81.2268C84.8342 81.7595 85.1004 81.4893 85.742 81.8471L86.9777 82.0887C87.5976 82.2253 89.1512 82.525 89.659 82.7587L90.3652 82.873C91.3321 82.7541 94.4556 83.4602 96.0067 83.3246C99.0608 83.0573 102.677 82.73 105.657 81.9808C107.915 81.413 109.798 80.6891 112.17 80.1424L112.744 79.9121C114.206 79.762 116.272 78.9397 117.749 78.5476C120.987 77.6877 124.316 76.4891 127.524 75.6116C131.606 74.4952 135.796 73.6461 139.912 72.54C141.18 72.151 141.948 71.9962 143.242 71.759L144.159 71.4906C145.54 71.1868 147.452 70.6691 148.805 70.7732L150.112 70.824C165.475 72.3299 173.072 71.9692 182.722 85.2255C189.233 86.0483 196.906 88.9734 203.082 86.8336C205.441 93.4348 204.672 99.2053 203.649 105.87C196.016 104.456 189.972 100.961 184.804 95.1355C187.176 102.953 186.192 114.686 185.449 122.873C185.162 126.035 183.847 129.563 183.548 132.877C185.04 132.964 186.522 133.143 188.007 133.308C187.375 134.864 187.089 136.988 186.544 138.654C185.352 142.291 183.815 146.898 182.109 150.295C179.8 149.368 177.609 148.402 175.584 146.948C175.037 146.556 174.44 146.006 173.774 145.937C171.354 148.181 179.859 153.169 180.733 154.437L181.173 154.954C182.062 154.925 185.287 157.34 185.891 157.913C185.994 158.009 186.093 158.109 186.187 158.213L186.922 158.698C183.824 162.026 178.273 165.978 174.874 169.251C173.634 170.445 172.104 172.804 170.97 173.667L169.891 173.248C168.708 172.88 164.262 170.944 163.487 170.135C163.225 169.852 162.712 169.48 162.391 169.228C160.516 168.298 159.223 167.025 157.655 165.629C149.073 157.992 144.375 147.889 140.582 137.282C139.721 134.876 139.202 130.877 138.315 128.811L138.238 128.637C133.876 131.191 121.369 130.9 119.565 132.319C120.562 133.675 122.268 136.121 122.283 137.852L122.105 138.071C120.453 137.748 119.92 135.674 118.867 134.374C117.801 132.451 116.911 130.857 116.021 128.836C115.108 130.623 114.071 132.554 113.289 134.386C112.83 134.982 112.699 135.113 112.469 135.84C112.294 136.364 112.3 136.71 111.976 137.099C110.629 135.499 111.144 134.945 112.018 133.328L111.686 132.975C109.634 133.165 106.415 132.976 104.285 132.922C98.9851 132.789 90.8097 132.783 85.6262 131.658C80.2827 140.719 74.832 147.938 67.6722 155.628C66.4941 156.893 64.5742 160.005 63.4747 161.545L62.8097 162.779C61.3416 163.758 60.4854 165.004 59.4357 166.392C59.3408 166.535 59.1236 166.883 59.0225 166.993L58.0294 168.188C55.6942 167.52 49.1632 164.758 46.5221 163.735L47.0506 162.902C47.1541 162.542 47.3183 162.146 47.4527 161.791C48.1357 160.568 49.5204 157.935 50.2991 156.919C50.5212 156.659 50.7605 156.279 50.9576 155.989C52.0934 153.546 56.1724 147.972 58.1067 146.091C56.0276 145.484 53.8297 145.298 51.8665 144.784C47.3641 143.603 39.7109 141.692 35.5596 139.899L34.2154 139.302C32.6825 137.069 31.7925 136.548 29.9325 134.739L29.7363 134.602C28.9267 134.364 28.0464 134.201 27.4974 133.579C26.8577 133.159 26.6395 133.07 26.3141 132.374C27.4853 125.617 27.6075 121.267 27.7839 114.399L29.0694 114.775C31.2021 115.776 33.4497 116.676 35.7429 117.232L36.3364 116.988C35.834 114.011 34.6027 110.875 33.8848 107.921C31.517 98.2222 32.3436 88.1337 34.5458 78.4872C34.9164 76.8638 36.3567 72.899 35.8683 71.509C32.0974 70.2741 22.8768 63.6932 19.9233 60.7465C19.465 61.2669 19.0542 62.5762 18.879 63.2011C17.0541 69.7116 14.4931 74.0898 6.88558 71.3832C6.46178 71.2325 5.83434 71.0649 5.44137 70.8135L4.62253 70.3448C3.61267 69.0829 3.20448 68.3805 2.65885 66.8376C1.66766 63.9695 1.85027 60.826 3.16687 58.092C3.91215 56.5391 7.93748 50.996 9.28863 50.526L9.95111 49.9253C10.2177 48.0802 11.9467 45.9555 13.054 44.3563L14.6469 41.74C15.1681 41.2615 15.303 41.0882 16.0163 40.9256C16.8381 41.0667 17.4167 42.0709 17.95 42.7676C17.9925 40.4069 17.5931 39.4905 17.4982 37.3499C17.5697 35.1589 17.8129 32.0599 18.8181 30.0787C20.9608 25.856 21.8114 26.1182 22.4801 21.2585L22.6402 20.7591C22.9313 19.2507 23.0993 18.2048 23.2433 16.6775L23.5056 15.1762C24.3729 12.5071 25.8822 3.88584 28.7643 3.32674C30.6136 3.98013 31.3622 8.63729 31.5701 10.3667ZM36.5939 69.7429C37.2413 69.0957 37.1826 67.4437 37.2215 66.48C37.449 65.9323 37.7757 65.3939 38.0687 64.8742C40.6001 62.7392 42.6469 55.2283 44.3004 52.021C45.6237 49.4547 47.2529 48.0835 48.8425 45.8154C47.0337 46.6633 44.7599 48.095 43.0047 49.1676C36.7057 53.0166 28.7321 56.0695 22.6304 59.9553C23.7823 60.8483 24.0962 61.1091 25.0327 62.2435C28.0663 64.9241 31.3866 66.9567 34.9402 68.8424C35.4555 69.1157 36.1209 69.4296 36.5939 69.7429Z" fill="#F6F7F7"/>
<path d="M150.112 70.8237C165.475 72.3297 173.072 71.969 182.722 85.2253C189.233 86.048 196.906 88.9732 203.082 86.8334C205.441 93.4346 204.672 99.2051 203.649 105.87C196.016 104.456 189.972 100.96 184.804 95.1353C187.176 102.953 186.193 114.685 185.449 122.873C185.162 126.034 183.847 129.562 183.549 132.876C185.041 132.964 186.522 133.143 188.008 133.307C187.376 134.864 187.089 136.988 186.544 138.654C185.353 142.291 183.815 146.898 182.109 150.295C179.8 149.368 177.609 148.402 175.584 146.948C175.038 146.555 174.441 146.006 173.774 145.936C171.354 148.181 179.86 153.169 180.733 154.436L181.173 154.954C182.062 154.925 185.287 157.34 185.892 157.913C185.994 158.009 186.093 158.109 186.188 158.213L186.923 158.698C183.824 162.026 178.273 165.978 174.875 169.251C173.634 170.445 172.105 172.804 170.97 173.667L169.891 173.248C168.709 172.879 164.262 170.944 163.487 170.135C163.225 169.851 162.712 169.48 162.391 169.227C160.516 168.298 159.224 167.024 157.656 165.629C149.073 157.991 144.375 147.888 140.582 137.282C139.721 134.876 139.202 130.877 138.315 128.811L138.238 128.637L137.834 128.286C137.926 126.131 137.479 123.376 137.579 120.591C139.838 120.668 139.743 119.956 141.118 121.884L141.577 121.936C142.835 120.329 142.963 120.54 144.927 120.587C144.936 121.728 144.613 126.361 145.083 127.045L145.415 126.987C146.121 126.056 146.32 121.518 146.547 119.93C147.766 120.529 149.044 121.067 150.294 121.603C151.107 122.907 154.374 132.671 154.835 134.401C156.725 133.075 157.869 131.723 159.161 129.945C168.878 116.569 160.334 122.561 151.207 121.153C151.055 121.13 148.91 119.438 148.415 119.083C148.702 116.71 149.43 114.274 149.693 112.07C150.115 108.527 150.562 103.75 150.533 100.194C150.465 92.1038 148.618 78.6529 150.112 70.8237Z" fill="#18466F"/>
<path d="M181.173 154.954C182.062 154.925 185.287 157.34 185.892 157.912C185.994 158.009 186.093 158.109 186.188 158.213L186.923 158.698C183.824 162.026 178.273 165.978 174.875 169.25C173.635 170.445 172.105 172.804 170.97 173.667L169.891 173.248C168.709 172.879 164.262 170.944 163.488 170.135C165.932 167.815 170.335 164.155 173 162.227L174.222 161.124C175.449 159.877 177.05 158.717 178.513 157.763C179.153 157.193 180.88 155.706 181.173 154.954Z" fill="#18466F"/>
<path d="M186.187 158.213L186.922 158.698C183.824 162.027 178.273 165.978 174.874 169.251C173.634 170.445 172.104 172.805 170.97 173.668L169.891 173.249C171.205 170.303 183.325 160.126 186.187 158.213Z" fill="#EBEBED"/>
<path d="M178.512 157.764L178.828 158.286L179.512 158.429C178.899 159.149 177.009 161.146 176.686 161.752L176.836 162.338L176.655 162.819C176.227 162.454 175.743 162.152 175.274 161.838L174.221 161.125C175.449 159.878 177.049 158.717 178.512 157.764Z" fill="#18466F"/>
<path d="M174.221 161.125L175.274 161.839C175.743 162.152 176.227 162.455 176.655 162.819C176.831 163.55 176.764 163.708 176.591 164.43C175.397 165.628 173.961 164.385 173.185 163.319C173.205 162.895 173.108 162.644 172.999 162.228L174.221 161.125Z" fill="#18466F"/>
<path d="M174.221 161.125L175.274 161.839C174.08 162.152 173.692 162.132 173.185 163.319C173.205 162.895 173.108 162.644 172.999 162.228L174.221 161.125Z" fill="#18466F"/>
<path d="M179.513 158.429C180.354 158.573 180.13 158.412 180.536 158.933C180.527 160.161 177.849 161.855 176.836 162.338L176.686 161.752C177.009 161.146 178.899 159.149 179.513 158.429Z" fill="#18466F"/>
<path d="M170.049 166.531C170.703 166.506 170.854 166.48 171.463 166.761L171.572 167.135C171.202 167.805 169.188 169.332 168.443 169.964C168.001 170.243 167.948 170.326 167.458 170.28L167.37 169.882C168.022 168.58 169.048 167.58 170.049 166.531Z" fill="#18466F"/>
<path d="M180.733 154.438L181.173 154.955C180.88 155.708 179.153 157.194 178.512 157.764C177.049 158.718 175.449 159.878 174.221 161.125L172.999 162.228C170.335 164.156 165.932 167.816 163.487 170.136C163.225 169.853 162.712 169.481 162.391 169.228C166.862 165.296 171.467 161.518 176.197 157.901C177.728 156.722 179.075 155.434 180.733 154.438Z" fill="#F6F7F7"/>
<path d="M35.8683 71.509C37.0602 71.9341 37.6144 72.197 38.7195 72.7642C40.82 77.0772 41.9554 84.2228 41.5636 89.0497C40.7751 89.6857 39.5176 90.5429 39.3183 91.5164L39.591 91.8357C40.9128 91.9161 41.6242 91.3312 42.7496 90.6524C41.8927 92.0595 39.8096 94.7418 39.9262 96.1295C40.8273 97.6011 42.5951 97.4684 43.9351 96.6672C45.2237 94.77 42.8714 94.1105 42.7477 92.616C43.5224 91.8092 44.792 92.4317 45.1972 91.6733C44.6572 91.0188 43.4336 89.8758 42.7594 89.3306C42.9425 87.7745 42.9661 86.3758 43.0064 84.8096L43.1481 84.683C45.1893 82.831 49.343 76.3963 51.7209 76.309C53.4406 77.1871 52.9269 80.2287 52.9597 81.966C52.998 83.9871 52.9557 86.2435 52.8318 88.2639C51.2569 89.2437 50.9413 89.6798 49.9865 91.2802C50.8285 91.1228 52.771 90.5431 53.2897 90.6836C53.6118 91.4852 53.2212 92.183 52.8874 93.0181C52.2519 93.4256 51.5104 93.7922 51.2266 94.4674C51.8517 95.2532 53.352 94.8818 53.0953 95.9441C52.7618 97.324 51.0063 98.1355 51.367 99.8218C52.338 101.118 54.8978 101.364 55.3894 99.8076C55.1963 98.3456 54.172 97.3431 54.2799 96.3387C55.2941 95.7972 55.2782 96.4948 56.1478 95.9366C56.1202 93.9797 54.0966 93.5504 54.6285 91.8217C55.5413 91.4666 55.9363 92.1554 56.9204 91.8077C57.2207 90.3726 55.4588 89.2217 54.5741 88.3615C54.5334 84.5956 54.5587 80.5595 54.316 76.8233C55.1722 76.8824 56.3223 76.927 57.1488 77.0421C61.2999 83.9837 62.0459 83.1704 62.5262 91.7467C61.8202 92.5696 61.6276 93.0411 61.1682 93.9989L61.3824 94.2488C62.2399 94.1297 62.5398 93.9349 63.3157 93.5368C63.3182 94.1669 63.3345 95.215 63.2451 95.812C63.0447 97.1508 62.2075 98.8204 63.1312 100.045C63.9504 100.666 65.3872 100.536 66.0927 99.7192C66.5673 97.6507 64.1387 95.8714 64.6589 94.1186C65.1431 93.8702 65.2904 93.9105 65.8541 93.9025C66.1713 93.415 66.0645 93.5088 65.9389 92.8125C64.7673 91.5935 64.1565 92.1655 63.8718 90.024C63.6643 88.4627 63.3824 86.847 63.2497 85.2715C65.5761 81.2795 67.7052 77.4475 71.1257 74.2808C70.3025 78.3844 71.0103 81.4306 70.4296 85.3476C70.3217 86.074 68.0097 87.3388 68.0147 88.5404C69.1226 89.0992 69.7957 88.2694 70.5662 87.5083C70.8544 87.99 70.742 89.7358 70.844 90.5922C70.3909 91.1947 69.281 92.5101 69.1673 93.1533C70.213 93.718 71.2979 92.4476 71.8124 94.0846C72.3857 95.9086 71.3251 99.4937 72.6026 100.909C73.6208 101.354 74.9108 100.983 75.5998 100.131C76.0044 98.2862 70.8858 94.6513 74.5522 92.5782C74.4268 91.8181 73.3564 91.0654 72.7349 90.6192L72.6559 90.5626C72.454 89.5575 72.2542 88.3946 71.9476 87.4293C73.4143 88.0652 74.1077 88.331 75.6479 88.7394C74.3248 87.2832 73.3693 86.3937 71.8916 85.0815C71.8856 82.8155 71.6931 76.3989 72.589 74.5982C73.0406 74.3034 73.3449 74.1358 73.8665 74.5374C76.0834 76.2434 77.7068 79.0346 79.5344 81.1039C79.6968 83.0711 79.8376 84.7846 79.8525 86.7666C79.0192 87.4905 77.4445 88.5753 77.432 89.731C78.5522 90.0846 80.0499 88.4173 80.6926 87.6646C80.5095 89.1302 79.7371 93.0196 80.3016 93.9623C81.3772 94.6141 81.9444 94.1811 83.0399 93.7448C80.6813 103.277 79.2907 110.686 77.9352 120.457C75.7789 122.106 75.832 122.264 73.1823 122.863C70.7602 123.41 65.0325 121.524 63.3809 122.556C62.33 124.667 69.4737 134.948 71.4661 135.279C73.2383 134.363 75.0247 126.012 75.9104 123.666C77.2234 122.54 78.4727 122.01 79.8901 121.054C80.2071 122.548 80.5304 125.907 81.3429 126.858L81.7239 126.912C82.3734 126.072 81.4903 123.062 81.4982 121.665C83.2384 121.628 84.9341 121.588 86.6768 121.625C86.667 122.677 86.494 123.533 87.4662 124.162L87.8641 124.005C88.2605 123.06 88.09 122.717 87.9165 121.636L92.4448 121.559C92.4367 122.805 92.2615 125.876 93.0603 126.691C93.9146 125.789 93.6172 122.926 93.6308 121.584C95.421 121.546 97.282 121.472 99.0617 121.603C98.9586 122.364 98.7693 123.022 99.1551 123.665L99.5641 123.885C100.593 123.209 100.41 122.662 100.461 121.46C102.137 121.413 103.993 121.323 105.654 121.365C105.662 122.747 105.531 125.913 106.308 126.922L106.567 126.816C107.271 124.926 107.075 123.226 107.009 121.234L110.648 121.407C110.519 122.204 110.256 123.134 110.633 123.811L110.987 123.982C111.918 123.408 111.805 122.216 111.849 121.227L114.945 121.239C115.105 123.627 115.425 126.161 114.715 128.462C114.372 129.573 112.08 132.449 112.018 133.328L111.686 132.975C109.634 133.165 106.415 132.976 104.285 132.922C98.9852 132.789 90.8097 132.783 85.6263 131.658C80.2828 140.719 74.832 147.938 67.6722 155.628C66.4942 156.893 64.5742 160.005 63.4748 161.545L62.8098 162.779C61.3417 163.758 60.4855 165.004 59.4357 166.392C59.3408 166.535 59.1237 166.883 59.0226 166.993L58.0295 168.188C55.6943 167.52 49.1633 164.758 46.5222 163.735L47.0507 162.902C47.1541 162.542 47.3184 162.146 47.4528 161.791C48.1357 160.568 49.5205 157.935 50.2991 156.919C50.5213 156.659 50.7606 156.279 50.9576 155.989C52.0935 153.546 56.1724 147.972 58.1068 146.091C56.0276 145.484 53.8297 145.298 51.8665 144.784C47.3642 143.603 39.7109 141.692 35.5597 139.899L34.2155 139.302C32.6826 137.069 31.7925 136.548 29.9326 134.739L29.7363 134.602C28.9267 134.364 28.0465 134.201 27.4975 133.579C26.8578 133.159 26.6396 133.07 26.3142 132.374C27.4854 125.617 27.6076 121.267 27.784 114.399L29.0695 114.775C31.2021 115.776 33.4498 116.676 35.743 117.232L36.3365 116.988C35.8341 114.011 34.6027 110.875 33.8849 107.921C31.5171 98.2222 32.3436 88.1337 34.5459 78.4872C34.9164 76.8638 36.3567 72.899 35.8683 71.509Z" fill="#18466F"/>
<path d="M27.784 114.399L29.0695 114.775C31.2021 115.776 33.4498 116.676 35.743 117.232C35.2067 124.975 35.7369 131.067 34.2155 139.302C32.6826 137.069 31.7925 136.548 29.9326 134.739L29.7363 134.602C28.9267 134.364 28.0465 134.201 27.4975 133.579C26.8578 133.158 26.6396 133.07 26.3142 132.374C27.4854 125.616 27.6076 121.267 27.784 114.399Z" fill="#18466F"/>
<path d="M27.784 114.399L29.0695 114.775C29.0137 117.503 28.9046 120.126 28.7612 122.848C28.5746 126.396 27.6908 130.102 27.4975 133.579C26.8578 133.158 26.6396 133.07 26.3142 132.374C27.4854 125.616 27.6076 121.267 27.784 114.399Z" fill="#EBEBED"/>
<path d="M29.7361 134.602C30.6069 134.079 31.5221 134.043 31.6702 133.304C31.8433 132.439 31.0679 131.462 31.3258 130.616C31.8385 130.416 31.6773 130.478 32.3214 130.642C33.4516 131.575 33.3544 133.794 32.6226 134.923C31.7781 135.218 30.9731 134.713 29.9323 134.739L29.7361 134.602Z" fill="#18466F"/>
<path d="M32.0373 123.402C33.0431 124.212 33.3415 125.585 32.6958 126.75C31.9654 127.198 31.8028 127.039 30.8068 127.056L30.1604 126.756L30.0295 126.292C30.3058 125.394 31.412 124.171 32.0373 123.402Z" fill="#18466F"/>
<path d="M31.9717 118.72L32.6954 118.881C33.439 119.671 33.5092 122.068 32.9715 123.002C31.5433 122.238 31.4944 120.088 31.9717 118.72Z" fill="#18466F"/>
<path d="M50.9579 155.989C53.6194 157.027 56.2446 158.156 58.8296 159.372C60.064 159.955 62.2715 161.099 63.4751 161.545L62.8101 162.779C61.342 163.758 60.4858 165.004 59.436 166.392C59.3412 166.535 59.124 166.883 59.0229 166.993L58.0298 168.188C55.6946 167.52 49.1636 164.759 46.5225 163.735L47.051 162.902C47.1544 162.542 47.3187 162.146 47.4531 161.791C48.136 160.568 49.5208 157.935 50.2994 156.919C50.5216 156.659 50.7609 156.279 50.9579 155.989Z" fill="#18466F"/>
<path d="M50.9576 155.989C53.619 157.027 56.2443 158.156 58.8292 159.372C60.0637 159.955 62.2712 161.099 63.4747 161.545L62.8097 162.779C60.5155 161.647 58.2599 160.452 55.9314 159.395C54.1791 158.599 52.4169 158.021 50.6552 157.26L50.2991 156.919C50.5212 156.659 50.7605 156.279 50.9576 155.989Z" fill="#EBEBED"/>
<path d="M47.051 162.902L47.6445 162.824C48.8345 163.49 56.891 166.191 59.0229 166.993L58.0298 168.188C55.6946 167.52 49.1636 164.759 46.5225 163.735L47.051 162.902Z" fill="#EBEBED"/>
<path d="M49.487 159.852C50.4753 159.901 52.1338 159.813 52.045 161.114C51.3998 161.901 50.0889 161.948 49.2124 161.553C49.2663 160.997 49.3879 160.405 49.487 159.852Z" fill="#18466F"/>
<path d="M50.2993 156.919L50.6554 157.26C49.9523 158.39 49.9331 159.308 49.4873 159.853C49.3883 160.405 49.2667 160.998 49.2127 161.553L47.4529 161.791C48.1358 160.569 49.5206 157.936 50.2993 156.919Z" fill="#18466F"/>
<path d="M52.7737 162.595C53.6587 161.607 54.0286 161.229 55.3758 161.145C56.0257 161.449 55.8192 161.243 56.1264 161.947L55.8621 162.951C54.6988 163.372 53.907 163.063 52.7737 162.595Z" fill="#18466F"/>
<path d="M56.0417 163.151C57.2739 162.844 58.797 163.08 59.3579 164.359C59.2986 164.89 59.2967 164.976 59.0208 165.43C58.2198 165.064 56.6397 163.803 56.0417 163.151Z" fill="#18466F"/>
<path d="M36.3363 116.989C37.3775 117.552 36.9946 120.34 37.0306 121.566C37.212 127.77 36.2836 133.774 35.5595 139.899L34.2153 139.303C35.7367 131.068 35.2065 124.975 35.7428 117.233L36.3363 116.989Z" fill="#F6F7F7"/>
<path d="M56.6971 3.33849L57.5659 3.2998L58.7633 4.05779C59.584 4.34226 61.9073 5.4095 62.4229 6.03455L63.515 6.29815C64.4203 6.03873 64.9453 6.92911 65.525 7.59004L66.4686 8.55407C66.9118 8.88686 67.5516 9.30798 67.8617 9.73836L69.1666 10.9022C69.6293 11.4209 71.2853 13.1995 71.6065 13.6628L72.4025 14.2082C72.8696 14.6581 73.8635 15.8377 74.1329 16.4134L74.8386 16.9564C75.7339 17.4987 76.8083 19.3218 77.3868 20.2512L77.9654 21.1052C78.4793 21.7783 79.7155 25.0337 79.9646 25.9073L80.4137 26.7699C80.8833 27.6293 81.2344 28.3258 81.6377 29.218L81.9428 29.5599C82.2087 29.8368 82.5478 30.2219 82.8544 30.4339C83.4862 31.563 83.7384 32.2827 84.1806 33.4836L84.677 34.9402L85.1 36.2595L85.4991 37.2334C85.6841 37.7602 86.1424 38.9596 86.1998 39.4484L86.8686 40.505C87.1595 41.4191 88.0232 45.7727 87.9777 46.5685L88.0512 46.8326C88.4391 48.3727 88.4527 50.145 88.4738 51.7354C88.5311 52.1645 88.6262 52.7346 88.6456 53.1534C88.6086 54.9596 88.3739 58.6415 88.9944 60.1805C86.7135 61.1583 83.7221 63.7232 81.4624 64.3441C70.3012 67.4107 50.8 69.7616 40.0411 65.7351C39.3677 65.4864 38.7092 65.1992 38.0689 64.8747C40.6003 62.7397 42.6471 55.2288 44.3006 52.0215C45.6239 49.4552 47.2531 48.084 48.8426 45.8159C47.0339 46.6638 44.7601 48.0955 43.0049 49.168C36.7059 53.0171 28.7323 56.07 22.6306 59.9558C23.7825 60.8488 24.0964 61.1096 25.0328 62.244C21.548 60.1993 18.6549 57.1492 15.522 54.8096C16.6386 53.5404 18.3036 51.1691 19.3714 49.7448C21.5146 46.892 23.6747 44.0519 25.8516 41.225L33.8361 30.9776C39.9029 23.0479 45.9541 15.5357 52.5701 8.03794C53.9617 6.46076 55.173 4.81643 56.6971 3.33849Z" fill="#18466F"/>
<path d="M63.515 6.2977C64.4203 6.03828 64.9453 6.92866 65.525 7.5896L66.4685 8.55362C66.9118 8.88641 67.5515 9.30753 67.8616 9.73791C66.888 14.3952 63.1986 16.6742 59.8099 19.6106C58.0981 21.1165 56.4444 22.6874 54.8528 24.32L54.6175 23.8761C54.9525 22.2874 53.7665 19.3495 53.2229 17.6636C58.1639 13.5435 60.3108 11.9199 63.515 6.2977Z" fill="#18466F"/>
<path d="M66.4685 8.55387C65.4154 10.2868 61.4963 15.9104 59.4742 16.0975C59.3908 15.0887 64.3285 9.4507 65.5249 7.58984L66.4685 8.55387Z" fill="#18466F"/>
<path d="M62.4228 6.03455L63.515 6.29814C60.3108 11.9203 58.1639 13.5439 53.2229 17.6641C53.7665 19.35 54.9525 22.2878 54.6175 23.8765C53.2279 23.035 52.8346 20.4343 51.9251 18.4874C50.9703 19.8377 49.1782 22.6086 47.6606 23.1029L47.4267 22.8952C47.7438 21.1188 49.9753 19.0734 51.2758 17.8851C50.144 18.1874 47.758 19.083 46.8389 18.1656C47.508 16.7689 50.8083 16.5819 52.1985 16.4225C54.8152 14.4111 57.8655 12.1084 60.0147 9.62912C60.7854 8.74023 61.4567 7.22774 62.319 6.16109L62.4228 6.03455Z" fill="#F6F7F7"/>
<path d="M74.1331 16.4125L74.8389 16.9555C73.2414 23.4729 69.77 25.6792 63.7136 27.8357C63.7993 29.5001 64.0814 31.6424 63.2749 33.0806L62.8461 33.0386C62.2029 31.3621 62.3289 30.6858 62.406 28.9126C61.4507 29.8472 60.4227 31.0716 59.1266 31.3383L58.9954 31.0353C59.2959 30.0514 60.2823 29.1262 60.997 28.3371C60.0509 27.8635 59.2328 27.7178 59.2257 26.586L59.6654 26.3691C60.3634 26.3655 60.7437 26.7041 61.3295 27.0932C62.3414 26.787 63.3435 26.4493 64.3345 26.0811C71.477 23.4615 71.1808 22.7818 74.1331 16.4125Z" fill="#F6F7F7"/>
<path d="M67.8616 9.7384L69.1665 10.9023C66.0372 18.0436 59.6159 20.0131 54.6346 26.5338C54.7819 27.2851 55.0396 28.0339 54.6734 28.668C53.8858 29.2452 53.4774 29.4141 52.5416 28.9071C49.9136 27.4826 53.8099 25.6076 54.8527 24.3205C56.4444 22.6879 58.0981 21.117 59.8099 19.6111C63.1985 16.6747 66.888 14.3957 67.8616 9.7384Z" fill="#F6F7F7"/>
<path d="M79.0613 28.7879C76.0849 31.2738 74.0559 31.0516 71.1364 33.3177C68.8194 35.1162 68.0031 37.7979 65.9475 39.5763C65.5051 39.959 64.9141 39.8656 64.4198 39.7705C63.8756 39.2144 64.0338 39.4931 63.8765 38.6576C64.2859 36.8315 65.6631 37.3444 66.9636 36.1425C68.4647 34.8326 69.6724 32.2863 71.3951 31.2773C74.9025 29.2232 77.1683 29.3317 79.9643 25.9069L80.4134 26.7695C79.9812 27.4607 79.5701 28.1503 79.0613 28.7879Z" fill="#F6F7F7"/>
<path d="M73.6924 38.8205C74.8729 38.1994 77.0131 37.4646 78.3619 36.8619C80.6576 35.8364 82.1128 34.8649 84.1807 33.4833L84.677 34.9399C82.4649 36.6166 75.0779 39.2627 74.3154 40.6978L73.5122 41.217L73.1488 41.5996C72.459 42.3231 71.391 43.6767 70.4023 43.7007L70.2964 43.3728C70.9052 41.8464 71.7867 41.2855 73.0374 40.2349C72.0884 39.7409 70.5518 39.1626 70.2991 38.0548L70.4993 37.7909C71.8303 37.6661 72.5549 38.175 73.6924 38.8205Z" fill="#F6F7F7"/>
<path d="M88.474 51.7357C88.5312 52.1648 88.6263 52.7349 88.6458 53.1537C85.2109 53.976 83.3802 55.0226 80.1694 56.5518C79.8392 57.4456 79.4707 58.7921 78.6233 59.2119L78.3464 58.9586C78.1562 58.116 78.5 57.1352 78.718 56.277C77.7995 56.2099 76.2241 56.2797 75.7468 55.4268L76.0772 55.1045C76.9865 54.7336 78.1115 54.9117 79.1131 54.9804C78.7292 54.0212 77.942 53.0185 78.7702 52.2937C80.2157 52.3194 79.659 53.8713 80.6632 54.6974C82.5595 54.2285 85.7005 52.5282 88.474 51.7357Z" fill="#F6F7F7"/>
<path d="M86.8683 40.5049C86.2362 43.2607 81.4124 47.3065 78.7999 47.6887C76.3696 48.0442 73.7755 51.0421 73.0325 51.1944C72.2363 50.9447 72.5138 51.1242 71.9575 50.5355C72.2024 48.3188 80.311 46.0632 82.0249 44.8561C83.7413 43.6469 85.0936 41.2601 86.1996 39.4482L86.8683 40.5049Z" fill="#EBEBED"/>
<path d="M57.5659 3.2998L58.7634 4.05779C57.8708 5.78436 54.1258 12.7435 52.3789 13.1327L52.3298 13.0217C52.6366 10.7715 55.9216 7.49659 56.6736 5.17548C56.8715 4.56516 57.2435 3.86143 57.5659 3.2998Z" fill="#18466F"/>
<path d="M77.9653 21.1049C76.7089 22.6251 72.4538 29.2632 70.5363 29.0302L70.3154 28.6344C70.534 27.8687 71.8924 26.7381 72.5206 26.0135C74.152 24.132 75.6073 21.9787 77.3866 20.2509L77.9653 21.1049Z" fill="#18466F"/>
<path d="M81.9426 29.5592C82.2085 29.8361 82.5477 30.2213 82.8542 30.4332C81.6102 31.9092 76.7818 35.8605 74.7908 35.4333L74.6646 35.1265C75.2405 34.0831 78.7629 32.4543 79.8058 31.6016C80.555 30.9891 81.263 30.2499 81.9426 29.5592Z" fill="#F6F7F7"/>
<path d="M72.4023 14.2079C71.4341 15.7254 68.7058 21.3435 66.5125 20.7189L66.4199 20.3063C67.8429 18.6819 69.4028 16.9524 70.5639 15.1313C70.9141 14.5823 71.2002 14.1725 71.6063 13.6625L72.4023 14.2079Z" fill="#18466F"/>
<path d="M85.0999 36.2593L85.4991 37.2331C84.0746 38.2467 80.0688 42.1829 78.4502 42.0665L78.4287 41.6051C79.0615 40.4615 83.7812 37.187 85.0999 36.2593Z" fill="#18466F"/>
<path d="M87.9778 46.5681L88.0513 46.8323C88.0457 47.0009 88.0158 47.4364 87.8785 47.5407C86.935 48.258 82.2236 51.6391 81.106 50.7693C81.7066 49.9273 86.8526 46.7501 87.9778 46.5681Z" fill="#18466F"/>
<path d="M80.4137 26.7693C80.8832 27.6286 81.2343 28.3252 81.6377 29.2173C80.6373 28.1469 80.1311 29.1482 79.0615 28.7877C79.5704 28.15 79.9815 27.4604 80.4137 26.7693Z" fill="#18466F"/>
<path d="M75.1688 42.1947C75.4758 42.7989 75.7124 43.1333 75.6087 43.8127L75.2831 44.393L74.8806 44.4536C74.3097 43.9512 74.4731 44.0695 74.2407 43.2346L75.1688 42.1947Z" fill="#F6F7F7"/>
<path d="M73.5122 41.2168L74.3153 40.6976C74.6077 41.1816 74.9331 41.6849 75.1692 42.1948L74.2411 43.2347C74.1565 42.3262 73.9628 41.9869 73.5122 41.2168Z" fill="#EBEBED"/>
<path d="M144.159 71.4906C144.198 76.8857 144.31 82.2577 144.612 87.647C145.129 96.8375 145.866 105.258 144.308 114.445C141.169 116.489 134.483 115.55 130.646 115.927C119.751 116.996 108.935 117.008 98.0101 116.42C93.1924 116.16 88.3808 117.097 83.6143 117.022C83.7085 108.252 85.6337 100.557 87.6452 92.0917C88.3699 89.0411 88.9315 85.8648 89.6593 82.7586L90.3655 82.8729C91.3325 82.754 94.456 83.4602 96.007 83.3246C99.0611 83.0573 102.678 82.73 105.657 81.9808C107.916 81.413 109.798 80.689 112.17 80.1423L112.744 79.912C114.206 79.762 116.272 78.9396 117.749 78.5476C120.988 77.6876 124.316 76.4891 127.524 75.6116C131.606 74.4952 135.796 73.6461 139.912 72.5399C141.18 72.151 141.948 71.9961 143.242 71.7589L144.159 71.4906Z" fill="#F6F7F7"/>
<path d="M112.744 79.9117C114.206 79.7616 116.272 78.9393 117.749 78.5472C120.987 77.6873 124.316 76.4887 127.524 75.6112C131.606 74.4948 135.796 73.6457 139.912 72.5396C140.547 73.396 140.445 73.2491 141.526 73.6917L135.642 81.5706C134.336 83.3509 132.333 86.3246 130.821 87.8318C127.69 88.0142 124.555 88.0176 121.451 88.2161C119.059 86.9591 115.056 81.6832 112.744 79.9117Z" fill="#18466F"/>
<path d="M125.607 80.8496C127.984 80.8097 128.983 83.2381 126.44 84.6C125.645 84.4826 124.994 84.2565 124.429 83.6828C123.867 82.2715 124.566 81.7106 125.607 80.8496Z" fill="#18466F"/>
<path d="M90.3652 82.8729C91.3322 82.754 94.4557 83.4602 96.0068 83.3245C99.0609 83.0573 102.677 82.73 105.657 81.9808C107.915 81.413 109.798 80.689 112.17 80.1423C110.345 82.8602 107.093 87.9993 104.329 89.4545C102.796 89.7581 101.487 89.5661 100.286 89.7849C97.8107 90.6323 92.5295 84.3137 90.3652 82.8729Z" fill="#18466F"/>
<path d="M100.286 88.7683C99.1855 88.6897 98.3308 87.7781 98.3231 86.6751C98.3153 85.5719 99.1573 84.6484 100.256 84.5545C101.355 84.4605 102.342 85.2275 102.522 86.3159C102.701 87.4043 102.014 88.4479 100.943 88.7123C100.728 88.7652 100.506 88.7842 100.286 88.7683Z" fill="#18466F"/>
<path d="M100.286 88.768C100.507 88.7839 100.728 88.7649 100.943 88.712C102.101 89.7417 103.16 89.0805 104.329 89.4546C102.796 89.7582 101.487 89.5662 100.286 89.785L100.286 88.768Z" fill="#18466F"/>
<path d="M139.912 72.5398C141.18 72.1508 141.948 71.996 143.242 71.7588C142.64 72.3611 141.971 72.9732 141.526 73.6919C140.445 73.2493 140.547 73.3962 139.912 72.5398Z" fill="#18466F"/>
<path d="M112.664 82.0076C114.73 82.1879 123.915 93.4564 125.517 95.5865C122.229 100.021 120.022 103.956 117.772 108.974C117.193 110.267 117.042 112.734 116.351 113.307C112.277 107.426 106.508 100.204 102.813 94.4302C106.182 90.3889 109.304 86.0763 112.664 82.0076Z" fill="#18466F"/>
<path d="M112.886 93.237C114.424 93.1691 115.263 93.4147 116.687 93.8414C117.674 97.1273 117.501 98.4192 114.433 99.8681C110.192 100.424 108.498 94.7133 112.886 93.237Z" fill="#18466F"/>
<path d="M112.918 94.3927C115.935 94.1291 117.184 96.7759 114.522 98.531C112.105 99.1838 110.12 96.4397 112.918 94.3927Z" fill="#18466F"/>
<path d="M142.596 74.3276C143.014 74.9247 143.126 81.5111 143.141 82.751C143.226 89.5651 144.129 96.2827 144.282 103.081C144.356 106.372 143.515 109.666 143.488 112.943C141.034 110.904 138.532 107.781 136.253 105.402C134.504 103.269 128.846 97.4003 126.901 95.6735C128.55 93.8238 130.121 91.3151 131.556 89.2362C135.03 84.2017 139.196 79.3614 142.596 74.3276Z" fill="#18466F"/>
<path d="M136.582 92.3807C141.38 91.7901 142.167 96.5589 138.414 98.1766C136.386 98.7424 134.686 97.8088 134.855 95.5499C134.985 93.8178 135.376 93.4971 136.582 92.3807Z" fill="#18466F"/>
<path d="M136.931 93.667C140.033 93.5911 139.705 95.6437 138.016 97.3516C135.591 97.5626 135.726 95.1198 136.931 93.667Z" fill="#18466F"/>
<path d="M105.481 101.652C105.56 101.634 106.114 101.649 106.235 101.65C107.376 102.469 115.011 113.532 116.067 115.333C112.638 115.412 109.208 115.365 105.783 115.192C102.6 115.012 99.001 114.622 95.8719 114.629C92.3045 114.774 88.1213 115.392 84.3359 115.625C87.9424 112.164 92.419 105.295 96.4353 102.925C97.0992 102.533 103.973 101.843 105.481 101.652Z" fill="#18466F"/>
<path d="M99.5586 107.787C102.245 107.699 103.896 110.278 101.271 112.045C97.7791 112.375 96.734 109.831 99.5586 107.787Z" fill="#18466F"/>
<path d="M129.898 101.591C130.199 101.608 130.499 101.624 130.799 101.641C135.304 105.013 138.535 110.204 142.69 113.959C139.164 114.52 132.891 114.418 129.122 114.467C125.247 114.457 121.098 115.146 117.074 115.226C118.357 110.858 120.76 106.653 121.655 103.194C124.42 102.75 127.169 102.215 129.898 101.591Z" fill="#18466F"/>
<path d="M127.323 107.342C128.526 107.087 129.707 107.858 129.959 109.062C130.21 110.266 129.435 111.445 128.231 111.693C127.031 111.94 125.857 111.17 125.607 109.97C125.357 108.771 126.124 107.595 127.323 107.342Z" fill="#18466F"/>
<path d="M90.5946 84.9087C92.6782 85.7231 99.2284 92.6932 100.951 94.57C97.6215 98.6147 93.3551 103.79 89.7156 107.492C88.4904 108.689 86.4877 111.888 85.1713 112.545C84.5414 110.721 89.7319 88.2577 90.5946 84.9087Z" fill="#18466F"/>
<path d="M91.4285 94.678C95.009 94.5856 96.6761 95.4966 95.176 99.1766L93.5342 100.261C89.8875 101.364 87.0344 96.456 91.4285 94.678Z" fill="#18466F"/>
<path d="M91.8625 95.9099C92.3745 95.9356 93.089 95.9505 93.5381 96.1966C93.8643 96.3795 94.0932 96.6967 94.164 97.0639C94.3028 97.8225 93.7678 98.6679 93.3605 99.2741C90.5093 99.4031 89.786 97.0884 91.8625 95.9099Z" fill="#18466F"/>
<path d="M101.777 95.3978C102.461 95.6837 104.806 99.2732 105.513 100.186C104.244 100.476 102.918 100.552 101.618 100.666C100.14 100.696 98.7325 100.804 97.2588 100.913C98.4462 99.3035 100.448 96.8394 101.777 95.3978Z" fill="#18466F"/>
<path d="M128.895 89.3432L129.239 89.3301L129.449 89.5495C129.33 90.3428 127.071 93.482 126.528 94.2832C125.969 93.8383 125.314 93.1823 124.782 92.6776C124.04 91.8697 123.011 90.5042 122.3 89.6156C124.498 89.5073 126.696 89.4164 128.895 89.3432Z" fill="#18466F"/>
<path d="M126.517 96.4844C127.493 97.8294 128.516 99.0724 129.817 100.109C128.519 100.528 127.807 100.642 126.47 100.86L123.205 101.541C124.15 99.9289 125.465 98.0624 126.517 96.4844Z" fill="#18466F"/>
<path d="M100.289 91.145C101.311 91.3149 102.311 91.0006 103.032 91.3628C103.11 92.0733 102.889 92.1101 102.398 92.8758C102.094 93.3768 102.264 93.2654 101.79 93.3962C101.113 93.0282 100.373 91.9143 100.289 91.145Z" fill="#18466F"/>
<path d="M144.159 71.4911C145.54 71.1872 147.452 70.6695 148.805 70.7736C147.442 78.2661 148.878 90.0566 149.439 97.6126C149.856 103.233 148.561 113.166 146.988 118.665C141.85 119.03 136.761 119.003 131.631 119.184C126.797 119.353 121.994 119.766 117.138 119.864L86.8381 120.322C84.3974 120.356 81.8869 120.199 79.4932 120.263C80.1989 107.404 84.6097 94.7725 86.9706 82.172C86.9731 82.1442 86.9754 82.1167 86.9779 82.0891C87.5978 82.2258 89.1514 82.5254 89.6592 82.7591C88.9313 85.8652 88.3698 89.0416 87.645 92.0921C85.6335 100.558 83.7084 108.253 83.6141 117.022C88.3806 117.098 93.1923 116.161 98.01 116.42C108.935 117.008 119.751 116.997 130.645 115.927C134.483 115.551 141.169 116.489 144.308 114.446C145.866 105.258 145.129 96.8379 144.612 87.6474C144.309 82.2581 144.198 76.8862 144.159 71.4911Z" fill="#18466F"/>
<path d="M38.0686 64.8745C38.7089 65.1991 39.3674 65.4862 40.0407 65.7349C50.7997 69.7614 70.3008 67.4105 81.4621 64.3439C83.7218 63.723 86.7132 61.1581 88.9941 60.1803L89.0173 61.7466C88.7723 63.0762 88.8706 63.8697 88.7136 64.9456L88.5569 65.0124C86.6058 65.8663 84.7475 67.4996 82.7638 68.4251C76.152 71.5098 71.3867 74.0533 64.0641 74.8533C55.93 75.7419 48.6921 74.8673 40.9576 71.9791C39.9726 71.6257 37.3693 70.4632 36.5938 69.7432C37.2412 69.096 37.1825 67.444 37.2213 66.4803C37.4489 65.9326 37.7756 65.3943 38.0686 64.8745Z" fill="#18466F"/>
<path d="M38.0689 64.8745C38.7092 65.1991 39.3677 65.4862 40.0411 65.7349C50.8 69.7614 70.3012 67.4105 81.4624 64.3439C83.7222 63.723 86.7136 61.1581 88.9944 60.1803L89.0176 61.7466C87.9779 62.1539 87.0442 62.9696 86.0691 63.5535C79.9304 67.2289 72.1325 68.2107 65.1019 68.8448C57.1124 69.5656 48.9043 69.7298 41.076 67.7282C40.0745 67.4676 37.8376 67.2845 37.2217 66.4803C37.4493 65.9326 37.7759 65.3943 38.0689 64.8745Z" fill="#F6F7F7"/>
<path d="M31.5704 10.3667C31.8955 8.64295 32.4048 3.22396 34.3864 3.17813C35.8817 3.92546 36.7736 6.65626 37.2938 8.15604L37.4136 8.07006C41.0863 5.47767 50.5861 2.23352 55.056 3.04643C54.0149 3.96435 51.4809 7.37111 50.4003 8.718C46.5224 13.5516 40.5055 19.6022 37.1007 24.592C34.3843 16.9861 31.2767 15.3171 23.5059 15.1762C24.3731 12.5071 25.8824 3.88584 28.7645 3.32674C30.6138 3.98013 31.3624 8.63729 31.5704 10.3667Z" fill="#18466F"/>
<path d="M131.489 120.814L135.999 120.752C136.091 122.271 136.185 126.979 136.993 127.871L137.834 128.286L138.238 128.638C133.877 131.191 121.37 130.9 119.565 132.319C119.05 131.684 117.614 129.865 117.225 129.295C116.419 128.115 116.475 122.649 116.803 121.38L117.441 121.128C119.183 121.345 118.038 122.647 118.983 123.786C119.547 123.882 119.318 123.917 119.843 123.634C120.123 122.956 119.912 122.033 119.812 121.279C121.217 121.061 122.859 121.019 124.297 120.949C124.76 120.933 125.335 120.897 125.787 120.924C127.265 120.85 128.651 120.837 130.13 120.832C130.051 121.672 129.864 122.611 130.238 123.343L130.586 123.618C131.66 123.151 131.474 121.847 131.489 120.814Z" fill="#18466F"/>
<path d="M124.297 120.949C124.759 120.933 125.334 120.897 125.787 120.924C125.791 122.407 126.014 127.045 125.159 128.357C125.038 128.542 124.789 128.482 124.517 128.483C123.884 127.608 124.258 122.439 124.297 120.949Z" fill="#EBEBED"/>
<path d="M14.7384 55.8459C16.8865 57.4169 18.3829 58.5504 19.9234 60.747C19.465 61.2674 19.0542 62.5767 18.879 63.2016C17.0541 69.7121 14.4932 74.0903 6.88561 71.3837C6.46181 71.233 5.83438 71.0654 5.44141 70.814C6.11076 70.3187 13.6891 57.6054 14.7384 55.8459Z" fill="#18466F"/>
<path d="M9.28862 50.5262C10.6379 51.744 13.0202 53.7747 14.1049 55.1059C10.9906 59.1778 7.12052 65.7365 4.62253 70.3451C3.61267 69.0832 3.20448 68.3808 2.65885 66.8379C1.66766 63.9698 1.85027 60.8262 3.16687 58.0923C3.91215 56.5394 7.93748 50.9963 9.28862 50.5262Z" fill="#18466F"/>
<path d="M22.4802 21.259C23.3706 22.9545 27.3347 22.3635 28.4099 26.0331C30.1089 31.8318 22.6931 37.2764 17.4983 37.3504C17.5697 35.1594 17.8129 32.0604 18.8182 30.0792C20.9608 25.8565 21.8114 26.1188 22.4802 21.259Z" fill="#18466F"/>
<path d="M14.647 41.7404C15.2759 42.6459 15.4078 42.5575 16.5093 43.067C18.3497 43.9968 19.4633 44.5834 21.5701 44.6908C19.8245 47.2114 16.0167 51.888 14.7953 53.9285C13.1181 52.0335 12.0805 51.3261 9.95117 49.9256C10.2178 48.0805 11.9467 45.9558 13.0541 44.3566L14.647 41.7404Z" fill="#18466F"/>
<path d="M14.6471 41.7404C15.276 42.6459 15.4079 42.5575 16.5094 43.067C15.6839 43.6425 15.4605 43.7301 14.4434 43.6547C13.7019 43.5997 13.6488 43.997 13.0542 44.3566L14.6471 41.7404Z" fill="#18466F"/>
<path d="M80.5232 80.5143C82.7326 76.5233 84.2789 72.4889 86.4053 68.5159C86.7077 67.9508 88.1467 66.5755 88.6671 66.0538C87.3965 71.2674 85.794 76.1814 83.9794 81.2271C84.8343 81.7598 85.1006 81.4896 85.7422 81.8474C85.3691 84.6915 84.036 88.1355 83.8847 89.5157L83.4962 89.0935L83.4534 88.6971C83.0026 88.0873 82.0406 87.6005 81.3633 87.1959C81.1587 85.0708 80.7976 82.6535 80.5232 80.5143Z" fill="#18466F"/>
<path d="M22.6406 20.7589C22.9317 19.2504 23.0998 18.2045 23.2438 16.6773C24.1589 16.6071 25.2588 16.4928 26.1622 16.4918C25.1119 18.487 24.9771 20.7226 22.6406 20.7589Z" fill="#18466F"/>
<path d="M83.8846 89.5154C83.5833 90.6318 83.8573 91.6291 82.7682 92.2861L82.4604 92.0466C82.045 90.4241 82.0529 89.7798 83.4961 89.0933L83.8846 89.5154Z" fill="#18466F"/>
<path d="M64.5347 123.733C67.5259 123.71 71.2019 124.416 74.4075 124.552C73.7241 127.313 73.0656 129.417 71.9685 132.029C71.7457 132.503 71.3425 133.732 71.1453 134.277C69.7639 131.136 65.9754 128.246 64.5347 123.733Z" fill="#18466F"/>
<path d="M69.1304 126.107C70.2284 126.165 71.1135 126.501 71.492 127.565C71.2228 128.387 71.2418 128.188 70.5311 128.844C69.9488 129.073 69.8103 129.156 69.1844 129.039C68.1507 128.129 68.5501 127.176 69.1304 126.107Z" fill="#18466F"/>
<path d="M161.78 122.373L162.045 122.35C162.256 123.647 157.493 131.366 155.419 131.811C154.754 131.532 154.935 131.54 154.553 130.672C153.989 128.143 153.019 125.861 152.569 123.317C155.653 123.116 158.57 122.532 161.78 122.373Z" fill="#18466F"/>
<path d="M156.579 124.065C157.102 124.71 157.962 125.549 157.956 126.321C157.514 126.905 157.612 126.737 156.77 126.975C155.844 126.882 155.848 127.033 155.253 126.533C155.218 125.967 156.186 124.743 156.579 124.065Z" fill="#18466F"/>
<path d="M84.2961 69.3313C83.428 72.7634 82.4203 74.1135 80.5064 77.0184C80.2901 75.7845 80.1637 73.9931 79.1254 73.2429L78.7227 73.3359C78.143 74.371 78.4458 75.9906 79.2163 76.847L78.9624 77.1661C77.6811 76.2389 76.2245 74.6825 75.092 73.5346C78.1652 72.5313 80.4418 70.6429 84.2961 69.3313Z" fill="#18466F"/>
<path d="M40.448 73.1853C42.2814 74.2244 46.6226 74.8154 49.0504 75.8626C48.6525 76.8661 45.1332 81.0621 43.932 80.0973C43.9138 79.0068 45.3719 77.8482 45.053 76.7934C44.2918 75.7982 43.6271 75.8162 42.7341 76.6106C42.8344 78.239 43.082 79.0937 43.276 80.5984C42.6927 79.7719 42.1949 79.1451 41.8394 78.188C41.4331 77.1648 40.8806 74.5621 40.448 73.1853Z" fill="#18466F"/>
<path d="M41.8391 78.1881C42.6627 77.6059 42.4972 77.5877 42.7338 76.6107C42.8341 78.2391 43.0817 79.0939 43.2757 80.5986C42.6924 79.772 42.1946 79.1453 41.8391 78.1881Z" fill="#18466F"/>
<path d="M27.7368 16.9631C32.6989 18.363 31.9086 19.5727 29.3479 23.1086C28.4338 23.1209 27.0946 22.0056 25.6702 21.4672C26.1299 20.1846 26.9625 18.0629 27.7368 16.9631Z" fill="#18466F"/>
<path d="M33.0335 23.447C37.0861 23.7083 35.8794 27.4685 33.0209 27.9281C28.7006 27.2085 30.3537 24.0299 33.0335 23.447Z" fill="#18466F"/>
<path d="M22.6906 38.0432C23.3769 38.5473 24.4853 44.1113 20.7437 43.0762C20.1532 42.7652 19.6226 42.4894 19.4105 41.8394C18.6693 39.5675 21.2214 38.5859 22.6906 38.0432Z" fill="#18466F"/>
<path d="M58.8254 77.1534C60.2369 76.9835 61.6513 76.8388 63.068 76.7197L62.9297 76.9283C61.8802 77.7199 61.7 80.1855 62.323 81.3728C62.4361 81.5882 63.0244 81.3209 63.4279 82.1226C63.2967 82.8831 63.2758 82.9865 62.843 83.631L62.5575 83.5926C61.6532 81.0223 60.3496 79.3874 58.8254 77.1534Z" fill="#18466F"/>
<path d="M63.068 76.72C64.8018 76.3315 66.5054 76.2541 68.2157 75.8752C66.0741 77.6364 66.0001 79.0391 63.8083 80.8742C63.7656 79.1471 63.7021 78.5191 62.9297 76.9285L63.068 76.72Z" fill="#18466F"/>
<path d="M32.2003 30.2184L32.2523 30.5193C31.5689 31.55 30.6321 32.731 29.4438 33.1768C29.0774 32.7686 29.0321 32.7141 28.915 32.1807C29.3136 30.6236 30.8005 30.3649 32.2003 30.2184Z" fill="#18466F"/>
<path d="M25.6692 35.9495C26.5553 35.9577 26.7657 35.8124 27.4119 36.2084C27.4286 36.8463 27.0974 37.1566 26.7062 37.6914C25.9551 37.6157 25.5172 37.4429 25.061 36.901C25.1862 36.2523 25.0803 36.4971 25.6692 35.9495Z" fill="#18466F"/>
<path d="M79.2166 76.847C80.1553 77.3214 80.2492 77.3244 80.2508 78.5229L79.9986 78.7908C79.3656 78.5014 79.2544 77.8821 78.9626 77.1662L79.2166 76.847Z" fill="#18466F"/>
<path d="M24.5717 37.8777C24.7516 37.9895 25.0034 38.206 25.1775 38.3446C25.4193 39.0152 25.003 39.7176 24.7125 40.4135C24.5878 40.4624 24.6068 40.4217 24.4093 40.3401C24.314 39.6568 24.486 38.5972 24.5717 37.8777Z" fill="#18466F"/>
<path d="M243.603 68.2802C244.337 68.0398 247.162 67.9088 248.044 68.039L249.338 68.3502C253.179 69.4085 260.132 76.2665 261.649 79.8059V84.941C256.704 84.1185 255.818 85.0629 251.277 85.513L250.957 85.5523C248.614 86.2758 247.26 86.5655 245.03 87.7207C241.43 89.1155 237.016 91.5991 233.553 93.4413L215.223 103.254L214.709 103.569C214.303 103.805 214.067 104.013 213.616 103.965C211.447 104.517 210.749 104.816 208.732 105.492C207.168 105.723 206.337 105.761 204.751 105.778L203.649 105.871C204.672 99.2059 205.441 93.4354 203.082 86.8342L203.989 86.6114C204.461 86.448 206.462 86.4413 207.031 86.4432C208.45 85.8775 209.858 85.2894 211.259 84.679C221.045 78.1106 227.651 68.7351 240.209 68.2365C241.058 68.2028 241.486 68.0517 242.36 68.2637L243.603 68.2802Z" fill="#18466F"/>
<path d="M243.603 68.2802C244.336 68.0398 247.162 67.9088 248.044 68.039L249.337 68.3502C253.178 69.4085 260.131 76.2665 261.648 79.8059V84.941C256.704 84.1185 255.818 85.0629 251.277 85.513L250.957 85.5523C248.614 86.2758 247.26 86.5655 245.03 87.7207C244.351 87.1188 244.495 84.7469 244.485 83.7226C244.426 78.2314 243.454 73.5902 242.359 68.2637L243.603 68.2802Z" fill="#F6F7F7"/>
<path d="M249.337 68.35C253.178 69.4083 261.648 75.7417 262.691 84.1575L261.648 84.9408C256.704 84.1183 255.818 85.0627 251.277 85.5128L251.763 85.2344C252.892 82.2301 251.327 70.868 249.308 68.4986L249.337 68.35Z" fill="#18466F"/>
<path d="M245.03 87.7205C245.789 85.5113 248.988 83.3155 250.627 80.946C250.622 82.1258 250.497 84.5891 250.957 85.5521C248.614 86.2756 247.26 86.5652 245.03 87.7205Z" fill="#18466F"/>
<path d="M243.603 68.2802C244.336 68.0398 247.162 67.9088 248.044 68.039C248.299 69.0331 248.372 68.7443 248.065 69.6139C247.279 70.3997 245.697 70.9322 245.582 71.7806C245.089 72.0885 245.181 72.1455 244.725 72.1002C244.092 70.9884 243.874 69.5499 243.603 68.2802Z" fill="#18466F"/>
<path d="M248.043 68.0383L249.337 68.3495L249.308 68.4981L248.842 68.8908C248.963 69.9861 249.521 69.4486 249.479 70.553L249.092 70.924L248.675 70.8207C248.422 71.0111 246.434 72.3695 246.407 72.4015C246.15 71.8755 246.282 72.051 245.582 71.78C245.696 70.9315 247.278 70.399 248.064 69.6132C248.371 68.7437 248.298 69.0325 248.043 68.0383Z" fill="#EBEBED"/>
<path d="M246.407 72.4018C246.434 72.3698 248.422 71.0114 248.675 70.821L249.093 70.9243C249.295 71.8938 249.732 73.3144 249.346 74.1431C248.65 74.0954 247.13 72.8894 246.407 72.4018Z" fill="#18466F"/>
<path d="M245.577 79.4746C246.762 79.703 248.296 80.4702 249.347 81.032L248.085 82.2896L245.981 84.0503C245.983 82.242 245.928 81.2345 245.577 79.4746Z" fill="#18466F"/>
<path d="M250.158 76.0411L250.484 76.4018C250.695 77.6779 250.984 78.4791 250.392 79.6302C249.766 79.8676 249.843 79.7372 249.034 79.4369C248.307 78.8154 248.225 78.9374 247.954 78.1521C248.161 77.5247 249.477 76.6731 250.158 76.0411Z" fill="#18466F"/>
<path d="M245.132 74.1442C246.194 74.4307 247.766 74.6601 248.286 75.5115C247.931 76.1623 247.772 76.0827 246.999 76.5046L245.419 77.7784C245.297 76.569 245.203 75.3575 245.132 74.1442Z" fill="#18466F"/>
<path d="M211.259 84.6786C213.852 86.5829 214.922 91.0376 215.781 93.7702C216.071 95.4948 216.088 96.6371 216.13 98.3976C215.917 100.528 215.626 101.254 215.223 103.253L214.709 103.568C214.303 103.805 214.067 104.013 213.616 103.965C211.447 104.517 210.749 104.816 208.732 105.491C207.168 105.722 206.337 105.76 204.751 105.778L203.649 105.871C204.672 99.2055 205.441 93.435 203.082 86.8338L203.989 86.6111C204.461 86.4476 206.462 86.441 207.031 86.4428C208.45 85.8771 209.858 85.289 211.259 84.6786Z" fill="#EBEBED"/>
<path d="M212.196 97.136C212.857 97.4267 214.054 97.838 214.393 98.4051L214.667 98.6296L214.936 99.3184C214.665 100.401 214.754 101.039 214.081 101.764C212.995 102.087 211.837 100.634 211.068 99.8369L210.903 99.6555C211.012 98.7284 211.659 97.8716 212.196 97.136Z" fill="#18466F"/>
<path d="M212.196 97.136C212.857 97.4267 214.054 97.838 214.393 98.4051C213.166 99.2509 212.598 99.6311 211.068 99.8369L210.903 99.6555C211.012 98.7284 211.659 97.8716 212.196 97.136Z" fill="#EBEBED"/>
<path d="M205.416 102.976C206.281 103.116 207.96 103.17 208.509 103.721C208.38 104.435 208.251 104.906 208.731 105.491C207.167 105.722 206.337 105.76 204.75 105.778L205.416 102.976Z" fill="#18466F"/>
<path d="M213.941 93.7812C212.832 93.442 209.741 92.2195 209.091 91.4193L209.275 91.1783C211.339 91.2546 211.385 91.4057 213.502 90.9656C213.904 91.7731 213.925 92.6675 214.282 93.5779L214.232 93.8556L213.941 93.7812Z" fill="#18466F"/>
<path d="M213.941 93.7811L214.232 93.8555C215.074 94.146 214.802 94.0739 215.78 93.7703C216.071 95.4948 216.087 96.6371 216.129 98.3976L215.475 99.0714C215.149 98.7188 215.247 98.8605 215.262 98.2241L214.936 99.3184L214.666 98.6296C214.71 98.2599 214.748 97.8896 214.779 97.5184C214.836 96.829 214.949 95.6624 214.503 95.1366C213.701 95.0551 213.797 95.1966 213.358 94.7289C213.448 94.2075 213.548 94.1471 213.941 93.7811Z" fill="#F6F7F7"/>
<path d="M214.504 95.1364C214.949 95.6622 214.836 96.8287 214.78 97.5181C214.748 97.8893 214.711 98.2596 214.667 98.6293L214.393 98.4049C214.054 97.8377 212.857 97.4264 212.196 97.1357L211.735 96.901C211.845 96.7395 211.958 96.5798 212.075 96.4224C212.863 95.3658 213.175 95.3251 214.504 95.1364Z" fill="#18466F"/>
<path d="M203.989 86.6108C204.461 86.4474 206.462 86.4407 207.031 86.4426L206.855 86.6698L207.492 86.8298L207.646 87.1682C207.253 87.8066 206.014 88.5772 205.28 88.708C204.907 88.0524 204.447 87.1803 203.989 86.6108Z" fill="#18466F"/>
<path d="M213.615 103.965C212.7 103.847 211.488 104.007 210.733 103.55C210.376 103.127 210.154 102.495 210.535 102.037C211.711 102.118 212.721 103.297 214.499 103.542L214.708 103.569C214.303 103.805 214.067 104.013 213.615 103.965Z" fill="#18466F"/>
<path d="M211.735 96.901L212.196 97.1357C211.659 97.8713 211.011 98.7281 210.903 99.6552C210.399 99.2067 210.109 99.0197 209.896 98.3656C210.341 97.5286 211.045 97.6761 211.735 96.901Z" fill="#18466F"/>
<path d="M210.771 86.6603C210.855 86.6532 211.233 86.7504 211.344 86.7754C212 87.5299 213.235 88.6626 212.662 89.6968L211.751 89.688C210.656 89.6653 208.813 89.9315 208.846 88.5326C209.233 87.7529 210.071 87.2068 210.771 86.6603Z" fill="#18466F"/>
<path d="M206.011 99.2993C206.821 99.293 207.747 99.186 208.401 99.6234C208.966 100.43 208.867 100.922 208.732 101.933C207.67 101.678 206.528 101.963 205.847 101.464C205.564 100.883 205.865 99.9634 206.011 99.2993Z" fill="#18466F"/>
<path d="M205.803 95.2902C206.675 95.3065 207.869 95.1949 208.495 95.7518C208.753 96.5773 208.654 96.3957 208.437 97.3462C207.714 97.4538 207.058 97.6208 206.369 97.3986C205.824 96.6887 205.927 96.2642 205.803 95.2902Z" fill="#18466F"/>
<path d="M205.644 92.5227C206.98 92.7344 208.116 92.7691 208.697 94.0422C207.621 93.8157 207.188 94.0274 206.069 93.7216C205.549 93.1768 205.692 93.4027 205.644 92.5227Z" fill="#18466F"/>
<path d="M207.119 89.9041C207.681 90.0069 207.979 90.2763 208.132 90.7904C207.728 91.1993 207.753 91.0735 207.047 91.1007C206.374 91.0451 205.788 91.1176 205.503 90.4434C206.146 89.8869 206.13 90.0472 207.119 89.9041Z" fill="#18466F"/>
<path d="M209.653 94.2167C210.42 94.1738 211.26 94.1826 211.852 94.6718L211.643 95.0018C211.022 95.2258 210.788 95.3362 210.109 95.3675C209.62 94.871 209.764 95.0254 209.653 94.2167Z" fill="#18466F"/>
<path d="M188.007 133.308L188.618 133.381C190.04 133.439 196.446 133.542 197.331 133.937L197.539 134.016C199.849 133.908 208.815 133.301 209.789 134.72C213.233 139.745 217.39 146.617 221.204 151.582C223.697 154.829 225.916 157.235 228.746 160.105C229.758 161.151 233.674 165.057 234.18 165.929C233.377 166.83 229.663 171.262 229.271 172.08C226.556 169.144 223.354 166.87 220.345 163.393C216.734 159.224 212.681 153.317 208.953 149.565C206.367 149.5 203.844 150.413 201.403 150.622C199.04 150.824 193.071 151.812 191.049 151.387L190.217 151.31C189.21 151.358 184.685 150.715 183.184 150.616L182.109 150.296C183.815 146.899 185.353 142.292 186.544 138.654C187.089 136.988 187.376 134.865 188.007 133.308Z" fill="#18466F"/>
<path d="M188.007 133.308L188.618 133.381C190.04 133.439 196.446 133.542 197.331 133.937C195.458 139.22 192.722 144.148 190.989 149.484C190.783 150.119 190.541 150.724 190.217 151.31C189.21 151.358 184.685 150.715 183.184 150.616L182.109 150.296C183.815 146.899 185.353 142.292 186.544 138.654C187.089 136.988 187.376 134.865 188.007 133.308Z" fill="#18466F"/>
<path d="M188.007 133.308L188.618 133.381L189.136 133.638C188.701 136.959 185.07 147.955 183.184 150.616L182.109 150.296C183.815 146.899 185.353 142.292 186.544 138.654C187.089 136.988 187.376 134.865 188.007 133.308Z" fill="#EBEBED"/>
<path d="M189.967 140.351C191.831 140.601 192.641 143.712 190.464 144.582C187.446 143.945 188.256 142.049 189.967 140.351Z" fill="#18466F"/>
<path d="M188.265 146.171L189.046 146.447C189.917 147.622 189.319 148.239 188.398 149.139L187.591 149.1C186.778 148.121 187.625 147.056 188.265 146.171Z" fill="#18466F"/>
<path d="M191.665 136.306C192.473 136.376 192.654 136.389 192.962 137.075C192.857 137.817 192.301 138.408 191.834 139.012L191.313 139.128L191.022 138.879C190.955 138.17 191.424 137.026 191.665 136.306Z" fill="#18466F"/>
<path d="M197.331 133.937L197.539 134.015L198.269 134.326C197.596 136.389 192.18 150.772 191.049 151.387L190.217 151.31C190.541 150.724 190.782 150.118 190.989 149.483C192.722 144.147 195.458 139.219 197.331 133.937Z" fill="#F6F7F7"/>
<path d="M186.923 158.698C190.445 160.401 193.896 162.652 197.601 164.129C197.984 164.282 198.463 164.641 198.654 165.022C198.786 166.574 197.96 169.589 197.587 171.172C195.469 180.16 197.884 188.284 200.526 196.997L200.728 197.717C199.675 198.827 197.958 199.492 197.231 200.14L196.227 199.216C194.921 200.001 193.358 200.545 191.926 201.094C189.258 193.641 187.002 184.776 187.049 176.854C185.015 176.404 182.452 176.289 180.332 176.059C176.696 175.666 174.314 174.976 170.97 173.667C172.105 172.805 173.634 170.445 174.874 169.251C178.273 165.978 183.824 162.026 186.923 158.698Z" fill="#18466F"/>
<path d="M196.227 199.216C196.961 198.645 199.645 197.4 200.525 196.997L200.728 197.717C199.675 198.827 197.958 199.492 197.231 200.14L196.227 199.216Z" fill="#EBEBED"/>
<path d="M16.9074 153.115C16.547 152.501 14.9062 147.296 14.6112 146.359C11.5721 136.703 10.5313 126.437 11.6024 116.369C11.7483 114.998 11.7804 111.838 12.3455 110.748C14.1897 110.313 24.77 114.187 27.7839 114.399C27.6075 121.268 27.4853 125.617 26.3141 132.375C26.1313 131.23 25.1497 130.286 24.3785 129.377L23.9693 129.262C20.5235 131.623 23.2272 145.825 24.394 149.587C22.8939 150.022 18.2407 152.25 16.9074 153.115Z" fill="#18466F"/>
<path d="M46.5224 163.735C49.1636 164.759 55.6946 167.521 58.0298 168.188C56.1242 169.413 47.5985 180.943 45.8393 183.284C42.8654 187.242 40.0653 191.98 36.6032 195.933L35.8164 197.23C34.5589 198.602 34.1426 199.88 33.0486 201.159L32.5192 201.614C29.9707 200.365 28.2282 199.037 26.0056 197.329L26.6303 196.113C27.3617 194.916 28.4698 193.418 28.8691 192.145L29.6505 190.985C30.1901 190.101 31.0486 189.145 31.6944 188.078L42.3421 170.343C43.0157 169.229 45.8165 164.353 46.5224 163.735Z" fill="#18466F"/>
<path d="M29.6505 190.984C32.0208 192.425 33.8417 194.263 36.6032 195.933L35.8164 197.23C34.5589 198.602 34.1426 199.88 33.0486 201.159L32.5192 201.614C29.9707 200.365 28.2282 199.037 26.0056 197.329L26.6303 196.112C27.3617 194.916 28.4698 193.418 28.8691 192.145L29.6505 190.984Z" fill="#EBEBED"/>
<path d="M26.6301 196.113C27.3616 194.916 28.4696 193.418 28.869 192.146C30.0178 193.218 30.655 193.72 31.9385 194.632C30.8805 194.894 27.5559 195.683 26.6301 196.113Z" fill="#18466F"/>
<path d="M33.4601 195.231C34.3884 196.215 34.5953 196.566 35.8164 197.23C34.5589 198.602 34.1426 199.88 33.0486 201.159C33.3968 198.837 33.4358 197.594 33.4601 195.231Z" fill="#18466F"/>
<path d="M31.6655 195.767L32.0453 195.792C32.5391 196.474 32.2733 198.703 31.4994 199.44C30.6666 199.353 30.7809 199.251 30.0087 198.656C29.3416 198.228 28.3569 197.72 27.6426 197.324C29.3677 196.843 30.0875 196.559 31.6655 195.767Z" fill="#18466F"/>
<path d="M26.98 158.379L27.4634 158.61C28.5522 162.383 33.6694 174.332 32.9266 176.782C32.3534 177.664 30.4765 178.27 29.6587 177.261C25.9025 172.626 23.4312 167.673 20.6292 162.505C22.3037 160.863 24.9317 159.437 26.98 158.379Z" fill="#18466F"/>
<path d="M200.728 197.717C201.198 199.658 201.052 201.426 201.608 203.39L201.922 204.474C202.752 206.451 204.424 211.971 203.51 214H201.235C200.223 213.578 199.134 213.185 198.104 212.797C197.727 212.168 197.5 211.279 197.196 210.571C196.686 209.386 195.992 208.553 195.198 207.56L194.843 207.139C194.111 205.316 192.54 203.593 192.325 202.383L191.926 201.094C193.358 200.546 194.922 200.001 196.227 199.216L197.231 200.14C197.958 199.492 199.675 198.827 200.728 197.717Z" fill="#F6F7F7"/>
<path d="M199.359 205.317C200.116 205.115 201.154 204.73 201.922 204.473C202.752 206.45 204.424 211.97 203.51 213.999H201.235C200.223 213.577 199.135 213.184 198.105 212.796C197.727 212.167 197.5 211.279 197.196 210.57C196.686 209.385 195.992 208.553 195.198 207.56C196.62 206.861 197.691 206.06 199.359 205.317Z" fill="#18466F"/>
<path d="M200.728 197.717C201.198 199.658 201.051 201.426 201.607 203.39L200.7 202.637C200.316 202.91 200.04 203.157 199.586 203.274C198.61 202.889 198.172 202.421 197.102 202.229L197.427 202.027C197.541 201.601 197.242 201.161 197.035 200.661L197.231 200.14C197.958 199.492 199.674 198.827 200.728 197.717Z" fill="#18466F"/>
<path d="M197.035 200.66C198.622 201.368 199.256 201.644 200.7 202.637C200.316 202.91 200.04 203.156 199.586 203.273C198.61 202.888 198.172 202.42 197.102 202.228L197.427 202.026C197.541 201.6 197.242 201.161 197.035 200.66Z" fill="#EBEBED"/>
<path d="M197.102 202.229C198.172 202.421 198.61 202.889 199.586 203.273C200.04 203.157 200.316 202.91 200.7 202.637L201.607 203.39L201.921 204.474C201.154 204.731 200.115 205.115 199.358 205.317L198.939 204.977C198.377 205.013 197.816 205.064 197.257 205.13C196.958 205.186 197.091 205.161 196.725 204.997C196.552 204.31 196.938 202.98 197.102 202.229Z" fill="#18466F"/>
<path d="M200.701 202.638L201.608 203.391L201.922 204.474C201.154 204.731 200.116 205.116 199.359 205.318L198.94 204.977C198.378 205.013 197.817 205.064 197.257 205.13C197.974 204.772 199.433 204.228 199.754 203.644L199.587 203.274C200.04 203.157 200.316 202.911 200.701 202.638Z" fill="#EBEBED"/>
<path d="M192.325 202.383C193.997 201.598 194.7 201.439 196.465 200.939C195.683 202.572 195.385 203.537 195.127 205.36C195.051 205.898 195.014 206.665 194.842 207.138C194.111 205.315 192.54 203.593 192.325 202.383Z" fill="#18466F"/>
<path d="M24.3938 149.587L24.612 150.134C25.4573 151.356 26.0628 154.925 26.8396 156.563L27.4628 158.609L26.9794 158.378C24.9311 159.436 22.3031 160.862 20.6285 162.504L20.1844 162.002C19.4477 160.966 18.2035 156.034 17.2574 154.091L16.9072 153.114C18.2405 152.249 22.8937 150.021 24.3938 149.587Z" fill="#F6F7F7"/>
<path d="M22.9669 153.976C24.0149 154.586 25.9457 155.745 26.84 156.563L27.4632 158.609L26.9798 158.378C26.6692 158.217 26.1965 157.84 25.8968 157.619C24.2396 158.39 23.4177 158.901 21.876 159.903C22.0104 158.168 21.7594 156.503 22.0461 154.813C22.3637 154.644 22.7059 154.245 22.9669 153.976Z" fill="#18466F"/>
<path d="M22.9667 153.976C24.0147 154.586 25.9455 155.745 26.8398 156.563L27.463 158.609L26.9796 158.378C26.6691 158.217 26.1963 157.84 25.8966 157.619C25.4628 157.233 22.8595 155.456 22.0459 154.813C22.3636 154.644 22.7057 154.245 22.9667 153.976Z" fill="#EBEBED"/>
<path d="M17.2576 154.092C18.0946 153.856 19.1747 153.468 20.0087 153.565C21.1552 154.385 20.6375 160.81 20.1846 162.002C19.4479 160.966 18.2037 156.034 17.2576 154.092Z" fill="#18466F"/>
<path d="M24.6121 150.135C25.4574 151.357 26.0629 154.926 26.8397 156.564C25.9454 155.745 24.0146 154.586 22.9666 153.977C22.3762 153.552 21.7494 152.908 21.2163 152.392C22.671 151.596 23.2915 151.15 24.6121 150.135Z" fill="#18466F"/>
<path d="M240.15 171.458C240.706 171.857 241.417 172.386 241.998 172.721C247.164 175.706 249.853 174.74 247.5 181.674C243.145 181.247 238.846 178.514 235.043 176.171C236.311 175.029 239.097 171.819 240.15 171.458Z" fill="#18466F"/>
<path d="M26.0055 197.328C28.2281 199.037 29.9706 200.364 32.5192 201.613C31.3284 203.05 26.6858 209.31 25.8076 209.308C17.5569 209.298 24.5038 199.111 26.0055 197.328Z" fill="#18466F"/>
<path d="M234.18 165.928C234.478 166.468 234.591 166.663 234.598 167.301C236.278 168.756 238.376 169.529 240.15 171.458C239.097 171.819 236.311 175.029 235.043 176.171C234.637 175.888 234.154 175.449 233.743 175.124C232.591 174.212 231.028 173.662 229.939 172.734L229.271 172.08C229.663 171.261 233.377 166.829 234.18 165.928Z" fill="#EBEBED"/>
<path d="M229.939 172.734C231.11 171.773 231.929 170.574 233.316 170.709C233.814 171.258 234.188 174.443 235.043 176.171C234.637 175.888 234.154 175.449 233.743 175.124C232.591 174.212 231.028 173.662 229.939 172.734Z" fill="#18466F"/>
<path d="M234.407 170.438C235.496 170.581 237.26 170.975 238.416 171.177L237.095 172.529C236.723 173.121 236.512 173.649 235.778 173.647C235.39 173.241 234.94 171.469 234.407 170.438Z" fill="#18466F"/>
<path d="M116.022 128.836C116.911 130.857 117.801 132.451 118.867 134.374C117.312 133.012 114.902 133.233 113.289 134.386C114.071 132.554 115.108 130.623 116.022 128.836Z" fill="#18466F"/>
<path d="M226.022 60.0832C226.022 60.0832 219.693 66.149 212.836 61.6656C205.979 57.1822 210.462 47.9516 210.462 47.9516C210.462 47.9516 203.341 56.391 194.902 51.9075C186.199 47.6878 190.419 33.1826 190.419 33.1826C190.419 33.1826 178.551 44.7867 167.21 36.8748C155.87 28.9629 167.738 16.8313 167.738 16.8313" stroke="#FFF4E2" stroke-width="3.16478" stroke-miterlimit="10" stroke-linecap="round" stroke-linejoin="round"/>
<path d="M129.843 34.3109C129.843 34.3109 126.379 37.6053 122.627 35.1703C118.875 32.7353 121.329 27.722 121.329 27.722C121.329 27.722 117.432 32.3056 112.815 29.8705C108.053 27.5787 110.361 19.7007 110.361 19.7007C110.361 19.7007 103.868 26.0031 97.6625 21.706C91.4573 17.4089 97.9511 10.8201 97.9511 10.8201" stroke="#FFF4E2" stroke-width="3.16478" stroke-miterlimit="10" stroke-linecap="round" stroke-linejoin="round"/>
<path d="M81.1518 166.217C76.8365 182.322 86.394 198.876 102.499 203.192C118.605 207.507 135.159 197.95 139.474 181.844C143.79 165.739 134.232 149.185 118.127 144.87C102.021 140.554 85.4672 150.112 81.1518 166.217Z" fill="#DC4649"/>
<path d="M139.715 181.91C139.78 181.669 139.844 181.428 139.909 181.187C136.156 173.982 129.478 168.06 120.802 165.735C104.654 161.408 88.1533 170.935 83.8267 187.082C83.7621 187.323 83.6975 187.564 83.633 187.805C87.3852 195.01 94.064 200.932 102.74 203.257C118.582 207.76 135.388 198.057 139.715 181.91Z" fill="#FFF4E2"/>
<path d="M122.595 185.071C124.282 185.523 126.115 184.464 126.567 182.777C127.019 181.09 125.961 179.257 124.274 178.805C122.586 178.353 120.753 179.411 120.301 181.098C119.784 183.026 120.908 184.619 122.595 185.071Z" stroke="#F1ECE2" stroke-width="2.99404" stroke-miterlimit="10" stroke-linecap="round" stroke-linejoin="round"/>
<path d="M101.769 181.815C103.456 182.267 105.29 181.209 105.742 179.522C106.194 177.835 105.135 176.001 103.448 175.549C101.761 175.097 99.9278 176.156 99.4758 177.843C99.0237 179.53 100.082 181.363 101.769 181.815Z" stroke="#F1ECE2" stroke-width="2.99404" stroke-miterlimit="10" stroke-linecap="round" stroke-linejoin="round"/>
<path d="M105.159 196.156C106.846 196.608 108.68 195.549 109.132 193.862C109.584 192.175 108.525 190.342 106.838 189.89C105.151 189.438 103.318 190.496 102.866 192.183C102.414 193.87 103.472 195.704 105.159 196.156Z" stroke="#F1ECE2" stroke-width="2.99404" stroke-miterlimit="10" stroke-linecap="round" stroke-linejoin="round"/>
<path d="M93.1031 185.835C90.1546 196.839 96.6849 208.15 107.689 211.099C118.693 214.047 130.004 207.517 132.953 196.513C135.901 185.508 129.371 174.198 118.367 171.249C107.363 168.3 96.0517 174.831 93.1031 185.835Z" fill="#18466F"/>
<path d="M133.117 196.557C133.161 196.392 133.205 196.227 133.25 196.063C130.686 191.14 126.122 187.093 120.194 185.505C109.162 182.549 97.8869 189.058 94.9307 200.091C94.8865 200.255 94.8424 200.42 94.7983 200.585C97.3621 205.507 101.925 209.554 107.853 211.142C118.677 214.219 130.161 207.589 133.117 196.557Z" fill="#FFF4E2"/>
<path d="M121.934 193.739L118.769 185.146" stroke="#18466F" stroke-width="1.82002" stroke-miterlimit="10" stroke-linecap="round" stroke-linejoin="round"/>
<path d="M113.011 185.146L111.809 209.191" stroke="#18466F" stroke-width="1.82002" stroke-miterlimit="10" stroke-linecap="round" stroke-linejoin="round"/>
<path d="M103.394 193.739L106.559 185.599" stroke="#18466F" stroke-width="1.82002" stroke-miterlimit="10" stroke-linecap="round" stroke-linejoin="round"/>
<path d="M84.3152 175.834C84.4719 174.698 84.6286 173.562 84.9443 172.624C85.2601 171.687 85.7301 170.981 86.2144 170.255" stroke="#FFF4E2" stroke-width="2.40449" stroke-linecap="round"/>
<path d="M137.463 170.573C137.069 169.496 136.675 168.419 136.167 167.57C135.66 166.72 135.051 166.131 134.424 165.524" stroke="#FFF4E2" stroke-width="2.40449" stroke-linecap="round"/>
<path d="M91.3184 163.726C91.7492 162.394 92.1801 161.062 93.0289 159.769C93.8776 158.476 95.1311 157.261 96.4225 156.01" stroke="#FFF4E2" stroke-width="2.40449" stroke-linecap="round"/>
<path d="M128.051 160.225C127.348 159.015 126.644 157.805 125.54 156.721C124.437 155.637 122.954 154.716 121.427 153.767" stroke="#FFF4E2" stroke-width="2.40449" stroke-linecap="round"/>
<path d="M103.393 153.71C104.726 153.029 106.059 152.347 107.678 152.011C109.297 151.675 111.163 151.705 113.085 151.735" stroke="#FFF4E2" stroke-width="2.40449" stroke-linecap="round"/>
</g>
<defs>
<clipPath id="clip0_278_6320">
<rect width="263.292" height="214" fill="white"/>
</clipPath>
</defs>
</svg>
