<svg width="446" height="75" viewBox="0 0 446 75" fill="none" xmlns="http://www.w3.org/2000/svg">
<g clip-path="url(#clip0_394_35)">
<path d="M439.749 12.8738C445.062 16.4171 450.83 65.1966 440.812 70.0392C429.275 75.7085 28.0654 77.7163 14.0998 69.4486C0.134116 61.1809 7.11695 12.6376 12.2782 11.2203C17.2876 9.92106 430.337 6.61397 439.749 12.8738Z" fill="#1C1C35"/>
<path d="M435.954 8.97611C441.267 12.5194 447.036 61.2989 437.017 66.1415C425.48 71.8108 24.2705 73.8186 10.3049 65.5509C-3.66081 57.2832 3.32203 8.73989 8.48325 7.32257C13.4927 6.02335 426.542 2.71627 435.954 8.97611Z" fill="#DFD4BE"/>
<path d="M430.637 4.46775C435.898 8.0549 441.609 57.438 431.689 62.3404C420.267 68.0799 23.0289 70.1126 9.20145 61.7426C-4.77627 53.253 2.28774 4.10904 7.24757 2.79375C12.2074 1.47846 421.319 -1.98911 430.637 4.46775Z" stroke="#1C1C35" stroke-width="1.95719" stroke-miterlimit="10"/>
</g>
<defs>
<clipPath id="clip0_394_35">
<rect width="446" height="75" fill="white"/>
</clipPath>
</defs>
</svg>
