<svg width="588" height="48" viewBox="0 0 588 48" fill="none" xmlns="http://www.w3.org/2000/svg">
<g clip-path="url(#clip0_378_20036)">
<path d="M579.205 8.17089C586.219 10.4197 593.834 41.3784 580.608 44.4518C565.377 48.0499 35.7297 49.3243 17.2932 44.077C-1.14326 38.8298 8.07498 8.02097 14.8885 7.12144C21.5015 6.29687 566.78 4.19798 579.205 8.17089Z" fill="#DC4649"/>
<path d="M574.195 5.69726C581.209 7.94608 588.824 38.9048 575.598 41.9782C560.368 45.5763 30.7199 46.8506 12.2834 41.6034C-6.15302 36.3562 3.06521 5.54734 9.87869 4.64781C16.4918 3.82324 561.77 1.72434 574.195 5.69726Z" fill="#FFF4E2"/>
<path d="M567.176 2.83595C574.121 5.1126 581.66 36.4544 568.565 39.5658C553.486 43.2084 29.0809 44.4985 10.827 39.1864C-7.62542 33.7983 1.69998 2.60829 8.24759 1.77352C14.7952 0.938751 554.875 -1.262 567.176 2.83595Z" stroke="#DC4649" stroke-width="1.24402" stroke-miterlimit="10"/>
</g>
<defs>
<clipPath id="clip0_378_20036">
<rect width="588" height="48" fill="white"/>
</clipPath>
</defs>
</svg>
