<svg width="446" height="75" viewBox="0 0 446 75" fill="none" xmlns="http://www.w3.org/2000/svg">
<g clip-path="url(#clip0_394_27)">
<path d="M439.749 12.8737C445.062 16.417 450.83 65.1965 440.812 70.039C429.275 75.7083 28.0654 77.7162 14.0998 69.4485C0.134116 61.1808 7.11695 12.6375 12.2782 11.2201C17.2876 9.92094 430.337 6.61385 439.749 12.8737Z" fill="#DC4649"/>
<path d="M435.954 8.97599C441.267 12.5193 447.036 61.2988 437.017 66.1413C425.48 71.8106 24.2705 73.8185 10.3049 65.5508C-3.66081 57.2831 3.32203 8.73977 8.48325 7.32244C13.4927 6.02323 426.542 2.71615 435.954 8.97599Z" fill="#FFF4E2"/>
<path d="M430.637 4.46775C435.898 8.0549 441.609 57.438 431.689 62.3404C420.267 68.0799 23.0289 70.1126 9.20145 61.7426C-4.77627 53.253 2.28774 4.10904 7.24757 2.79375C12.2074 1.47846 421.319 -1.98911 430.637 4.46775Z" stroke="#DC4649" stroke-width="1.95719" stroke-miterlimit="10"/>
</g>
<defs>
<clipPath id="clip0_394_27">
<rect width="446" height="75" fill="white"/>
</clipPath>
</defs>
</svg>
