<svg width="1066" height="1075" viewBox="0 0 1066 1075" fill="none" xmlns="http://www.w3.org/2000/svg">
<path d="M246.611 68.0248C249.43 68.9644 250.369 68.0249 251.309 65.2059C251.309 63.3265 253.188 63.3267 254.128 62.387C263.524 60.5077 272.921 56.7491 282.318 54.8698C287.016 53.9301 291.714 52.9902 296.413 51.1109C304.87 48.2919 313.327 46.4128 321.784 45.4731C331.181 43.5938 341.517 41.7141 350.913 39.8348C358.431 37.9554 365.948 36.0763 373.466 34.197C381.923 32.3176 390.38 31.378 398.837 29.4986C409.173 26.6796 419.509 25.7396 429.846 23.8603C438.303 22.9206 446.76 20.1016 454.277 19.162C467.432 18.2223 479.648 14.4639 492.803 13.5242C506.898 12.5845 520.993 9.7654 535.088 6.9464C542.606 6.00673 550.123 5.06718 557.64 4.12751C563.278 3.18785 568.916 3.18773 574.554 2.24806C583.951 1.3084 593.348 0.368616 603.684 0.368616C604.624 0.368616 605.563 0.368616 606.503 0.368616C609.322 -0.571051 611.201 0.36873 612.141 2.24806C613.081 4.1274 614.02 4.12774 615.9 3.18808C617.779 2.24841 619.658 2.24841 621.538 3.18808C627.176 6.94674 633.753 8.82596 639.391 10.7053C647.848 14.464 655.366 18.2228 663.823 21.9814C680.737 29.4988 695.771 38.895 712.685 47.352C725.841 53.9296 738.996 61.4474 753.091 68.9648C760.608 72.7234 768.126 76.482 774.703 81.1803C784.1 86.8183 793.497 91.5168 801.954 97.1548C811.35 103.732 822.626 108.43 832.023 115.008C846.118 125.344 862.092 132.862 877.127 143.198C891.222 152.595 905.317 161.052 918.472 171.388C923.171 175.147 927.869 179.845 933.507 182.664C935.386 183.604 935.386 185.483 935.386 187.363C935.386 189.242 936.326 190.181 938.205 190.181C941.024 190.181 941.964 192.061 942.904 193.94C944.783 199.578 948.542 205.216 951.361 210.854C955.119 218.372 957.938 225.889 961.697 233.407C970.154 250.321 975.792 268.174 982.37 285.088C988.008 299.183 993.646 313.278 999.284 327.373C1002.1 334.891 1005.86 343.348 1008.68 350.865C1012.44 361.201 1017.14 371.537 1019.96 381.874C1022.78 392.21 1027.47 402.546 1030.29 413.822C1034.99 430.736 1040.63 446.711 1046.27 463.625C1050.97 475.841 1053.78 488.996 1057.54 502.151C1059.42 510.608 1062.24 519.065 1064.12 527.522C1065.06 531.281 1066.94 534.1 1063.18 536.919C1062.24 537.859 1063.18 538.798 1064.12 539.738C1066 540.677 1066 542.557 1066 544.436C1063.18 553.833 1061.3 564.169 1058.48 573.566C1054.72 586.721 1050.97 600.816 1046.27 614.911C1043.45 623.368 1040.63 630.886 1037.81 638.403C1033.11 655.317 1027.47 671.291 1021.84 687.266C1018.08 696.662 1015.26 706.998 1011.5 716.395C1008.68 722.973 1007.74 730.49 1004.92 736.128C998.344 752.103 992.706 769.016 985.189 784.991C980.49 794.387 977.671 804.724 973.913 814.121C969.214 825.397 964.516 835.733 959.818 847.009C956.999 854.526 952.3 862.043 949.481 869.561C947.602 874.259 943.843 878.957 942.904 883.656C942.904 885.535 941.024 885.535 939.145 885.535C937.266 885.535 936.326 886.475 936.326 888.354C936.326 891.173 935.386 892.113 933.507 893.052C927.869 895.871 923.171 900.57 918.472 904.329C910.955 909.967 903.438 913.726 896.86 919.364C881.825 929.7 865.851 939.096 849.877 948.493C837.661 956.01 825.445 963.528 813.23 971.045C805.712 975.744 797.255 981.382 789.738 985.14C780.341 990.778 770.945 996.416 761.548 1001.11C751.212 1005.81 741.815 1012.39 731.479 1017.09C715.504 1024.61 700.47 1034 685.435 1041.52C670.4 1049.04 656.305 1056.55 640.331 1063.13C634.693 1065.95 628.115 1067.83 622.477 1071.59C620.598 1072.53 618.719 1072.53 617.779 1071.59C615.9 1069.71 614.02 1070.65 613.081 1072.53C612.141 1073.47 610.262 1074.41 609.322 1074.41C599.925 1073.47 590.529 1072.53 581.132 1072.53C575.494 1072.53 570.796 1070.65 566.097 1070.65C557.64 1069.71 549.183 1068.77 539.787 1067.83C529.45 1065.95 520.054 1064.07 510.657 1063.13C505.019 1062.19 500.321 1061.25 494.683 1061.25C484.346 1060.31 474.949 1057.49 465.553 1056.55C456.156 1055.62 446.759 1053.74 437.363 1051.86C427.026 1049.98 416.69 1049.04 406.354 1046.22C391.319 1042.46 375.345 1040.58 360.31 1036.82C348.094 1033.06 334.939 1032.12 322.723 1029.3C313.327 1026.49 302.991 1024.61 293.594 1021.79C285.137 1019.91 277.619 1017.09 269.162 1015.21C264.464 1014.27 258.826 1013.33 255.067 1010.51C251.309 1008.63 247.55 1006.75 244.731 1004.87C240.033 1001.11 236.274 997.356 232.516 993.597C226.878 987.019 220.3 981.382 214.662 975.744C210.903 971.985 207.144 967.286 203.386 963.527C191.17 951.312 181.773 938.156 169.558 925.941C160.161 916.544 152.644 906.208 143.247 896.811C137.609 891.173 131.971 884.596 127.273 878.018C120.695 869.561 112.238 862.044 105.66 852.647C100.022 844.19 91.5654 836.672 85.9274 827.276C75.591 812.241 64.315 799.086 52.0993 784.991C45.5216 776.534 39.8836 768.077 33.306 759.62C26.7283 751.163 20.1506 741.766 14.5126 732.37C12.6333 729.551 9.81441 726.732 11.6937 722.973C12.6334 722.033 10.754 721.093 9.8143 721.093C7.93497 720.154 6.99541 718.274 6.99541 716.395C6.99541 708.878 5.11596 702.3 5.11596 694.783C5.11596 691.024 4.17638 688.205 4.17638 684.447C3.23672 672.231 2.29708 660.955 2.29708 648.739C1.35741 639.342 2.29708 630.886 2.29708 621.489C1.35741 603.635 0.41763 584.842 0.41763 566.988C0.41763 558.531 -0.522037 550.074 0.41763 541.617C0.41763 536.919 0.41763 532.22 0.41763 528.462C0.41763 511.548 0.417687 494.634 1.35735 477.72C2.29702 459.866 2.29699 442.952 3.23666 425.098C4.17633 409.124 5.11608 393.149 6.99541 376.235C7.93508 369.658 9.81439 363.08 8.87472 356.503C8.87472 355.563 9.81436 353.683 10.754 352.744C13.573 351.804 14.5127 349.925 12.6333 347.106C11.6937 346.166 12.6334 344.287 13.5731 343.347C19.2111 335.83 23.9094 327.373 29.5474 319.855C32.3664 316.097 35.1853 312.339 38.0043 308.58C48.3406 294.485 58.6771 280.39 69.9531 267.234C76.5307 259.717 81.2291 252.199 86.8671 244.682C91.5654 239.044 96.2637 234.346 100.022 228.708C105.66 221.191 111.298 214.613 116.936 208.035C124.454 199.578 131.031 190.182 139.488 181.725C147.006 174.207 153.583 164.81 161.101 157.293C173.316 145.077 184.592 130.982 195.868 117.827C206.205 106.551 217.481 96.2147 227.817 84.9387C233.455 79.3007 239.093 74.6028 243.791 68.9648C242.852 68.0251 244.731 68.0248 246.611 68.0248ZM354.672 250.32C355.612 255.019 354.672 259.717 354.672 264.415C355.612 272.872 354.672 282.269 355.612 290.726C358.431 309.519 363.129 328.313 366.888 347.106C369.707 357.442 372.526 367.779 376.284 377.175C378.164 383.753 380.043 390.331 382.862 395.969C388.5 407.245 394.138 418.521 400.716 428.857C402.595 431.676 402.595 434.495 400.716 437.314C398.837 440.133 395.078 440.133 392.259 439.193C388.5 437.314 383.802 436.374 380.043 434.495C371.586 430.736 362.19 427.918 353.732 426.038C338.698 423.219 322.724 421.34 307.689 419.46C293.594 418.521 279.499 418.521 265.404 417.581C245.671 416.641 226.877 420.4 208.084 423.219C214.662 432.615 223.119 439.193 229.696 447.65C231.576 449.53 232.515 451.409 234.395 453.288C241.912 459.866 249.429 465.504 256.947 471.142C271.981 482.418 286.076 493.694 302.051 503.091C312.387 508.729 321.784 515.307 332.12 520.005C340.577 523.764 349.034 527.522 358.431 529.402C362.19 530.341 365.008 533.16 365.008 535.979C365.008 538.798 362.19 542.557 358.431 542.557C352.793 543.496 348.095 546.316 342.457 548.195C331.181 552.893 319.905 557.591 309.568 564.169C298.292 571.686 286.076 578.264 275.74 586.721C267.283 593.299 257.886 599.877 249.429 607.394C240.033 614.911 230.636 621.489 224.058 630.886C223.119 632.765 221.239 634.644 219.36 635.584C214.662 640.282 210.903 644.981 207.144 649.679C214.662 650.619 222.179 652.498 228.757 652.498C234.395 652.498 240.033 654.377 245.671 655.317C256.007 655.317 266.343 656.256 275.74 655.317C283.257 654.377 289.835 654.377 297.352 654.377C313.327 653.438 329.301 651.558 345.276 648.739C361.25 645.92 376.285 641.222 391.319 634.644C395.078 632.765 397.897 632.765 400.716 635.584C402.595 638.403 402.595 642.162 399.776 644.981C396.017 650.619 392.259 657.196 389.44 663.774C378.164 683.507 372.526 705.119 366.888 726.732C364.069 738.008 362.19 750.223 359.371 761.499C353.733 782.172 354.672 802.844 353.732 824.457C365.009 818.819 374.405 811.301 385.681 805.663C386.621 804.724 387.56 804.724 388.5 803.784C402.595 792.508 415.751 779.353 428.906 767.137C438.303 758.68 445.82 749.284 454.277 740.827C466.493 727.671 476.829 711.697 485.286 695.722C487.165 691.964 489.984 690.085 492.803 690.085C496.562 691.024 498.441 693.843 498.441 697.602C499.381 706.059 500.32 714.516 503.139 722.973C508.778 745.525 518.174 767.137 528.511 787.81C533.209 797.207 537.907 806.603 543.545 816C547.304 822.578 550.123 829.155 554.821 835.733C562.339 846.069 570.796 855.466 578.313 865.802C583.011 855.466 584.891 844.19 589.589 832.914C591.468 828.216 592.408 822.577 593.348 817.879C595.227 808.482 595.227 798.146 597.106 788.75C598.986 777.474 600.865 766.198 600.865 755.861C600.865 741.766 602.744 728.611 600.865 714.516C599.925 703.24 598.046 691.964 595.227 681.627C594.287 678.808 594.287 675.05 598.046 673.171C600.865 671.291 604.624 673.171 606.503 675.05C612.141 680.688 617.779 684.447 623.417 689.145C635.633 699.481 650.667 706.998 664.762 714.516C676.038 720.154 688.254 725.792 700.47 730.49C717.384 737.068 732.418 744.585 750.272 747.404C758.729 748.344 766.246 751.163 773.764 752.102C770.945 740.826 765.307 731.43 761.548 720.154C760.608 718.275 759.669 715.456 758.729 713.576C752.151 703.24 745.574 691.964 738.996 681.627C729.599 665.653 718.323 651.558 707.047 637.463C705.168 635.584 704.228 633.704 702.349 631.825C692.013 620.549 680.737 610.213 668.521 600.816C665.702 598.937 663.823 596.118 665.702 592.359C666.642 589.54 670.4 586.721 674.159 587.661C679.797 589.54 686.375 588.6 692.013 587.661C703.289 587.661 714.565 586.721 725.841 583.902C738.996 581.083 753.091 578.264 766.246 574.506C776.583 571.687 785.979 566.988 795.376 565.109C816.049 559.471 833.902 548.195 851.756 538.798C843.299 532.221 832.963 528.462 823.566 523.763C820.747 521.884 818.868 520.945 816.049 520.005C801.954 515.307 787.859 510.608 773.764 505.91C759.669 501.212 744.634 497.453 729.599 494.634C725.841 493.694 722.082 492.754 719.263 492.754C706.108 490.875 692.013 490.875 678.857 489.936C677.918 489.936 676.038 489.936 675.099 489.936C671.34 490.875 667.581 488.996 665.702 486.177C664.762 483.358 665.702 479.599 669.461 477.72C674.159 474.901 677.918 471.142 682.616 467.383C692.013 458.926 700.47 450.47 707.987 440.133C716.444 428.857 725.841 418.521 732.418 406.305C738.056 397.848 743.694 388.451 748.393 379.994C754.97 369.658 760.608 359.321 764.367 348.045C765.307 346.166 766.246 345.226 766.246 343.347C769.065 337.709 770.945 332.071 772.824 325.494C764.367 327.373 755.91 328.313 748.393 331.132C741.815 333.011 735.237 333.011 728.66 335.83C718.323 340.528 707.987 344.287 696.711 348.985C679.797 355.563 663.823 363.08 648.788 371.537C644.09 374.356 638.452 377.175 634.693 379.994C624.357 387.512 614.02 395.029 604.624 403.486C602.744 405.365 599.925 407.245 596.167 405.365C593.348 403.486 592.408 400.667 593.348 397.848C594.287 393.15 594.287 388.451 596.167 384.693C598.986 375.296 598.986 365.899 599.925 356.503C600.865 345.227 599.925 333.951 598.986 323.614C598.986 318.916 598.986 314.218 598.046 309.519C596.167 295.424 594.287 281.329 592.408 267.234C591.468 258.777 589.589 249.381 586.77 240.924C583.011 231.527 581.132 222.13 577.373 212.734C569.856 220.251 564.218 230.587 556.701 239.044C554.821 240.924 552.942 242.803 552.002 245.622C546.364 256.898 539.787 268.174 534.149 279.45C525.692 295.424 518.174 312.338 511.597 329.252C510.657 331.131 509.717 333.951 508.778 335.83C504.079 350.865 500.321 364.96 499.381 379.994C499.381 383.753 497.501 386.572 493.743 387.512C489.984 388.451 488.105 385.632 486.226 382.813C483.407 376.236 478.708 369.658 474.949 364.02C466.492 349.925 455.217 338.649 444.88 326.433C434.544 314.218 422.328 303.881 410.113 293.545C405.414 288.847 399.776 284.148 395.078 279.45C382.862 266.295 367.828 259.717 354.672 250.32ZM789.738 577.324C806.652 582.962 820.747 591.42 834.842 599.877C837.661 601.756 841.42 603.635 844.239 605.514C852.696 613.032 862.092 620.549 870.549 629.006C871.489 629.946 872.429 630.885 874.308 629.946C881.825 628.066 888.403 627.127 895.92 626.187C905.317 624.308 913.774 620.549 923.171 618.67C925.05 618.67 925.99 617.73 925.99 615.851C925.99 611.152 926.929 607.394 927.869 602.696C928.809 590.48 931.628 579.204 932.567 566.988C932.567 559.471 934.447 552.893 934.447 545.376C934.447 534.1 934.447 522.824 932.567 511.548C931.628 505.91 931.628 500.272 930.688 495.573C928.809 484.297 926.929 473.022 925.99 461.746C925.99 459.866 925.99 458.926 924.11 457.987C918.472 456.107 912.834 454.228 907.196 452.349C897.8 449.53 888.403 449.529 879.946 446.71C875.248 445.771 872.429 446.711 869.61 449.53C860.213 458.927 850.816 468.323 839.54 474.9C829.204 481.478 818.868 488.056 807.592 492.754C802.893 494.634 798.195 496.513 791.617 499.332C796.316 499.332 799.135 502.151 802.893 503.091C814.169 505.91 825.445 509.668 834.842 516.246C836.721 517.186 837.661 518.125 839.54 519.065C847.997 521.884 854.575 527.522 863.032 530.341C865.851 531.281 866.791 533.16 867.73 536.919C868.67 543.497 863.972 545.376 859.273 547.255C850.816 551.014 842.359 554.772 834.842 559.471C819.807 567.928 804.773 571.686 789.738 577.324ZM419.509 285.088C418.57 276.631 416.69 269.114 416.69 261.597C415.75 239.045 416.69 216.492 423.268 193.94C424.207 189.242 424.208 186.423 420.449 182.664C411.052 171.388 400.716 160.112 389.44 150.715C388.5 149.776 387.56 148.836 385.681 149.776C371.586 156.354 356.552 161.992 342.457 168.569C335.879 171.388 328.362 174.207 321.784 177.966C314.267 182.664 305.81 186.423 298.292 192.061C291.715 197.699 285.137 201.457 278.559 207.095C270.102 213.673 260.705 221.191 252.248 227.768C250.369 229.648 250.369 230.587 250.369 232.467C253.188 246.562 257.886 260.657 262.585 273.812C264.464 279.45 267.283 281.329 272.921 283.209C285.137 286.028 296.413 289.786 307.689 295.424C323.663 303.881 338.698 313.278 352.793 325.494C351.853 317.037 349.974 309.519 348.094 302.002C344.336 284.148 346.215 265.355 344.336 247.502C344.336 244.683 345.275 241.863 348.094 239.984C352.793 236.225 356.552 239.044 361.25 241.863C370.647 248.441 380.043 255.019 390.379 260.657C394.138 262.536 396.957 265.355 399.776 268.174C405.414 272.872 411.992 279.45 419.509 285.088ZM351.853 752.102C343.396 758.68 334.939 765.258 325.542 770.896C317.085 775.594 309.568 781.232 300.172 784.991C288.896 789.689 277.619 793.448 266.343 796.267C265.404 796.267 263.524 797.207 263.524 798.146C261.645 806.603 257.886 813.181 255.067 821.638C252.248 829.155 251.309 837.612 249.429 846.069C248.49 848.888 250.369 848.888 251.309 850.767C257.887 855.466 264.464 860.164 270.102 864.862C281.378 874.259 293.594 882.717 304.87 891.174C318.025 899.631 332.12 906.208 346.215 911.846C358.431 917.484 371.586 922.182 383.802 927.82C384.741 928.76 385.681 928.76 387.561 927.82C392.259 923.122 396.957 919.364 401.656 914.665C409.173 908.088 413.871 899.63 420.449 893.052C422.328 891.173 423.268 889.294 422.328 886.475C417.63 867.682 413.871 847.949 414.811 828.216C414.811 822.578 414.811 817.879 415.751 812.241C416.69 805.664 417.63 799.086 417.63 792.508C414.811 794.388 412.932 796.267 411.052 798.146C401.656 806.603 392.259 815.06 380.983 821.638C371.586 826.336 364.069 832.914 354.672 838.552C351.853 840.431 349.974 840.431 347.155 838.552C342.457 836.672 341.517 832.914 341.517 828.216C342.456 815.06 343.396 802.844 343.396 789.689C343.396 787.81 343.396 784.991 344.336 783.112C347.155 771.836 350.914 762.439 351.853 752.102ZM280.438 409.124C272.921 401.606 264.464 395.029 257.886 386.572C252.248 379.055 244.731 372.477 240.033 364.02C233.455 353.684 227.817 343.347 223.119 333.011C222.179 331.132 221.239 330.192 219.36 330.192C212.782 329.252 205.265 328.313 198.687 326.433C189.291 324.554 179.894 325.493 169.558 324.554C168.618 324.554 167.678 325.494 167.678 325.494C165.799 330.192 162.98 333.951 161.101 337.709C152.644 353.684 144.187 369.658 136.669 385.632C132.911 395.029 129.152 404.426 127.273 414.762C125.393 422.279 123.514 430.736 121.635 438.254C118.816 449.53 116.936 459.866 114.117 471.142C113.178 473.022 114.117 473.961 115.057 474.9C121.635 480.539 128.212 486.177 135.73 489.936C142.307 493.694 147.945 496.513 154.523 500.272C156.402 502.151 158.282 502.151 161.101 501.212C174.256 495.574 187.411 488.996 202.446 486.177C215.601 484.297 227.817 480.539 240.972 480.539C244.731 480.539 248.49 479.599 252.248 479.599C249.429 477.72 247.55 474.901 244.731 473.022C237.214 466.444 227.817 460.806 221.239 452.349C214.662 443.892 207.144 436.374 199.627 428.857C196.808 426.038 193.049 423.219 195.868 417.581C197.748 412.883 200.567 411.943 204.325 411.943C212.782 411.943 221.239 410.063 229.696 409.124C246.61 408.184 263.524 409.124 280.438 409.124ZM753.091 394.089C764.367 391.27 774.703 386.572 785.979 385.632C794.436 384.692 802.893 381.874 811.35 381.874C823.566 380.934 835.782 381.874 848.937 382.813C849.877 382.813 850.816 382.813 851.756 381.874C856.454 375.296 862.092 369.658 866.791 364.02C872.429 357.442 877.127 348.986 881.825 341.468C882.765 340.529 882.765 339.589 881.825 337.709C875.248 329.252 870.549 319.855 864.911 310.459C859.273 302.002 852.696 293.545 847.058 284.148C842.359 276.631 836.721 270.053 831.083 264.415C815.109 248.441 798.195 233.406 782.221 218.372C781.281 217.432 780.341 216.492 778.462 217.432C772.824 220.251 767.186 222.13 760.608 224.949C751.212 228.708 742.755 235.285 733.358 239.984C732.418 239.984 731.479 240.924 731.479 242.803C731.479 247.502 730.539 252.2 729.599 255.958C728.66 265.355 727.72 274.752 724.901 283.209C719.263 301.062 712.685 318.916 703.289 334.89C706.108 333.011 709.866 333.011 712.685 331.132C721.142 327.373 729.599 323.614 738.056 321.735C742.755 320.795 748.393 319.856 753.091 318.916C761.548 317.037 770.005 315.158 778.462 313.278C784.1 312.339 788.798 317.976 786.919 323.614C785.979 327.373 784.1 330.192 782.221 333.011C778.462 343.347 773.764 353.684 770.005 364.02C769.065 364.96 769.065 366.839 768.126 367.779C763.427 377.175 756.85 384.693 753.091 394.089ZM253.188 594.238C240.972 593.299 229.697 593.299 218.421 591.419C209.024 589.54 199.627 588.601 191.17 585.782C180.834 582.023 170.497 578.264 160.161 573.566C159.221 572.626 158.282 572.626 157.342 573.566C150.764 578.264 144.187 582.023 136.669 585.782C129.152 590.48 122.574 596.118 115.057 601.756C114.117 602.695 113.178 602.696 113.178 604.575C115.057 609.273 115.057 613.972 115.997 618.67C118.816 631.825 122.574 644.98 125.393 658.136C127.273 669.412 131.031 680.688 135.73 690.085C144.187 708.878 153.583 726.731 162.98 744.585C165.799 751.163 169.558 753.042 176.135 752.102C183.653 751.163 192.11 751.163 199.627 750.223C205.265 749.284 209.963 748.344 215.601 747.404C219.36 747.404 221.24 745.525 223.119 742.706C227.817 731.43 233.455 721.093 240.033 711.697C247.55 701.36 256.007 691.024 266.343 681.627C271.042 676.929 275.74 673.171 279.499 668.472C275.74 670.352 271.981 668.472 269.162 668.472C259.766 669.412 251.309 669.412 241.912 668.472C237.214 667.533 232.516 666.593 227.817 666.593C218.421 665.653 209.963 664.713 200.567 662.834C195.868 661.894 193.989 655.317 195.868 650.618C197.748 647.799 200.567 645.92 203.386 643.101C209.963 634.644 217.481 627.127 224.998 619.61C232.515 608.333 243.791 602.695 253.188 594.238ZM702.349 741.766C707.047 749.284 710.806 756.801 714.565 765.258C718.323 775.594 723.022 785.93 725.841 796.267C728.66 806.603 730.539 817.879 730.539 829.155C730.539 833.853 731.479 837.612 737.117 838.552C738.056 838.552 739.936 839.492 740.875 840.431C752.151 847.949 765.307 853.587 777.522 858.285C778.462 858.285 779.402 859.225 780.341 858.285C783.16 854.527 787.859 851.707 791.617 847.949C800.074 840.431 807.592 832.914 816.049 825.397C822.626 818.819 829.204 813.181 834.842 805.663C846.118 793.448 854.575 778.413 863.972 765.258C869.61 756.801 875.248 747.404 880.886 738.007C881.825 737.068 881.825 736.128 880.886 735.188C877.127 729.55 873.368 723.913 869.61 718.275C863.972 709.818 856.454 703.24 850.816 694.783C849.877 693.843 849.877 692.903 847.997 692.903C844.239 693.843 840.48 692.904 837.661 693.843C816.988 696.662 796.316 692.903 776.583 688.205C769.065 686.326 760.608 683.507 753.091 681.627C754.97 684.446 756.85 688.205 758.729 691.024C764.367 700.421 770.005 708.878 773.764 718.275C777.522 729.551 782.221 739.887 786.919 751.163C788.798 754.922 786.919 757.741 784.1 760.56C782.221 763.379 779.402 763.379 776.583 762.439C766.246 759.62 755.91 757.741 745.574 755.861C740.875 754.922 736.177 753.982 731.479 753.042C721.142 749.284 711.746 744.585 702.349 741.766ZM528.511 810.362C527.571 818.819 525.692 827.276 522.873 835.733C519.114 847.009 516.295 858.285 510.657 868.621C505.019 878.958 499.381 889.294 491.864 898.691C490.924 899.63 489.984 901.509 490.924 902.449C495.622 910.906 497.502 921.243 501.26 929.7C503.14 934.398 505.958 938.157 507.838 942.855C511.597 949.433 510.657 949.433 518.174 948.493C532.269 948.493 546.364 947.553 561.399 946.614C569.856 945.674 578.313 945.674 586.77 944.734C603.684 941.915 619.658 937.217 635.633 931.579C645.969 928.76 656.305 925.001 666.642 922.182C668.521 922.182 668.521 920.303 668.521 918.424C668.521 915.605 669.461 911.846 669.461 909.027C670.4 902.449 671.34 895.872 671.34 890.234C671.34 884.596 670.4 878.958 671.34 873.32C672.28 869.561 670.4 867.682 667.581 865.802C656.305 857.345 645.029 849.828 636.572 839.492C628.115 830.095 619.658 820.698 613.081 810.362C610.262 805.663 607.443 801.905 604.624 797.207C604.624 800.026 603.684 802.845 602.744 804.724C600.865 813.181 601.805 822.578 598.046 831.035C594.287 841.371 591.468 850.768 588.649 861.104C587.71 862.983 587.71 864.863 586.77 866.742C585.83 874.259 583.951 876.139 577.373 877.079C572.675 878.018 570.796 874.259 568.916 871.44C562.339 862.044 555.761 853.587 549.183 845.13C547.304 842.311 544.485 839.491 542.606 836.672C538.847 829.155 535.088 819.758 528.511 810.362ZM528.511 266.295C530.39 262.536 532.269 259.717 534.149 256.898C539.787 247.502 543.545 237.165 551.063 229.648C553.882 226.829 555.761 224.009 557.64 221.19C562.339 214.613 567.037 208.035 572.675 201.458C577.373 196.759 584.891 197.699 586.77 204.276C587.71 207.096 588.649 210.854 589.589 213.673C593.348 224.01 596.167 234.346 599.925 244.682C600.865 246.561 600.865 248.441 600.865 250.32C602.744 259.717 603.684 270.054 605.563 280.39C612.141 270.993 616.839 262.536 623.417 254.079C635.633 238.104 649.728 224.949 666.642 213.673C671.34 210.854 674.159 208.035 672.28 202.397C672.28 201.457 672.28 200.518 672.28 198.639C672.28 193.94 673.219 189.242 673.219 184.544C673.219 176.087 671.34 166.69 670.4 158.233C670.4 156.354 669.461 155.414 668.521 155.414C663.823 154.474 660.064 152.595 656.305 151.655C645.029 148.836 634.693 145.077 624.357 141.319C608.382 136.62 593.348 132.862 577.373 131.922C561.399 130.982 545.425 130.043 529.45 129.103C525.692 129.103 521.933 129.103 518.174 128.164C516.295 127.224 514.416 128.164 513.476 130.983C512.536 133.802 509.717 137.56 508.778 140.379C505.959 146.017 503.14 150.716 501.26 156.354C499.381 162.931 497.502 168.569 494.683 174.207C493.743 176.086 493.743 177.966 495.622 179.845C505.019 193.94 513.476 207.095 519.114 223.07C520.993 236.225 526.631 250.321 528.511 266.295ZM388.5 427.917C387.56 423.219 384.742 422.279 382.862 419.46C377.224 408.184 371.586 396.908 367.828 384.693C364.069 372.477 360.31 360.261 357.491 348.045C356.551 345.226 357.491 341.468 354.672 338.649C345.276 329.252 334 321.735 323.663 314.218C302.051 300.123 277.619 291.666 252.248 286.028C240.972 283.209 229.697 281.329 218.421 279.45C216.541 279.45 212.782 278.51 211.843 279.45C209.963 281.329 211.843 284.148 212.782 286.028C218.42 300.123 224.058 315.157 230.636 328.313C237.214 342.408 244.731 356.503 254.128 368.718C266.343 383.753 279.499 397.848 294.533 409.124C295.473 410.063 296.413 410.064 297.352 410.064C309.568 410.064 321.784 411.003 333.06 412.883C342.457 413.822 351.853 414.762 360.31 417.581C370.646 421.34 380.043 422.279 388.5 427.917ZM389.44 648.739C384.742 648.739 382.862 651.558 380.043 652.498C365.948 656.257 351.853 660.955 336.818 662.834C324.603 664.713 312.387 665.653 299.232 666.593C297.352 666.593 296.413 666.593 294.533 667.532C283.257 676.929 271.981 686.326 262.585 698.542C254.128 708.878 245.671 720.154 239.093 732.37C231.576 746.465 224.998 761.499 219.36 776.534C216.541 783.112 213.722 789.689 211.843 797.207C210.903 800.026 211.843 800.026 213.722 800.026C221.24 799.086 229.697 797.206 237.214 796.267C244.731 795.327 251.309 792.508 258.826 790.629C272.921 787.81 287.956 783.112 301.111 776.534C316.146 769.017 331.18 760.56 344.336 750.223C351.853 744.585 359.371 738.947 359.371 727.671C359.371 726.732 359.37 725.792 360.31 724.852C363.129 715.456 365.009 706.059 368.767 697.602C371.586 690.084 373.466 682.567 377.224 675.99C379.104 665.653 382.862 657.196 389.44 648.739ZM682.616 597.997C686.375 600.816 690.133 604.575 693.892 607.394C706.108 617.73 715.504 630.886 725.841 643.101C731.479 650.619 737.117 659.076 741.815 666.593C742.755 668.472 743.694 668.472 745.574 669.412C757.789 675.05 770.945 678.808 785.04 681.627C796.316 683.507 806.652 686.326 817.928 686.326C836.721 686.326 855.515 684.446 874.308 681.627C881.825 680.688 889.343 679.748 896.86 677.869C899.679 677.869 901.558 676.929 898.739 674.11C894.041 668.472 888.403 662.834 883.705 656.257C879.006 650.619 873.368 645.92 867.73 640.282C858.334 629.946 847.997 619.61 835.782 612.092C819.807 601.756 803.833 592.359 785.04 585.782C778.462 583.902 772.824 582.023 766.246 584.842C761.548 587.661 754.97 587.661 750.272 589.54C732.418 593.299 714.565 597.997 695.771 597.997C692.013 597.058 687.314 596.118 682.616 597.997ZM681.676 478.659C685.435 480.539 689.194 477.72 692.013 478.659C696.711 479.599 702.349 479.599 707.047 479.599C720.203 479.599 732.418 483.358 744.634 486.177C754.031 488.056 763.427 490.875 771.884 493.694C772.824 494.634 774.703 494.634 775.643 493.694C787.859 489.935 800.074 485.237 811.35 478.659C835.782 466.444 855.515 448.59 874.308 428.857C881.825 421.34 887.463 412.883 894.981 405.365C896.86 403.486 899.679 400.667 898.739 398.788C897.8 395.969 894.041 396.908 891.222 395.969C878.067 394.089 864.911 392.21 852.696 391.27C834.842 389.391 817.928 388.451 800.074 391.27C781.281 394.089 762.488 397.848 744.634 406.305C743.694 407.245 742.755 407.244 741.815 409.124C735.237 420.4 727.72 430.737 719.263 440.133C713.625 446.711 708.927 454.228 702.349 459.866C696.711 466.444 691.073 473.961 681.676 478.659ZM489.984 368.718C490.924 367.779 490.924 366.839 490.924 365.899C490.924 355.563 493.743 346.167 496.562 336.77C502.2 317.977 509.717 300.123 519.114 283.209C520.054 281.329 520.054 280.39 520.054 278.51C519.114 270.993 518.174 264.416 516.295 256.898C510.657 235.286 503.14 214.613 491.864 196.759C484.346 185.483 476.829 174.207 467.432 162.931C461.794 156.354 457.096 149.776 451.458 143.198C449.578 140.379 448.639 141.319 447.699 144.138C444.88 151.655 443.001 158.233 440.182 165.75C437.363 173.268 436.423 180.785 433.604 187.363C428.906 200.518 426.087 214.613 425.147 228.708C424.208 248.441 424.207 268.174 427.966 286.967C428.906 290.726 427.966 295.424 430.785 298.243C440.182 306.7 448.639 315.157 457.096 324.554C466.493 334.89 474.95 345.226 482.467 357.442C486.226 360.261 488.105 364.02 489.984 368.718ZM490.924 707.938C488.105 709.818 489.045 713.576 487.165 716.395C479.648 726.731 473.07 738.007 464.613 747.404C454.277 758.68 444.88 769.956 433.604 779.353C432.665 780.293 431.725 781.232 431.725 782.172C429.846 792.508 427.966 802.845 427.027 814.121C426.087 834.793 426.087 855.466 431.725 876.139C435.484 889.294 438.303 901.51 443.001 913.725C444.88 920.303 447.699 926.881 449.579 933.459C450.518 935.338 451.458 937.217 453.337 934.398C458.036 927.82 463.674 922.182 468.372 915.605C473.07 909.967 476.829 904.329 480.588 898.691C489.984 885.535 499.381 872.38 505.019 858.285C512.536 840.432 519.114 822.578 520.993 802.845C520.993 800.026 522.873 798.146 520.993 795.327C514.416 783.112 508.778 769.956 503.139 756.801C497.501 741.766 491.864 726.731 490.924 709.817C491.864 709.817 490.924 708.878 490.924 707.938ZM606.503 388.452C610.262 384.693 614.02 381.874 617.779 379.055C629.995 368.719 644.09 361.201 658.185 353.684C666.642 348.985 675.099 345.227 684.495 341.468C685.435 340.529 687.314 340.528 688.254 338.649C695.771 326.433 702.349 314.217 707.047 301.062C713.625 284.148 718.323 266.295 720.203 247.502C721.142 239.984 721.142 232.467 722.082 224.949C723.022 214.613 722.082 203.337 723.022 193C723.022 187.362 722.082 187.362 717.384 190.181C703.289 198.638 689.194 207.095 676.038 216.492C662.883 225.889 650.667 235.286 640.331 247.502C628.115 261.597 616.839 276.631 609.322 292.605C609.322 293.545 608.382 294.485 608.382 295.424C610.262 305.761 610.262 315.157 611.201 325.494C611.201 329.252 611.201 333.011 611.201 335.83C613.081 348.046 611.201 359.321 610.262 371.537C609.322 378.115 608.382 383.753 606.503 388.452ZM348.094 537.858C343.396 535.979 338.698 534.1 333.999 533.16C318.965 527.522 304.87 519.065 291.714 510.608C283.257 505.91 275.74 500.272 268.223 493.694C267.283 492.754 265.404 491.815 263.524 491.815C249.429 491.815 236.274 491.815 222.179 493.694C207.144 496.513 193.049 498.392 179.894 504.97C172.377 507.789 164.859 511.548 157.342 515.307C144.187 520.945 132.911 528.462 120.695 535.039C115.057 537.858 115.057 538.798 120.695 541.617C135.73 550.074 150.764 558.531 166.739 566.048C179.894 571.686 192.11 577.324 206.205 580.143C224.998 583.902 243.791 586.721 263.524 584.842C265.404 584.842 266.343 584.842 267.283 583.902C276.68 576.385 287.016 569.807 297.352 563.229C308.628 555.712 320.844 549.134 333.999 544.436C339.637 540.677 343.396 539.738 348.094 537.858ZM606.503 686.326C606.503 688.205 606.503 690.084 607.443 691.024C611.201 700.421 610.262 710.757 612.141 721.093C613.081 728.611 611.201 736.128 612.141 743.646C612.141 753.982 610.262 764.318 610.262 774.655C610.262 777.474 608.382 779.353 610.262 782.172C615.9 793.448 623.417 804.724 631.874 815.06C644.09 830.095 657.245 844.19 673.219 855.466C683.556 862.043 692.952 869.561 703.289 876.139C708.927 879.897 715.504 883.656 721.142 886.475C723.022 887.415 724.901 887.415 724.901 884.596C724.901 877.078 724.901 869.561 724.901 862.984C724.901 847.949 723.022 832.914 721.142 817.879C720.203 810.362 719.263 802.845 716.444 795.327C710.806 777.474 704.228 759.62 694.832 743.646C692.952 739.887 691.073 735.188 687.314 733.309C681.676 730.49 676.038 727.671 670.4 725.792C659.124 721.093 647.848 714.516 637.512 707.938C626.236 703.24 615.9 696.662 606.503 686.326ZM240.033 991.717H240.972C240.033 984.2 238.154 977.623 237.214 970.105C236.274 963.528 234.395 956.01 234.395 949.432C233.455 935.337 232.516 921.243 232.516 908.087C232.516 906.208 232.515 904.329 231.576 901.51C231.576 900.57 230.636 899.63 229.696 899.63C216.541 898.691 203.386 893.992 191.17 888.354C178.954 882.716 166.739 878.018 155.463 870.501C148.885 866.742 142.307 862.983 138.549 856.406C133.85 848.888 129.152 840.431 126.333 831.035C123.514 821.638 121.635 812.241 118.816 802.845C115.997 789.689 113.178 775.594 114.117 761.499C114.117 759.62 113.178 758.68 111.298 757.741C107.54 756.801 103.781 756.801 100.022 754.922C86.8671 750.223 72.7721 750.223 60.5564 745.525C53.0391 742.706 45.5216 739.887 38.0043 738.007C34.2456 737.068 30.4871 733.309 25.7888 733.309C25.7888 734.249 25.7887 734.249 26.7283 735.188C32.3663 741.766 37.0646 749.283 42.7026 756.801C49.2803 765.258 55.858 773.715 61.496 783.112C68.0737 792.508 76.5308 800.026 82.1688 809.422C91.5654 822.578 102.841 834.793 112.238 847.949C116.936 854.526 122.574 861.104 129.152 866.742C131.031 868.621 131.031 871.44 132.911 873.32C137.609 878.958 142.307 883.656 147.006 889.294C157.342 901.51 168.618 913.725 179.894 925.941C191.17 939.096 202.446 952.252 214.662 964.467C223.119 974.804 231.576 983.26 240.033 991.717ZM24.849 340.528C25.7887 341.468 25.7888 340.528 25.7888 340.528C33.3061 337.709 39.8836 334.89 47.401 333.011C53.9787 331.132 60.5563 329.252 66.1943 326.433C73.7117 323.614 82.1687 323.614 89.686 321.735C96.2637 319.856 102.841 318.916 110.359 317.037C112.238 317.037 113.178 316.097 113.178 314.218C113.178 306.7 113.178 299.183 114.117 291.665C116.936 271.932 121.635 253.139 129.152 234.346C131.971 227.768 133.85 221.19 139.488 216.492C146.066 209.914 153.583 204.277 162.04 200.518C171.437 195.82 179.894 192.061 189.291 188.302C201.506 183.604 214.662 177.966 228.757 177.026C230.636 177.026 230.636 176.086 230.636 174.207C231.576 163.871 232.516 152.595 232.516 142.259C233.455 135.681 232.515 128.164 233.455 121.586C235.334 111.25 235.334 99.9733 238.153 89.637C238.153 87.7577 240.033 85.8786 238.153 83.9992L237.214 84.9387C229.697 92.456 223.119 99.0341 215.601 106.551C209.024 114.069 201.506 120.646 194.929 129.103C185.532 140.379 177.075 151.655 166.739 161.052C157.342 170.449 149.825 181.725 139.488 191.122C133.85 196.76 129.152 203.337 125.393 209.915C124.454 211.794 121.635 212.734 119.755 214.613C115.057 220.251 110.359 225.889 106.6 231.527C96.2637 244.682 85.9273 257.838 75.591 270.993C65.2547 285.088 53.039 297.304 43.6424 311.399C38.944 320.795 31.4267 331.132 24.849 340.528ZM1054.72 553.833C1052.84 554.772 1051.9 554.773 1051.9 555.712C1047.21 561.35 1040.63 565.109 1034.99 569.807C1030.29 573.566 1024.65 578.264 1019.02 582.023C1011.5 587.661 1003.98 590.48 996.465 596.118C990.827 599.876 986.128 602.695 980.49 606.454C979.551 607.394 978.611 607.394 978.611 610.213C984.249 623.368 986.128 636.523 988.008 650.618C989.887 660.955 989.887 671.291 990.827 681.627C991.766 688.205 989.887 694.783 988.947 701.361C988.008 706.999 987.068 711.697 984.249 715.456C978.611 724.852 971.094 734.249 962.637 741.766C948.542 754.922 935.386 769.017 917.533 778.413C915.653 779.353 914.714 781.232 915.653 783.112C916.593 786.87 918.472 791.569 919.412 795.327C921.291 808.483 928.809 820.698 930.688 833.853C931.628 841.371 933.507 848.888 935.386 855.466C936.326 860.164 935.386 864.863 937.266 868.621C939.145 867.682 938.205 866.742 939.145 865.802C941.964 858.285 945.723 850.768 949.481 843.25C954.18 833.853 957.938 823.517 962.637 814.121C967.335 803.784 970.154 792.508 974.852 782.172C981.43 767.137 986.128 752.103 992.706 737.068C996.465 729.551 998.344 721.094 1000.22 713.576C1001.16 710.757 1003.04 708.878 1003.98 706.059C1005.86 699.481 1007.74 692.903 1010.56 686.326C1015.26 671.291 1019.96 656.256 1025.59 641.222C1033.11 619.609 1040.63 597.057 1047.21 575.445C1050.97 566.988 1051.91 560.41 1054.72 553.833ZM939.145 207.095C936.326 210.854 937.266 215.553 937.266 219.312C936.326 223.07 934.447 226.828 934.447 230.587C933.507 238.104 931.628 244.683 929.748 252.2C927.869 260.657 923.171 269.113 921.291 277.57C920.352 283.208 917.533 288.847 915.653 294.485C914.714 296.364 914.714 297.304 917.533 298.243C928.809 303.881 939.145 312.338 948.542 320.795C958.878 330.192 969.214 339.589 977.671 350.865C986.128 362.141 990.827 374.357 990.827 388.452C990.827 401.607 989.887 414.762 988.008 427.917C986.128 441.072 984.249 453.288 978.611 465.504C977.671 467.383 977.671 469.262 979.551 470.202C985.189 473.961 989.887 476.78 995.525 480.539C1003.98 487.117 1014.32 490.875 1022.78 498.392C1031.23 505.91 1040.63 511.548 1049.09 520.005C1050.03 520.945 1050.97 521.884 1051.9 521.884C1051.9 520.944 1051.9 520.945 1051.9 520.005C1049.09 512.488 1047.21 504.03 1044.39 495.573C1041.57 485.237 1037.81 473.961 1034.99 463.625C1032.17 453.289 1027.47 442.952 1023.71 431.676C1019.02 415.702 1013.38 399.728 1007.74 383.753C1004.92 376.236 1002.1 369.658 999.284 363.08C998.344 360.261 998.344 357.442 997.404 354.623C994.585 348.046 991.766 341.468 988.947 334.89C983.309 319.856 976.732 305.76 972.033 291.665C963.576 270.053 955.119 248.441 945.723 227.768C945.723 219.311 941.964 213.673 939.145 207.095ZM267.283 1008.63C271.981 1008.63 275.74 1010.51 279.499 1011.45C287.956 1013.33 296.413 1015.21 305.809 1018.03C315.206 1020.85 323.663 1022.73 333.06 1023.67C345.276 1025.55 357.491 1028.36 369.707 1031.18C382.862 1034.94 396.017 1035.88 409.173 1039.64C416.69 1041.52 424.207 1042.46 432.664 1042.46C435.483 1042.46 437.363 1044.34 440.182 1045.28C448.639 1047.16 457.096 1048.1 465.553 1049.04C473.07 1049.98 481.527 1051.86 489.044 1052.8C498.441 1053.74 507.838 1054.68 517.235 1056.55C525.692 1058.43 534.149 1060.31 541.666 1060.31C551.063 1061.25 560.459 1062.19 569.856 1063.13C579.253 1064.07 587.71 1064.07 597.106 1065.95C591.468 1060.31 584.891 1055.61 579.253 1049.98C573.615 1044.34 567.037 1039.64 562.339 1034C553.882 1022.73 543.545 1013.33 534.149 1002.99C532.269 1001.11 531.33 1001.11 529.45 1002.05C524.752 1004.87 520.993 1006.75 516.295 1009.57C496.562 1018.03 476.829 1023.67 456.156 1027.43C448.639 1028.36 441.122 1029.3 433.604 1027.43C424.208 1024.61 414.811 1020.85 406.354 1015.21C397.897 1009.57 390.38 1003.93 382.862 998.295C372.526 989.838 362.19 981.381 353.732 970.105C352.793 968.226 351.853 968.226 349.974 969.166C344.336 971.985 339.637 974.804 334.939 976.683C321.784 982.321 309.568 991.718 295.473 995.476C288.896 997.356 282.318 1002.05 274.801 1002.99C271.982 1005.81 269.162 1005.81 267.283 1008.63ZM919.412 183.604C918.472 181.724 917.533 181.724 916.593 180.785C909.076 176.086 902.498 171.388 895.92 166.69C886.524 160.112 877.127 153.534 866.791 147.896C857.394 142.258 847.997 137.56 839.54 130.983C824.506 121.586 809.471 112.189 794.436 102.793C788.798 99.0339 782.221 96.2149 775.643 93.3959C772.824 92.4562 771.884 89.6372 770.005 88.6976C763.427 84.9389 756.85 81.1804 750.272 78.3614C737.117 70.8441 723.022 63.3263 709.866 56.7486C693.892 48.2916 677.918 37.9554 661.004 30.4381C653.486 26.6794 646.909 22.921 639.391 20.102C636.572 19.1623 633.753 16.3433 629.995 15.4036C629.995 16.3433 630.934 17.2829 630.934 18.2225C635.633 23.8605 638.452 30.4382 642.21 37.0159C645.969 44.5332 650.667 51.1108 653.486 58.6281C657.245 70.8438 663.823 82.12 668.521 95.2753C669.461 98.0943 670.4 99.0339 674.159 98.0942C681.676 96.2149 690.133 95.2753 697.651 95.2753C711.746 95.2753 724.901 96.2151 738.996 97.1548C748.393 98.0945 757.789 100.913 766.246 103.732C775.643 106.551 780.341 114.068 786.919 119.706C791.617 124.405 795.376 130.043 799.135 134.741C810.411 150.716 821.687 167.63 827.325 186.423C828.264 188.303 828.264 189.242 830.144 188.302C842.359 186.423 854.575 186.423 865.851 183.604C872.429 181.724 879.006 182.664 885.584 181.725C893.101 180.785 901.558 180.785 909.076 180.785C911.895 183.604 914.714 183.604 919.412 183.604ZM597.106 9.76529C592.408 10.705 588.649 10.7053 583.951 10.7053C575.494 11.645 567.037 12.5845 557.64 13.5242C548.244 14.4639 538.847 15.4037 529.45 17.2831C517.235 20.1021 504.079 21.9812 491.864 22.9209C478.708 23.8605 466.493 27.619 453.337 28.5586C443.001 29.4983 432.665 34.197 422.328 34.197C414.811 34.197 407.293 37.0156 399.776 37.9553C384.741 40.7743 368.767 44.533 353.732 47.352C339.637 51.1106 324.603 52.0505 310.508 55.8092C303.93 57.6885 296.413 59.5679 289.835 60.5075C282.318 62.3869 274.801 65.2056 265.404 66.1453C267.283 67.085 267.283 68.0248 268.223 68.0248C274.8 69.9041 281.378 72.723 287.956 75.542C294.533 78.361 301.111 80.2408 307.689 83.0598C316.146 86.8185 323.663 92.4561 332.12 96.2148C337.758 98.0941 342.456 101.853 348.094 103.732C349.974 104.672 350.914 104.672 351.853 102.793C354.672 99.0339 357.491 96.2151 360.31 92.4565C371.586 81.1804 384.741 71.7837 397.897 62.387C407.293 55.8093 416.69 50.1712 427.966 46.4125C439.242 42.6539 451.458 44.533 462.734 47.352C472.131 49.2313 481.527 52.0508 490.924 54.8698C503.14 59.5681 516.295 63.3263 527.571 70.8437C529.45 71.7833 530.39 71.7833 532.269 70.8437C533.209 69.904 534.149 68.9644 535.088 68.0248C546.364 56.7488 555.761 43.5933 567.977 33.257C576.434 25.7396 583.951 17.2827 593.348 11.6447C596.167 12.5844 597.106 11.6446 597.106 9.76529ZM918.472 893.052C909.076 893.992 900.619 893.052 891.222 893.052C885.584 893.052 879.946 893.053 874.308 892.113C859.273 889.294 844.239 888.355 829.204 886.475C826.385 886.475 825.445 887.415 824.506 889.294C823.566 893.053 822.626 896.811 820.747 899.63C811.35 919.363 799.135 938.157 785.04 955.071C776.583 965.407 765.307 972.925 751.212 975.744C747.453 976.683 743.694 977.622 739.936 977.622C729.599 978.562 720.203 979.502 709.866 979.502C696.711 979.502 683.556 980.442 670.4 976.683C667.581 975.743 666.642 976.683 665.702 979.502C661.943 989.838 655.366 1000.17 652.547 1011.45C650.667 1018.97 645.969 1025.55 642.21 1033.06C637.512 1041.52 633.753 1049.98 628.115 1057.49C627.176 1058.43 627.176 1059.37 627.176 1060.31C629.055 1059.37 631.874 1057.49 633.753 1056.55C648.788 1049.98 663.823 1042.46 677.918 1034.94C693.892 1026.49 708.927 1018.03 723.961 1009.57C737.117 1002.99 750.272 995.476 762.488 987.959C766.246 986.08 770.005 982.321 773.764 979.502C776.583 977.623 779.402 977.623 781.281 976.683C786.919 972.924 793.497 969.166 799.135 965.407C813.23 956.95 826.385 947.553 840.48 940.036C860.213 928.76 879.946 915.605 898.739 903.389C908.136 900.57 912.834 896.811 918.472 893.052ZM13.5731 705.119C14.5127 704.179 15.4524 704.18 15.4524 703.24C18.2714 696.662 22.0301 691.024 25.7888 684.447C29.5474 678.809 33.3061 671.291 37.0647 666.593C46.4614 655.317 53.9788 643.101 63.3754 631.825C65.2548 629.946 65.2548 628.067 63.3754 626.187C58.6771 621.489 54.9184 615.851 51.1597 610.213C43.6424 597.997 38.0043 585.781 31.4267 572.626C26.7283 563.229 23.9093 552.893 22.03 542.557C20.1507 530.341 23.9093 519.065 28.6076 507.789C32.3663 498.392 37.0647 489.936 41.7631 480.539C48.3407 468.323 54.9183 457.047 64.315 446.71C65.2547 445.771 65.2547 444.831 64.315 442.952C61.496 439.193 58.6771 436.374 55.8581 432.615C48.3407 420.4 38.0043 411.003 31.4267 398.788C26.7283 390.331 21.0903 383.753 17.3317 375.296C16.392 373.417 15.4523 370.598 12.6333 368.718C12.6333 371.537 12.6333 373.416 12.6333 376.235C10.754 392.21 9.81439 409.124 8.87472 426.038C7.93505 443.892 8.87475 460.806 6.99541 478.659C6.05575 490.875 6.99536 503.091 6.05569 514.367C5.11602 521.884 6.05575 530.341 6.99541 537.858C6.99541 540.677 6.05569 543.497 6.05569 546.316C6.99536 552.893 6.99541 560.411 6.99541 566.988C6.99541 587.661 8.87472 608.333 8.87472 629.006C8.87472 641.222 9.81436 654.377 10.754 666.593C11.6937 680.688 13.5731 692.903 13.5731 705.119ZM910.955 765.258C914.714 757.741 918.472 751.163 923.171 744.585C930.688 733.309 936.326 720.154 941.964 707.938C945.723 698.542 949.481 689.145 952.3 679.748C954.18 672.231 956.059 665.653 957.938 658.136C959.818 651.558 959.818 644.041 961.697 637.463C963.576 630.886 963.576 624.308 965.456 617.73C965.456 615.851 965.456 615.851 963.576 616.791C960.757 617.73 957.938 618.67 956.059 620.549C948.542 625.247 941.024 629.946 933.507 633.705C931.628 634.644 930.688 635.584 930.688 637.463C929.748 642.162 928.809 646.86 926.929 651.558C924.11 659.076 921.291 665.653 918.472 673.171C914.714 681.628 911.895 691.024 909.076 700.421C906.257 709.817 902.498 720.154 897.8 728.611C896.86 730.49 896.86 731.43 897.8 733.309C900.619 738.947 903.438 745.525 905.317 752.102C905.317 755.861 908.136 760.56 910.955 765.258ZM965.456 461.746C959.818 407.245 941.024 357.442 910.955 311.399C909.076 314.218 907.196 317.976 906.257 320.795C903.438 329.252 900.619 337.709 896.86 345.227C895.92 346.166 895.92 347.106 896.86 348.985C897.8 351.804 899.679 354.623 900.619 356.503C904.377 364.02 907.196 371.538 909.076 379.055C911.895 388.452 914.714 398.788 919.412 407.245C923.171 415.702 926.929 425.098 928.809 434.495C929.748 440.133 931.628 444.831 938.205 446.71C942.904 447.65 946.662 450.469 950.421 453.288C954.18 456.107 959.818 458.927 965.456 461.746ZM813.23 882.716C808.531 881.777 804.773 880.837 801.954 879.897C794.436 878.958 785.979 878.018 778.462 875.199C775.643 874.259 773.764 875.199 770.945 877.079C768.126 879.898 765.307 881.776 762.488 883.656C750.272 891.173 737.117 896.811 724.901 904.329C714.565 910.906 704.228 918.424 692.013 923.122C687.314 925.001 684.495 927.821 683.556 933.459C683.556 934.398 683.556 934.398 682.616 935.337C680.737 943.794 676.038 951.312 674.159 960.709C674.159 961.648 673.219 962.588 674.159 963.527C674.159 963.527 675.099 963.527 676.038 963.527C688.254 958.829 701.409 955.07 713.625 949.432C727.72 943.794 740.875 937.217 754.031 928.76C760.608 925.002 767.186 920.303 773.764 915.605C781.281 909.967 788.798 904.329 795.376 898.691C800.074 893.053 805.712 887.415 813.23 882.716ZM812.29 193C804.773 188.302 799.135 182.664 793.497 177.026C783.16 167.63 772.824 161.052 761.548 152.595C753.091 146.957 742.755 141.319 733.358 136.62C726.78 132.862 720.203 130.043 713.625 127.224C707.047 124.405 700.47 122.525 694.832 119.706C688.254 116.887 681.676 115.948 675.099 112.189C673.219 111.25 673.219 112.189 673.219 114.069C674.159 116.888 674.159 119.706 676.038 122.525C679.797 130.043 682.616 137.56 684.495 146.017C685.435 148.836 686.375 149.776 688.254 150.715C692.013 152.595 695.771 153.535 699.53 156.354C706.108 160.112 712.685 163.871 719.263 168.569C727.72 174.207 736.177 178.906 744.634 182.664C754.031 187.363 763.427 192.061 770.945 199.578C771.884 200.518 773.764 201.458 775.643 200.518C781.281 198.639 787.859 197.699 793.497 196.759C800.074 196.759 805.712 195.819 812.29 193ZM521.933 85.8787C511.597 85.8787 502.2 85.8787 491.864 85.8787C481.527 85.8787 472.131 86.8185 461.794 87.7581C453.337 88.6978 445.82 89.6371 438.303 91.5164C431.725 92.4561 424.208 94.3354 417.63 96.2148C411.052 98.0941 403.535 99.0341 397.897 101.853C387.56 105.612 376.285 109.37 365.948 113.129C364.069 114.068 364.069 115.008 365.948 115.948C368.767 117.827 370.647 119.707 373.466 120.646C380.983 124.405 388.5 128.163 395.078 133.801C396.957 134.741 397.897 134.741 399.776 134.741C408.233 131.922 417.63 130.043 427.027 129.103C437.363 128.163 447.699 126.284 457.096 124.405C468.372 121.586 478.708 119.707 489.984 118.767C493.743 118.767 497.502 119.706 500.321 115.008C503.14 110.31 506.898 105.612 510.657 101.853C515.355 96.2151 519.114 91.5167 521.933 85.8787ZM522.873 989.839C521.933 988.899 521.933 987.959 521.933 987.959C515.355 977.623 505.959 970.105 500.321 959.769C499.381 957.89 497.502 958.829 496.562 958.829C492.803 958.829 489.045 958.829 485.286 957.89C475.889 956.01 467.432 954.131 458.036 952.252C450.518 950.373 443.001 948.493 434.544 948.493C425.147 947.553 416.69 946.614 408.233 943.795C402.595 941.915 396.957 940.036 391.319 945.674L390.379 946.614C382.862 951.312 374.405 954.131 367.828 959.769C366.888 960.709 365.948 960.709 365.948 961.649C365.948 963.528 367.828 962.588 368.767 962.588C375.345 965.407 381.922 967.286 388.5 970.105C395.078 972.924 401.655 974.804 409.173 976.683C421.388 980.442 433.604 983.261 446.759 985.14C461.794 987.959 476.829 988.899 491.864 989.839C494.683 989.839 497.502 988.899 500.321 989.839C506.898 990.778 514.416 988.899 522.873 989.839ZM129.152 314.218C132.911 314.218 137.609 314.218 141.368 313.278C148.885 311.399 157.342 309.519 164.859 309.519C166.739 309.519 168.618 308.58 169.558 306.7C175.196 297.304 181.773 289.786 189.291 282.269C196.808 274.751 203.386 267.234 209.024 259.717C215.602 250.32 223.119 240.924 231.576 233.407C233.455 232.467 233.455 230.588 233.455 228.708C233.455 222.131 232.516 216.493 232.516 209.915C233.455 204.277 232.515 198.638 231.576 193C187.411 224.009 153.583 264.415 129.152 314.218ZM231.576 884.596C233.455 871.44 231.576 859.225 233.455 847.009C233.455 846.069 233.455 845.13 232.516 845.13C230.636 843.25 228.757 841.371 226.877 839.492C220.3 833.854 214.662 827.276 209.963 819.758C204.325 811.301 197.748 803.784 191.17 797.207C183.653 788.75 176.135 780.292 169.558 770.896C167.678 768.077 165.799 767.137 162.98 767.137C157.342 767.137 152.644 766.198 147.006 765.258C141.368 764.318 134.79 762.439 129.152 763.378C153.583 812.241 187.411 852.647 231.576 884.596ZM76.5307 616.791C79.3497 614.911 82.1687 613.032 84.9877 610.213C89.686 604.575 94.3844 597.997 100.962 592.359C102.841 590.48 103.781 588.601 102.841 585.782C100.962 576.385 100.962 566.049 101.902 555.712C102.841 545.376 102.841 535.04 101.902 524.703C100.962 513.427 100.962 502.151 102.841 490.875C102.841 488.996 102.841 487.117 100.962 485.237C96.2638 481.479 92.5051 476.78 88.7464 471.142C84.9877 466.444 81.2291 462.685 77.4704 458.927C63.3754 511.548 63.3754 565.109 76.5307 616.791ZM788.798 862.044C792.557 862.983 796.316 863.923 799.135 863.923C801.954 863.923 805.712 863.923 808.531 864.862C813.23 866.742 818.868 867.681 823.566 869.561C826.385 870.5 828.264 869.561 830.144 867.682C840.48 857.346 850.816 847.009 862.092 836.672C868.67 830.095 874.308 822.578 879.946 814.121C886.524 803.784 893.101 795.327 899.679 784.991C901.558 783.111 901.558 780.293 899.679 778.413C895.92 769.017 890.282 760.56 887.463 750.223C887.463 749.284 886.524 747.404 885.584 746.465C882.765 748.344 882.765 752.103 880.886 754.922C873.368 766.198 866.791 777.474 859.273 787.81C852.696 798.146 846.118 808.483 837.661 816.94C829.204 825.397 820.747 833.853 811.35 841.371C803.833 847.948 797.255 855.466 788.798 862.044ZM788.798 214.613C807.592 231.527 827.325 247.501 844.239 267.234C860.213 286.028 872.429 308.58 886.524 330.192C887.463 327.373 888.403 325.494 889.343 323.614C891.222 319.856 891.222 315.157 893.101 311.399C895.92 306.7 897.8 302.002 900.619 297.304C901.558 295.424 901.558 293.545 900.619 291.665C897.8 287.907 894.981 283.209 892.162 279.45C886.524 270.993 880.886 263.476 875.248 255.019C869.61 246.562 863.032 239.984 855.515 233.407C847.058 225.889 838.601 217.432 831.083 208.975C829.204 207.095 826.385 206.156 823.566 207.095C814.169 209.914 804.773 212.734 795.376 213.673C792.557 213.673 790.678 213.674 788.798 214.613ZM518.174 117.827C521.933 117.827 525.692 117.827 529.45 117.827C545.425 118.767 561.399 119.706 576.434 119.706C586.77 119.706 597.106 121.586 607.443 125.345C623.417 130.043 639.391 135.681 655.366 140.379C658.185 141.319 661.004 143.198 664.762 143.198C665.702 142.258 664.762 142.258 664.762 141.319C661.004 131.922 657.245 121.586 655.366 111.25C654.426 107.491 652.547 106.551 649.728 105.611C638.452 102.792 627.176 99.9738 616.839 97.1548C607.443 94.3358 598.046 92.4561 588.649 91.5164C585.83 91.5164 582.072 91.5164 579.253 91.5164C567.037 90.5768 555.761 89.6372 543.545 88.6976C540.726 88.6976 539.787 89.6371 537.907 91.5164C532.269 99.0338 528.511 107.491 521.933 113.129C520.993 113.129 520.054 115.008 518.174 117.827ZM518.174 958.829C522.873 966.346 529.45 971.045 533.209 978.562C535.088 982.321 537.907 985.14 539.787 987.959C540.726 988.899 540.726 989.839 542.606 989.839C546.364 989.839 550.123 988.899 553.882 988.899C563.278 987.959 572.675 986.08 581.132 986.08C588.649 986.08 596.167 984.2 603.684 983.261C608.382 982.321 612.141 980.442 615.9 979.502C627.176 976.683 637.512 973.864 648.788 971.045C652.547 970.106 654.426 968.226 655.366 964.467C658.185 956.01 658.185 947.553 662.883 940.036C663.823 939.096 663.823 938.157 663.823 937.217C663.823 935.338 665.702 934.398 664.762 932.519C663.823 931.579 661.943 933.459 661.004 933.459C659.124 934.398 658.185 934.398 656.305 935.337C645.969 939.096 634.693 942.855 624.357 945.674C615.9 948.493 606.503 951.312 598.046 953.191C581.132 956.95 565.158 956.01 548.244 957.89C538.847 957.89 528.511 958.829 518.174 958.829ZM380.043 143.198C377.224 140.379 374.405 139.439 372.526 138.5C368.767 136.62 365.008 135.681 362.189 132.862C358.431 129.103 353.732 126.284 349.034 123.465C347.155 122.526 346.215 122.526 344.336 123.465C335.879 127.224 328.361 130.983 319.904 134.741C314.266 137.56 308.629 139.44 302.991 142.259C294.534 146.957 287.016 151.655 279.499 157.293C270.102 164.81 260.706 170.449 251.309 177.026C248.49 178.906 247.55 180.785 248.49 183.604C249.429 193.94 250.369 205.216 250.369 215.553C250.369 216.492 250.369 217.432 252.248 218.372C287.016 182.664 330.241 158.233 380.043 143.198ZM248.49 859.225C248.49 870.501 248.49 879.897 246.611 890.234C245.671 895.872 247.55 899.63 253.188 903.389C261.645 909.027 271.042 914.665 278.559 921.242C289.835 930.639 302.051 936.277 315.206 941.915C323.663 945.674 332.12 949.433 340.577 953.191C344.336 955.071 347.155 955.071 350.913 952.252C357.491 947.554 362.189 941.915 369.707 939.096C372.526 938.157 376.284 936.277 379.103 932.519C330.241 918.424 287.016 893.992 248.49 859.225ZM157.342 750.223C156.402 746.465 153.583 744.585 152.644 741.766C146.066 729.551 139.488 716.395 132.911 703.24C130.092 698.542 127.273 693.843 125.393 688.205C122.574 679.748 119.755 671.291 117.876 661.895C115.057 647.8 111.298 634.644 108.479 620.549C107.54 615.851 106.6 612.092 105.66 607.394C99.0828 613.032 96.2637 620.549 89.686 625.247C86.867 628.066 84.048 630.886 81.229 633.705C80.2894 634.644 79.3497 636.524 80.2893 637.463C81.229 641.222 82.1687 644.98 83.1084 648.739C84.9877 657.196 88.7463 665.653 89.686 675.05C90.6257 682.567 93.4448 690.084 96.2638 697.602C100.022 707.938 105.66 717.335 110.359 726.732C112.238 731.43 115.057 736.128 116.936 741.766C117.876 742.706 117.876 744.585 119.755 744.585C122.574 744.585 125.393 745.525 129.152 745.525C133.85 746.465 139.488 745.525 144.187 747.404C148.885 749.283 152.644 750.223 157.342 750.223ZM105.66 467.383C111.298 442.952 115.057 417.581 123.514 394.089C131.971 370.598 146.066 348.985 157.342 326.433C150.764 326.433 145.126 329.252 139.488 329.252C133.85 330.192 127.273 330.192 121.635 330.192C119.755 330.192 118.816 331.132 117.876 333.011C115.997 337.709 113.178 342.408 111.298 347.106C106.6 356.503 101.902 365.899 97.2034 376.235C93.4447 383.753 91.5653 392.21 89.686 400.667C87.8067 411.943 84.048 423.219 80.2893 434.495C79.3497 437.314 80.2894 440.133 82.1688 442.012C87.8068 448.59 95.3241 453.288 100.022 460.805C101.902 463.624 103.781 465.504 105.66 467.383ZM933.507 462.685C945.723 513.427 945.723 563.229 933.507 614.911C937.266 613.032 939.145 612.092 941.964 610.213C945.723 608.333 948.542 605.514 952.3 603.635C957.938 601.756 962.637 599.876 967.335 597.057C969.214 596.118 969.214 595.178 969.214 593.299C969.214 586.721 970.154 580.143 971.094 573.566C972.033 566.988 972.033 561.35 972.973 554.772C974.852 545.376 974.852 535.979 973.913 526.582C972.973 513.427 970.154 499.332 970.154 486.177C970.154 482.418 968.275 479.599 964.516 477.72C956.999 473.961 949.481 472.082 942.904 466.444C940.085 465.504 937.266 463.625 933.507 462.685ZM650.667 96.2148C644.09 86.8181 642.21 76.482 637.512 67.0853C630.934 54.8697 625.296 40.7743 618.719 28.5586C613.081 17.2826 612.141 17.2827 601.805 25.7397C596.166 30.4381 591.468 37.0156 584.891 42.6536C575.494 51.1106 566.097 59.5679 558.58 69.9042C555.761 72.7232 552.942 75.5422 549.183 79.3009C552.942 79.3009 555.761 80.2403 559.52 80.2403C569.856 82.1197 580.192 80.2407 591.468 81.1803C595.227 81.1803 598.986 83.0598 603.684 83.0598C608.382 83.0598 613.081 83.9993 616.839 85.8787C628.115 89.6373 638.452 92.4561 650.667 96.2148ZM246.611 909.967C247.55 912.786 247.55 915.605 247.55 918.424C246.61 933.458 249.429 947.553 250.369 962.588C251.309 971.045 251.309 978.562 252.248 987.019C253.188 994.536 256.007 996.416 263.524 993.597C269.162 991.718 274.801 989.838 279.499 987.019C288.896 982.321 298.292 978.562 308.628 973.864C317.085 970.105 324.603 963.528 334.939 960.709C327.422 956.95 319.904 953.191 313.327 950.372C302.99 946.614 292.654 941.915 283.257 936.277C279.499 933.458 275.74 931.579 271.981 927.82C265.404 922.182 256.947 915.605 246.611 909.967ZM335.879 115.948C327.422 114.069 320.844 108.431 313.327 104.672C300.171 99.034 287.956 93.3961 274.801 87.7581C270.102 84.9391 264.464 83.0594 258.826 82.1198C257.886 82.1198 256.007 81.1804 256.007 83.0598C255.068 85.8788 254.128 87.7577 254.128 89.637C252.248 105.611 251.309 120.646 249.429 136.62C248.49 146.957 250.369 156.354 247.55 167.63C253.188 162.931 258.826 160.112 264.464 155.414C273.861 146.957 284.197 140.379 294.533 133.801C297.352 131.922 301.111 130.043 304.87 129.103C315.206 126.284 324.603 120.646 335.879 115.948ZM904.377 794.387C900.619 800.025 896.86 804.724 894.041 809.422C888.403 818.819 882.765 827.276 876.187 835.733C868.67 844.19 860.213 850.768 852.696 858.285C847.997 862.044 844.239 866.742 839.54 872.38C843.299 872.38 847.058 871.441 849.877 872.38C862.092 875.199 874.308 875.199 886.524 876.139C889.343 876.139 892.162 876.139 894.981 876.139C902.498 877.078 910.015 878.018 917.533 878.018C927.869 877.078 927.869 877.079 925.99 867.682C924.11 854.527 919.412 841.371 916.593 828.216C911.895 816.94 908.136 805.663 904.377 794.387ZM839.54 204.276C839.54 205.216 838.601 205.216 838.601 206.156C843.299 209.915 847.058 213.673 851.756 218.372C857.394 224.01 863.972 227.769 869.61 233.407C872.429 236.226 874.308 239.984 877.127 242.803C880.886 245.622 883.705 249.381 885.584 253.139C890.282 262.536 895.92 270.993 902.498 279.45C903.438 280.39 903.438 282.269 905.317 282.269C906.257 278.51 906.257 274.752 908.136 270.993C911.895 263.476 912.834 255.019 915.653 247.502C918.472 239.045 919.412 230.587 922.231 223.07C924.11 216.492 925.99 209.914 925.99 202.397C925.99 199.578 925.05 199.578 922.231 198.639C917.533 197.699 911.895 197.699 907.196 198.639C893.101 200.518 879.946 200.518 865.851 201.458C856.454 202.397 847.997 205.216 839.54 204.276ZM978.611 588.601C983.309 585.782 988.008 582.023 992.706 580.143C999.284 577.324 1004.92 571.686 1010.56 567.928C1017.14 564.169 1022.78 558.531 1029.35 553.833C1035.93 550.074 1041.57 545.376 1046.27 539.738C1048.15 537.858 1048.15 535.979 1046.27 534.1C1041.57 528.462 1034.99 524.703 1029.35 520.005C1019.96 513.427 1010.56 506.849 1002.1 500.272C995.525 494.634 986.128 491.815 979.551 486.177C985.189 520.944 985.189 554.773 978.611 588.601ZM649.728 980.442C641.271 983.261 631.874 984.2 624.357 987.959C614.96 991.718 604.624 993.597 595.227 995.476C591.468 996.416 587.71 997.355 584.891 996.416C573.615 994.536 563.278 997.356 552.942 997.356C552.002 997.356 552.002 997.356 551.063 998.295C551.063 999.235 551.063 999.235 552.002 1000.17C554.821 1002.05 556.701 1003.93 558.58 1006.75C561.399 1010.51 565.158 1014.27 567.977 1018.03C576.434 1026.49 585.83 1034.94 594.287 1043.4C598.986 1049.04 603.684 1053.74 610.262 1057.49C611.201 1058.43 612.141 1058.43 613.081 1057.49C614.96 1055.61 616.839 1053.74 617.779 1050.92C621.538 1044.34 624.357 1035.88 628.115 1029.3C636.572 1013.33 643.15 997.356 649.728 980.442ZM72.7721 646.86C69.9531 651.558 67.134 656.257 64.315 659.076C58.677 664.714 54.9184 672.231 49.2804 679.748C45.5218 685.386 41.763 691.024 38.0043 696.662C33.306 703.24 28.6078 708.878 25.7888 716.395C24.8491 718.274 25.7887 719.214 27.6681 720.154C33.3061 723.913 38.9441 724.852 44.5821 726.732C56.7978 729.551 68.0737 733.309 79.3497 737.068C88.7464 739.887 98.1431 739.887 107.54 744.585C103.781 738.007 101.902 731.43 99.0827 725.792C92.505 714.516 86.867 704.18 83.1084 691.964C82.1687 688.205 80.2893 684.447 80.2893 680.688C78.41 668.472 75.5911 658.136 72.7721 646.86ZM106.6 333.95C100.022 336.769 93.4448 336.769 86.8671 338.649C73.7118 342.407 60.5563 346.166 47.401 349.925C39.8836 351.804 32.3664 353.683 25.7888 357.442C23.9094 358.382 23.9094 359.322 24.849 361.201C27.668 368.718 32.3664 375.296 37.0647 381.874C42.7027 390.331 49.2803 398.788 54.9183 408.184C59.6167 415.702 67.134 421.34 70.8927 430.737C73.7117 421.34 76.5308 412.883 77.4704 403.486C78.4101 393.15 82.1687 383.753 85.9274 374.357C86.8671 370.598 88.7464 366.839 90.6257 364.02C98.1431 354.623 101.902 344.287 106.6 333.95ZM222.179 889.294C180.834 857.345 147.945 817.879 123.514 771.836C123.514 774.655 123.514 777.473 124.454 780.292C127.273 799.086 131.971 817.879 138.549 835.733C144.187 850.768 154.523 860.164 167.678 866.742C177.075 871.44 186.472 875.199 195.868 879.897C203.386 883.656 212.782 886.475 222.179 889.294ZM681.676 970.105C685.435 970.105 688.254 971.045 692.013 971.045C710.806 971.045 729.599 970.106 748.393 966.347C754.97 965.407 762.488 962.588 768.126 957.89C774.703 952.252 780.341 946.613 785.04 940.036C791.617 930.639 799.135 920.303 804.773 909.967C808.531 904.329 811.35 898.69 814.169 893.052C775.643 928.76 731.479 954.131 681.676 970.105ZM220.3 187.363C217.481 188.302 214.662 188.302 212.782 189.242C194.929 195.82 178.015 203.337 161.101 212.734C147.006 220.251 139.488 233.407 134.79 247.502C131.031 259.717 127.273 272.873 125.393 285.088C124.454 290.726 123.514 297.304 122.574 303.882C147.945 258.778 179.894 219.311 220.3 187.363ZM517.235 76.482C514.416 75.5423 510.657 73.6628 507.838 72.7231C496.562 68.0248 485.286 65.206 474.01 62.387C464.613 59.568 455.217 57.6887 444.88 57.6887C432.665 56.749 422.328 62.3868 411.992 68.0248C400.716 74.6024 390.38 82.12 380.043 90.577C375.345 94.3357 370.647 99.0339 365.948 102.793V103.732C414.811 83.999 464.613 75.5423 517.235 76.482ZM365.948 971.985C366.888 974.804 368.767 974.804 369.707 975.744C384.741 989.839 401.655 1001.11 418.569 1011.45C431.725 1018.97 446.759 1019.91 460.854 1016.15C470.251 1014.27 479.648 1011.45 489.044 1008.63C498.441 1005.81 506.898 1002.05 516.295 998.295C489.984 999.235 464.613 997.356 439.242 993.597C414.811 989.838 390.38 982.321 365.948 971.985ZM973.913 622.428C966.395 674.11 949.481 722.033 921.291 766.197C923.171 766.197 923.171 765.258 924.11 765.258C925.05 764.318 925.05 764.318 925.99 763.378C942.904 751.163 956.999 736.128 970.154 720.154C977.671 710.757 981.43 699.481 981.43 687.266C981.43 678.809 980.49 669.412 979.551 660.955C979.551 647.8 977.671 634.644 973.913 622.428ZM921.291 310.459C948.542 354.623 966.395 402.546 973.913 453.288C975.792 447.65 976.732 442.012 977.671 436.374C979.551 426.038 979.551 415.702 981.43 405.365C982.37 395.029 982.37 383.753 979.551 373.417C977.671 364.02 971.094 356.503 964.516 348.985C956.999 340.528 948.542 333.011 941.024 325.494C935.386 320.795 928.809 315.157 921.291 310.459ZM681.676 106.551C731.479 122.526 775.643 147.896 814.169 183.604C813.23 180.785 811.35 177.026 809.471 174.207C800.074 157.293 789.738 141.319 776.583 126.284C771.884 121.586 767.186 116.888 761.548 114.069C752.151 110.31 742.755 107.491 732.418 107.491C723.961 106.551 715.504 105.611 707.047 105.611C698.59 104.672 690.133 104.672 681.676 106.551ZM66.1943 461.746C64.315 462.685 64.3151 464.564 63.3754 465.504C52.0994 483.358 42.7027 502.151 36.125 521.884C34.2457 527.522 32.3663 534.1 33.306 540.677C35.1853 549.134 37.0647 557.591 40.8233 566.048C46.4613 578.264 52.0994 590.48 58.6771 601.756C60.5564 605.514 63.3753 610.213 66.1943 613.972C54.9183 563.23 54.9183 512.488 66.1943 461.746ZM890.282 356.503C888.403 359.322 887.463 360.261 886.524 363.08C884.644 367.779 881.825 372.477 878.067 376.235C876.187 378.115 873.368 380.934 871.489 382.813C869.61 384.693 869.61 385.632 872.429 385.632C875.248 385.632 879.006 386.572 881.825 386.572C889.343 387.512 895.92 388.451 903.438 390.33C899.679 378.115 895.92 366.839 890.282 356.503ZM479.648 159.173C480.587 146.957 487.165 137.56 493.743 127.224C489.984 127.224 487.165 127.224 485.286 128.164C476.829 129.103 468.372 130.983 459.915 132.862C457.096 133.802 458.036 134.741 458.975 135.681C460.855 137.56 462.734 139.439 463.674 141.319C468.372 147.896 474.949 152.595 479.648 159.173ZM429.846 909.027L428.906 908.087C424.208 919.363 413.871 925.941 405.414 933.459C417.63 937.217 428.906 939.096 441.122 940.036C437.363 929.699 433.604 919.363 429.846 909.027ZM493.743 949.432C486.225 939.096 480.587 928.76 479.648 916.544C472.13 925.941 464.613 934.398 458.036 943.795C469.312 945.674 480.587 949.432 493.743 949.432ZM902.498 686.326C892.162 688.205 882.765 689.145 873.368 691.024C872.429 691.024 869.61 691.024 869.61 691.964C868.67 693.843 871.489 694.783 872.429 695.722C878.067 700.421 882.765 706.059 885.584 713.576C886.524 715.456 888.403 718.275 889.343 720.154C895.92 709.818 898.739 698.541 902.498 686.326ZM246.611 274.752C239.093 263.476 237.214 252.199 236.274 239.984C226.877 248.441 219.36 257.837 212.782 268.174C223.119 270.053 234.395 272.872 246.611 274.752ZM201.506 281.329C193.049 289.786 185.532 297.304 179.894 307.64C178.954 308.58 178.954 309.519 180.834 309.519C183.653 309.519 186.472 309.519 189.291 309.519C196.808 308.58 203.386 310.459 210.903 313.278C211.843 313.278 212.782 314.218 213.722 313.278C214.662 312.339 213.722 311.398 213.722 310.459C212.782 307.64 210.903 304.821 209.963 302.002C207.144 295.424 204.325 288.847 201.506 281.329ZM732.418 222.13C741.815 213.673 752.151 209.915 764.367 206.156C754.97 197.699 743.694 193.001 732.418 187.363C733.358 198.639 731.479 209.915 732.418 222.13ZM908.136 406.305C900.619 414.762 893.101 423.219 885.584 432.615C892.162 432.615 898.739 433.555 904.377 434.495C910.015 435.435 914.714 440.133 920.352 440.133C918.472 427.918 913.774 416.641 908.136 406.305ZM211.843 808.482C218.42 818.819 225.938 828.215 235.334 836.672C236.274 824.457 239.093 813.181 245.671 801.905C234.395 803.784 223.119 805.663 211.843 808.482ZM732.418 888.354C743.694 882.716 754.031 878.018 764.367 869.561C753.091 866.742 741.815 862.044 732.418 853.587C731.479 866.742 733.358 877.078 732.418 888.354ZM886.524 644.041V644.981C894.041 653.438 901.558 661.895 908.136 670.352C912.834 659.076 917.533 648.739 920.352 635.584C909.076 640.282 898.739 644.98 886.524 644.041ZM686.375 161.991C689.194 173.267 691.073 184.544 688.254 196.759C698.59 190.182 707.987 184.543 718.323 178.905C707.987 172.328 698.59 165.75 686.375 161.991ZM178.015 767.137C184.592 777.474 192.11 785.93 200.567 794.387C204.325 784.991 208.084 775.594 211.843 766.197C211.843 765.258 212.782 764.318 212.782 763.378C211.843 762.439 210.903 763.378 209.963 763.378C203.386 765.258 195.868 767.137 188.351 766.197C184.592 766.197 181.773 767.137 178.015 767.137ZM405.414 143.198C415.751 149.776 424.208 158.233 429.846 168.569C432.665 164.811 432.665 160.112 434.544 156.354C437.363 150.716 439.242 144.138 441.122 138.5C442.061 136.62 441.122 136.62 439.242 136.62C435.484 136.62 431.725 137.56 427.966 137.56C420.449 138.5 412.932 139.439 405.414 143.198ZM718.323 896.811C707.987 891.173 698.59 885.535 688.254 878.957C692.013 891.173 689.194 903.389 686.375 914.665C698.59 910.907 707.987 904.329 718.323 896.811ZM111.298 546.316C110.359 558.531 109.419 569.807 111.298 582.962C119.755 573.566 129.152 566.988 141.368 563.229C130.092 557.591 120.695 551.954 111.298 546.316ZM111.298 529.402C121.635 523.764 131.031 518.125 141.368 512.487C129.152 508.729 119.755 501.211 111.298 492.754C109.419 505.91 110.359 517.186 111.298 529.402Z" fill="#FFF4E2"/>
<path d="M495.623 566.99C493.744 564.171 490.925 561.351 489.045 559.472C488.106 558.532 487.166 558.532 486.226 559.472C470.252 575.446 451.459 586.723 430.786 593.3C417.631 597.059 405.415 600.818 392.26 604.576C375.346 609.275 357.492 612.094 340.578 612.094C338.699 612.094 336.819 612.093 335.88 611.154C331.181 609.274 329.302 604.576 333.061 600.818C337.759 595.18 343.397 592.361 349.035 588.602C361.251 580.145 374.406 573.567 387.561 567.929C396.958 564.17 407.294 559.472 416.691 555.714C430.786 550.076 444.881 545.377 460.855 545.377C468.373 545.377 475.89 544.437 483.407 545.377C484.347 545.377 484.347 545.377 484.347 544.437V543.498C484.347 540.679 485.287 535.981 484.347 534.101C482.468 532.222 478.709 534.101 475.89 534.101C458.036 534.101 440.183 532.222 423.269 524.705C413.872 520.946 403.536 518.127 394.139 512.489C391.32 510.609 387.561 510.61 384.742 508.73C367.828 501.213 350.914 490.876 336.819 479.6C334 477.721 332.121 475.842 332.121 472.083C332.121 467.385 335.88 464.566 341.518 464.566C354.673 465.505 366.889 466.445 380.044 469.264C391.32 471.143 402.596 474.902 413.872 477.721C431.726 482.42 450.519 488.058 465.554 499.334C474.011 504.972 481.528 510.61 488.106 518.127C489.045 519.067 489.985 519.067 490.925 518.127C492.804 515.308 495.623 512.489 497.502 510.61C480.588 498.394 466.493 483.359 456.157 465.505C447.7 450.471 440.183 435.436 432.665 419.462C426.088 404.427 420.45 388.453 417.631 372.479C416.691 369.66 417.631 365.901 420.45 364.021C424.208 362.142 427.027 363.082 428.907 364.961C438.303 373.418 446.76 381.875 454.278 391.272C458.036 396.91 462.735 401.608 466.493 407.246C476.83 423.221 488.106 439.195 496.563 457.049C502.201 469.264 505.02 482.419 506.899 495.575C506.899 497.454 507.839 499.334 507.839 501.213C507.839 502.153 508.778 502.152 509.718 502.152C512.537 501.213 515.356 501.213 518.175 501.213C520.054 501.213 520.054 500.273 520.054 498.394C517.235 488.997 516.296 478.661 515.356 469.264C514.416 458.928 516.296 448.592 518.175 438.255C520.054 427.919 522.873 417.583 524.753 407.246C527.572 394.091 532.27 380.936 536.968 367.78C539.787 359.323 544.486 351.805 548.244 343.348C550.124 340.529 552.003 338.65 556.701 339.59C560.46 340.53 561.4 343.349 562.339 346.168C564.219 357.444 564.219 368.72 565.158 379.996C565.158 394.091 564.219 408.186 562.339 422.281C560.46 439.195 558.581 455.169 552.003 471.144C548.244 481.48 542.606 490.876 536.968 500.273C536.029 502.152 535.089 503.092 537.908 504.032C540.727 504.972 543.546 506.851 546.365 508.73C547.305 505.911 549.184 503.092 550.124 501.213C559.52 485.239 570.796 471.143 584.891 459.867C598.047 449.531 611.202 439.195 625.297 429.798C638.452 420.401 652.547 412.884 668.522 407.246C671.341 406.307 675.099 405.367 677.918 408.186C680.737 411.005 679.798 414.763 677.918 417.582C671.341 427.919 663.824 438.255 655.367 447.652C647.849 457.049 638.452 465.505 629.056 473.962C616.84 486.178 603.685 498.394 587.71 506.851C578.314 512.489 567.977 516.247 557.641 519.066C555.762 520.006 554.822 520.006 555.762 521.885C556.701 524.704 558.581 527.523 559.52 531.282C562.339 530.342 565.158 528.463 567.977 527.524C589.59 519.067 612.142 517.187 635.633 518.127C646.909 519.067 658.186 519.067 669.462 520.006C681.677 520.946 693.893 522.825 706.108 526.584C709.867 527.523 714.566 528.463 718.324 530.342C721.143 531.282 723.962 533.162 723.962 536.92C723.962 540.679 721.143 543.498 718.324 544.437C706.109 548.196 693.893 551.015 681.677 553.834C668.522 556.653 655.366 556.653 643.151 557.593C625.297 558.533 606.504 559.472 589.59 554.774C580.193 552.894 571.736 550.075 562.339 545.377C560.46 544.437 559.52 544.437 559.52 547.256C559.52 548.196 558.581 549.136 558.581 550.075C556.701 556.653 556.701 556.653 562.339 557.593C580.193 563.231 596.167 571.688 610.262 583.904C623.418 595.18 635.633 606.456 646.909 618.671C654.427 626.189 661.944 634.645 668.522 644.042C671.341 648.74 674.16 652.499 676.979 656.258C678.858 659.077 679.798 661.896 677.918 664.715C676.039 668.473 672.28 669.413 667.582 667.534C655.366 662.835 644.09 656.258 632.814 650.62C621.538 644.042 612.142 636.525 601.805 629.008C586.771 618.671 572.676 607.395 561.4 592.36C555.762 584.843 550.124 576.386 546.365 567.929C545.425 566.05 545.425 566.05 543.546 566.99C542.606 567.929 540.727 568.869 539.787 568.869C535.089 571.688 535.089 571.688 537.908 576.386C548.244 593.3 555.762 610.214 558.581 629.947C560.46 644.982 562.339 659.077 564.219 674.111C566.098 691.025 565.158 707.94 563.279 724.854C563.279 725.793 563.279 726.733 562.339 727.673C561.4 731.431 560.46 734.25 556.701 734.25C552.003 735.19 550.124 732.371 548.244 729.552C542.606 718.276 537.908 707 533.21 695.724C528.511 683.508 525.692 670.353 522.873 658.137C518.175 640.283 514.416 622.43 516.296 603.636C517.235 594.24 518.175 584.843 520.994 576.386C521.934 573.567 520.994 573.567 519.115 573.567C518.175 573.567 517.235 573.567 516.296 573.567C509.718 572.627 509.718 572.627 509.718 578.265C507.839 602.697 497.502 624.309 484.347 644.042C477.769 654.378 472.131 664.715 464.614 674.111C454.278 687.267 443.941 699.482 431.726 709.819C428.907 711.698 426.088 713.578 422.329 710.759C418.57 708.879 418.57 705.121 419.51 701.362C422.329 689.146 426.088 675.991 430.786 663.775C435.484 651.56 441.122 640.284 446.76 629.008C453.338 613.973 461.795 599.878 472.131 587.662C477.769 581.084 486.226 573.567 495.623 566.99ZM551.063 361.202C549.184 364.961 547.305 367.78 546.365 371.539C541.667 383.754 537.908 395.97 535.089 409.125C533.21 419.462 530.391 429.798 528.511 440.135C524.753 454.23 525.692 468.325 526.632 482.42C526.632 486.178 527.572 489.937 528.511 494.635C534.149 486.178 537.908 477.721 540.727 468.325C548.244 447.652 549.184 425.1 552.003 402.548C552.943 395.97 552.943 389.392 552.943 382.815C553.882 376.237 552.943 368.72 551.063 361.202ZM528.511 582.024C525.692 591.421 525.692 599.878 525.692 608.335C524.753 619.611 526.632 629.947 529.451 641.223C531.33 649.68 533.21 658.137 535.089 666.594C537.908 676.931 539.787 686.327 543.546 695.724C545.425 702.301 548.244 708.879 552.003 715.457C555.762 704.181 553.882 692.905 552.943 681.629C552.003 667.534 550.124 653.439 548.244 638.404C546.365 624.309 543.546 611.154 536.968 597.999C534.149 593.3 532.27 587.662 528.511 582.024ZM659.125 422.281C646.909 426.039 637.513 432.617 628.116 439.195C614.021 448.591 600.866 458.928 587.71 469.264C576.434 477.721 567.977 488.997 560.46 500.273C558.581 503.092 555.762 505.911 554.822 509.67C564.219 506.851 571.736 503.092 580.193 498.394C591.469 492.756 600.866 484.299 610.262 475.842C615.9 471.144 620.599 465.505 626.237 460.807C638.452 449.531 648.789 436.376 659.125 422.281ZM554.822 566.99C555.762 568.869 555.762 569.808 556.701 570.748C563.279 581.084 569.857 591.421 579.253 599.878C592.409 612.094 606.504 621.49 620.599 632.766C629.056 639.344 637.513 644.042 645.97 648.74C649.729 651.559 654.427 652.499 659.125 655.318C653.487 644.042 645.03 636.525 637.513 628.068C629.995 619.611 621.538 612.094 613.081 604.576C607.443 598.938 600.866 593.3 595.228 588.602C587.71 582.964 580.193 578.266 571.736 574.507C566.098 571.688 561.4 568.869 554.822 566.99ZM478.709 553.834C474.95 552.894 473.071 553.834 470.252 553.834C459.916 554.774 450.519 554.774 441.122 557.593C422.329 563.231 405.415 571.688 387.561 578.265C380.984 581.084 375.346 584.843 368.768 587.662C362.19 590.481 357.492 594.24 350.914 599.878C363.13 599.878 374.406 597.998 385.682 594.24C401.656 589.541 416.691 585.783 431.726 580.145C449.579 574.507 464.614 565.11 478.709 553.834ZM479.649 523.765C474.011 518.127 468.373 515.308 462.735 510.61C457.097 505.911 450.519 503.092 444.881 500.273C428.907 492.756 411.993 488.997 395.079 483.359C387.561 480.54 380.044 479.601 372.527 477.721C365.949 476.782 359.371 475.842 351.854 474.902C360.311 483.359 370.647 488.057 380.984 492.756C391.32 498.394 402.596 503.092 413.872 506.851C424.208 511.549 435.484 515.308 446.76 518.127C453.338 520.006 458.976 519.067 465.554 520.006C469.312 522.825 474.011 522.825 479.649 523.765ZM498.442 576.386C489.985 582.024 484.347 589.542 477.769 596.119C470.252 604.576 465.554 613.973 459.916 623.37C456.157 630.887 452.398 638.404 448.64 645.921C444.881 653.439 441.122 660.017 438.303 668.474C435.484 676.931 431.726 684.448 430.786 693.845C433.605 691.026 436.424 688.207 439.243 685.388C447.7 675.051 455.217 665.655 462.735 654.379C468.373 644.982 474.011 636.525 479.649 627.128C489.985 612.093 494.683 595.18 498.442 576.386ZM498.442 499.334C497.502 492.756 494.683 486.178 493.744 479.6C492.804 473.023 489.985 467.385 487.166 461.747C478.709 444.833 467.433 429.798 458.036 413.824C454.278 408.186 449.579 402.548 444.881 396.91C443.002 394.091 441.122 391.272 438.303 389.392C435.484 387.513 433.605 383.754 430.786 382.815C432.665 394.091 437.364 404.427 441.122 414.764C445.821 425.1 451.459 435.436 456.157 445.772C463.674 459.867 471.192 474.902 483.407 486.178C489.045 490.876 492.804 495.575 498.442 499.334ZM566.098 537.86C567.038 538.799 568.917 539.739 569.857 539.739C574.555 541.618 580.193 542.558 584.891 543.498C592.409 545.377 598.986 547.256 606.504 547.256C620.599 547.256 634.694 547.257 648.789 546.317C658.185 545.377 667.582 545.377 677.918 543.498C685.436 542.558 692.953 540.679 700.47 537.86C699.531 536.92 698.591 536.92 697.652 535.98C682.617 532.222 667.582 529.403 652.547 529.403C645.97 529.403 639.392 527.524 632.814 527.524C619.659 527.524 607.443 526.584 594.288 528.463C588.65 529.403 583.012 532.222 577.374 532.222C573.615 534.101 569.857 535.98 566.098 537.86ZM538.848 537.86C539.787 527.523 530.391 519.066 518.175 519.066C510.658 519.066 500.321 530.342 500.321 537.86C500.321 546.317 510.658 556.653 518.175 556.653C530.391 557.593 539.787 548.196 538.848 537.86Z" fill="#FFF4E2"/>
<path d="M720.203 371.536C724.901 369.657 729.599 367.778 734.298 365.898C737.117 364.959 739.936 364.019 741.815 366.838C743.694 369.657 741.815 372.476 738.996 374.355C737.117 376.235 734.298 376.235 731.479 377.174C723.961 379.993 717.384 383.752 709.866 387.51C707.047 388.45 705.168 388.45 703.289 386.571C701.409 384.692 700.47 382.812 702.349 379.993C709.866 371.536 714.565 362.14 721.142 353.683C722.082 351.803 723.961 350.864 726.78 350.864C728.66 350.864 729.599 351.803 730.539 353.683C731.479 355.562 730.539 357.441 729.599 359.32C725.841 362.139 723.022 365.898 720.203 371.536C720.203 370.596 720.203 370.596 720.203 371.536Z" fill="#FFF4E2"/>
<path d="M719.263 706.059C722.082 709.818 724.901 714.516 727.72 718.275C730.539 722.033 730.539 724.853 728.659 726.732C725.84 728.611 723.961 727.671 721.142 723.912C716.444 718.274 714.564 711.697 709.866 706.059C707.987 703.24 705.168 700.421 703.288 697.602C701.409 695.723 702.349 692.903 704.228 691.024C706.107 689.145 707.987 687.266 709.866 689.145C718.323 693.844 727.72 697.602 737.116 701.361C738.056 701.361 738.996 702.3 739.935 702.3C742.754 704.18 744.634 706.059 742.754 708.878C740.875 711.697 738.056 711.697 735.237 709.817C729.599 708.878 724.901 707.938 719.263 706.059Z" fill="#FFF4E2"/>
<path d="M565.159 283.209C567.978 277.571 569.857 273.812 571.736 269.114C572.676 268.174 572.676 267.235 573.616 266.295C574.555 264.416 576.435 263.476 579.254 264.416C581.133 265.355 582.073 267.234 582.073 270.053C581.133 273.812 579.254 277.571 577.374 280.39C573.616 286.028 570.797 293.545 567.978 300.123C567.038 302.942 565.159 304.821 561.4 303.882C557.642 302.942 556.702 301.062 556.702 298.243C555.762 288.847 555.762 280.39 553.883 271.933C553.883 270.053 553.883 268.174 553.883 267.234C553.883 264.415 555.762 261.597 558.581 261.597C561.4 261.597 563.279 263.476 563.279 266.295C564.219 270.993 565.159 276.631 565.159 283.209Z" fill="#FFF4E2"/>
<path d="M565.159 794.388C564.219 800.026 564.219 804.724 563.279 810.362C563.279 813.181 562.34 816.001 558.581 816.001C554.822 816.001 553.883 813.181 553.883 810.362C553.883 805.664 554.822 801.906 555.762 797.207C556.702 790.63 556.702 784.052 556.702 778.414C556.702 775.595 558.581 773.716 560.46 773.716C563.279 772.776 565.159 773.716 567.038 776.535C570.797 785.931 575.495 795.328 580.194 803.785C581.133 804.724 581.133 805.664 581.133 806.604C582.073 809.423 581.133 812.242 578.314 813.181C575.495 814.121 573.616 812.242 572.676 810.362C570.797 805.664 567.978 801.906 566.099 797.207C567.038 795.328 566.098 794.388 565.159 794.388Z" fill="#FFF4E2"/>
<path d="M391.318 313.279C390.379 307.641 388.499 302.942 387.56 297.304C386.62 294.485 387.56 291.666 390.379 290.726C393.198 289.787 396.017 291.666 396.956 294.485C398.836 299.184 399.775 304.821 400.715 310.459C401.655 315.157 403.534 319.856 405.413 325.494C406.353 328.313 406.353 331.132 403.534 332.072C400.715 333.951 397.896 333.951 396.017 331.132C389.439 322.675 380.982 316.098 373.465 308.58C372.525 307.641 371.585 305.761 371.585 303.882C371.585 302.003 372.525 301.063 374.404 300.123C376.284 299.183 378.163 301.063 380.042 302.002C382.861 305.761 386.62 309.52 391.318 313.279C390.379 313.279 390.379 313.279 391.318 313.279Z" fill="#FFF4E2"/>
<path d="M391.319 762.44C386.62 766.199 382.862 769.957 379.103 773.716C378.163 774.656 378.163 775.595 377.224 775.595C375.344 776.535 373.465 777.474 371.586 775.595C369.706 773.716 369.707 771.837 370.646 769.957C372.526 767.138 374.405 764.319 377.224 762.44C382.862 757.742 388.5 752.104 393.198 746.466C395.077 743.647 397.897 742.707 400.716 744.586C403.535 746.465 403.534 749.284 402.595 752.103C399.776 760.56 396.957 769.018 396.017 778.414C396.017 780.294 395.078 782.173 394.138 783.113C393.198 785.932 391.319 786.871 388.5 785.932C385.681 784.992 385.681 782.173 385.681 779.354C388.5 773.716 389.439 768.078 391.319 762.44Z" fill="#FFF4E2"/>
<path d="M275.74 627.127C270.102 627.127 265.403 628.067 259.765 628.067C256.946 628.067 254.127 628.067 253.188 624.308C252.248 621.489 255.067 619.61 257.886 618.67C261.645 617.731 265.403 617.73 269.162 617.73C275.74 617.73 282.317 616.79 288.895 615.851C291.714 614.911 295.473 614.911 296.412 619.61C297.352 623.368 296.412 625.248 293.593 627.127C286.076 631.825 279.498 636.524 272.921 642.162C271.981 643.102 270.102 644.041 268.222 644.981C265.403 645.921 262.584 646.86 260.705 644.041C258.826 641.222 260.705 638.403 263.524 637.464C268.222 633.705 271.981 629.946 275.74 627.127Z" fill="#FFF4E2"/>
<path d="M275.74 449.53C271.042 446.711 268.223 442.012 263.524 440.133C259.766 438.254 258.826 435.434 260.705 432.615C262.585 429.796 265.404 430.736 268.223 431.676C271.042 432.615 272.921 434.495 274.8 436.374C280.438 441.072 287.016 445.771 293.594 449.53C296.413 451.409 297.352 453.288 296.413 456.107C295.473 458.926 293.594 460.805 289.835 459.866C284.197 458.926 279.499 457.986 273.861 457.986C270.102 457.986 265.404 457.986 261.645 457.986C260.705 457.986 259.766 457.986 258.826 457.986C255.067 457.047 252.248 455.167 253.188 452.348C254.128 448.59 256.947 448.59 259.766 448.59C265.404 449.529 271.042 449.53 275.74 449.53Z" fill="#FFF4E2"/>
<path d="M780.341 538.798C785.039 540.677 789.738 541.617 795.376 543.496C799.135 544.436 801.014 546.315 801.014 549.134C801.014 551.953 797.255 553.832 794.436 552.893C791.617 551.953 788.798 551.953 786.919 551.013C779.402 548.194 771.884 546.315 764.367 544.435C761.548 543.496 759.668 541.617 759.668 538.798C759.668 535.979 760.608 534.099 763.427 533.159C773.764 531.28 783.16 527.522 793.496 524.703C794.436 524.703 794.436 524.703 795.376 524.703C798.195 524.703 801.014 525.642 801.014 528.461C801.954 531.28 799.135 533.16 796.316 534.099C790.678 534.099 785.979 536.918 780.341 538.798Z" fill="#FFF4E2"/>
<path d="M289.836 344.288C284.198 334.891 281.379 324.555 275.741 316.098C273.862 313.279 274.801 309.52 277.62 308.58C280.439 307.641 282.319 308.58 284.198 311.399C288.896 318.917 291.715 327.373 295.474 335.83C297.353 340.529 300.172 344.288 302.052 348.986C302.991 350.865 302.991 352.744 301.112 354.624C299.233 356.503 298.293 357.443 295.474 356.503C282.319 351.805 269.163 349.925 256.008 345.227C252.249 344.287 251.31 341.468 252.249 338.649C253.189 335.83 256.948 334.891 259.767 335.83C266.344 338.649 272.922 338.65 279.5 341.469C282.319 342.408 285.138 343.348 289.836 344.288Z" fill="#FFF4E2"/>
<path d="M289.836 732.368C279.5 736.127 269.163 737.067 259.767 740.826C256.948 741.765 253.189 740.825 252.249 738.006C251.31 735.187 252.249 733.308 256.008 731.429C264.465 728.61 272.922 727.67 281.379 724.851C286.077 722.972 290.776 722.032 295.474 720.153C298.293 719.213 300.172 720.153 301.112 722.032C302.991 723.912 302.991 725.791 302.052 727.67C295.474 739.886 290.776 753.041 284.198 765.257C282.319 768.076 280.439 769.015 277.62 768.076C275.741 767.136 273.862 763.377 275.741 760.558C279.5 753.981 282.319 746.463 285.138 739.886C286.077 738.006 287.957 735.187 289.836 732.368Z" fill="#FFF4E2"/>
<path d="M799.136 632.764C808.532 632.764 818.869 631.824 829.205 629.945C831.085 629.945 833.903 629.945 835.783 629.945C838.602 629.945 840.481 631.824 840.481 634.643C840.481 637.462 837.662 640.281 834.843 639.341C828.266 638.402 822.628 640.282 816.05 640.282C813.231 640.282 809.472 641.221 806.653 641.221C805.714 641.221 804.774 641.221 804.774 642.161C803.834 643.101 805.714 644.04 805.714 644.04C810.412 649.678 816.05 654.376 820.748 660.014C822.628 661.894 823.567 662.834 825.447 663.773C828.266 665.653 828.265 669.411 826.386 671.29C823.567 674.109 821.688 673.17 818.869 671.29C813.231 666.592 809.472 660.954 803.834 656.256C799.136 651.558 795.377 647.798 790.679 644.04C787.86 642.16 786.92 640.281 787.86 636.523C788.8 632.764 791.618 632.764 794.437 632.764C797.256 632.764 798.196 632.764 799.136 632.764Z" fill="#FFF4E2"/>
<path d="M832.022 438.252C832.962 438.252 833.902 437.312 834.841 437.312C837.66 437.312 840.479 439.191 840.479 442.01C840.479 444.829 838.6 446.709 835.781 446.709C829.203 446.709 822.626 445.77 816.048 444.83C809.47 443.89 801.953 443.89 795.375 443.89C792.556 443.89 789.737 442.951 788.797 440.132C787.858 437.313 788.798 435.433 790.677 432.614C801.013 424.157 809.47 413.821 818.867 405.364C821.686 402.545 824.505 402.545 826.384 405.364C828.263 407.243 827.324 411.002 824.505 412.881C816.988 418.519 811.35 426.976 803.832 432.614C803.832 432.614 802.893 433.554 803.832 433.554C803.832 434.493 804.772 434.493 805.712 434.493C812.289 434.493 819.806 435.433 826.384 436.373C829.203 437.312 831.083 437.312 832.022 438.252Z" fill="#FFF4E2"/>
<path d="M470.25 255.957C467.431 255.957 466.492 255.956 465.552 254.077C458.974 241.861 449.578 231.526 442.06 219.31C440.181 216.491 440.181 214.611 443 212.732C444.879 210.853 448.638 211.793 450.517 214.612C455.216 223.069 462.733 230.586 467.431 239.043C467.431 239.982 468.371 239.982 468.371 239.982C469.311 239.982 469.311 239.043 469.311 238.103C471.19 230.586 473.069 223.068 475.888 215.551C476.828 213.672 476.828 211.793 476.828 209.913C477.768 207.094 479.647 205.215 483.406 205.215C486.225 206.155 487.164 208.033 487.164 211.792C485.285 220.249 482.466 228.706 480.587 237.163C479.647 241.862 478.707 246.56 477.768 251.258C474.949 255.017 473.069 255.957 470.25 255.957Z" fill="#FFF4E2"/>
<path d="M467.431 835.732C462.733 845.128 455.216 851.706 450.517 861.103C448.638 863.922 445.819 865.801 443 863.922C440.181 862.042 440.181 860.163 442.06 856.405C445.819 849.827 450.517 845.128 454.276 838.551C458.035 833.852 461.793 828.214 464.612 822.576C466.492 819.757 468.371 819.757 471.19 819.757C474.009 819.757 474.949 821.637 475.888 823.516C477.768 836.672 483.406 849.827 486.225 862.982C487.164 865.801 486.225 868.62 483.406 868.62C480.587 869.56 477.768 867.68 476.828 864.861C475.888 855.465 472.13 847.008 469.311 837.611C468.371 838.551 469.311 837.611 467.431 835.732Z" fill="#FFF4E2"/>
<path d="M672.279 276.629C680.736 270.051 689.194 265.353 697.651 258.775C700.47 255.956 703.288 255.956 705.168 258.775C707.047 260.655 706.107 263.474 703.288 266.293C697.65 270.991 692.013 274.75 685.435 278.509C679.797 282.267 675.098 286.026 670.4 289.785C668.521 291.664 666.642 291.664 663.823 290.724C661.943 289.785 660.064 287.905 661.003 285.086C661.943 275.69 663.823 265.353 663.823 255.956C663.823 252.198 663.823 247.499 664.762 243.741C665.702 240.922 667.581 239.042 670.4 239.042C673.219 239.982 675.099 242.801 674.159 245.62C672.28 251.258 673.219 257.836 672.279 264.414C672.279 267.233 671.34 271.931 672.279 276.629Z" fill="#FFF4E2"/>
<path d="M218.421 537.858C208.084 534.099 199.627 528.462 189.291 524.703C186.472 523.763 184.593 520.944 185.532 518.125C186.472 515.306 189.291 514.366 193.05 516.246C200.567 519.065 207.145 522.823 213.722 526.582C219.36 529.401 224.059 531.28 229.697 533.16C232.516 534.099 233.455 535.979 233.455 538.798C233.455 541.617 232.516 543.496 230.636 544.436C217.481 549.134 206.205 555.712 193.989 561.35C190.231 563.229 187.412 562.289 186.472 559.47C185.532 556.651 187.412 552.893 191.17 551.953C196.808 550.074 201.507 546.315 207.145 544.436C210.903 541.617 214.662 540.677 218.421 537.858Z" fill="#FFF4E2"/>
<path d="M671.34 800.027C671.34 805.665 672.28 810.364 672.28 814.122C673.219 819.76 672.28 826.338 674.159 831.976C675.099 834.795 673.219 836.674 669.461 837.614C666.642 837.614 664.762 835.735 663.823 832.916C662.883 827.278 662.883 821.639 661.943 815.062C661.943 807.544 660.064 800.027 659.124 792.51C659.124 789.691 659.124 787.812 661.943 785.932C664.762 784.053 666.642 784.992 669.461 786.872C679.797 795.329 691.073 801.906 702.349 810.363C705.168 812.243 705.168 815.062 703.289 817.881C701.409 820.7 698.59 820.7 695.771 817.881C690.133 813.182 683.556 809.424 677.918 805.665C676.978 803.786 675.099 801.907 671.34 800.027Z" fill="#FFF4E2"/>
</svg>
