<svg width="1103" height="607" viewBox="0 0 1103 607" fill="none" xmlns="http://www.w3.org/2000/svg">
<path d="M1063.52 194C1067.47 196.752 1088.82 228.707 1088.9 233.408C1084.68 236.502 1074.71 234.886 1069.26 234.479C1064.01 234.221 1046.89 233.851 1044.49 231.173C1040.68 226.915 1060.19 197.334 1063.52 194Z" fill="#1E3656"/>
<path d="M1064.56 202.468C1070.65 211.426 1076.65 220.634 1082.64 229.666L1067.42 229.417L1050.41 228.124C1054.6 219.988 1059.56 209.93 1064.56 202.468Z" fill="#209996"/>
<path d="M610.579 149.722C612.962 147.997 616.315 147.277 619.17 148.061C618.274 152.253 617.368 157.158 616.269 161.241L610.579 149.722Z" fill="#FBF7EF"/>
<path d="M810.251 573.442C817.327 573.156 823.47 575.594 827.109 581.911C828.984 585.125 829.418 588.986 828.301 592.541C826.758 597.362 823.063 598.997 818.906 601.204C812.403 601.731 802.723 600.659 801.522 592.477C800.377 584.636 805.928 579.399 810.251 573.442Z" fill="#1E3656"/>
<path d="M809.568 579.066C820.486 580.452 828.532 588.163 817.392 596.789C803.961 596.983 800.746 588.754 809.568 579.066Z" fill="#B53F44"/>
<path d="M336.81 579.926C356.929 589.836 328.257 613.331 316.846 595.22C309.632 583.768 327.722 563.561 336.584 579.575L336.81 579.926Z" fill="#1E3656"/>
<path d="M336.583 579.572L336.809 579.923C342.733 591.929 336.168 601.128 323.466 593.481C319.481 591.089 321.765 584.356 325.002 581.761C328.906 578.63 331.715 579.138 336.583 579.572Z" fill="#C33E3F"/>
<path d="M931.708 121.587C938.479 109.147 951.346 119.98 953.406 129.853C955.743 141.111 939.218 147.548 931.717 142.118C921.307 135.847 924.346 128.348 931.708 121.587Z" fill="#B53F44"/>
<path d="M931.708 121.587C938.479 109.147 951.346 119.98 953.406 129.853C955.743 141.111 939.218 147.548 931.717 142.118C931.606 140.548 930.331 138.433 929.75 136.696C936.89 140.28 948.372 140.224 946.543 129.881C946.109 127.369 944.64 125.152 942.488 123.785C938.959 121.523 935.929 121.809 932.133 122.474L931.708 121.587Z" fill="#1E3656"/>
<path d="M931.717 142.116C921.307 135.846 924.346 128.346 931.708 121.586L932.133 122.473C928.853 128.836 928.392 129.649 929.75 136.695C930.331 138.432 931.606 140.546 931.717 142.116Z" fill="#292C47"/>
<path d="M1095.61 339.556C1104.04 343.638 1104.64 352.994 1097.21 358.369C1093.85 360.817 1089.63 361.749 1085.56 360.946C1058.94 355.672 1085.26 318.573 1095.3 339.178L1095.61 339.556Z" fill="#1E3656"/>
<path d="M1095.3 339.178L1095.61 339.557C1098.15 344.452 1099.63 348.488 1096.75 353.595C1090.91 358.915 1081.28 354.629 1080.13 346.899C1081.64 339.945 1089.34 338.8 1095.3 339.178Z" fill="#B53F44"/>
<path d="M780.612 4.50879L782.413 6.39008C782.413 10.3937 782.219 13.5947 781.905 17.5909C795.161 17.5216 796.509 19.0935 800.694 31.4626C805.442 33.2636 811.917 35.6657 813.413 40.8727L811.843 42.6385C808.194 42.8048 805.137 39.987 800.934 38.8474C800.897 43.768 801.858 49.5273 796.269 50.6744C790.939 46.7169 793.794 35.2104 790.764 29.3828C788.399 24.8214 781.49 24.8713 776.317 23.3437C772.178 17.1744 775.282 8.964 780.612 4.50879Z" fill="#1E3656"/>
<path d="M557.493 590.039C558.86 590.372 560.31 591.166 561.594 591.775C565.797 596.993 563.257 601.731 559.839 606.404C557.871 606.672 557.373 606.552 555.47 606.331L554.195 604.677C553.391 600.531 555.987 594.167 557.493 590.039Z" fill="#1E3656"/>
<path d="M791.078 0.0164178C796.186 -0.076861 798.809 0.056141 800.343 5.19293C799.899 8.33393 798.717 9.15591 796.546 11.377C791.937 10.3159 789 10.3085 786.875 5.85144C788.039 2.12121 787.974 2.99672 791.078 0.0164178Z" fill="#1E3656"/>
<path d="M211.92 557.005C214.12 557.651 213.125 557.116 214.877 558.88C215.41 566.36 204.181 574.46 198.411 577.545C205.265 580.999 221.332 594.797 213.198 602.102C203.097 600.31 197.488 566.85 171.561 592.949C169.27 595.452 169.222 596.394 166.363 596.967C163.776 589.394 175.685 580.989 181.208 577.729C179.77 576.972 178.356 576.169 176.968 575.328C171.806 572.142 163.208 565.428 167.919 559.037C178.632 559.083 184.695 591.287 211.92 557.005Z" fill="#1E3656"/>
<path d="M188.161 589.247C195.795 592.941 195.122 597.245 190.619 603.1C182.418 599.72 183.454 595.176 188.161 589.247Z" fill="#1E3656"/>
<path d="M188.229 555C192.225 555.84 192.737 556.302 194.563 559.692C194.921 563.136 193.966 564.697 192.633 567.819C189.057 567.283 188.298 566.295 186.602 563.441C186.11 559.581 186.757 558.583 188.229 555Z" fill="#1E3656"/>
<path d="M572.723 94.1865C578.866 94.6945 582.025 102.342 587.318 105.99C604.222 117.654 613.783 96.4586 619.806 95.4334L620.923 96.634C623.066 105.121 613.173 111.346 606.966 114.874C613.238 118.337 622.992 125.43 622.198 133.668L620.766 134.61L618.771 132.874C589.387 97.9454 583.171 146.7 572.012 137.64C571.587 129.291 582.386 118.679 589.046 114.597C582.773 111.032 572.28 102.111 572.723 94.1865Z" fill="#1E3656"/>
<path d="M597.664 126.244C605.534 129.172 604.61 134.196 600.721 139.996C591.807 137.816 593.369 132.22 597.664 126.244Z" fill="#1E3656"/>
<path d="M595.428 92C598.901 92.7204 600.074 93.3299 601.515 96.6455C601.765 100.21 601.09 101.171 599.585 104.293L596.934 104.237C591.447 100.857 593.146 97.1257 595.428 92Z" fill="#1E3656"/>
<path d="M23.0395 2L25.6822 2.70191C30.6999 6.95024 46.588 32.5511 44.25 38.5911C39.0827 41.2509 25.6979 41.2509 19.5755 41.4818C14.5708 41.9436 2.87555 44.0585 0 39.8194C1.11863 33.0959 18.1677 9.69318 23.0395 2Z" fill="#1E3656"/>
<path d="M23.4035 9.72266C25.5788 11.3666 35.9957 30.872 38.729 35.3235C33.5016 35.8684 26.7954 36.0532 21.4341 36.3487L6.00146 36.4595C11.9576 27.6489 17.7595 18.7365 23.4035 9.72266Z" fill="#209996"/>
<mask id="path-24-inside-1_289_7711" fill="white">
<path d="M687.602 75.3366C690.322 75.5327 709.673 86.2334 714.388 88.4819C710.298 91.7826 704.771 95.5857 700.433 98.75L687.544 107.238C687.749 96.6048 687.77 85.9703 687.602 75.3366Z"/>
</mask>
<path d="M687.602 75.3366C690.322 75.5327 709.673 86.2334 714.388 88.4819C710.298 91.7826 704.771 95.5857 700.433 98.75L687.544 107.238C687.749 96.6048 687.77 85.9703 687.602 75.3366Z" fill="#209996"/>
<path d="M687.854 71.8457C687.686 74.173 687.518 76.5003 687.35 78.8276C687.046 78.7924 687.139 78.784 687.212 78.8055C687.312 78.8298 687.419 78.8597 687.574 78.91C687.846 78.9971 688.178 79.1185 688.511 79.2473C689.164 79.4998 689.885 79.8056 690.564 80.1014C698.062 83.4324 705.419 87.3416 713.179 91.0172L712.624 86.2962C708.338 89.9028 703.637 93.2695 699.014 96.8048L699.109 96.7391C694.878 99.6678 690.647 102.596 686.416 105.525L689.594 107.277C689.56 98.1961 689.391 89.1183 689.086 80.0481C689.033 78.4705 688.976 76.8931 688.914 75.316C688.04 75.3297 687.165 75.3435 686.29 75.3573C686.278 76.931 686.262 78.5046 686.242 80.078C686.128 89.1242 685.878 98.1656 685.494 107.198C685.493 109.061 687.136 110.004 688.672 108.951C693.034 106.221 697.396 103.491 701.758 100.761C701.777 100.748 701.834 100.709 701.852 100.695C706.56 97.426 711.422 94.284 716.152 90.6677C717.92 89.1776 717.705 86.8973 715.597 85.9467C708.392 82.1167 701.092 77.7956 693.426 73.9541C692.711 73.6012 691.94 73.2313 691.161 72.8868C690.762 72.7106 690.343 72.5335 689.903 72.3668C689.642 72.2699 689.455 72.2009 689.128 72.1014C688.972 72.0545 688.824 72.0132 688.642 71.9706C688.415 71.9193 688.173 71.8719 687.854 71.8457ZM687.35 78.8276L687.854 71.8457C686.251 71.7673 686.227 73.7535 686.29 75.3573L688.914 75.316L687.35 78.8276Z" fill="#1C1C35" mask="url(#path-24-inside-1_289_7711)"/>
<path d="M544.959 499.712C544.959 499.712 536.209 495.899 537.835 487.129C539.461 478.358 550.616 478.988 550.616 478.988C550.616 478.988 539.149 475.377 540.11 465.016C540.697 454.502 557.04 452.653 557.04 452.653C557.04 452.653 540.401 445.6 543.589 430.887C546.778 416.173 563.947 423.004 563.947 423.004" stroke="#1C1C35" stroke-width="3.44576" stroke-miterlimit="10" stroke-linecap="round" stroke-linejoin="round"/>
</svg>
