<svg width="195" height="232" viewBox="0 0 195 232" fill="none" xmlns="http://www.w3.org/2000/svg">
<path d="M97.2891 8.91016C105.217 8.91032 111.625 15.3182 111.625 23.2461V38.082C111.625 39.6655 112.934 40.9746 114.518 40.9746C116.101 40.9745 117.409 39.6655 117.409 38.082C117.409 30.154 123.818 23.7451 131.746 23.7451C139.674 23.7451 146.083 30.154 146.083 38.082V112.321C146.083 113.237 146.506 114.094 147.264 114.676L147.42 114.789L147.428 114.794L147.436 114.8C147.793 115.046 148.293 115.213 148.975 115.213C149.389 115.213 149.824 115.12 150.179 114.972C154.234 113.188 158.769 112.281 163.392 112.281C170.683 112.281 177.723 114.428 183.313 118.421L187.951 121.733L182.646 123.812C178.668 125.371 174.484 128.059 171.45 132.87C168.44 137.653 164.502 147.054 161.016 156.222C157.61 165.177 154.753 173.587 153.799 176.474C153.778 176.556 153.758 176.638 153.737 176.721C153.713 176.816 153.689 176.912 153.665 177.008C148.439 203.737 124.683 223.09 97.4082 223.09C70.2466 223.09 46.4997 203.851 40.9736 177.256C40.9688 177.236 40.965 177.217 40.9609 177.2C40.9519 177.163 40.9454 177.139 40.9385 177.11C40.933 177.088 40.9286 177.07 40.9248 177.055L40.8857 176.978L40.8164 176.769C40.2235 174.99 37.3822 166.539 33.8662 157.232C30.4206 148.112 26.4503 138.509 23.3643 133.412L23.0684 132.933C20.0292 128.112 15.9009 125.429 11.8857 123.877L6.50488 121.797L11.2178 118.471C16.8536 114.492 23.825 112.342 31.126 112.342C35.4762 112.342 39.8072 113.143 43.6904 114.73L44.4609 115.059L44.4824 115.068L44.5049 115.078C44.9015 115.261 45.2391 115.333 45.6025 115.333C46.0711 115.333 46.6392 115.185 47.2383 114.85C48.0425 114.268 48.4951 113.385 48.4951 112.44V38.1416C48.4954 30.2138 54.9033 23.8059 62.8311 23.8057C70.759 23.8057 77.1677 30.2137 77.168 38.1416C77.168 39.7251 78.477 41.0342 80.0605 41.0342C81.6439 41.0339 82.9521 39.725 82.9521 38.1416V23.2461C82.9524 15.3181 89.361 8.91016 97.2891 8.91016Z" fill="#0072A3" stroke="#FFF4E2" stroke-width="6.18048"/>
<path fill-rule="evenodd" clip-rule="evenodd" d="M79.1595 100.836C72.6804 105.343 69.7695 102.995 64.1355 102.995C63.3048 102.995 62.5067 103.318 61.9106 103.897C61.3145 104.476 60.9674 105.264 60.9429 106.094C60.9429 110.695 67.422 110.977 71.9292 110.789C100.099 109.662 96.0614 74.9193 69.3 78.2997L68.1732 68.2524C68.1732 64.872 83.385 63.6513 85.4508 63.3696C85.8022 63.4559 86.1672 63.4722 86.5249 63.4174C86.8826 63.3627 87.2261 63.238 87.5356 63.0506C87.8451 62.8631 88.1147 62.6165 88.329 62.3248C88.5432 62.0332 88.6979 61.7022 88.7842 61.3508C88.8705 60.9993 88.8868 60.6343 88.832 60.2766C88.7773 59.9189 88.6526 59.5755 88.4652 59.2659C88.2777 58.9564 88.0311 58.6868 87.7394 58.4726C87.4478 58.2583 87.1168 58.1036 86.7654 58.0173C79.3421 57.0081 71.7857 57.7477 64.6989 60.177C62.781 61.3505 61.2508 63.0625 60.2991 65.0996C59.3473 67.1367 59.0161 69.4088 59.3466 71.6328V83.1825C59.3466 87.2201 61.1307 90.3188 65.1684 90.6944C67.1403 90.6944 66.1074 90.6944 73.6194 88.5347C82.8216 89.192 84.0423 97.4552 79.1595 100.836Z" fill="#FFF4E2"/>
<path fill-rule="evenodd" clip-rule="evenodd" d="M113.524 57.5479C106.643 61.0339 101.208 66.8291 98.169 73.919C95.1305 81.0089 94.6826 88.9416 96.9037 96.3285C98.4923 100.758 101.438 104.572 105.322 107.229C109.206 109.886 113.829 111.249 118.533 111.124C123.237 110.999 127.781 109.393 131.518 106.534C135.255 103.675 137.995 99.7089 139.346 95.2017C148.549 71.7267 128.266 52.2895 113.524 57.5479ZM130.614 91.4457C129.759 93.849 128.284 95.9835 126.338 97.6327C124.392 99.2818 122.044 100.387 119.534 100.836C117.826 101.072 116.089 100.952 114.43 100.484C112.772 100.016 111.228 99.2099 109.896 98.1163C108.565 97.0226 107.474 95.6651 106.692 94.1293C105.91 92.5935 105.455 90.9125 105.355 89.1921C104.448 84.3313 104.988 79.3113 106.907 74.7545C108.827 70.1976 112.042 66.3044 116.153 63.5575C125.074 59.8015 139.534 73.8864 130.614 91.4457Z" fill="#FFF4E2"/>
<path fill-rule="evenodd" clip-rule="evenodd" d="M119.855 132.154L111.277 138.944C99.3518 147.873 88.7269 158.418 79.708 170.275C81.2567 168.369 62.3151 192.791 67.795 194.101C69.2698 193.851 70.6843 193.326 71.9646 192.552C71.1307 193.267 75.6576 189.574 95.7905 169.68C105.321 160.149 128.67 133.941 129.147 133.941C129.623 133.941 129.861 123.457 119.855 132.154Z" fill="#FFF4E2"/>
<path fill-rule="evenodd" clip-rule="evenodd" d="M95.0764 181.593C90.6686 196.246 113.541 204.347 124.501 189.932C140.703 168.608 103.892 152.287 95.0764 181.593ZM116.162 183.023C115.076 184.439 113.527 185.43 111.786 185.822C110.044 186.213 108.22 185.982 106.632 185.167C104.845 184.333 105.56 182.546 106.632 181.117C111.874 169.799 122 176.828 116.162 183.023Z" fill="#FFF4E2"/>
<path fill-rule="evenodd" clip-rule="evenodd" d="M63.6282 136.442C59.2204 151.095 82.2123 159.315 93.0531 144.9C109.255 123.457 72.5629 107.255 63.6282 136.442ZM84.7141 137.871C83.616 139.271 82.0755 140.257 80.3444 140.668C78.6134 141.08 76.794 140.891 75.1837 140.135C73.3968 139.301 74.1116 137.514 75.1837 135.965C80.4254 124.767 90.5514 131.677 84.7141 137.871Z" fill="#FFF4E2"/>
</svg>
