<svg width="1440" height="1" viewBox="0 0 1440 1" fill="none" xmlns="http://www.w3.org/2000/svg">
<mask id="path-1-inside-1_427_23" fill="white">
<path d="M0 0H1440V1H0V0Z"/>
</mask>
<path d="M1440 0V-0.5H1410V0V0.5H1440V0ZM1350 0V-0.5H1290V0V0.5H1350V0ZM1230 0V-0.5H1170V0V0.5H1230V0ZM1110 0V-0.5H1050V0V0.5H1110V0ZM990 0V-0.5H930V0V0.5H990V0ZM870 0V-0.5H810V0V0.5H870V0ZM750 0V-0.5H690V0V0.5H750V0ZM630 0V-0.5H570V0V0.5H630V0ZM510 0V-0.5H450V0V0.5H510V0ZM390 0V-0.5H330V0V0.5H390V0ZM270 0V-0.5H210V0V0.5H270V0ZM150 0V-0.5H90V0V0.5H150V0ZM30 0V-0.5H0V0V0.5H30V0ZM1440 0V-1H1410V0V1H1440V0ZM1350 0V-1H1290V0V1H1350V0ZM1230 0V-1H1170V0V1H1230V0ZM1110 0V-1H1050V0V1H1110V0ZM990 0V-1H930V0V1H990V0ZM870 0V-1H810V0V1H870V0ZM750 0V-1H690V0V1H750V0ZM630 0V-1H570V0V1H630V0ZM510 0V-1H450V0V1H510V0ZM390 0V-1H330V0V1H390V0ZM270 0V-1H210V0V1H270V0ZM150 0V-1H90V0V1H150V0ZM30 0V-1H0V0V1H30V0Z" fill="#18466F" mask="url(#path-1-inside-1_427_23)"/>
</svg>
