<svg width="456" height="225" viewBox="0 0 456 225" fill="none" xmlns="http://www.w3.org/2000/svg">
<path d="M440.994 104.835C444.405 105.691 452.83 113.405 455.24 116.149C452.108 121.075 447.681 125.327 443.128 128.933C439.306 129.025 430.913 119.384 429.189 116.145C432.876 111.966 436.766 108.439 440.994 104.835Z" fill="#1E3656"/>
<path d="M11.8046 100.511C15.216 101.367 23.6407 109.081 26.0503 111.825C22.9187 116.751 18.492 121.003 13.939 124.609C10.1169 124.701 1.72375 115.06 0 111.82C3.68667 107.641 7.57641 104.115 11.8046 100.511Z" fill="#1E3656"/>
<path d="M441.251 107.064C443.254 107.497 449.572 113.867 451.467 115.682C448.286 119.674 446.169 122.056 442.329 125.35C439.292 122.938 435.06 118.785 432.077 116.054C435.272 112.659 437.799 110.197 441.251 107.064Z" fill="#C33E3F"/>
<path d="M12.0617 102.74C14.0652 103.173 20.3827 109.543 22.2779 111.357C19.0966 115.35 16.9803 117.731 13.1402 121.026C10.1033 118.614 5.87067 114.461 2.88794 111.73C6.08275 108.335 8.6097 105.873 12.0617 102.74Z" fill="#C33E3F"/>
<path d="M125.85 122.133L127.141 122.476C129.592 124.551 137.353 137.057 136.211 140.008C133.687 141.307 127.148 141.307 124.157 141.42C121.713 141.646 115.999 142.679 114.595 140.608C115.141 137.323 123.47 125.891 125.85 122.133Z" fill="#1E3656"/>
<path d="M289.093 204.295L290.384 204.638C292.835 206.713 300.596 219.219 299.454 222.17C296.93 223.469 290.391 223.469 287.401 223.582C284.956 223.808 279.243 224.841 277.838 222.77C278.384 219.485 286.713 208.053 289.093 204.295Z" fill="#1E3656"/>
<path d="M197.606 5.69826L198.876 5.28371C202.061 5.69179 215.377 11.9639 216.024 15.061C214.612 17.5244 209.126 21.0811 206.678 22.8027C204.749 24.3219 200.517 28.2966 198.212 27.3231C196.884 24.2698 197.653 10.1463 197.606 5.69826Z" fill="#1E3656"/>
<path d="M126.028 125.905C127.091 126.708 132.179 136.236 133.515 138.411C130.961 138.677 127.685 138.767 125.066 138.912L117.527 138.966C120.437 134.662 123.271 130.308 126.028 125.905Z" fill="#209996"/>
<path d="M289.271 208.067C290.334 208.87 295.423 218.398 296.758 220.573C294.204 220.839 290.928 220.93 288.309 221.074L280.77 221.128C283.68 216.824 286.514 212.47 289.271 208.067Z" fill="#209996"/>
<path d="M199.807 8.76637C201.136 8.86217 210.589 14.0895 212.892 15.1879C210.894 16.8004 208.195 18.6582 206.076 20.204L199.779 24.3503C199.879 19.156 199.889 13.961 199.807 8.76637Z" fill="#209996"/>
</svg>
